<?xml version="1.0" encoding="utf-8" standalone="no"?>
<!DOCTYPE svg PUBLIC "-//W3C//DTD SVG 1.1//EN"
  "http://www.w3.org/Graphics/SVG/1.1/DTD/svg11.dtd">
<svg xmlns:xlink="http://www.w3.org/1999/xlink" width="1903.41pt" height="1505.213086pt" viewBox="0 0 1903.41 1505.213086" xmlns="http://www.w3.org/2000/svg" version="1.1">
 <metadata>
  <rdf:RDF xmlns:dc="http://purl.org/dc/elements/1.1/" xmlns:cc="http://creativecommons.org/ns#" xmlns:rdf="http://www.w3.org/1999/02/22-rdf-syntax-ns#">
   <cc:Work>
    <dc:type rdf:resource="http://purl.org/dc/dcmitype/StillImage"/>
    <dc:date>2024-03-03T17:41:37.499962</dc:date>
    <dc:format>image/svg+xml</dc:format>
    <dc:creator>
     <cc:Agent>
      <dc:title>Matplotlib v3.8.2, https://matplotlib.org/</dc:title>
     </cc:Agent>
    </dc:creator>
   </cc:Work>
  </rdf:RDF>
 </metadata>
 <defs>
  <style type="text/css">*{stroke-linejoin: round; stroke-linecap: butt}</style>
 </defs>
 <g id="figure_1">
  <g id="patch_1">
   <path d="M 0 1505.213086 
L 1903.41 1505.213086 
L 1903.41 0 
L 0 0 
L 0 1505.213086 
z
" style="fill: none"/>
  </g>
  <g id="axes_1">
   <g id="patch_2">
    <path d="M 97.233164 458.53276 
L 571.876315 458.53276 
L 571.876315 32.526094 
L 97.233164 32.526094 
L 97.233164 458.53276 
z
" style="fill: none"/>
   </g>
   <g id="matplotlib.axis_1">
    <g id="xtick_1">
     <g id="line2d_1">
      <defs>
       <path id="m306eb4c41e" d="M 0 0 
L 0 9 
" style="stroke: #262626; stroke-width: 1.875"/>
      </defs>
      <g>
       <use xlink:href="#m306eb4c41e" x="118.807853" y="458.53276" style="fill: #262626; stroke: #262626; stroke-width: 1.875"/>
      </g>
     </g>
     <g id="text_1">
      <!-- 4 -->
      <g style="fill: #262626" transform="translate(111.926193 488.748346) scale(0.2475 -0.2475)">
       <defs>
        <path id="ArialMT-34" d="M 2069 0 
L 2069 1097 
L 81 1097 
L 81 1613 
L 2172 4581 
L 2631 4581 
L 2631 1613 
L 3250 1613 
L 3250 1097 
L 2631 1097 
L 2631 0 
L 2069 0 
z
M 2069 1613 
L 2069 3678 
L 634 1613 
L 2069 1613 
z
" transform="scale(0.015625)"/>
       </defs>
       <use xlink:href="#ArialMT-34"/>
      </g>
     </g>
    </g>
    <g id="xtick_2">
     <g id="line2d_2">
      <g>
       <use xlink:href="#m306eb4c41e" x="334.343843" y="458.53276" style="fill: #262626; stroke: #262626; stroke-width: 1.875"/>
      </g>
     </g>
     <g id="text_2">
      <!-- 2048 -->
      <g style="fill: #262626" transform="translate(306.817203 488.748346) scale(0.2475 -0.2475)">
       <defs>
        <path id="ArialMT-32" d="M 3222 541 
L 3222 0 
L 194 0 
Q 188 203 259 391 
Q 375 700 629 1000 
Q 884 1300 1366 1694 
Q 2113 2306 2375 2664 
Q 2638 3022 2638 3341 
Q 2638 3675 2398 3904 
Q 2159 4134 1775 4134 
Q 1369 4134 1125 3890 
Q 881 3647 878 3216 
L 300 3275 
Q 359 3922 746 4261 
Q 1134 4600 1788 4600 
Q 2447 4600 2831 4234 
Q 3216 3869 3216 3328 
Q 3216 3053 3103 2787 
Q 2991 2522 2730 2228 
Q 2469 1934 1863 1422 
Q 1356 997 1212 845 
Q 1069 694 975 541 
L 3222 541 
z
" transform="scale(0.015625)"/>
        <path id="ArialMT-30" d="M 266 2259 
Q 266 3072 433 3567 
Q 600 4063 929 4331 
Q 1259 4600 1759 4600 
Q 2128 4600 2406 4451 
Q 2684 4303 2865 4023 
Q 3047 3744 3150 3342 
Q 3253 2941 3253 2259 
Q 3253 1453 3087 958 
Q 2922 463 2592 192 
Q 2263 -78 1759 -78 
Q 1097 -78 719 397 
Q 266 969 266 2259 
z
M 844 2259 
Q 844 1131 1108 757 
Q 1372 384 1759 384 
Q 2147 384 2411 759 
Q 2675 1134 2675 2259 
Q 2675 3391 2411 3762 
Q 2147 4134 1753 4134 
Q 1366 4134 1134 3806 
Q 844 3388 844 2259 
z
" transform="scale(0.015625)"/>
        <path id="ArialMT-38" d="M 1131 2484 
Q 781 2613 612 2850 
Q 444 3088 444 3419 
Q 444 3919 803 4259 
Q 1163 4600 1759 4600 
Q 2359 4600 2725 4251 
Q 3091 3903 3091 3403 
Q 3091 3084 2923 2848 
Q 2756 2613 2416 2484 
Q 2838 2347 3058 2040 
Q 3278 1734 3278 1309 
Q 3278 722 2862 322 
Q 2447 -78 1769 -78 
Q 1091 -78 675 323 
Q 259 725 259 1325 
Q 259 1772 486 2073 
Q 713 2375 1131 2484 
z
M 1019 3438 
Q 1019 3113 1228 2906 
Q 1438 2700 1772 2700 
Q 2097 2700 2305 2904 
Q 2513 3109 2513 3406 
Q 2513 3716 2298 3927 
Q 2084 4138 1766 4138 
Q 1444 4138 1231 3931 
Q 1019 3725 1019 3438 
z
M 838 1322 
Q 838 1081 952 856 
Q 1066 631 1291 507 
Q 1516 384 1775 384 
Q 2178 384 2440 643 
Q 2703 903 2703 1303 
Q 2703 1709 2433 1975 
Q 2163 2241 1756 2241 
Q 1359 2241 1098 1978 
Q 838 1716 838 1322 
z
" transform="scale(0.015625)"/>
       </defs>
       <use xlink:href="#ArialMT-32"/>
       <use xlink:href="#ArialMT-30" x="55.615234"/>
       <use xlink:href="#ArialMT-34" x="111.230469"/>
       <use xlink:href="#ArialMT-38" x="166.845703"/>
      </g>
     </g>
    </g>
    <g id="xtick_3">
     <g id="line2d_3">
      <g>
       <use xlink:href="#m306eb4c41e" x="550.301626" y="458.53276" style="fill: #262626; stroke: #262626; stroke-width: 1.875"/>
      </g>
     </g>
     <g id="text_3">
      <!-- 4096 -->
      <g style="fill: #262626" transform="translate(522.774986 488.748346) scale(0.2475 -0.2475)">
       <defs>
        <path id="ArialMT-39" d="M 350 1059 
L 891 1109 
Q 959 728 1153 556 
Q 1347 384 1650 384 
Q 1909 384 2104 503 
Q 2300 622 2425 820 
Q 2550 1019 2634 1356 
Q 2719 1694 2719 2044 
Q 2719 2081 2716 2156 
Q 2547 1888 2255 1720 
Q 1963 1553 1622 1553 
Q 1053 1553 659 1965 
Q 266 2378 266 3053 
Q 266 3750 677 4175 
Q 1088 4600 1706 4600 
Q 2153 4600 2523 4359 
Q 2894 4119 3086 3673 
Q 3278 3228 3278 2384 
Q 3278 1506 3087 986 
Q 2897 466 2520 194 
Q 2144 -78 1638 -78 
Q 1100 -78 759 220 
Q 419 519 350 1059 
z
M 2653 3081 
Q 2653 3566 2395 3850 
Q 2138 4134 1775 4134 
Q 1400 4134 1122 3828 
Q 844 3522 844 3034 
Q 844 2597 1108 2323 
Q 1372 2050 1759 2050 
Q 2150 2050 2401 2323 
Q 2653 2597 2653 3081 
z
" transform="scale(0.015625)"/>
        <path id="ArialMT-36" d="M 3184 3459 
L 2625 3416 
Q 2550 3747 2413 3897 
Q 2184 4138 1850 4138 
Q 1581 4138 1378 3988 
Q 1113 3794 959 3422 
Q 806 3050 800 2363 
Q 1003 2672 1297 2822 
Q 1591 2972 1913 2972 
Q 2475 2972 2870 2558 
Q 3266 2144 3266 1488 
Q 3266 1056 3080 686 
Q 2894 316 2569 119 
Q 2244 -78 1831 -78 
Q 1128 -78 684 439 
Q 241 956 241 2144 
Q 241 3472 731 4075 
Q 1159 4600 1884 4600 
Q 2425 4600 2770 4297 
Q 3116 3994 3184 3459 
z
M 888 1484 
Q 888 1194 1011 928 
Q 1134 663 1356 523 
Q 1578 384 1822 384 
Q 2178 384 2434 671 
Q 2691 959 2691 1453 
Q 2691 1928 2437 2201 
Q 2184 2475 1800 2475 
Q 1419 2475 1153 2201 
Q 888 1928 888 1484 
z
" transform="scale(0.015625)"/>
       </defs>
       <use xlink:href="#ArialMT-34"/>
       <use xlink:href="#ArialMT-30" x="55.615234"/>
       <use xlink:href="#ArialMT-39" x="111.230469"/>
       <use xlink:href="#ArialMT-36" x="166.845703"/>
      </g>
     </g>
    </g>
   </g>
   <g id="matplotlib.axis_2">
    <g id="ytick_1">
     <g id="line2d_4">
      <defs>
       <path id="mfc0f8809e7" d="M 0 0 
L -9 0 
" style="stroke: #262626; stroke-width: 1.875"/>
      </defs>
      <g>
       <use xlink:href="#mfc0f8809e7" x="97.233164" y="457.268646" style="fill: #262626; stroke: #262626; stroke-width: 1.875"/>
      </g>
     </g>
     <g id="text_4">
      <!-- 0.00 -->
      <g style="fill: #262626" transform="translate(36.567344 466.126439) scale(0.2475 -0.2475)">
       <defs>
        <path id="ArialMT-2e" d="M 581 0 
L 581 641 
L 1222 641 
L 1222 0 
L 581 0 
z
" transform="scale(0.015625)"/>
       </defs>
       <use xlink:href="#ArialMT-30"/>
       <use xlink:href="#ArialMT-2e" x="55.615234"/>
       <use xlink:href="#ArialMT-30" x="83.398438"/>
       <use xlink:href="#ArialMT-30" x="139.013672"/>
      </g>
     </g>
    </g>
    <g id="ytick_2">
     <g id="line2d_5">
      <g>
       <use xlink:href="#mfc0f8809e7" x="97.233164" y="153.881109" style="fill: #262626; stroke: #262626; stroke-width: 1.875"/>
      </g>
     </g>
     <g id="text_5">
      <!-- 0.24 -->
      <g style="fill: #262626" transform="translate(36.567344 162.738902) scale(0.2475 -0.2475)">
       <use xlink:href="#ArialMT-30"/>
       <use xlink:href="#ArialMT-2e" x="55.615234"/>
       <use xlink:href="#ArialMT-32" x="83.398438"/>
       <use xlink:href="#ArialMT-34" x="139.013672"/>
      </g>
     </g>
    </g>
    <g id="text_6">
     <!-- Hellinger Distance for 4096 Samples -->
     <g style="fill: #262626" transform="translate(26.884688 464.628099) rotate(-90) scale(0.27 -0.27)">
      <defs>
       <path id="ArialMT-48" d="M 513 0 
L 513 4581 
L 1119 4581 
L 1119 2700 
L 3500 2700 
L 3500 4581 
L 4106 4581 
L 4106 0 
L 3500 0 
L 3500 2159 
L 1119 2159 
L 1119 0 
L 513 0 
z
" transform="scale(0.015625)"/>
       <path id="ArialMT-65" d="M 2694 1069 
L 3275 997 
Q 3138 488 2766 206 
Q 2394 -75 1816 -75 
Q 1088 -75 661 373 
Q 234 822 234 1631 
Q 234 2469 665 2931 
Q 1097 3394 1784 3394 
Q 2450 3394 2872 2941 
Q 3294 2488 3294 1666 
Q 3294 1616 3291 1516 
L 816 1516 
Q 847 969 1125 678 
Q 1403 388 1819 388 
Q 2128 388 2347 550 
Q 2566 713 2694 1069 
z
M 847 1978 
L 2700 1978 
Q 2663 2397 2488 2606 
Q 2219 2931 1791 2931 
Q 1403 2931 1139 2672 
Q 875 2413 847 1978 
z
" transform="scale(0.015625)"/>
       <path id="ArialMT-6c" d="M 409 0 
L 409 4581 
L 972 4581 
L 972 0 
L 409 0 
z
" transform="scale(0.015625)"/>
       <path id="ArialMT-69" d="M 425 3934 
L 425 4581 
L 988 4581 
L 988 3934 
L 425 3934 
z
M 425 0 
L 425 3319 
L 988 3319 
L 988 0 
L 425 0 
z
" transform="scale(0.015625)"/>
       <path id="ArialMT-6e" d="M 422 0 
L 422 3319 
L 928 3319 
L 928 2847 
Q 1294 3394 1984 3394 
Q 2284 3394 2536 3286 
Q 2788 3178 2913 3003 
Q 3038 2828 3088 2588 
Q 3119 2431 3119 2041 
L 3119 0 
L 2556 0 
L 2556 2019 
Q 2556 2363 2490 2533 
Q 2425 2703 2258 2804 
Q 2091 2906 1866 2906 
Q 1506 2906 1245 2678 
Q 984 2450 984 1813 
L 984 0 
L 422 0 
z
" transform="scale(0.015625)"/>
       <path id="ArialMT-67" d="M 319 -275 
L 866 -356 
Q 900 -609 1056 -725 
Q 1266 -881 1628 -881 
Q 2019 -881 2231 -725 
Q 2444 -569 2519 -288 
Q 2563 -116 2559 434 
Q 2191 0 1641 0 
Q 956 0 581 494 
Q 206 988 206 1678 
Q 206 2153 378 2554 
Q 550 2956 876 3175 
Q 1203 3394 1644 3394 
Q 2231 3394 2613 2919 
L 2613 3319 
L 3131 3319 
L 3131 450 
Q 3131 -325 2973 -648 
Q 2816 -972 2473 -1159 
Q 2131 -1347 1631 -1347 
Q 1038 -1347 672 -1080 
Q 306 -813 319 -275 
z
M 784 1719 
Q 784 1066 1043 766 
Q 1303 466 1694 466 
Q 2081 466 2343 764 
Q 2606 1063 2606 1700 
Q 2606 2309 2336 2618 
Q 2066 2928 1684 2928 
Q 1309 2928 1046 2623 
Q 784 2319 784 1719 
z
" transform="scale(0.015625)"/>
       <path id="ArialMT-72" d="M 416 0 
L 416 3319 
L 922 3319 
L 922 2816 
Q 1116 3169 1280 3281 
Q 1444 3394 1641 3394 
Q 1925 3394 2219 3213 
L 2025 2691 
Q 1819 2813 1613 2813 
Q 1428 2813 1281 2702 
Q 1134 2591 1072 2394 
Q 978 2094 978 1738 
L 978 0 
L 416 0 
z
" transform="scale(0.015625)"/>
       <path id="ArialMT-20" transform="scale(0.015625)"/>
       <path id="ArialMT-44" d="M 494 0 
L 494 4581 
L 2072 4581 
Q 2606 4581 2888 4516 
Q 3281 4425 3559 4188 
Q 3922 3881 4101 3404 
Q 4281 2928 4281 2316 
Q 4281 1794 4159 1391 
Q 4038 988 3847 723 
Q 3656 459 3429 307 
Q 3203 156 2883 78 
Q 2563 0 2147 0 
L 494 0 
z
M 1100 541 
L 2078 541 
Q 2531 541 2789 625 
Q 3047 709 3200 863 
Q 3416 1078 3536 1442 
Q 3656 1806 3656 2325 
Q 3656 3044 3420 3430 
Q 3184 3816 2847 3947 
Q 2603 4041 2063 4041 
L 1100 4041 
L 1100 541 
z
" transform="scale(0.015625)"/>
       <path id="ArialMT-73" d="M 197 991 
L 753 1078 
Q 800 744 1014 566 
Q 1228 388 1613 388 
Q 2000 388 2187 545 
Q 2375 703 2375 916 
Q 2375 1106 2209 1216 
Q 2094 1291 1634 1406 
Q 1016 1563 777 1677 
Q 538 1791 414 1992 
Q 291 2194 291 2438 
Q 291 2659 392 2848 
Q 494 3038 669 3163 
Q 800 3259 1026 3326 
Q 1253 3394 1513 3394 
Q 1903 3394 2198 3281 
Q 2494 3169 2634 2976 
Q 2775 2784 2828 2463 
L 2278 2388 
Q 2241 2644 2061 2787 
Q 1881 2931 1553 2931 
Q 1166 2931 1000 2803 
Q 834 2675 834 2503 
Q 834 2394 903 2306 
Q 972 2216 1119 2156 
Q 1203 2125 1616 2013 
Q 2213 1853 2448 1751 
Q 2684 1650 2818 1456 
Q 2953 1263 2953 975 
Q 2953 694 2789 445 
Q 2625 197 2315 61 
Q 2006 -75 1616 -75 
Q 969 -75 630 194 
Q 291 463 197 991 
z
" transform="scale(0.015625)"/>
       <path id="ArialMT-74" d="M 1650 503 
L 1731 6 
Q 1494 -44 1306 -44 
Q 1000 -44 831 53 
Q 663 150 594 308 
Q 525 466 525 972 
L 525 2881 
L 113 2881 
L 113 3319 
L 525 3319 
L 525 4141 
L 1084 4478 
L 1084 3319 
L 1650 3319 
L 1650 2881 
L 1084 2881 
L 1084 941 
Q 1084 700 1114 631 
Q 1144 563 1211 522 
Q 1278 481 1403 481 
Q 1497 481 1650 503 
z
" transform="scale(0.015625)"/>
       <path id="ArialMT-61" d="M 2588 409 
Q 2275 144 1986 34 
Q 1697 -75 1366 -75 
Q 819 -75 525 192 
Q 231 459 231 875 
Q 231 1119 342 1320 
Q 453 1522 633 1644 
Q 813 1766 1038 1828 
Q 1203 1872 1538 1913 
Q 2219 1994 2541 2106 
Q 2544 2222 2544 2253 
Q 2544 2597 2384 2738 
Q 2169 2928 1744 2928 
Q 1347 2928 1158 2789 
Q 969 2650 878 2297 
L 328 2372 
Q 403 2725 575 2942 
Q 747 3159 1072 3276 
Q 1397 3394 1825 3394 
Q 2250 3394 2515 3294 
Q 2781 3194 2906 3042 
Q 3031 2891 3081 2659 
Q 3109 2516 3109 2141 
L 3109 1391 
Q 3109 606 3145 398 
Q 3181 191 3288 0 
L 2700 0 
Q 2613 175 2588 409 
z
M 2541 1666 
Q 2234 1541 1622 1453 
Q 1275 1403 1131 1340 
Q 988 1278 909 1158 
Q 831 1038 831 891 
Q 831 666 1001 516 
Q 1172 366 1500 366 
Q 1825 366 2078 508 
Q 2331 650 2450 897 
Q 2541 1088 2541 1459 
L 2541 1666 
z
" transform="scale(0.015625)"/>
       <path id="ArialMT-63" d="M 2588 1216 
L 3141 1144 
Q 3050 572 2676 248 
Q 2303 -75 1759 -75 
Q 1078 -75 664 370 
Q 250 816 250 1647 
Q 250 2184 428 2587 
Q 606 2991 970 3192 
Q 1334 3394 1763 3394 
Q 2303 3394 2647 3120 
Q 2991 2847 3088 2344 
L 2541 2259 
Q 2463 2594 2264 2762 
Q 2066 2931 1784 2931 
Q 1359 2931 1093 2626 
Q 828 2322 828 1663 
Q 828 994 1084 691 
Q 1341 388 1753 388 
Q 2084 388 2306 591 
Q 2528 794 2588 1216 
z
" transform="scale(0.015625)"/>
       <path id="ArialMT-66" d="M 556 0 
L 556 2881 
L 59 2881 
L 59 3319 
L 556 3319 
L 556 3672 
Q 556 4006 616 4169 
Q 697 4388 901 4523 
Q 1106 4659 1475 4659 
Q 1713 4659 2000 4603 
L 1916 4113 
Q 1741 4144 1584 4144 
Q 1328 4144 1222 4034 
Q 1116 3925 1116 3625 
L 1116 3319 
L 1763 3319 
L 1763 2881 
L 1116 2881 
L 1116 0 
L 556 0 
z
" transform="scale(0.015625)"/>
       <path id="ArialMT-6f" d="M 213 1659 
Q 213 2581 725 3025 
Q 1153 3394 1769 3394 
Q 2453 3394 2887 2945 
Q 3322 2497 3322 1706 
Q 3322 1066 3130 698 
Q 2938 331 2570 128 
Q 2203 -75 1769 -75 
Q 1072 -75 642 372 
Q 213 819 213 1659 
z
M 791 1659 
Q 791 1022 1069 705 
Q 1347 388 1769 388 
Q 2188 388 2466 706 
Q 2744 1025 2744 1678 
Q 2744 2294 2464 2611 
Q 2184 2928 1769 2928 
Q 1347 2928 1069 2612 
Q 791 2297 791 1659 
z
" transform="scale(0.015625)"/>
       <path id="ArialMT-53" d="M 288 1472 
L 859 1522 
Q 900 1178 1048 958 
Q 1197 738 1509 602 
Q 1822 466 2213 466 
Q 2559 466 2825 569 
Q 3091 672 3220 851 
Q 3350 1031 3350 1244 
Q 3350 1459 3225 1620 
Q 3100 1781 2813 1891 
Q 2628 1963 1997 2114 
Q 1366 2266 1113 2400 
Q 784 2572 623 2826 
Q 463 3081 463 3397 
Q 463 3744 659 4045 
Q 856 4347 1234 4503 
Q 1613 4659 2075 4659 
Q 2584 4659 2973 4495 
Q 3363 4331 3572 4012 
Q 3781 3694 3797 3291 
L 3216 3247 
Q 3169 3681 2898 3903 
Q 2628 4125 2100 4125 
Q 1550 4125 1298 3923 
Q 1047 3722 1047 3438 
Q 1047 3191 1225 3031 
Q 1400 2872 2139 2705 
Q 2878 2538 3153 2413 
Q 3553 2228 3743 1945 
Q 3934 1663 3934 1294 
Q 3934 928 3725 604 
Q 3516 281 3123 101 
Q 2731 -78 2241 -78 
Q 1619 -78 1198 103 
Q 778 284 539 648 
Q 300 1013 288 1472 
z
" transform="scale(0.015625)"/>
       <path id="ArialMT-6d" d="M 422 0 
L 422 3319 
L 925 3319 
L 925 2853 
Q 1081 3097 1340 3245 
Q 1600 3394 1931 3394 
Q 2300 3394 2536 3241 
Q 2772 3088 2869 2813 
Q 3263 3394 3894 3394 
Q 4388 3394 4653 3120 
Q 4919 2847 4919 2278 
L 4919 0 
L 4359 0 
L 4359 2091 
Q 4359 2428 4304 2576 
Q 4250 2725 4106 2815 
Q 3963 2906 3769 2906 
Q 3419 2906 3187 2673 
Q 2956 2441 2956 1928 
L 2956 0 
L 2394 0 
L 2394 2156 
Q 2394 2531 2256 2718 
Q 2119 2906 1806 2906 
Q 1569 2906 1367 2781 
Q 1166 2656 1075 2415 
Q 984 2175 984 1722 
L 984 0 
L 422 0 
z
" transform="scale(0.015625)"/>
       <path id="ArialMT-70" d="M 422 -1272 
L 422 3319 
L 934 3319 
L 934 2888 
Q 1116 3141 1344 3267 
Q 1572 3394 1897 3394 
Q 2322 3394 2647 3175 
Q 2972 2956 3137 2557 
Q 3303 2159 3303 1684 
Q 3303 1175 3120 767 
Q 2938 359 2589 142 
Q 2241 -75 1856 -75 
Q 1575 -75 1351 44 
Q 1128 163 984 344 
L 984 -1272 
L 422 -1272 
z
M 931 1641 
Q 931 1000 1190 694 
Q 1450 388 1819 388 
Q 2194 388 2461 705 
Q 2728 1022 2728 1688 
Q 2728 2322 2467 2637 
Q 2206 2953 1844 2953 
Q 1484 2953 1207 2617 
Q 931 2281 931 1641 
z
" transform="scale(0.015625)"/>
      </defs>
      <use xlink:href="#ArialMT-48"/>
      <use xlink:href="#ArialMT-65" x="72.216797"/>
      <use xlink:href="#ArialMT-6c" x="127.832031"/>
      <use xlink:href="#ArialMT-6c" x="150.048828"/>
      <use xlink:href="#ArialMT-69" x="172.265625"/>
      <use xlink:href="#ArialMT-6e" x="194.482422"/>
      <use xlink:href="#ArialMT-67" x="250.097656"/>
      <use xlink:href="#ArialMT-65" x="305.712891"/>
      <use xlink:href="#ArialMT-72" x="361.328125"/>
      <use xlink:href="#ArialMT-20" x="394.628906"/>
      <use xlink:href="#ArialMT-44" x="422.412109"/>
      <use xlink:href="#ArialMT-69" x="494.628906"/>
      <use xlink:href="#ArialMT-73" x="516.845703"/>
      <use xlink:href="#ArialMT-74" x="566.845703"/>
      <use xlink:href="#ArialMT-61" x="594.628906"/>
      <use xlink:href="#ArialMT-6e" x="650.244141"/>
      <use xlink:href="#ArialMT-63" x="705.859375"/>
      <use xlink:href="#ArialMT-65" x="755.859375"/>
      <use xlink:href="#ArialMT-20" x="811.474609"/>
      <use xlink:href="#ArialMT-66" x="839.257812"/>
      <use xlink:href="#ArialMT-6f" x="867.041016"/>
      <use xlink:href="#ArialMT-72" x="922.65625"/>
      <use xlink:href="#ArialMT-20" x="955.957031"/>
      <use xlink:href="#ArialMT-34" x="983.740234"/>
      <use xlink:href="#ArialMT-30" x="1039.355469"/>
      <use xlink:href="#ArialMT-39" x="1094.970703"/>
      <use xlink:href="#ArialMT-36" x="1150.585938"/>
      <use xlink:href="#ArialMT-20" x="1206.201172"/>
      <use xlink:href="#ArialMT-53" x="1233.984375"/>
      <use xlink:href="#ArialMT-61" x="1300.683594"/>
      <use xlink:href="#ArialMT-6d" x="1356.298828"/>
      <use xlink:href="#ArialMT-70" x="1439.599609"/>
      <use xlink:href="#ArialMT-6c" x="1495.214844"/>
      <use xlink:href="#ArialMT-65" x="1517.431641"/>
      <use xlink:href="#ArialMT-73" x="1573.046875"/>
     </g>
    </g>
   </g>
   <g id="PolyCollection_1">
    <defs>
     <path id="m325cc1e3ee" d="M 118.807853 -1275.683431 
L 118.807853 -1272.300514 
L 119.229645 -1265.141282 
L 120.07323 -1259.460964 
L 121.760401 -1250.990561 
L 125.134741 -1226.542385 
L 131.883422 -1191.897895 
L 145.380783 -1150.189599 
L 172.375506 -1117.794356 
L 226.364952 -1094.168954 
L 334.343843 -1077.766659 
L 550.301626 -1067.257188 
L 550.301626 -1068.487928 
L 550.301626 -1068.487928 
L 334.343843 -1079.239868 
L 226.364952 -1094.708617 
L 172.375506 -1120.286095 
L 145.380783 -1153.74209 
L 131.883422 -1194.836896 
L 125.134741 -1230.609829 
L 121.760401 -1256.357939 
L 120.07323 -1264.840861 
L 119.229645 -1269.675728 
L 118.807853 -1275.683431 
z
" style="stroke: #f781bf; stroke-opacity: 0.2; stroke-width: 1.5"/>
    </defs>
    <g clip-path="url(#p330fdfa368)">
     <use xlink:href="#m325cc1e3ee" x="0" y="1505.213086" style="fill: #f781bf; fill-opacity: 0.2; stroke: #f781bf; stroke-opacity: 0.2; stroke-width: 1.5"/>
    </g>
   </g>
   <g id="PolyCollection_2">
    <defs>
     <path id="m2246a557d4" d="M 118.807853 -1310.002247 
L 118.807853 -1295.3363 
L 119.229645 -1279.501648 
L 120.07323 -1269.065035 
L 121.760401 -1265.905401 
L 125.134741 -1264.731046 
L 131.883422 -1259.388408 
L 145.380783 -1255.321746 
L 172.375506 -1250.546053 
L 226.364952 -1248.140831 
L 334.343843 -1243.65621 
L 550.301626 -1241.483557 
L 550.301626 -1251.792505 
L 550.301626 -1251.792505 
L 334.343843 -1257.706047 
L 226.364952 -1259.53641 
L 172.375506 -1263.761234 
L 145.380783 -1265.70434 
L 131.883422 -1271.25005 
L 125.134741 -1277.101729 
L 121.760401 -1280.403906 
L 120.07323 -1281.23363 
L 119.229645 -1293.569689 
L 118.807853 -1310.002247 
z
" style="stroke: #e41a1c; stroke-opacity: 0.2; stroke-width: 1.5"/>
    </defs>
    <g clip-path="url(#p330fdfa368)">
     <use xlink:href="#m2246a557d4" x="0" y="1505.213086" style="fill: #e41a1c; fill-opacity: 0.2; stroke: #e41a1c; stroke-opacity: 0.2; stroke-width: 1.5"/>
    </g>
   </g>
   <g id="line2d_6">
    <path d="M 97.233164 153.881109 
L 571.876315 153.881109 
" clip-path="url(#p330fdfa368)" style="fill: none; stroke-dasharray: 2.25,3.7125; stroke-dashoffset: 0; stroke: #000000; stroke-width: 2.25"/>
   </g>
   <g id="line2d_7">
    <path d="M 118.807853 231.312337 
L 119.229645 236.576789 
L 120.07323 242.052566 
L 121.760401 250.233943 
L 125.134741 277.153212 
L 131.883422 312.190334 
L 145.380783 354.018161 
L 172.375506 386.254965 
L 226.364952 410.874196 
L 334.343843 426.804961 
L 550.301626 437.264275 
" clip-path="url(#p330fdfa368)" style="fill: none; stroke: #f781bf; stroke-width: 2.25; stroke-linecap: round"/>
   </g>
   <g id="line2d_8">
    <path d="M 118.807853 197.648865 
L 119.229645 215.549321 
L 120.07323 230.271329 
L 121.760401 233.961488 
L 125.134741 237.006613 
L 131.883422 242.322789 
L 145.380783 246.662675 
L 172.375506 248.355216 
L 226.364952 254.895968 
L 334.343843 259.167703 
L 550.301626 261.865252 
" clip-path="url(#p330fdfa368)" style="fill: none; stroke: #e41a1c; stroke-width: 4; stroke-linecap: round"/>
   </g>
   <g id="patch_3">
    <path d="M 97.233164 458.53276 
L 97.233164 32.526094 
" style="fill: none; stroke: #262626; stroke-width: 1.875; stroke-linejoin: miter; stroke-linecap: square"/>
   </g>
   <g id="patch_4">
    <path d="M 97.233164 458.53276 
L 571.876315 458.53276 
" style="fill: none; stroke: #262626; stroke-width: 1.875; stroke-linejoin: miter; stroke-linecap: square"/>
   </g>
   <g id="text_7">
    <!-- Linear -->
    <g style="fill: #262626" transform="translate(297.031068 26.526094) scale(0.27 -0.27)">
     <defs>
      <path id="ArialMT-4c" d="M 469 0 
L 469 4581 
L 1075 4581 
L 1075 541 
L 3331 541 
L 3331 0 
L 469 0 
z
" transform="scale(0.015625)"/>
     </defs>
     <use xlink:href="#ArialMT-4c"/>
     <use xlink:href="#ArialMT-69" x="55.615234"/>
     <use xlink:href="#ArialMT-6e" x="77.832031"/>
     <use xlink:href="#ArialMT-65" x="133.447266"/>
     <use xlink:href="#ArialMT-61" x="189.0625"/>
     <use xlink:href="#ArialMT-72" x="244.677734"/>
    </g>
   </g>
   <g id="text_8">
    <!-- A -->
    <g style="fill: #262626" transform="translate(97.233164 26.526094) scale(0.27 -0.27)">
     <defs>
      <path id="Arial-BoldMT-41" d="M 4597 0 
L 3591 0 
L 3191 1041 
L 1359 1041 
L 981 0 
L 0 0 
L 1784 4581 
L 2763 4581 
L 4597 0 
z
M 2894 1813 
L 2263 3513 
L 1644 1813 
L 2894 1813 
z
" transform="scale(0.015625)"/>
     </defs>
     <use xlink:href="#Arial-BoldMT-41"/>
    </g>
   </g>
   <g id="legend_1">
    <g id="patch_5">
     <path d="M 1732.326328 136.235039 
L 1891.26 136.235039 
Q 1896.21 136.235039 1896.21 131.285039 
L 1896.21 28.731094 
Q 1896.21 23.781094 1891.26 23.781094 
L 1732.326328 23.781094 
Q 1727.376328 23.781094 1727.376328 28.731094 
L 1727.376328 131.285039 
Q 1727.376328 136.235039 1732.326328 136.235039 
z
" style="fill: #ffffff; opacity: 0.8"/>
    </g>
    <g id="line2d_9">
     <path d="M 1737.276328 42.73418 
L 1762.026328 42.73418 
L 1786.776328 42.73418 
" style="fill: none; stroke: #e41a1c; stroke-width: 5; stroke-linecap: round"/>
    </g>
    <g id="text_9">
     <!-- MIGHT -->
     <g style="fill: #262626" transform="translate(1806.576328 51.39668) scale(0.2475 -0.2475)">
      <defs>
       <path id="ArialMT-4d" d="M 475 0 
L 475 4581 
L 1388 4581 
L 2472 1338 
Q 2622 884 2691 659 
Q 2769 909 2934 1394 
L 4031 4581 
L 4847 4581 
L 4847 0 
L 4263 0 
L 4263 3834 
L 2931 0 
L 2384 0 
L 1059 3900 
L 1059 0 
L 475 0 
z
" transform="scale(0.015625)"/>
       <path id="ArialMT-49" d="M 597 0 
L 597 4581 
L 1203 4581 
L 1203 0 
L 597 0 
z
" transform="scale(0.015625)"/>
       <path id="ArialMT-47" d="M 2638 1797 
L 2638 2334 
L 4578 2338 
L 4578 638 
Q 4131 281 3656 101 
Q 3181 -78 2681 -78 
Q 2006 -78 1454 211 
Q 903 500 622 1047 
Q 341 1594 341 2269 
Q 341 2938 620 3517 
Q 900 4097 1425 4378 
Q 1950 4659 2634 4659 
Q 3131 4659 3532 4498 
Q 3934 4338 4162 4050 
Q 4391 3763 4509 3300 
L 3963 3150 
Q 3859 3500 3706 3700 
Q 3553 3900 3268 4020 
Q 2984 4141 2638 4141 
Q 2222 4141 1919 4014 
Q 1616 3888 1430 3681 
Q 1244 3475 1141 3228 
Q 966 2803 966 2306 
Q 966 1694 1177 1281 
Q 1388 869 1791 669 
Q 2194 469 2647 469 
Q 3041 469 3416 620 
Q 3791 772 3984 944 
L 3984 1797 
L 2638 1797 
z
" transform="scale(0.015625)"/>
       <path id="ArialMT-54" d="M 1659 0 
L 1659 4041 
L 150 4041 
L 150 4581 
L 3781 4581 
L 3781 4041 
L 2266 4041 
L 2266 0 
L 1659 0 
z
" transform="scale(0.015625)"/>
      </defs>
      <use xlink:href="#ArialMT-4d"/>
      <use xlink:href="#ArialMT-49" x="83.300781"/>
      <use xlink:href="#ArialMT-47" x="111.083984"/>
      <use xlink:href="#ArialMT-48" x="188.867188"/>
      <use xlink:href="#ArialMT-54" x="261.083984"/>
     </g>
    </g>
    <g id="line2d_10">
     <path d="M 1737.276328 77.743828 
L 1762.026328 77.743828 
L 1786.776328 77.743828 
" style="fill: none; stroke: #f781bf; stroke-width: 5; stroke-linecap: round"/>
    </g>
    <g id="text_10">
     <!-- DRF -->
     <g style="fill: #262626" transform="translate(1806.576328 86.406328) scale(0.2475 -0.2475)">
      <defs>
       <path id="ArialMT-52" d="M 503 0 
L 503 4581 
L 2534 4581 
Q 3147 4581 3465 4457 
Q 3784 4334 3975 4021 
Q 4166 3709 4166 3331 
Q 4166 2844 3850 2509 
Q 3534 2175 2875 2084 
Q 3116 1969 3241 1856 
Q 3506 1613 3744 1247 
L 4541 0 
L 3778 0 
L 3172 953 
Q 2906 1366 2734 1584 
Q 2563 1803 2427 1890 
Q 2291 1978 2150 2013 
Q 2047 2034 1813 2034 
L 1109 2034 
L 1109 0 
L 503 0 
z
M 1109 2559 
L 2413 2559 
Q 2828 2559 3062 2645 
Q 3297 2731 3419 2920 
Q 3541 3109 3541 3331 
Q 3541 3656 3305 3865 
Q 3069 4075 2559 4075 
L 1109 4075 
L 1109 2559 
z
" transform="scale(0.015625)"/>
       <path id="ArialMT-46" d="M 525 0 
L 525 4581 
L 3616 4581 
L 3616 4041 
L 1131 4041 
L 1131 2622 
L 3281 2622 
L 3281 2081 
L 1131 2081 
L 1131 0 
L 525 0 
z
" transform="scale(0.015625)"/>
      </defs>
      <use xlink:href="#ArialMT-44"/>
      <use xlink:href="#ArialMT-52" x="72.216797"/>
      <use xlink:href="#ArialMT-46" x="144.433594"/>
     </g>
    </g>
    <g id="line2d_11">
     <path d="M 1737.276328 112.753477 
L 1762.026328 112.753477 
L 1786.776328 112.753477 
" style="fill: none; stroke-dasharray: 5,8.25; stroke-dashoffset: 0; stroke: #000000; stroke-width: 5"/>
    </g>
    <g id="text_11">
     <!-- Truth -->
     <g style="fill: #262626" transform="translate(1806.576328 121.415977) scale(0.2475 -0.2475)">
      <defs>
       <path id="ArialMT-75" d="M 2597 0 
L 2597 488 
Q 2209 -75 1544 -75 
Q 1250 -75 995 37 
Q 741 150 617 320 
Q 494 491 444 738 
Q 409 903 409 1263 
L 409 3319 
L 972 3319 
L 972 1478 
Q 972 1038 1006 884 
Q 1059 663 1231 536 
Q 1403 409 1656 409 
Q 1909 409 2131 539 
Q 2353 669 2445 892 
Q 2538 1116 2538 1541 
L 2538 3319 
L 3100 3319 
L 3100 0 
L 2597 0 
z
" transform="scale(0.015625)"/>
       <path id="ArialMT-68" d="M 422 0 
L 422 4581 
L 984 4581 
L 984 2938 
Q 1378 3394 1978 3394 
Q 2347 3394 2619 3248 
Q 2891 3103 3008 2847 
Q 3125 2591 3125 2103 
L 3125 0 
L 2563 0 
L 2563 2103 
Q 2563 2525 2380 2717 
Q 2197 2909 1863 2909 
Q 1613 2909 1392 2779 
Q 1172 2650 1078 2428 
Q 984 2206 984 1816 
L 984 0 
L 422 0 
z
" transform="scale(0.015625)"/>
      </defs>
      <use xlink:href="#ArialMT-54"/>
      <use xlink:href="#ArialMT-72" x="57.333984"/>
      <use xlink:href="#ArialMT-75" x="90.634766"/>
      <use xlink:href="#ArialMT-74" x="146.25"/>
      <use xlink:href="#ArialMT-68" x="174.033203"/>
     </g>
    </g>
   </g>
  </g>
  <g id="axes_2">
   <g id="patch_6">
    <path d="M 665.569831 458.53276 
L 1140.212982 458.53276 
L 1140.212982 32.526094 
L 665.569831 32.526094 
L 665.569831 458.53276 
z
" style="fill: none"/>
   </g>
   <g id="matplotlib.axis_3">
    <g id="xtick_4">
     <g id="line2d_12">
      <g>
       <use xlink:href="#m306eb4c41e" x="687.144519" y="458.53276" style="fill: #262626; stroke: #262626; stroke-width: 1.875"/>
      </g>
     </g>
     <g id="text_12">
      <!-- 4 -->
      <g style="fill: #262626" transform="translate(680.262859 488.748346) scale(0.2475 -0.2475)">
       <use xlink:href="#ArialMT-34"/>
      </g>
     </g>
    </g>
    <g id="xtick_5">
     <g id="line2d_13">
      <g>
       <use xlink:href="#m306eb4c41e" x="902.68051" y="458.53276" style="fill: #262626; stroke: #262626; stroke-width: 1.875"/>
      </g>
     </g>
     <g id="text_13">
      <!-- 2048 -->
      <g style="fill: #262626" transform="translate(875.153869 488.748346) scale(0.2475 -0.2475)">
       <use xlink:href="#ArialMT-32"/>
       <use xlink:href="#ArialMT-30" x="55.615234"/>
       <use xlink:href="#ArialMT-34" x="111.230469"/>
       <use xlink:href="#ArialMT-38" x="166.845703"/>
      </g>
     </g>
    </g>
    <g id="xtick_6">
     <g id="line2d_14">
      <g>
       <use xlink:href="#m306eb4c41e" x="1118.638293" y="458.53276" style="fill: #262626; stroke: #262626; stroke-width: 1.875"/>
      </g>
     </g>
     <g id="text_14">
      <!-- 4096 -->
      <g style="fill: #262626" transform="translate(1091.111652 488.748346) scale(0.2475 -0.2475)">
       <use xlink:href="#ArialMT-34"/>
       <use xlink:href="#ArialMT-30" x="55.615234"/>
       <use xlink:href="#ArialMT-39" x="111.230469"/>
       <use xlink:href="#ArialMT-36" x="166.845703"/>
      </g>
     </g>
    </g>
   </g>
   <g id="matplotlib.axis_4">
    <g id="ytick_3">
     <g id="line2d_15">
      <g>
       <use xlink:href="#mfc0f8809e7" x="665.569831" y="457.319066" style="fill: #262626; stroke: #262626; stroke-width: 1.875"/>
      </g>
     </g>
     <g id="text_15">
      <!-- 0.00 -->
      <g style="fill: #262626" transform="translate(604.90401 466.176859) scale(0.2475 -0.2475)">
       <use xlink:href="#ArialMT-30"/>
       <use xlink:href="#ArialMT-2e" x="55.615234"/>
       <use xlink:href="#ArialMT-30" x="83.398438"/>
       <use xlink:href="#ArialMT-30" x="139.013672"/>
      </g>
     </g>
    </g>
    <g id="ytick_4">
     <g id="line2d_16">
      <g>
       <use xlink:href="#mfc0f8809e7" x="665.569831" y="153.895514" style="fill: #262626; stroke: #262626; stroke-width: 1.875"/>
      </g>
     </g>
     <g id="text_16">
      <!-- 0.25 -->
      <g style="fill: #262626" transform="translate(604.90401 162.753307) scale(0.2475 -0.2475)">
       <defs>
        <path id="ArialMT-35" d="M 266 1200 
L 856 1250 
Q 922 819 1161 601 
Q 1400 384 1738 384 
Q 2144 384 2425 690 
Q 2706 997 2706 1503 
Q 2706 1984 2436 2262 
Q 2166 2541 1728 2541 
Q 1456 2541 1237 2417 
Q 1019 2294 894 2097 
L 366 2166 
L 809 4519 
L 3088 4519 
L 3088 3981 
L 1259 3981 
L 1013 2750 
Q 1425 3038 1878 3038 
Q 2478 3038 2890 2622 
Q 3303 2206 3303 1553 
Q 3303 931 2941 478 
Q 2500 -78 1738 -78 
Q 1113 -78 717 272 
Q 322 622 266 1200 
z
" transform="scale(0.015625)"/>
       </defs>
       <use xlink:href="#ArialMT-30"/>
       <use xlink:href="#ArialMT-2e" x="55.615234"/>
       <use xlink:href="#ArialMT-32" x="83.398438"/>
       <use xlink:href="#ArialMT-35" x="139.013672"/>
      </g>
     </g>
    </g>
   </g>
   <g id="PolyCollection_3">
    <defs>
     <path id="m44ee92a6f8" d="M 687.144519 -1196.622331 
L 687.144519 -1190.548794 
L 687.566312 -1189.056317 
L 688.409897 -1188.282096 
L 690.097067 -1187.62046 
L 693.471408 -1178.108404 
L 700.220088 -1157.741385 
L 713.71745 -1130.436905 
L 740.712173 -1106.027186 
L 794.701618 -1086.823203 
L 902.68051 -1073.992626 
L 1118.638293 -1065.197302 
L 1118.638293 -1066.330094 
L 1118.638293 -1066.330094 
L 902.68051 -1075.662615 
L 794.701618 -1088.808739 
L 740.712173 -1109.056717 
L 713.71745 -1133.974669 
L 700.220088 -1162.533755 
L 693.471408 -1183.649428 
L 690.097067 -1192.956612 
L 688.409897 -1194.186863 
L 687.566312 -1194.454044 
L 687.144519 -1196.622331 
z
" style="stroke: #f781bf; stroke-opacity: 0.2; stroke-width: 1.5"/>
    </defs>
    <g clip-path="url(#pb535a8d9ef)">
     <use xlink:href="#m44ee92a6f8" x="0" y="1505.213086" style="fill: #f781bf; fill-opacity: 0.2; stroke: #f781bf; stroke-opacity: 0.2; stroke-width: 1.5"/>
    </g>
   </g>
   <g id="PolyCollection_4">
    <defs>
     <path id="me4d2880437" d="M 687.144519 -1303.217171 
L 687.144519 -1292.663508 
L 687.566312 -1278.187086 
L 688.409897 -1270.276548 
L 690.097067 -1271.546181 
L 693.471408 -1269.25419 
L 700.220088 -1264.226999 
L 713.71745 -1261.085249 
L 740.712173 -1257.410538 
L 794.701618 -1252.708954 
L 902.68051 -1251.109806 
L 1118.638293 -1246.455243 
L 1118.638293 -1259.263169 
L 1118.638293 -1259.263169 
L 902.68051 -1261.486127 
L 794.701618 -1265.687333 
L 740.712173 -1269.322171 
L 713.71745 -1272.801169 
L 700.220088 -1278.023434 
L 693.471408 -1280.999923 
L 690.097067 -1284.57564 
L 688.409897 -1282.379619 
L 687.566312 -1291.154101 
L 687.144519 -1303.217171 
z
" style="stroke: #e41a1c; stroke-opacity: 0.2; stroke-width: 1.5"/>
    </defs>
    <g clip-path="url(#pb535a8d9ef)">
     <use xlink:href="#me4d2880437" x="0" y="1505.213086" style="fill: #e41a1c; fill-opacity: 0.2; stroke: #e41a1c; stroke-opacity: 0.2; stroke-width: 1.5"/>
    </g>
   </g>
   <g id="line2d_17">
    <path d="M 665.569831 153.895514 
L 1140.212982 153.895514 
" clip-path="url(#pb535a8d9ef)" style="fill: none; stroke-dasharray: 2.25,3.7125; stroke-dashoffset: 0; stroke: #000000; stroke-width: 2.25"/>
   </g>
   <g id="line2d_18">
    <path d="M 687.144519 310.149795 
L 687.566312 311.790788 
L 688.409897 312.68168 
L 690.097067 313.582358 
L 693.471408 322.821951 
L 700.220088 343.286244 
L 713.71745 371.510555 
L 740.712173 396.882597 
L 794.701618 417.210719 
L 902.68051 430.157231 
L 1118.638293 439.58301 
" clip-path="url(#pb535a8d9ef)" style="fill: none; stroke: #f781bf; stroke-width: 2.25; stroke-linecap: round"/>
   </g>
   <g id="line2d_19">
    <path d="M 687.144519 203.874274 
L 687.566312 218.173516 
L 688.409897 226.657898 
L 690.097067 224.754 
L 693.471408 226.79397 
L 700.220088 231.945308 
L 713.71745 237.35057 
L 740.712173 241.172508 
L 794.701618 244.21439 
L 902.68051 247.610425 
L 1118.638293 250.501892 
" clip-path="url(#pb535a8d9ef)" style="fill: none; stroke: #e41a1c; stroke-width: 4; stroke-linecap: round"/>
   </g>
   <g id="patch_7">
    <path d="M 665.569831 458.53276 
L 665.569831 32.526094 
" style="fill: none; stroke: #262626; stroke-width: 1.875; stroke-linejoin: miter; stroke-linecap: square"/>
   </g>
   <g id="patch_8">
    <path d="M 665.569831 458.53276 
L 1140.212982 458.53276 
" style="fill: none; stroke: #262626; stroke-width: 1.875; stroke-linejoin: miter; stroke-linecap: square"/>
   </g>
   <g id="text_17">
    <!-- Nonlinear -->
    <g style="fill: #262626" transform="translate(845.111406 26.526094) scale(0.27 -0.27)">
     <defs>
      <path id="ArialMT-4e" d="M 488 0 
L 488 4581 
L 1109 4581 
L 3516 984 
L 3516 4581 
L 4097 4581 
L 4097 0 
L 3475 0 
L 1069 3600 
L 1069 0 
L 488 0 
z
" transform="scale(0.015625)"/>
     </defs>
     <use xlink:href="#ArialMT-4e"/>
     <use xlink:href="#ArialMT-6f" x="72.216797"/>
     <use xlink:href="#ArialMT-6e" x="127.832031"/>
     <use xlink:href="#ArialMT-6c" x="183.447266"/>
     <use xlink:href="#ArialMT-69" x="205.664062"/>
     <use xlink:href="#ArialMT-6e" x="227.880859"/>
     <use xlink:href="#ArialMT-65" x="283.496094"/>
     <use xlink:href="#ArialMT-61" x="339.111328"/>
     <use xlink:href="#ArialMT-72" x="394.726562"/>
    </g>
   </g>
   <g id="text_18">
    <!-- B -->
    <g style="fill: #262626" transform="translate(665.569831 26.526094) scale(0.27 -0.27)">
     <defs>
      <path id="Arial-BoldMT-42" d="M 469 4581 
L 2300 4581 
Q 2844 4581 3111 4536 
Q 3378 4491 3589 4347 
Q 3800 4203 3940 3964 
Q 4081 3725 4081 3428 
Q 4081 3106 3907 2837 
Q 3734 2569 3438 2434 
Q 3856 2313 4081 2019 
Q 4306 1725 4306 1328 
Q 4306 1016 4161 720 
Q 4016 425 3764 248 
Q 3513 72 3144 31 
Q 2913 6 2028 0 
L 469 0 
L 469 4581 
z
M 1394 3819 
L 1394 2759 
L 2000 2759 
Q 2541 2759 2672 2775 
Q 2909 2803 3045 2939 
Q 3181 3075 3181 3297 
Q 3181 3509 3064 3642 
Q 2947 3775 2716 3803 
Q 2578 3819 1925 3819 
L 1394 3819 
z
M 1394 1997 
L 1394 772 
L 2250 772 
Q 2750 772 2884 800 
Q 3091 838 3220 983 
Q 3350 1128 3350 1372 
Q 3350 1578 3250 1722 
Q 3150 1866 2961 1931 
Q 2772 1997 2141 1997 
L 1394 1997 
z
" transform="scale(0.015625)"/>
     </defs>
     <use xlink:href="#Arial-BoldMT-42"/>
    </g>
   </g>
  </g>
  <g id="axes_3">
   <g id="patch_9">
    <path d="M 1233.906497 458.53276 
L 1708.549648 458.53276 
L 1708.549648 32.526094 
L 1233.906497 32.526094 
L 1233.906497 458.53276 
z
" style="fill: none"/>
   </g>
   <g id="matplotlib.axis_5">
    <g id="xtick_7">
     <g id="line2d_20">
      <g>
       <use xlink:href="#m306eb4c41e" x="1255.481186" y="458.53276" style="fill: #262626; stroke: #262626; stroke-width: 1.875"/>
      </g>
     </g>
     <g id="text_19">
      <!-- 4 -->
      <g style="fill: #262626" transform="translate(1248.599526 488.748346) scale(0.2475 -0.2475)">
       <use xlink:href="#ArialMT-34"/>
      </g>
     </g>
    </g>
    <g id="xtick_8">
     <g id="line2d_21">
      <g>
       <use xlink:href="#m306eb4c41e" x="1471.017177" y="458.53276" style="fill: #262626; stroke: #262626; stroke-width: 1.875"/>
      </g>
     </g>
     <g id="text_20">
      <!-- 2048 -->
      <g style="fill: #262626" transform="translate(1443.490536 488.748346) scale(0.2475 -0.2475)">
       <use xlink:href="#ArialMT-32"/>
       <use xlink:href="#ArialMT-30" x="55.615234"/>
       <use xlink:href="#ArialMT-34" x="111.230469"/>
       <use xlink:href="#ArialMT-38" x="166.845703"/>
      </g>
     </g>
    </g>
    <g id="xtick_9">
     <g id="line2d_22">
      <g>
       <use xlink:href="#m306eb4c41e" x="1686.97496" y="458.53276" style="fill: #262626; stroke: #262626; stroke-width: 1.875"/>
      </g>
     </g>
     <g id="text_21">
      <!-- 4096 -->
      <g style="fill: #262626" transform="translate(1659.448319 488.748346) scale(0.2475 -0.2475)">
       <use xlink:href="#ArialMT-34"/>
       <use xlink:href="#ArialMT-30" x="55.615234"/>
       <use xlink:href="#ArialMT-39" x="111.230469"/>
       <use xlink:href="#ArialMT-36" x="166.845703"/>
      </g>
     </g>
    </g>
   </g>
   <g id="matplotlib.axis_6">
    <g id="ytick_5">
     <g id="line2d_23">
      <g>
       <use xlink:href="#mfc0f8809e7" x="1233.906497" y="245.529427" style="fill: #262626; stroke: #262626; stroke-width: 1.875"/>
      </g>
     </g>
     <g id="text_22">
      <!-- 0 -->
      <g style="fill: #262626" transform="translate(1207.643177 254.38722) scale(0.2475 -0.2475)">
       <use xlink:href="#ArialMT-30"/>
      </g>
     </g>
    </g>
    <g id="ytick_6">
     <g id="line2d_24">
      <g>
       <use xlink:href="#mfc0f8809e7" x="1233.906497" y="245.529427" style="fill: #262626; stroke: #262626; stroke-width: 1.875"/>
      </g>
     </g>
     <g id="text_23">
      <!-- 0 -->
      <g style="fill: #262626" transform="translate(1207.643177 254.38722) scale(0.2475 -0.2475)">
       <use xlink:href="#ArialMT-30"/>
      </g>
     </g>
    </g>
   </g>
   <g id="PolyCollection_5">
    <defs>
     <path id="mf265b54655" d="M 1255.481186 -1306.025616 
L 1255.481186 -1300.373348 
L 1255.902979 -1286.060157 
L 1256.746564 -1278.237537 
L 1258.433734 -1274.648343 
L 1261.808074 -1271.597519 
L 1268.556755 -1269.522502 
L 1282.054116 -1268.446199 
L 1309.048839 -1267.829172 
L 1363.038285 -1267.502832 
L 1471.017177 -1267.30281 
L 1686.97496 -1267.208528 
L 1686.97496 -1267.284367 
L 1686.97496 -1267.284367 
L 1471.017177 -1267.431435 
L 1363.038285 -1267.59662 
L 1309.048839 -1268.011781 
L 1282.054116 -1268.780976 
L 1268.556755 -1270.089478 
L 1261.808074 -1272.299191 
L 1258.433734 -1275.684854 
L 1256.746564 -1280.673173 
L 1255.902979 -1288.542975 
L 1255.481186 -1306.025616 
z
" style="stroke: #f781bf; stroke-opacity: 0.2; stroke-width: 1.5"/>
    </defs>
    <g clip-path="url(#pcf7b76d115)">
     <use xlink:href="#mf265b54655" x="0" y="1505.213086" style="fill: #f781bf; fill-opacity: 0.2; stroke: #f781bf; stroke-opacity: 0.2; stroke-width: 1.5"/>
    </g>
   </g>
   <g id="PolyCollection_6">
    <defs>
     <path id="m4e356a0f7e" d="M 1255.481186 -1358.42612 
L 1255.481186 -1351.336878 
L 1255.902979 -1310.020851 
L 1256.746564 -1290.930593 
L 1258.433734 -1282.541739 
L 1261.808074 -1276.434351 
L 1268.556755 -1274.695707 
L 1282.054116 -1272.764904 
L 1309.048839 -1271.517811 
L 1363.038285 -1270.689319 
L 1471.017177 -1270.29114 
L 1686.97496 -1269.846505 
L 1686.97496 -1270.034026 
L 1686.97496 -1270.034026 
L 1471.017177 -1270.563149 
L 1363.038285 -1271.063083 
L 1309.048839 -1271.88163 
L 1282.054116 -1273.269813 
L 1268.556755 -1275.567406 
L 1261.808074 -1278.061802 
L 1258.433734 -1284.149085 
L 1256.746564 -1295.344003 
L 1255.902979 -1314.035276 
L 1255.481186 -1358.42612 
z
" style="stroke: #e41a1c; stroke-opacity: 0.2; stroke-width: 1.5"/>
    </defs>
    <g clip-path="url(#pcf7b76d115)">
     <use xlink:href="#m4e356a0f7e" x="0" y="1505.213086" style="fill: #e41a1c; fill-opacity: 0.2; stroke: #e41a1c; stroke-opacity: 0.2; stroke-width: 1.5"/>
    </g>
   </g>
   <g id="line2d_25">
    <path d="M 1233.906497 245.529427 
L 1708.549648 245.529427 
" clip-path="url(#pcf7b76d115)" style="fill: none; stroke-dasharray: 2.25,3.7125; stroke-dashoffset: 0; stroke: #000000; stroke-width: 2.25"/>
   </g>
   <g id="line2d_26">
    <path d="M 1255.481186 202.234379 
L 1255.902979 217.876743 
L 1256.746564 225.687146 
L 1258.433734 230.006588 
L 1261.808074 233.219841 
L 1268.556755 235.443382 
L 1282.054116 236.552911 
L 1309.048839 237.314856 
L 1363.038285 237.708104 
L 1471.017177 237.853011 
L 1686.97496 237.960979 
" clip-path="url(#pcf7b76d115)" style="fill: none; stroke: #f781bf; stroke-width: 2.25; stroke-linecap: round"/>
   </g>
   <g id="line2d_27">
    <path d="M 1255.481186 152.099532 
L 1255.902979 193.152307 
L 1256.746564 211.607085 
L 1258.433734 222.316432 
L 1261.808074 228.127626 
L 1268.556755 230.066414 
L 1282.054116 232.276108 
L 1309.048839 233.627256 
L 1363.038285 234.248676 
L 1471.017177 234.828034 
L 1686.97496 235.283763 
" clip-path="url(#pcf7b76d115)" style="fill: none; stroke: #e41a1c; stroke-width: 4; stroke-linecap: round"/>
   </g>
   <g id="patch_10">
    <path d="M 1233.906497 458.53276 
L 1233.906497 32.526094 
" style="fill: none; stroke: #262626; stroke-width: 1.875; stroke-linejoin: miter; stroke-linecap: square"/>
   </g>
   <g id="patch_11">
    <path d="M 1233.906497 458.53276 
L 1708.549648 458.53276 
" style="fill: none; stroke: #262626; stroke-width: 1.875; stroke-linejoin: miter; stroke-linecap: square"/>
   </g>
   <g id="text_24">
    <!-- Independent -->
    <g style="fill: #262626" transform="translate(1396.161745 26.526094) scale(0.27 -0.27)">
     <defs>
      <path id="ArialMT-64" d="M 2575 0 
L 2575 419 
Q 2259 -75 1647 -75 
Q 1250 -75 917 144 
Q 584 363 401 755 
Q 219 1147 219 1656 
Q 219 2153 384 2558 
Q 550 2963 881 3178 
Q 1213 3394 1622 3394 
Q 1922 3394 2156 3267 
Q 2391 3141 2538 2938 
L 2538 4581 
L 3097 4581 
L 3097 0 
L 2575 0 
z
M 797 1656 
Q 797 1019 1065 703 
Q 1334 388 1700 388 
Q 2069 388 2326 689 
Q 2584 991 2584 1609 
Q 2584 2291 2321 2609 
Q 2059 2928 1675 2928 
Q 1300 2928 1048 2622 
Q 797 2316 797 1656 
z
" transform="scale(0.015625)"/>
     </defs>
     <use xlink:href="#ArialMT-49"/>
     <use xlink:href="#ArialMT-6e" x="27.783203"/>
     <use xlink:href="#ArialMT-64" x="83.398438"/>
     <use xlink:href="#ArialMT-65" x="139.013672"/>
     <use xlink:href="#ArialMT-70" x="194.628906"/>
     <use xlink:href="#ArialMT-65" x="250.244141"/>
     <use xlink:href="#ArialMT-6e" x="305.859375"/>
     <use xlink:href="#ArialMT-64" x="361.474609"/>
     <use xlink:href="#ArialMT-65" x="417.089844"/>
     <use xlink:href="#ArialMT-6e" x="472.705078"/>
     <use xlink:href="#ArialMT-74" x="528.320312"/>
    </g>
   </g>
   <g id="text_25">
    <!-- C -->
    <g style="fill: #262626" transform="translate(1233.906497 26.526094) scale(0.27 -0.27)">
     <defs>
      <path id="Arial-BoldMT-43" d="M 3397 1684 
L 4294 1400 
Q 4088 650 3608 286 
Q 3128 -78 2391 -78 
Q 1478 -78 890 545 
Q 303 1169 303 2250 
Q 303 3394 893 4026 
Q 1484 4659 2447 4659 
Q 3288 4659 3813 4163 
Q 4125 3869 4281 3319 
L 3366 3100 
Q 3284 3456 3026 3662 
Q 2769 3869 2400 3869 
Q 1891 3869 1573 3503 
Q 1256 3138 1256 2319 
Q 1256 1450 1568 1081 
Q 1881 713 2381 713 
Q 2750 713 3015 947 
Q 3281 1181 3397 1684 
z
" transform="scale(0.015625)"/>
     </defs>
     <use xlink:href="#Arial-BoldMT-43"/>
    </g>
   </g>
  </g>
  <g id="axes_4">
   <g id="patch_12">
    <path d="M 97.233164 946.359427 
L 571.876315 946.359427 
L 571.876315 520.35276 
L 97.233164 520.35276 
L 97.233164 946.359427 
z
" style="fill: none"/>
   </g>
   <g id="matplotlib.axis_7">
    <g id="xtick_10">
     <g id="line2d_28">
      <g>
       <use xlink:href="#m306eb4c41e" x="118.807853" y="946.359427" style="fill: #262626; stroke: #262626; stroke-width: 1.875"/>
      </g>
     </g>
     <g id="text_26">
      <!-- 4 -->
      <g style="fill: #262626" transform="translate(111.926193 976.575013) scale(0.2475 -0.2475)">
       <use xlink:href="#ArialMT-34"/>
      </g>
     </g>
    </g>
    <g id="xtick_11">
     <g id="line2d_29">
      <g>
       <use xlink:href="#m306eb4c41e" x="334.343843" y="946.359427" style="fill: #262626; stroke: #262626; stroke-width: 1.875"/>
      </g>
     </g>
     <g id="text_27">
      <!-- 2048 -->
      <g style="fill: #262626" transform="translate(306.817203 976.575013) scale(0.2475 -0.2475)">
       <use xlink:href="#ArialMT-32"/>
       <use xlink:href="#ArialMT-30" x="55.615234"/>
       <use xlink:href="#ArialMT-34" x="111.230469"/>
       <use xlink:href="#ArialMT-38" x="166.845703"/>
      </g>
     </g>
    </g>
    <g id="xtick_12">
     <g id="line2d_30">
      <g>
       <use xlink:href="#m306eb4c41e" x="550.301626" y="946.359427" style="fill: #262626; stroke: #262626; stroke-width: 1.875"/>
      </g>
     </g>
     <g id="text_28">
      <!-- 4096 -->
      <g style="fill: #262626" transform="translate(522.774986 976.575013) scale(0.2475 -0.2475)">
       <use xlink:href="#ArialMT-34"/>
       <use xlink:href="#ArialMT-30" x="55.615234"/>
       <use xlink:href="#ArialMT-39" x="111.230469"/>
       <use xlink:href="#ArialMT-36" x="166.845703"/>
      </g>
     </g>
    </g>
   </g>
   <g id="matplotlib.axis_8">
    <g id="ytick_7">
     <g id="line2d_31">
      <g>
       <use xlink:href="#mfc0f8809e7" x="97.233164" y="943.610997" style="fill: #262626; stroke: #262626; stroke-width: 1.875"/>
      </g>
     </g>
     <g id="text_29">
      <!-- 0.00 -->
      <g style="fill: #262626" transform="translate(36.567344 952.46879) scale(0.2475 -0.2475)">
       <use xlink:href="#ArialMT-30"/>
       <use xlink:href="#ArialMT-2e" x="55.615234"/>
       <use xlink:href="#ArialMT-30" x="83.398438"/>
       <use xlink:href="#ArialMT-30" x="139.013672"/>
      </g>
     </g>
    </g>
    <g id="ytick_8">
     <g id="line2d_32">
      <g>
       <use xlink:href="#mfc0f8809e7" x="97.233164" y="641.283685" style="fill: #262626; stroke: #262626; stroke-width: 1.875"/>
      </g>
     </g>
     <g id="text_30">
      <!-- 0.11 -->
      <g style="fill: #262626" transform="translate(38.392656 650.141478) scale(0.2475 -0.2475)">
       <defs>
        <path id="ArialMT-31" d="M 2384 0 
L 1822 0 
L 1822 3584 
Q 1619 3391 1289 3197 
Q 959 3003 697 2906 
L 697 3450 
Q 1169 3672 1522 3987 
Q 1875 4303 2022 4600 
L 2384 4600 
L 2384 0 
z
" transform="scale(0.015625)"/>
       </defs>
       <use xlink:href="#ArialMT-30"/>
       <use xlink:href="#ArialMT-2e" x="55.615234"/>
       <use xlink:href="#ArialMT-31" x="83.398438"/>
       <use xlink:href="#ArialMT-31" x="131.638672"/>
      </g>
     </g>
    </g>
    <g id="text_31">
     <!-- MI for 4096 Samples -->
     <g style="fill: #262626" transform="translate(27.201094 857.90625) rotate(-90) scale(0.27 -0.27)">
      <use xlink:href="#ArialMT-4d"/>
      <use xlink:href="#ArialMT-49" x="83.300781"/>
      <use xlink:href="#ArialMT-20" x="111.083984"/>
      <use xlink:href="#ArialMT-66" x="138.867188"/>
      <use xlink:href="#ArialMT-6f" x="166.650391"/>
      <use xlink:href="#ArialMT-72" x="222.265625"/>
      <use xlink:href="#ArialMT-20" x="255.566406"/>
      <use xlink:href="#ArialMT-34" x="283.349609"/>
      <use xlink:href="#ArialMT-30" x="338.964844"/>
      <use xlink:href="#ArialMT-39" x="394.580078"/>
      <use xlink:href="#ArialMT-36" x="450.195312"/>
      <use xlink:href="#ArialMT-20" x="505.810547"/>
      <use xlink:href="#ArialMT-53" x="533.59375"/>
      <use xlink:href="#ArialMT-61" x="600.292969"/>
      <use xlink:href="#ArialMT-6d" x="655.908203"/>
      <use xlink:href="#ArialMT-70" x="739.208984"/>
      <use xlink:href="#ArialMT-6c" x="794.824219"/>
      <use xlink:href="#ArialMT-65" x="817.041016"/>
      <use xlink:href="#ArialMT-73" x="872.65625"/>
     </g>
    </g>
   </g>
   <g id="PolyCollection_7">
    <defs>
     <path id="m3d9baff251" d="M 118.807853 -934.663746 
L 118.807853 -917.271267 
L 119.229645 -565.645687 
L 120.07323 -561.602089 
L 121.760401 -561.602089 
L 125.134741 -561.602089 
L 131.883422 -561.602089 
L 145.380783 -561.602089 
L 172.375506 -561.602089 
L 226.364952 -561.602089 
L 334.343843 -561.602089 
L 550.301626 -561.602089 
L 550.301626 -561.602089 
L 550.301626 -561.602089 
L 334.343843 -561.602089 
L 226.364952 -561.602089 
L 172.375506 -561.602089 
L 145.380783 -561.602089 
L 131.883422 -561.602089 
L 125.134741 -561.602089 
L 121.760401 -561.602089 
L 120.07323 -561.602089 
L 119.229645 -569.940899 
L 118.807853 -934.663746 
z
" style="stroke: #4daf4a; stroke-opacity: 0.2; stroke-width: 1.5"/>
    </defs>
    <g clip-path="url(#p719f263398)">
     <use xlink:href="#m3d9baff251" x="0" y="1505.213086" style="fill: #4daf4a; fill-opacity: 0.2; stroke: #4daf4a; stroke-opacity: 0.2; stroke-width: 1.5"/>
    </g>
   </g>
   <g id="PolyCollection_8">
    <defs>
     <path id="m7e5b0ce3f4" d="M 118.807853 -786.443112 
L 118.807853 -774.226173 
L 119.229645 -748.835572 
L 120.07323 -732.025568 
L 121.760401 -731.924477 
L 125.134741 -725.251099 
L 131.883422 -718.380358 
L 145.380783 -709.573454 
L 172.375506 -707.131938 
L 226.364952 -700.436346 
L 334.343843 -697.039411 
L 550.301626 -690.833708 
L 550.301626 -704.719183 
L 550.301626 -704.719183 
L 334.343843 -708.73085 
L 226.364952 -714.763286 
L 172.375506 -718.98349 
L 145.380783 -725.76883 
L 131.883422 -729.730191 
L 125.134741 -738.908806 
L 121.760401 -743.137841 
L 120.07323 -745.876868 
L 119.229645 -763.696192 
L 118.807853 -786.443112 
z
" style="stroke: #e41a1c; stroke-opacity: 0.2; stroke-width: 1.5"/>
    </defs>
    <g clip-path="url(#p719f263398)">
     <use xlink:href="#m7e5b0ce3f4" x="0" y="1505.213086" style="fill: #e41a1c; fill-opacity: 0.2; stroke: #e41a1c; stroke-opacity: 0.2; stroke-width: 1.5"/>
    </g>
   </g>
   <g id="line2d_33">
    <path d="M 97.233164 641.283685 
L 571.876315 641.283685 
" clip-path="url(#p719f263398)" style="fill: none; stroke-dasharray: 2.25,3.7125; stroke-dashoffset: 0; stroke: #000000; stroke-width: 2.25"/>
   </g>
   <g id="line2d_34">
    <path d="M 118.807853 579.803733 
L 119.229645 937.714473 
L 120.07323 943.610997 
L 121.760401 943.610997 
L 125.134741 943.610997 
L 131.883422 943.610997 
L 145.380783 943.610997 
L 172.375506 943.610997 
L 226.364952 943.610997 
L 334.343843 943.610997 
L 550.301626 943.610997 
" clip-path="url(#p719f263398)" style="fill: none; stroke: #4daf4a; stroke-width: 2.25; stroke-linecap: round"/>
   </g>
   <g id="line2d_35">
    <path d="M 118.807853 725.898654 
L 119.229645 749.398011 
L 120.07323 766.880787 
L 121.760401 767.425705 
L 125.134741 772.935466 
L 131.883422 781.126365 
L 145.380783 787.656483 
L 172.375506 792.113514 
L 226.364952 797.597449 
L 334.343843 802.44497 
L 550.301626 807.434954 
" clip-path="url(#p719f263398)" style="fill: none; stroke: #e41a1c; stroke-width: 4; stroke-linecap: round"/>
   </g>
   <g id="patch_13">
    <path d="M 97.233164 946.359427 
L 97.233164 520.35276 
" style="fill: none; stroke: #262626; stroke-width: 1.875; stroke-linejoin: miter; stroke-linecap: square"/>
   </g>
   <g id="patch_14">
    <path d="M 97.233164 946.359427 
L 571.876315 946.359427 
" style="fill: none; stroke: #262626; stroke-width: 1.875; stroke-linejoin: miter; stroke-linecap: square"/>
   </g>
   <g id="legend_2">
    <g id="patch_15">
     <path d="M 1732.326328 635.195039 
L 1891.26 635.195039 
Q 1896.21 635.195039 1896.21 630.245039 
L 1896.21 527.691094 
Q 1896.21 522.741094 1891.26 522.741094 
L 1732.326328 522.741094 
Q 1727.376328 522.741094 1727.376328 527.691094 
L 1727.376328 630.245039 
Q 1727.376328 635.195039 1732.326328 635.195039 
z
" style="fill: #ffffff; opacity: 0.8"/>
    </g>
    <g id="line2d_36">
     <path d="M 1737.276328 541.69418 
L 1762.026328 541.69418 
L 1786.776328 541.69418 
" style="fill: none; stroke: #e41a1c; stroke-width: 5; stroke-linecap: round"/>
    </g>
    <g id="text_32">
     <!-- MIGHT -->
     <g style="fill: #262626" transform="translate(1806.576328 550.35668) scale(0.2475 -0.2475)">
      <use xlink:href="#ArialMT-4d"/>
      <use xlink:href="#ArialMT-49" x="83.300781"/>
      <use xlink:href="#ArialMT-47" x="111.083984"/>
      <use xlink:href="#ArialMT-48" x="188.867188"/>
      <use xlink:href="#ArialMT-54" x="261.083984"/>
     </g>
    </g>
    <g id="line2d_37">
     <path d="M 1737.276328 576.703828 
L 1762.026328 576.703828 
L 1786.776328 576.703828 
" style="fill: none; stroke: #4daf4a; stroke-width: 5; stroke-linecap: round"/>
    </g>
    <g id="text_33">
     <!-- KSG -->
     <g style="fill: #262626" transform="translate(1806.576328 585.366328) scale(0.2475 -0.2475)">
      <defs>
       <path id="ArialMT-4b" d="M 469 0 
L 469 4581 
L 1075 4581 
L 1075 2309 
L 3350 4581 
L 4172 4581 
L 2250 2725 
L 4256 0 
L 3456 0 
L 1825 2319 
L 1075 1588 
L 1075 0 
L 469 0 
z
" transform="scale(0.015625)"/>
      </defs>
      <use xlink:href="#ArialMT-4b"/>
      <use xlink:href="#ArialMT-53" x="66.699219"/>
      <use xlink:href="#ArialMT-47" x="133.398438"/>
     </g>
    </g>
    <g id="line2d_38">
     <path d="M 1737.276328 611.713477 
L 1762.026328 611.713477 
L 1786.776328 611.713477 
" style="fill: none; stroke-dasharray: 5,8.25; stroke-dashoffset: 0; stroke: #000000; stroke-width: 5"/>
    </g>
    <g id="text_34">
     <!-- Truth -->
     <g style="fill: #262626" transform="translate(1806.576328 620.375977) scale(0.2475 -0.2475)">
      <use xlink:href="#ArialMT-54"/>
      <use xlink:href="#ArialMT-72" x="57.333984"/>
      <use xlink:href="#ArialMT-75" x="90.634766"/>
      <use xlink:href="#ArialMT-74" x="146.25"/>
      <use xlink:href="#ArialMT-68" x="174.033203"/>
     </g>
    </g>
   </g>
  </g>
  <g id="axes_5">
   <g id="patch_16">
    <path d="M 665.569831 946.359427 
L 1140.212982 946.359427 
L 1140.212982 520.35276 
L 665.569831 520.35276 
L 665.569831 946.359427 
z
" style="fill: none"/>
   </g>
   <g id="matplotlib.axis_9">
    <g id="xtick_13">
     <g id="line2d_39">
      <g>
       <use xlink:href="#m306eb4c41e" x="687.144519" y="946.359427" style="fill: #262626; stroke: #262626; stroke-width: 1.875"/>
      </g>
     </g>
     <g id="text_35">
      <!-- 4 -->
      <g style="fill: #262626" transform="translate(680.262859 976.575013) scale(0.2475 -0.2475)">
       <use xlink:href="#ArialMT-34"/>
      </g>
     </g>
    </g>
    <g id="xtick_14">
     <g id="line2d_40">
      <g>
       <use xlink:href="#m306eb4c41e" x="902.68051" y="946.359427" style="fill: #262626; stroke: #262626; stroke-width: 1.875"/>
      </g>
     </g>
     <g id="text_36">
      <!-- 2048 -->
      <g style="fill: #262626" transform="translate(875.153869 976.575013) scale(0.2475 -0.2475)">
       <use xlink:href="#ArialMT-32"/>
       <use xlink:href="#ArialMT-30" x="55.615234"/>
       <use xlink:href="#ArialMT-34" x="111.230469"/>
       <use xlink:href="#ArialMT-38" x="166.845703"/>
      </g>
     </g>
    </g>
    <g id="xtick_15">
     <g id="line2d_41">
      <g>
       <use xlink:href="#m306eb4c41e" x="1118.638293" y="946.359427" style="fill: #262626; stroke: #262626; stroke-width: 1.875"/>
      </g>
     </g>
     <g id="text_37">
      <!-- 4096 -->
      <g style="fill: #262626" transform="translate(1091.111652 976.575013) scale(0.2475 -0.2475)">
       <use xlink:href="#ArialMT-34"/>
       <use xlink:href="#ArialMT-30" x="55.615234"/>
       <use xlink:href="#ArialMT-39" x="111.230469"/>
       <use xlink:href="#ArialMT-36" x="166.845703"/>
      </g>
     </g>
    </g>
   </g>
   <g id="matplotlib.axis_10">
    <g id="ytick_9">
     <g id="line2d_42">
      <g>
       <use xlink:href="#mfc0f8809e7" x="665.569831" y="943.005044" style="fill: #262626; stroke: #262626; stroke-width: 1.875"/>
      </g>
     </g>
     <g id="text_38">
      <!-- 0.00 -->
      <g style="fill: #262626" transform="translate(604.90401 951.862837) scale(0.2475 -0.2475)">
       <use xlink:href="#ArialMT-30"/>
       <use xlink:href="#ArialMT-2e" x="55.615234"/>
       <use xlink:href="#ArialMT-30" x="83.398438"/>
       <use xlink:href="#ArialMT-30" x="139.013672"/>
      </g>
     </g>
    </g>
    <g id="ytick_10">
     <g id="line2d_43">
      <g>
       <use xlink:href="#mfc0f8809e7" x="665.569831" y="641.110556" style="fill: #262626; stroke: #262626; stroke-width: 1.875"/>
      </g>
     </g>
     <g id="text_39">
      <!-- 0.09 -->
      <g style="fill: #262626" transform="translate(604.90401 649.968349) scale(0.2475 -0.2475)">
       <use xlink:href="#ArialMT-30"/>
       <use xlink:href="#ArialMT-2e" x="55.615234"/>
       <use xlink:href="#ArialMT-30" x="83.398438"/>
       <use xlink:href="#ArialMT-39" x="139.013672"/>
      </g>
     </g>
    </g>
   </g>
   <g id="PolyCollection_9">
    <defs>
     <path id="m01a0824b8c" d="M 687.144519 -690.465839 
L 687.144519 -677.38134 
L 687.566312 -564.274904 
L 688.409897 -562.208042 
L 690.097067 -562.208042 
L 693.471408 -562.208042 
L 700.220088 -562.208042 
L 713.71745 -562.208042 
L 740.712173 -562.208042 
L 794.701618 -562.208042 
L 902.68051 -562.208042 
L 1118.638293 -562.208042 
L 1118.638293 -562.208042 
L 1118.638293 -562.208042 
L 902.68051 -562.208042 
L 794.701618 -562.208042 
L 740.712173 -562.208042 
L 713.71745 -562.208042 
L 700.220088 -562.208042 
L 693.471408 -562.208042 
L 690.097067 -562.208042 
L 688.409897 -562.208042 
L 687.566312 -568.575211 
L 687.144519 -690.465839 
z
" style="stroke: #4daf4a; stroke-opacity: 0.2; stroke-width: 1.5"/>
    </defs>
    <g clip-path="url(#p200959b85e)">
     <use xlink:href="#m01a0824b8c" x="0" y="1505.213086" style="fill: #4daf4a; fill-opacity: 0.2; stroke: #4daf4a; stroke-opacity: 0.2; stroke-width: 1.5"/>
    </g>
   </g>
   <g id="PolyCollection_10">
    <defs>
     <path id="mf6a2a8864f" d="M 687.144519 -817.672783 
L 687.144519 -805.146206 
L 687.566312 -783.495776 
L 688.409897 -768.290816 
L 690.097067 -768.828387 
L 693.471408 -768.298485 
L 700.220088 -757.883649 
L 713.71745 -751.969389 
L 740.712173 -747.623509 
L 794.701618 -741.896732 
L 902.68051 -736.769451 
L 1118.638293 -732.646988 
L 1118.638293 -743.956127 
L 1118.638293 -743.956127 
L 902.68051 -750.544561 
L 794.701618 -755.639754 
L 740.712173 -759.463044 
L 713.71745 -767.76482 
L 700.220088 -774.451123 
L 693.471408 -780.490494 
L 690.097067 -786.185542 
L 688.409897 -782.957504 
L 687.566312 -795.864929 
L 687.144519 -817.672783 
z
" style="stroke: #e41a1c; stroke-opacity: 0.2; stroke-width: 1.5"/>
    </defs>
    <g clip-path="url(#p200959b85e)">
     <use xlink:href="#mf6a2a8864f" x="0" y="1505.213086" style="fill: #e41a1c; fill-opacity: 0.2; stroke: #e41a1c; stroke-opacity: 0.2; stroke-width: 1.5"/>
    </g>
   </g>
   <g id="line2d_44">
    <path d="M 665.569831 641.110556 
L 1140.212982 641.110556 
" clip-path="url(#p200959b85e)" style="fill: none; stroke-dasharray: 2.25,3.7125; stroke-dashoffset: 0; stroke: #000000; stroke-width: 2.25"/>
   </g>
   <g id="line2d_45">
    <path d="M 687.144519 822.275982 
L 687.566312 939.896521 
L 688.409897 943.005044 
L 690.097067 943.005044 
L 693.471408 943.005044 
L 700.220088 943.005044 
L 713.71745 943.005044 
L 740.712173 943.005044 
L 794.701618 943.005044 
L 902.68051 943.005044 
L 1118.638293 943.005044 
" clip-path="url(#p200959b85e)" style="fill: none; stroke: #4daf4a; stroke-width: 2.25; stroke-linecap: round"/>
   </g>
   <g id="line2d_46">
    <path d="M 687.144519 690.088674 
L 687.566312 712.566753 
L 688.409897 727.27047 
L 690.097067 726.378973 
L 693.471408 727.75192 
L 700.220088 736.266726 
L 713.71745 744.022719 
L 740.712173 749.344719 
L 794.701618 752.674271 
L 902.68051 758.185442 
L 1118.638293 764.797268 
" clip-path="url(#p200959b85e)" style="fill: none; stroke: #e41a1c; stroke-width: 4; stroke-linecap: round"/>
   </g>
   <g id="patch_17">
    <path d="M 665.569831 946.359427 
L 665.569831 520.35276 
" style="fill: none; stroke: #262626; stroke-width: 1.875; stroke-linejoin: miter; stroke-linecap: square"/>
   </g>
   <g id="patch_18">
    <path d="M 665.569831 946.359427 
L 1140.212982 946.359427 
" style="fill: none; stroke: #262626; stroke-width: 1.875; stroke-linejoin: miter; stroke-linecap: square"/>
   </g>
  </g>
  <g id="axes_6">
   <g id="patch_19">
    <path d="M 1233.906497 946.359427 
L 1708.549648 946.359427 
L 1708.549648 520.35276 
L 1233.906497 520.35276 
L 1233.906497 946.359427 
z
" style="fill: none"/>
   </g>
   <g id="matplotlib.axis_11">
    <g id="xtick_16">
     <g id="line2d_47">
      <g>
       <use xlink:href="#m306eb4c41e" x="1255.481186" y="946.359427" style="fill: #262626; stroke: #262626; stroke-width: 1.875"/>
      </g>
     </g>
     <g id="text_40">
      <!-- 4 -->
      <g style="fill: #262626" transform="translate(1248.599526 976.575013) scale(0.2475 -0.2475)">
       <use xlink:href="#ArialMT-34"/>
      </g>
     </g>
    </g>
    <g id="xtick_17">
     <g id="line2d_48">
      <g>
       <use xlink:href="#m306eb4c41e" x="1471.017177" y="946.359427" style="fill: #262626; stroke: #262626; stroke-width: 1.875"/>
      </g>
     </g>
     <g id="text_41">
      <!-- 2048 -->
      <g style="fill: #262626" transform="translate(1443.490536 976.575013) scale(0.2475 -0.2475)">
       <use xlink:href="#ArialMT-32"/>
       <use xlink:href="#ArialMT-30" x="55.615234"/>
       <use xlink:href="#ArialMT-34" x="111.230469"/>
       <use xlink:href="#ArialMT-38" x="166.845703"/>
      </g>
     </g>
    </g>
    <g id="xtick_18">
     <g id="line2d_49">
      <g>
       <use xlink:href="#m306eb4c41e" x="1686.97496" y="946.359427" style="fill: #262626; stroke: #262626; stroke-width: 1.875"/>
      </g>
     </g>
     <g id="text_42">
      <!-- 4096 -->
      <g style="fill: #262626" transform="translate(1659.448319 976.575013) scale(0.2475 -0.2475)">
       <use xlink:href="#ArialMT-34"/>
       <use xlink:href="#ArialMT-30" x="55.615234"/>
       <use xlink:href="#ArialMT-39" x="111.230469"/>
       <use xlink:href="#ArialMT-36" x="166.845703"/>
      </g>
     </g>
    </g>
   </g>
   <g id="matplotlib.axis_12">
    <g id="ytick_11">
     <g id="line2d_50">
      <g>
       <use xlink:href="#mfc0f8809e7" x="1233.906497" y="733.356094" style="fill: #262626; stroke: #262626; stroke-width: 1.875"/>
      </g>
     </g>
     <g id="text_43">
      <!-- 0 -->
      <g style="fill: #262626" transform="translate(1207.643177 742.213887) scale(0.2475 -0.2475)">
       <use xlink:href="#ArialMT-30"/>
      </g>
     </g>
    </g>
    <g id="ytick_12">
     <g id="line2d_51">
      <g>
       <use xlink:href="#mfc0f8809e7" x="1233.906497" y="733.356094" style="fill: #262626; stroke: #262626; stroke-width: 1.875"/>
      </g>
     </g>
     <g id="text_44">
      <!-- 0 -->
      <g style="fill: #262626" transform="translate(1207.643177 742.213887) scale(0.2475 -0.2475)">
       <use xlink:href="#ArialMT-30"/>
      </g>
     </g>
    </g>
   </g>
   <g id="PolyCollection_11">
    <defs>
     <path id="m355bbb27d2" d="M 1255.481186 -771.856992 
L 1255.481186 -771.856992 
L 1255.902979 -771.856992 
L 1256.746564 -771.856992 
L 1258.433734 -771.856992 
L 1261.808074 -771.856992 
L 1268.556755 -771.856992 
L 1282.054116 -771.856992 
L 1309.048839 -771.856992 
L 1363.038285 -771.856992 
L 1471.017177 -771.856992 
L 1686.97496 -771.856992 
L 1686.97496 -771.856992 
L 1686.97496 -771.856992 
L 1471.017177 -771.856992 
L 1363.038285 -771.856992 
L 1309.048839 -771.856992 
L 1282.054116 -771.856992 
L 1268.556755 -771.856992 
L 1261.808074 -771.856992 
L 1258.433734 -771.856992 
L 1256.746564 -771.856992 
L 1255.902979 -771.856992 
L 1255.481186 -771.856992 
z
" style="stroke: #4daf4a; stroke-opacity: 0.2; stroke-width: 1.5"/>
    </defs>
    <g clip-path="url(#p2047d9d195)">
     <use xlink:href="#m355bbb27d2" x="0" y="1505.213086" style="fill: #4daf4a; fill-opacity: 0.2; stroke: #4daf4a; stroke-opacity: 0.2; stroke-width: 1.5"/>
    </g>
   </g>
   <g id="PolyCollection_12">
    <defs>
     <path id="m0dde2924a0" d="M 1255.481186 -780.993038 
L 1255.481186 -779.729716 
L 1255.902979 -774.235303 
L 1256.746564 -772.774111 
L 1258.433734 -772.34753 
L 1261.808074 -772.120436 
L 1268.556755 -772.068585 
L 1282.054116 -772.01766 
L 1309.048839 -771.988486 
L 1363.038285 -771.97072 
L 1471.017177 -771.96264 
L 1686.97496 -771.953969 
L 1686.97496 -771.957582 
L 1686.97496 -771.957582 
L 1471.017177 -771.96813 
L 1363.038285 -771.978576 
L 1309.048839 -771.996695 
L 1282.054116 -772.030315 
L 1268.556755 -772.093906 
L 1261.808074 -772.174148 
L 1258.433734 -772.418949 
L 1256.746564 -773.050736 
L 1255.902979 -774.628783 
L 1255.481186 -780.993038 
z
" style="stroke: #e41a1c; stroke-opacity: 0.2; stroke-width: 1.5"/>
    </defs>
    <g clip-path="url(#p2047d9d195)">
     <use xlink:href="#m0dde2924a0" x="0" y="1505.213086" style="fill: #e41a1c; fill-opacity: 0.2; stroke: #e41a1c; stroke-opacity: 0.2; stroke-width: 1.5"/>
    </g>
   </g>
   <g id="line2d_52">
    <path d="M 1233.906497 733.356094 
L 1708.549648 733.356094 
" clip-path="url(#p2047d9d195)" style="fill: none; stroke-dasharray: 2.25,3.7125; stroke-dashoffset: 0; stroke: #000000; stroke-width: 2.25"/>
   </g>
   <g id="line2d_53">
    <path d="M 1255.481186 733.356094 
L 1255.902979 733.356094 
L 1256.746564 733.356094 
L 1258.433734 733.356094 
L 1261.808074 733.356094 
L 1268.556755 733.356094 
L 1282.054116 733.356094 
L 1309.048839 733.356094 
L 1363.038285 733.356094 
L 1471.017177 733.356094 
L 1686.97496 733.356094 
" clip-path="url(#p2047d9d195)" style="fill: none; stroke: #4daf4a; stroke-width: 2.25; stroke-linecap: round"/>
   </g>
   <g id="line2d_54">
    <path d="M 1255.481186 725.175375 
L 1255.902979 730.781281 
L 1256.746564 732.274282 
L 1258.433734 732.850138 
L 1261.808074 733.071776 
L 1268.556755 733.131592 
L 1282.054116 733.191161 
L 1309.048839 733.223082 
L 1363.038285 733.23661 
L 1471.017177 733.248567 
L 1686.97496 733.257531 
" clip-path="url(#p2047d9d195)" style="fill: none; stroke: #e41a1c; stroke-width: 4; stroke-linecap: round"/>
   </g>
   <g id="patch_20">
    <path d="M 1233.906497 946.359427 
L 1233.906497 520.35276 
" style="fill: none; stroke: #262626; stroke-width: 1.875; stroke-linejoin: miter; stroke-linecap: square"/>
   </g>
   <g id="patch_21">
    <path d="M 1233.906497 946.359427 
L 1708.549648 946.359427 
" style="fill: none; stroke: #262626; stroke-width: 1.875; stroke-linejoin: miter; stroke-linecap: square"/>
   </g>
  </g>
  <g id="axes_7">
   <g id="patch_22">
    <path d="M 97.233164 1434.186094 
L 571.876315 1434.186094 
L 571.876315 1008.179427 
L 97.233164 1008.179427 
L 97.233164 1434.186094 
z
" style="fill: none"/>
   </g>
   <g id="matplotlib.axis_13">
    <g id="xtick_19">
     <g id="line2d_55">
      <g>
       <use xlink:href="#m306eb4c41e" x="118.807853" y="1434.186094" style="fill: #262626; stroke: #262626; stroke-width: 1.875"/>
      </g>
     </g>
     <g id="text_45">
      <!-- 4 -->
      <g style="fill: #262626" transform="translate(111.926193 1464.40168) scale(0.2475 -0.2475)">
       <use xlink:href="#ArialMT-34"/>
      </g>
     </g>
    </g>
    <g id="xtick_20">
     <g id="line2d_56">
      <g>
       <use xlink:href="#m306eb4c41e" x="334.343843" y="1434.186094" style="fill: #262626; stroke: #262626; stroke-width: 1.875"/>
      </g>
     </g>
     <g id="text_46">
      <!-- 2048 -->
      <g style="fill: #262626" transform="translate(306.817203 1464.40168) scale(0.2475 -0.2475)">
       <use xlink:href="#ArialMT-32"/>
       <use xlink:href="#ArialMT-30" x="55.615234"/>
       <use xlink:href="#ArialMT-34" x="111.230469"/>
       <use xlink:href="#ArialMT-38" x="166.845703"/>
      </g>
     </g>
    </g>
    <g id="xtick_21">
     <g id="line2d_57">
      <g>
       <use xlink:href="#m306eb4c41e" x="550.301626" y="1434.186094" style="fill: #262626; stroke: #262626; stroke-width: 1.875"/>
      </g>
     </g>
     <g id="text_47">
      <!-- 4096 -->
      <g style="fill: #262626" transform="translate(522.774986 1464.40168) scale(0.2475 -0.2475)">
       <use xlink:href="#ArialMT-34"/>
       <use xlink:href="#ArialMT-30" x="55.615234"/>
       <use xlink:href="#ArialMT-39" x="111.230469"/>
       <use xlink:href="#ArialMT-36" x="166.845703"/>
      </g>
     </g>
    </g>
    <g id="text_48">
     <!-- # of Variables -->
     <g style="fill: #262626" transform="translate(253.006302 1492.646836) scale(0.27 -0.27)">
      <defs>
       <path id="ArialMT-23" d="M 322 -78 
L 594 1253 
L 66 1253 
L 66 1719 
L 688 1719 
L 919 2853 
L 66 2853 
L 66 3319 
L 1013 3319 
L 1284 4659 
L 1753 4659 
L 1481 3319 
L 2466 3319 
L 2738 4659 
L 3209 4659 
L 2938 3319 
L 3478 3319 
L 3478 2853 
L 2844 2853 
L 2609 1719 
L 3478 1719 
L 3478 1253 
L 2516 1253 
L 2244 -78 
L 1775 -78 
L 2044 1253 
L 1063 1253 
L 791 -78 
L 322 -78 
z
M 1156 1719 
L 2138 1719 
L 2372 2853 
L 1388 2853 
L 1156 1719 
z
" transform="scale(0.015625)"/>
       <path id="ArialMT-56" d="M 1803 0 
L 28 4581 
L 684 4581 
L 1875 1253 
Q 2019 853 2116 503 
Q 2222 878 2363 1253 
L 3600 4581 
L 4219 4581 
L 2425 0 
L 1803 0 
z
" transform="scale(0.015625)"/>
       <path id="ArialMT-62" d="M 941 0 
L 419 0 
L 419 4581 
L 981 4581 
L 981 2947 
Q 1338 3394 1891 3394 
Q 2197 3394 2470 3270 
Q 2744 3147 2920 2923 
Q 3097 2700 3197 2384 
Q 3297 2069 3297 1709 
Q 3297 856 2875 390 
Q 2453 -75 1863 -75 
Q 1275 -75 941 416 
L 941 0 
z
M 934 1684 
Q 934 1088 1097 822 
Q 1363 388 1816 388 
Q 2184 388 2453 708 
Q 2722 1028 2722 1663 
Q 2722 2313 2464 2622 
Q 2206 2931 1841 2931 
Q 1472 2931 1203 2611 
Q 934 2291 934 1684 
z
" transform="scale(0.015625)"/>
      </defs>
      <use xlink:href="#ArialMT-23"/>
      <use xlink:href="#ArialMT-20" x="55.615234"/>
      <use xlink:href="#ArialMT-6f" x="83.398438"/>
      <use xlink:href="#ArialMT-66" x="139.013672"/>
      <use xlink:href="#ArialMT-20" x="166.796875"/>
      <use xlink:href="#ArialMT-56" x="194.580078"/>
      <use xlink:href="#ArialMT-61" x="253.904297"/>
      <use xlink:href="#ArialMT-72" x="309.519531"/>
      <use xlink:href="#ArialMT-69" x="342.820312"/>
      <use xlink:href="#ArialMT-61" x="365.037109"/>
      <use xlink:href="#ArialMT-62" x="420.652344"/>
      <use xlink:href="#ArialMT-6c" x="476.267578"/>
      <use xlink:href="#ArialMT-65" x="498.484375"/>
      <use xlink:href="#ArialMT-73" x="554.099609"/>
     </g>
    </g>
   </g>
   <g id="matplotlib.axis_14">
    <g id="ytick_13">
     <g id="line2d_58">
      <g>
       <use xlink:href="#mfc0f8809e7" x="97.233164" y="1432.023623" style="fill: #262626; stroke: #262626; stroke-width: 1.875"/>
      </g>
     </g>
     <g id="text_49">
      <!-- 0.00 -->
      <g style="fill: #262626" transform="translate(36.567344 1440.881416) scale(0.2475 -0.2475)">
       <use xlink:href="#ArialMT-30"/>
       <use xlink:href="#ArialMT-2e" x="55.615234"/>
       <use xlink:href="#ArialMT-30" x="83.398438"/>
       <use xlink:href="#ArialMT-30" x="139.013672"/>
      </g>
     </g>
    </g>
    <g id="ytick_14">
     <g id="line2d_59">
      <g>
       <use xlink:href="#mfc0f8809e7" x="97.233164" y="1129.277769" style="fill: #262626; stroke: #262626; stroke-width: 1.875"/>
      </g>
     </g>
     <g id="text_50">
      <!-- 0.14 -->
      <g style="fill: #262626" transform="translate(36.567344 1138.135562) scale(0.2475 -0.2475)">
       <use xlink:href="#ArialMT-30"/>
       <use xlink:href="#ArialMT-2e" x="55.615234"/>
       <use xlink:href="#ArialMT-31" x="83.398438"/>
       <use xlink:href="#ArialMT-34" x="139.013672"/>
      </g>
     </g>
    </g>
    <g id="text_51">
     <!-- S@98 for 4096 Samples -->
     <g style="fill: #262626" transform="translate(26.884688 1368.461432) rotate(-90) scale(0.27 -0.27)">
      <defs>
       <path id="ArialMT-40" d="M 3628 509 
Q 3425 275 3173 133 
Q 2922 -9 2669 -9 
Q 2391 -9 2128 153 
Q 1866 316 1702 653 
Q 1538 991 1538 1394 
Q 1538 1891 1792 2389 
Q 2047 2888 2425 3138 
Q 2803 3388 3159 3388 
Q 3431 3388 3678 3245 
Q 3925 3103 4103 2813 
L 4209 3297 
L 4769 3297 
L 4319 1200 
Q 4225 763 4225 716 
Q 4225 631 4289 570 
Q 4353 509 4444 509 
Q 4609 509 4878 700 
Q 5234 950 5442 1370 
Q 5650 1791 5650 2238 
Q 5650 2759 5383 3212 
Q 5116 3666 4586 3937 
Q 4056 4209 3416 4209 
Q 2684 4209 2079 3867 
Q 1475 3525 1142 2886 
Q 809 2247 809 1516 
Q 809 750 1142 197 
Q 1475 -356 2104 -620 
Q 2734 -884 3500 -884 
Q 4319 -884 4872 -609 
Q 5425 -334 5700 59 
L 6266 59 
Q 6106 -269 5718 -609 
Q 5331 -950 4797 -1148 
Q 4263 -1347 3509 -1347 
Q 2816 -1347 2230 -1169 
Q 1644 -991 1231 -633 
Q 819 -275 609 191 
Q 347 781 347 1466 
Q 347 2228 659 2919 
Q 1041 3766 1742 4216 
Q 2444 4666 3444 4666 
Q 4219 4666 4836 4348 
Q 5453 4031 5809 3403 
Q 6113 2863 6113 2228 
Q 6113 1322 5475 619 
Q 4906 -13 4231 -13 
Q 4016 -13 3883 53 
Q 3750 119 3688 241 
Q 3647 319 3628 509 
z
M 2116 1356 
Q 2116 928 2319 690 
Q 2522 453 2784 453 
Q 2959 453 3153 558 
Q 3347 663 3523 869 
Q 3700 1075 3812 1392 
Q 3925 1709 3925 2028 
Q 3925 2453 3714 2687 
Q 3503 2922 3200 2922 
Q 3000 2922 2823 2820 
Q 2647 2719 2481 2494 
Q 2316 2269 2216 1947 
Q 2116 1625 2116 1356 
z
" transform="scale(0.015625)"/>
      </defs>
      <use xlink:href="#ArialMT-53"/>
      <use xlink:href="#ArialMT-40" x="66.699219"/>
      <use xlink:href="#ArialMT-39" x="168.212891"/>
      <use xlink:href="#ArialMT-38" x="223.828125"/>
      <use xlink:href="#ArialMT-20" x="279.443359"/>
      <use xlink:href="#ArialMT-66" x="307.226562"/>
      <use xlink:href="#ArialMT-6f" x="335.009766"/>
      <use xlink:href="#ArialMT-72" x="390.625"/>
      <use xlink:href="#ArialMT-20" x="423.925781"/>
      <use xlink:href="#ArialMT-34" x="451.708984"/>
      <use xlink:href="#ArialMT-30" x="507.324219"/>
      <use xlink:href="#ArialMT-39" x="562.939453"/>
      <use xlink:href="#ArialMT-36" x="618.554688"/>
      <use xlink:href="#ArialMT-20" x="674.169922"/>
      <use xlink:href="#ArialMT-53" x="701.953125"/>
      <use xlink:href="#ArialMT-61" x="768.652344"/>
      <use xlink:href="#ArialMT-6d" x="824.267578"/>
      <use xlink:href="#ArialMT-70" x="907.568359"/>
      <use xlink:href="#ArialMT-6c" x="963.183594"/>
      <use xlink:href="#ArialMT-65" x="985.400391"/>
      <use xlink:href="#ArialMT-73" x="1041.015625"/>
     </g>
    </g>
   </g>
   <g id="PolyCollection_13">
    <defs>
     <path id="mb6c295c6d7" d="M 118.807853 -187.225634 
L 118.807853 -107.53185 
L 119.229645 -73.189463 
L 120.07323 -73.189463 
L 121.760401 -101.705598 
L 125.134741 -73.189463 
L 131.883422 -94.325422 
L 145.380783 -73.189463 
L 172.375506 -73.189463 
L 226.364952 -73.189463 
L 334.343843 -90.085334 
L 550.301626 -75.826622 
L 550.301626 -206.738032 
L 550.301626 -206.738032 
L 334.343843 -216.776001 
L 226.364952 -177.191535 
L 172.375506 -176.13925 
L 145.380783 -181.452255 
L 131.883422 -188.292104 
L 125.134741 -208.872261 
L 121.760401 -203.069221 
L 120.07323 -190.394094 
L 119.229645 -193.540631 
L 118.807853 -187.225634 
z
" style="stroke: #377eb8; stroke-opacity: 0.2; stroke-width: 1.5"/>
    </defs>
    <g clip-path="url(#p242dd084e1)">
     <use xlink:href="#mb6c295c6d7" x="0" y="1505.213086" style="fill: #377eb8; fill-opacity: 0.2; stroke: #377eb8; stroke-opacity: 0.2; stroke-width: 1.5"/>
    </g>
   </g>
   <g id="PolyCollection_14">
    <defs>
     <path id="m8ae167c019" d="M 118.807853 -368.839711 
L 118.807853 -324.492174 
L 119.229645 -341.386474 
L 120.07323 -340.33058 
L 121.760401 -340.33058 
L 125.134741 -327.659855 
L 131.883422 -314.98913 
L 145.380783 -302.318405 
L 172.375506 -289.64768 
L 226.364952 -295.983043 
L 334.343843 -291.759468 
L 550.301626 -250.579612 
L 550.301626 -351.945411 
L 550.301626 -351.945411 
L 334.343843 -318.156811 
L 226.364952 -322.380386 
L 172.375506 -346.665942 
L 145.380783 -370.951499 
L 131.883422 -387.845799 
L 125.134741 -373.063286 
L 121.760401 -398.404736 
L 120.07323 -381.510436 
L 119.229645 -392.069373 
L 118.807853 -368.839711 
z
" style="stroke: #e41a1c; stroke-opacity: 0.2; stroke-width: 1.5"/>
    </defs>
    <g clip-path="url(#p242dd084e1)">
     <use xlink:href="#m8ae167c019" x="0" y="1505.213086" style="fill: #e41a1c; fill-opacity: 0.2; stroke: #e41a1c; stroke-opacity: 0.2; stroke-width: 1.5"/>
    </g>
   </g>
   <g id="line2d_60">
    <path d="M 97.233164 1129.277769 
L 571.876315 1129.277769 
" clip-path="url(#p242dd084e1)" style="fill: none; stroke-dasharray: 2.25,3.7125; stroke-dashoffset: 0; stroke: #000000; stroke-width: 2.25"/>
   </g>
   <g id="line2d_61">
    <path d="M 118.807853 1365.495001 
L 119.229645 1373.967438 
L 120.07323 1376.090061 
L 121.760401 1352.831479 
L 125.134741 1363.39559 
L 131.883422 1348.606866 
L 145.380783 1374.981036 
L 172.375506 1366.573076 
L 226.364952 1367.591832 
L 334.343843 1363.359482 
L 550.301626 1363.380115 
" clip-path="url(#p242dd084e1)" style="fill: none; stroke: #377eb8; stroke-width: 2.25; stroke-linecap: round"/>
   </g>
   <g id="line2d_62">
    <path d="M 118.807853 1162.770718 
L 119.229645 1137.429269 
L 120.07323 1157.49125 
L 121.760401 1142.708737 
L 125.134741 1149.0441 
L 131.883422 1134.261587 
L 145.380783 1182.8327 
L 172.375506 1197.615212 
L 226.364952 1186.000381 
L 334.343843 1199.727 
L 550.301626 1209.230043 
" clip-path="url(#p242dd084e1)" style="fill: none; stroke: #e41a1c; stroke-width: 4; stroke-linecap: round"/>
   </g>
   <g id="patch_23">
    <path d="M 97.233164 1434.186094 
L 97.233164 1008.179427 
" style="fill: none; stroke: #262626; stroke-width: 1.875; stroke-linejoin: miter; stroke-linecap: square"/>
   </g>
   <g id="patch_24">
    <path d="M 97.233164 1434.186094 
L 571.876315 1434.186094 
" style="fill: none; stroke: #262626; stroke-width: 1.875; stroke-linejoin: miter; stroke-linecap: square"/>
   </g>
   <g id="legend_3">
    <g id="patch_25">
     <path d="M 1732.326328 1134.155039 
L 1891.26 1134.155039 
Q 1896.21 1134.155039 1896.21 1129.205039 
L 1896.21 1026.651094 
Q 1896.21 1021.701094 1891.26 1021.701094 
L 1732.326328 1021.701094 
Q 1727.376328 1021.701094 1727.376328 1026.651094 
L 1727.376328 1129.205039 
Q 1727.376328 1134.155039 1732.326328 1134.155039 
z
" style="fill: #ffffff; opacity: 0.8"/>
    </g>
    <g id="line2d_63">
     <path d="M 1737.276328 1040.65418 
L 1762.026328 1040.65418 
L 1786.776328 1040.65418 
" style="fill: none; stroke: #e41a1c; stroke-width: 5; stroke-linecap: round"/>
    </g>
    <g id="text_52">
     <!-- MIGHT -->
     <g style="fill: #262626" transform="translate(1806.576328 1049.31668) scale(0.2475 -0.2475)">
      <use xlink:href="#ArialMT-4d"/>
      <use xlink:href="#ArialMT-49" x="83.300781"/>
      <use xlink:href="#ArialMT-47" x="111.083984"/>
      <use xlink:href="#ArialMT-48" x="188.867188"/>
      <use xlink:href="#ArialMT-54" x="261.083984"/>
     </g>
    </g>
    <g id="line2d_64">
     <path d="M 1737.276328 1075.663828 
L 1762.026328 1075.663828 
L 1786.776328 1075.663828 
" style="fill: none; stroke: #377eb8; stroke-width: 5; stroke-linecap: round"/>
    </g>
    <g id="text_53">
     <!-- KNN -->
     <g style="fill: #262626" transform="translate(1806.576328 1084.326328) scale(0.2475 -0.2475)">
      <use xlink:href="#ArialMT-4b"/>
      <use xlink:href="#ArialMT-4e" x="66.699219"/>
      <use xlink:href="#ArialMT-4e" x="138.916016"/>
     </g>
    </g>
    <g id="line2d_65">
     <path d="M 1737.276328 1110.673477 
L 1762.026328 1110.673477 
L 1786.776328 1110.673477 
" style="fill: none; stroke-dasharray: 5,8.25; stroke-dashoffset: 0; stroke: #000000; stroke-width: 5"/>
    </g>
    <g id="text_54">
     <!-- Truth -->
     <g style="fill: #262626" transform="translate(1806.576328 1119.335977) scale(0.2475 -0.2475)">
      <use xlink:href="#ArialMT-54"/>
      <use xlink:href="#ArialMT-72" x="57.333984"/>
      <use xlink:href="#ArialMT-75" x="90.634766"/>
      <use xlink:href="#ArialMT-74" x="146.25"/>
      <use xlink:href="#ArialMT-68" x="174.033203"/>
     </g>
    </g>
   </g>
  </g>
  <g id="axes_8">
   <g id="patch_26">
    <path d="M 665.569831 1434.186094 
L 1140.212982 1434.186094 
L 1140.212982 1008.179427 
L 665.569831 1008.179427 
L 665.569831 1434.186094 
z
" style="fill: none"/>
   </g>
   <g id="matplotlib.axis_15">
    <g id="xtick_22">
     <g id="line2d_66">
      <g>
       <use xlink:href="#m306eb4c41e" x="687.144519" y="1434.186094" style="fill: #262626; stroke: #262626; stroke-width: 1.875"/>
      </g>
     </g>
     <g id="text_55">
      <!-- 4 -->
      <g style="fill: #262626" transform="translate(680.262859 1464.40168) scale(0.2475 -0.2475)">
       <use xlink:href="#ArialMT-34"/>
      </g>
     </g>
    </g>
    <g id="xtick_23">
     <g id="line2d_67">
      <g>
       <use xlink:href="#m306eb4c41e" x="902.68051" y="1434.186094" style="fill: #262626; stroke: #262626; stroke-width: 1.875"/>
      </g>
     </g>
     <g id="text_56">
      <!-- 2048 -->
      <g style="fill: #262626" transform="translate(875.153869 1464.40168) scale(0.2475 -0.2475)">
       <use xlink:href="#ArialMT-32"/>
       <use xlink:href="#ArialMT-30" x="55.615234"/>
       <use xlink:href="#ArialMT-34" x="111.230469"/>
       <use xlink:href="#ArialMT-38" x="166.845703"/>
      </g>
     </g>
    </g>
    <g id="xtick_24">
     <g id="line2d_68">
      <g>
       <use xlink:href="#m306eb4c41e" x="1118.638293" y="1434.186094" style="fill: #262626; stroke: #262626; stroke-width: 1.875"/>
      </g>
     </g>
     <g id="text_57">
      <!-- 4096 -->
      <g style="fill: #262626" transform="translate(1091.111652 1464.40168) scale(0.2475 -0.2475)">
       <use xlink:href="#ArialMT-34"/>
       <use xlink:href="#ArialMT-30" x="55.615234"/>
       <use xlink:href="#ArialMT-39" x="111.230469"/>
       <use xlink:href="#ArialMT-36" x="166.845703"/>
      </g>
     </g>
    </g>
    <g id="text_58">
     <!-- # of Variables -->
     <g style="fill: #262626" transform="translate(821.342969 1492.646836) scale(0.27 -0.27)">
      <use xlink:href="#ArialMT-23"/>
      <use xlink:href="#ArialMT-20" x="55.615234"/>
      <use xlink:href="#ArialMT-6f" x="83.398438"/>
      <use xlink:href="#ArialMT-66" x="139.013672"/>
      <use xlink:href="#ArialMT-20" x="166.796875"/>
      <use xlink:href="#ArialMT-56" x="194.580078"/>
      <use xlink:href="#ArialMT-61" x="253.904297"/>
      <use xlink:href="#ArialMT-72" x="309.519531"/>
      <use xlink:href="#ArialMT-69" x="342.820312"/>
      <use xlink:href="#ArialMT-61" x="365.037109"/>
      <use xlink:href="#ArialMT-62" x="420.652344"/>
      <use xlink:href="#ArialMT-6c" x="476.267578"/>
      <use xlink:href="#ArialMT-65" x="498.484375"/>
      <use xlink:href="#ArialMT-73" x="554.099609"/>
     </g>
    </g>
   </g>
   <g id="matplotlib.axis_16">
    <g id="ytick_15">
     <g id="line2d_69">
      <g>
       <use xlink:href="#mfc0f8809e7" x="665.569831" y="1433.018952" style="fill: #262626; stroke: #262626; stroke-width: 1.875"/>
      </g>
     </g>
     <g id="text_59">
      <!-- 0.00 -->
      <g style="fill: #262626" transform="translate(604.90401 1441.876745) scale(0.2475 -0.2475)">
       <use xlink:href="#ArialMT-30"/>
       <use xlink:href="#ArialMT-2e" x="55.615234"/>
       <use xlink:href="#ArialMT-30" x="83.398438"/>
       <use xlink:href="#ArialMT-30" x="139.013672"/>
      </g>
     </g>
    </g>
    <g id="ytick_16">
     <g id="line2d_70">
      <g>
       <use xlink:href="#mfc0f8809e7" x="665.569831" y="1129.562149" style="fill: #262626; stroke: #262626; stroke-width: 1.875"/>
      </g>
     </g>
     <g id="text_60">
      <!-- 0.26 -->
      <g style="fill: #262626" transform="translate(604.90401 1138.419942) scale(0.2475 -0.2475)">
       <use xlink:href="#ArialMT-30"/>
       <use xlink:href="#ArialMT-2e" x="55.615234"/>
       <use xlink:href="#ArialMT-32" x="83.398438"/>
       <use xlink:href="#ArialMT-36" x="139.013672"/>
      </g>
     </g>
    </g>
   </g>
   <g id="PolyCollection_15">
    <defs>
     <path id="m82587372c2" d="M 687.144519 -352.582335 
L 687.144519 -242.301413 
L 687.566312 -159.384877 
L 688.409897 -185.829134 
L 690.097067 -165.663596 
L 693.471408 -231.747096 
L 700.220088 -166.81271 
L 713.71745 -211.54258 
L 740.712173 -180.496991 
L 794.701618 -172.49982 
L 902.68051 -218.932134 
L 1118.638293 -176.196336 
L 1118.638293 -355.990007 
L 1118.638293 -355.990007 
L 902.68051 -363.106028 
L 794.701618 -355.146441 
L 740.712173 -355.158969 
L 713.71745 -356.872549 
L 700.220088 -345.746111 
L 693.471408 -346.593157 
L 690.097067 -346.883393 
L 688.409897 -348.86285 
L 687.566312 -335.195274 
L 687.144519 -352.582335 
z
" style="stroke: #377eb8; stroke-opacity: 0.2; stroke-width: 1.5"/>
    </defs>
    <g clip-path="url(#pc6a61a3633)">
     <use xlink:href="#m82587372c2" x="0" y="1505.213086" style="fill: #377eb8; fill-opacity: 0.2; stroke: #377eb8; stroke-opacity: 0.2; stroke-width: 1.5"/>
    </g>
   </g>
   <g id="PolyCollection_16">
    <defs>
     <path id="m1d8d99b390" d="M 687.144519 -388.627409 
L 687.144519 -369.820929 
L 687.566312 -373.810182 
L 688.409897 -374.522549 
L 690.097067 -376.374702 
L 693.471408 -373.667709 
L 700.220088 -375.519862 
L 713.71745 -375.234915 
L 740.712173 -374.949969 
L 794.701618 -378.654275 
L 902.68051 -373.810182 
L 1118.638293 -375.377389 
L 1118.638293 -390.052142 
L 1118.638293 -390.052142 
L 902.68051 -390.052142 
L 794.701618 -389.624722 
L 740.712173 -388.912355 
L 713.71745 -387.202675 
L 700.220088 -389.909669 
L 693.471408 -389.054829 
L 690.097067 -389.624722 
L 688.409897 -388.912355 
L 687.566312 -389.054829 
L 687.144519 -388.627409 
z
" style="stroke: #e41a1c; stroke-opacity: 0.2; stroke-width: 1.5"/>
    </defs>
    <g clip-path="url(#pc6a61a3633)">
     <use xlink:href="#m1d8d99b390" x="0" y="1505.213086" style="fill: #e41a1c; fill-opacity: 0.2; stroke: #e41a1c; stroke-opacity: 0.2; stroke-width: 1.5"/>
    </g>
   </g>
   <g id="line2d_71">
    <path d="M 665.569831 1129.562149 
L 1140.212982 1129.562149 
" clip-path="url(#pc6a61a3633)" style="fill: none; stroke-dasharray: 2.25,3.7125; stroke-dashoffset: 0; stroke: #000000; stroke-width: 2.25"/>
   </g>
   <g id="line2d_72">
    <path d="M 687.144519 1197.640418 
L 687.566312 1236.406862 
L 688.409897 1205.160125 
L 690.097067 1206.859785 
L 693.471408 1205.591652 
L 700.220088 1209.029949 
L 713.71745 1217.02712 
L 740.712173 1210.769977 
L 794.701618 1214.82494 
L 902.68051 1188.522668 
L 1118.638293 1211.9003 
" clip-path="url(#pc6a61a3633)" style="fill: none; stroke: #377eb8; stroke-width: 2.25; stroke-linecap: round"/>
   </g>
   <g id="line2d_73">
    <path d="M 687.144519 1122.142137 
L 687.566312 1124.421711 
L 688.409897 1122.427084 
L 690.097067 1118.152884 
L 693.471408 1119.007724 
L 700.220088 1118.152884 
L 713.71745 1118.437831 
L 740.712173 1118.722777 
L 794.701618 1117.298044 
L 902.68051 1117.298044 
L 1118.638293 1117.013097 
" clip-path="url(#pc6a61a3633)" style="fill: none; stroke: #e41a1c; stroke-width: 4; stroke-linecap: round"/>
   </g>
   <g id="patch_27">
    <path d="M 665.569831 1434.186094 
L 665.569831 1008.179427 
" style="fill: none; stroke: #262626; stroke-width: 1.875; stroke-linejoin: miter; stroke-linecap: square"/>
   </g>
   <g id="patch_28">
    <path d="M 665.569831 1434.186094 
L 1140.212982 1434.186094 
" style="fill: none; stroke: #262626; stroke-width: 1.875; stroke-linejoin: miter; stroke-linecap: square"/>
   </g>
  </g>
  <g id="axes_9">
   <g id="patch_29">
    <path d="M 1233.906497 1434.186094 
L 1708.549648 1434.186094 
L 1708.549648 1008.179427 
L 1233.906497 1008.179427 
L 1233.906497 1434.186094 
z
" style="fill: none"/>
   </g>
   <g id="matplotlib.axis_17">
    <g id="xtick_25">
     <g id="line2d_74">
      <g>
       <use xlink:href="#m306eb4c41e" x="1255.481186" y="1434.186094" style="fill: #262626; stroke: #262626; stroke-width: 1.875"/>
      </g>
     </g>
     <g id="text_61">
      <!-- 4 -->
      <g style="fill: #262626" transform="translate(1248.599526 1464.40168) scale(0.2475 -0.2475)">
       <use xlink:href="#ArialMT-34"/>
      </g>
     </g>
    </g>
    <g id="xtick_26">
     <g id="line2d_75">
      <g>
       <use xlink:href="#m306eb4c41e" x="1471.017177" y="1434.186094" style="fill: #262626; stroke: #262626; stroke-width: 1.875"/>
      </g>
     </g>
     <g id="text_62">
      <!-- 2048 -->
      <g style="fill: #262626" transform="translate(1443.490536 1464.40168) scale(0.2475 -0.2475)">
       <use xlink:href="#ArialMT-32"/>
       <use xlink:href="#ArialMT-30" x="55.615234"/>
       <use xlink:href="#ArialMT-34" x="111.230469"/>
       <use xlink:href="#ArialMT-38" x="166.845703"/>
      </g>
     </g>
    </g>
    <g id="xtick_27">
     <g id="line2d_76">
      <g>
       <use xlink:href="#m306eb4c41e" x="1686.97496" y="1434.186094" style="fill: #262626; stroke: #262626; stroke-width: 1.875"/>
      </g>
     </g>
     <g id="text_63">
      <!-- 4096 -->
      <g style="fill: #262626" transform="translate(1659.448319 1464.40168) scale(0.2475 -0.2475)">
       <use xlink:href="#ArialMT-34"/>
       <use xlink:href="#ArialMT-30" x="55.615234"/>
       <use xlink:href="#ArialMT-39" x="111.230469"/>
       <use xlink:href="#ArialMT-36" x="166.845703"/>
      </g>
     </g>
    </g>
    <g id="text_64">
     <!-- # of Variables -->
     <g style="fill: #262626" transform="translate(1389.679635 1492.646836) scale(0.27 -0.27)">
      <use xlink:href="#ArialMT-23"/>
      <use xlink:href="#ArialMT-20" x="55.615234"/>
      <use xlink:href="#ArialMT-6f" x="83.398438"/>
      <use xlink:href="#ArialMT-66" x="139.013672"/>
      <use xlink:href="#ArialMT-20" x="166.796875"/>
      <use xlink:href="#ArialMT-56" x="194.580078"/>
      <use xlink:href="#ArialMT-61" x="253.904297"/>
      <use xlink:href="#ArialMT-72" x="309.519531"/>
      <use xlink:href="#ArialMT-69" x="342.820312"/>
      <use xlink:href="#ArialMT-61" x="365.037109"/>
      <use xlink:href="#ArialMT-62" x="420.652344"/>
      <use xlink:href="#ArialMT-6c" x="476.267578"/>
      <use xlink:href="#ArialMT-65" x="498.484375"/>
      <use xlink:href="#ArialMT-73" x="554.099609"/>
     </g>
    </g>
   </g>
   <g id="matplotlib.axis_18">
    <g id="ytick_17">
     <g id="line2d_77">
      <g>
       <use xlink:href="#mfc0f8809e7" x="1233.906497" y="1429.968206" style="fill: #262626; stroke: #262626; stroke-width: 1.875"/>
      </g>
     </g>
     <g id="text_65">
      <!-- 0.00 -->
      <g style="fill: #262626" transform="translate(1173.240677 1438.825999) scale(0.2475 -0.2475)">
       <use xlink:href="#ArialMT-30"/>
       <use xlink:href="#ArialMT-2e" x="55.615234"/>
       <use xlink:href="#ArialMT-30" x="83.398438"/>
       <use xlink:href="#ArialMT-30" x="139.013672"/>
      </g>
     </g>
    </g>
    <g id="ytick_18">
     <g id="line2d_78">
      <g>
       <use xlink:href="#mfc0f8809e7" x="1233.906497" y="1345.61045" style="fill: #262626; stroke: #262626; stroke-width: 1.875"/>
      </g>
     </g>
     <g id="text_66">
      <!-- 0.02 -->
      <g style="fill: #262626" transform="translate(1173.240677 1354.468243) scale(0.2475 -0.2475)">
       <use xlink:href="#ArialMT-30"/>
       <use xlink:href="#ArialMT-2e" x="55.615234"/>
       <use xlink:href="#ArialMT-30" x="83.398438"/>
       <use xlink:href="#ArialMT-32" x="139.013672"/>
      </g>
     </g>
    </g>
   </g>
   <g id="PolyCollection_17">
    <defs>
     <path id="mb08bf1aab7" d="M 1255.481186 -147.345633 
L 1255.481186 -103.053913 
L 1255.902979 -93.807711 
L 1256.746564 -100.993891 
L 1258.433734 -116.417642 
L 1261.808074 -108.217801 
L 1268.556755 -75.24488 
L 1282.054116 -110.250154 
L 1309.048839 -104.087697 
L 1363.038285 -99.985261 
L 1471.017177 -98.93387 
L 1686.97496 -97.920209 
L 1686.97496 -149.385533 
L 1686.97496 -149.385533 
L 1471.017177 -147.328026 
L 1363.038285 -141.140416 
L 1309.048839 -149.393079 
L 1282.054116 -149.388048 
L 1268.556755 -151.422917 
L 1261.808074 -150.431893 
L 1258.433734 -153.508091 
L 1256.746564 -147.355695 
L 1255.902979 -145.273035 
L 1255.481186 -147.345633 
z
" style="stroke: #377eb8; stroke-opacity: 0.2; stroke-width: 1.5"/>
    </defs>
    <g clip-path="url(#p8dbf770150)">
     <use xlink:href="#mb08bf1aab7" x="0" y="1505.213086" style="fill: #377eb8; fill-opacity: 0.2; stroke: #377eb8; stroke-opacity: 0.2; stroke-width: 1.5"/>
    </g>
   </g>
   <g id="PolyCollection_18">
    <defs>
     <path id="mb5bff4cded" d="M 1255.481186 -161.744532 
L 1255.481186 -141.149377 
L 1255.902979 -127.247647 
L 1256.746564 -146.298165 
L 1258.433734 -141.149377 
L 1261.808074 -141.664256 
L 1268.556755 -139.60474 
L 1282.054116 -142.694013 
L 1309.048839 -128.792284 
L 1363.038285 -144.753529 
L 1471.017177 -139.60474 
L 1686.97496 -137.030346 
L 1686.97496 -161.229653 
L 1686.97496 -161.229653 
L 1471.017177 -161.744532 
L 1363.038285 -173.586746 
L 1309.048839 -170.497473 
L 1282.054116 -177.190898 
L 1268.556755 -165.863563 
L 1261.808074 -159.170137 
L 1258.433734 -165.348684 
L 1256.746564 -163.804047 
L 1255.902979 -179.250414 
L 1255.481186 -161.744532 
z
" style="stroke: #e41a1c; stroke-opacity: 0.2; stroke-width: 1.5"/>
    </defs>
    <g clip-path="url(#p8dbf770150)">
     <use xlink:href="#mb5bff4cded" x="0" y="1505.213086" style="fill: #e41a1c; fill-opacity: 0.2; stroke: #e41a1c; stroke-opacity: 0.2; stroke-width: 1.5"/>
    </g>
   </g>
   <g id="line2d_79">
    <path d="M 1233.906497 1345.61045 
L 1708.549648 1345.61045 
" clip-path="url(#p8dbf770150)" style="fill: none; stroke-dasharray: 2.25,3.7125; stroke-dashoffset: 0; stroke: #000000; stroke-width: 2.25"/>
   </g>
   <g id="line2d_80">
    <path d="M 1255.481186 1372.302695 
L 1255.902979 1374.360201 
L 1256.746564 1380.53272 
L 1258.433734 1370.245189 
L 1261.808074 1370.235128 
L 1268.556755 1374.35014 
L 1282.054116 1374.335048 
L 1309.048839 1376.417707 
L 1363.038285 1376.473044 
L 1471.017177 1370.265311 
L 1686.97496 1378.490305 
" clip-path="url(#p8dbf770150)" style="fill: none; stroke: #377eb8; stroke-width: 2.25; stroke-linecap: round"/>
   </g>
   <g id="line2d_81">
    <path d="M 1255.481186 1359.944678 
L 1255.902979 1344.498312 
L 1256.746564 1343.468554 
L 1258.433734 1349.647101 
L 1261.808074 1355.825647 
L 1268.556755 1352.736374 
L 1282.054116 1344.498312 
L 1309.048839 1357.885163 
L 1363.038285 1339.349523 
L 1471.017177 1352.736374 
L 1686.97496 1354.795889 
" clip-path="url(#p8dbf770150)" style="fill: none; stroke: #e41a1c; stroke-width: 4; stroke-linecap: round"/>
   </g>
   <g id="patch_30">
    <path d="M 1233.906497 1434.186094 
L 1233.906497 1008.179427 
" style="fill: none; stroke: #262626; stroke-width: 1.875; stroke-linejoin: miter; stroke-linecap: square"/>
   </g>
   <g id="patch_31">
    <path d="M 1233.906497 1434.186094 
L 1708.549648 1434.186094 
" style="fill: none; stroke: #262626; stroke-width: 1.875; stroke-linejoin: miter; stroke-linecap: square"/>
   </g>
  </g>
 </g>
 <defs>
  <clipPath id="p330fdfa368">
   <rect x="97.233164" y="32.526094" width="474.643151" height="426.006667"/>
  </clipPath>
  <clipPath id="pb535a8d9ef">
   <rect x="665.569831" y="32.526094" width="474.643151" height="426.006667"/>
  </clipPath>
  <clipPath id="pcf7b76d115">
   <rect x="1233.906497" y="32.526094" width="474.643151" height="426.006667"/>
  </clipPath>
  <clipPath id="p719f263398">
   <rect x="97.233164" y="520.35276" width="474.643151" height="426.006667"/>
  </clipPath>
  <clipPath id="p200959b85e">
   <rect x="665.569831" y="520.35276" width="474.643151" height="426.006667"/>
  </clipPath>
  <clipPath id="p2047d9d195">
   <rect x="1233.906497" y="520.35276" width="474.643151" height="426.006667"/>
  </clipPath>
  <clipPath id="p242dd084e1">
   <rect x="97.233164" y="1008.179427" width="474.643151" height="426.006667"/>
  </clipPath>
  <clipPath id="pc6a61a3633">
   <rect x="665.569831" y="1008.179427" width="474.643151" height="426.006667"/>
  </clipPath>
  <clipPath id="p8dbf770150">
   <rect x="1233.906497" y="1008.179427" width="474.643151" height="426.006667"/>
  </clipPath>
 </defs>
</svg>
