<?xml version="1.0" encoding="utf-8" standalone="no"?>
<!DOCTYPE svg PUBLIC "-//W3C//DTD SVG 1.1//EN"
  "http://www.w3.org/Graphics/SVG/1.1/DTD/svg11.dtd">
<svg xmlns:xlink="http://www.w3.org/1999/xlink" width="1304.199563pt" height="1012.342148pt" viewBox="0 0 1304.199563 1012.342148" xmlns="http://www.w3.org/2000/svg" version="1.1">
 <metadata>
  <rdf:RDF xmlns:dc="http://purl.org/dc/elements/1.1/" xmlns:cc="http://creativecommons.org/ns#" xmlns:rdf="http://www.w3.org/1999/02/22-rdf-syntax-ns#">
   <cc:Work>
    <dc:type rdf:resource="http://purl.org/dc/dcmitype/StillImage"/>
    <dc:date>2024-03-17T12:13:22.758925</dc:date>
    <dc:format>image/svg+xml</dc:format>
    <dc:creator>
     <cc:Agent>
      <dc:title>Matplotlib v3.8.2, https://matplotlib.org/</dc:title>
     </cc:Agent>
    </dc:creator>
   </cc:Work>
  </rdf:RDF>
 </metadata>
 <defs>
  <style type="text/css">*{stroke-linejoin: round; stroke-linecap: butt}</style>
 </defs>
 <g id="figure_1">
  <g id="patch_1">
   <path d="M 0 1012.342148 
L 1304.199563 1012.342148 
L 1304.199563 -0 
L 0 -0 
L 0 1012.342148 
z
" style="fill: none"/>
  </g>
  <g id="axes_1">
   <g id="patch_2">
    <path d="M 125.790727 277.17276 
L 393.303379 277.17276 
L 393.303379 32.526094 
L 125.790727 32.526094 
L 125.790727 277.17276 
z
" style="fill: none"/>
   </g>
   <g id="matplotlib.axis_1">
    <g id="xtick_1">
     <g id="line2d_1">
      <defs>
       <path id="m16f337ab8f" d="M 0 0 
L 0 9 
" style="stroke: #262626; stroke-width: 1.875"/>
      </defs>
      <g>
       <use xlink:href="#m16f337ab8f" x="137.950393" y="277.17276" style="fill: #262626; stroke: #262626; stroke-width: 1.875"/>
      </g>
     </g>
     <g id="text_1">
      <!-- 256 -->
      <g style="fill: #262626" transform="translate(117.305412 307.388346) scale(0.2475 -0.2475)">
       <defs>
        <path id="ArialMT-32" d="M 3222 541 
L 3222 0 
L 194 0 
Q 188 203 259 391 
Q 375 700 629 1000 
Q 884 1300 1366 1694 
Q 2113 2306 2375 2664 
Q 2638 3022 2638 3341 
Q 2638 3675 2398 3904 
Q 2159 4134 1775 4134 
Q 1369 4134 1125 3890 
Q 881 3647 878 3216 
L 300 3275 
Q 359 3922 746 4261 
Q 1134 4600 1788 4600 
Q 2447 4600 2831 4234 
Q 3216 3869 3216 3328 
Q 3216 3053 3103 2787 
Q 2991 2522 2730 2228 
Q 2469 1934 1863 1422 
Q 1356 997 1212 845 
Q 1069 694 975 541 
L 3222 541 
z
" transform="scale(0.015625)"/>
        <path id="ArialMT-35" d="M 266 1200 
L 856 1250 
Q 922 819 1161 601 
Q 1400 384 1738 384 
Q 2144 384 2425 690 
Q 2706 997 2706 1503 
Q 2706 1984 2436 2262 
Q 2166 2541 1728 2541 
Q 1456 2541 1237 2417 
Q 1019 2294 894 2097 
L 366 2166 
L 809 4519 
L 3088 4519 
L 3088 3981 
L 1259 3981 
L 1013 2750 
Q 1425 3038 1878 3038 
Q 2478 3038 2890 2622 
Q 3303 2206 3303 1553 
Q 3303 931 2941 478 
Q 2500 -78 1738 -78 
Q 1113 -78 717 272 
Q 322 622 266 1200 
z
" transform="scale(0.015625)"/>
        <path id="ArialMT-36" d="M 3184 3459 
L 2625 3416 
Q 2550 3747 2413 3897 
Q 2184 4138 1850 4138 
Q 1581 4138 1378 3988 
Q 1113 3794 959 3422 
Q 806 3050 800 2363 
Q 1003 2672 1297 2822 
Q 1591 2972 1913 2972 
Q 2475 2972 2870 2558 
Q 3266 2144 3266 1488 
Q 3266 1056 3080 686 
Q 2894 316 2569 119 
Q 2244 -78 1831 -78 
Q 1128 -78 684 439 
Q 241 956 241 2144 
Q 241 3472 731 4075 
Q 1159 4600 1884 4600 
Q 2425 4600 2770 4297 
Q 3116 3994 3184 3459 
z
M 888 1484 
Q 888 1194 1011 928 
Q 1134 663 1356 523 
Q 1578 384 1822 384 
Q 2178 384 2434 671 
Q 2691 959 2691 1453 
Q 2691 1928 2437 2201 
Q 2184 2475 1800 2475 
Q 1419 2475 1153 2201 
Q 888 1928 888 1484 
z
" transform="scale(0.015625)"/>
       </defs>
       <use xlink:href="#ArialMT-32"/>
       <use xlink:href="#ArialMT-35" x="55.615234"/>
       <use xlink:href="#ArialMT-36" x="111.230469"/>
      </g>
     </g>
    </g>
    <g id="xtick_2">
     <g id="line2d_2">
      <g>
       <use xlink:href="#m16f337ab8f" x="251.440609" y="277.17276" style="fill: #262626; stroke: #262626; stroke-width: 1.875"/>
      </g>
     </g>
     <g id="text_2">
      <!-- 2048 -->
      <g style="fill: #262626" transform="translate(223.913968 307.388346) scale(0.2475 -0.2475)">
       <defs>
        <path id="ArialMT-30" d="M 266 2259 
Q 266 3072 433 3567 
Q 600 4063 929 4331 
Q 1259 4600 1759 4600 
Q 2128 4600 2406 4451 
Q 2684 4303 2865 4023 
Q 3047 3744 3150 3342 
Q 3253 2941 3253 2259 
Q 3253 1453 3087 958 
Q 2922 463 2592 192 
Q 2263 -78 1759 -78 
Q 1097 -78 719 397 
Q 266 969 266 2259 
z
M 844 2259 
Q 844 1131 1108 757 
Q 1372 384 1759 384 
Q 2147 384 2411 759 
Q 2675 1134 2675 2259 
Q 2675 3391 2411 3762 
Q 2147 4134 1753 4134 
Q 1366 4134 1134 3806 
Q 844 3388 844 2259 
z
" transform="scale(0.015625)"/>
        <path id="ArialMT-34" d="M 2069 0 
L 2069 1097 
L 81 1097 
L 81 1613 
L 2172 4581 
L 2631 4581 
L 2631 1613 
L 3250 1613 
L 3250 1097 
L 2631 1097 
L 2631 0 
L 2069 0 
z
M 2069 1613 
L 2069 3678 
L 634 1613 
L 2069 1613 
z
" transform="scale(0.015625)"/>
        <path id="ArialMT-38" d="M 1131 2484 
Q 781 2613 612 2850 
Q 444 3088 444 3419 
Q 444 3919 803 4259 
Q 1163 4600 1759 4600 
Q 2359 4600 2725 4251 
Q 3091 3903 3091 3403 
Q 3091 3084 2923 2848 
Q 2756 2613 2416 2484 
Q 2838 2347 3058 2040 
Q 3278 1734 3278 1309 
Q 3278 722 2862 322 
Q 2447 -78 1769 -78 
Q 1091 -78 675 323 
Q 259 725 259 1325 
Q 259 1772 486 2073 
Q 713 2375 1131 2484 
z
M 1019 3438 
Q 1019 3113 1228 2906 
Q 1438 2700 1772 2700 
Q 2097 2700 2305 2904 
Q 2513 3109 2513 3406 
Q 2513 3716 2298 3927 
Q 2084 4138 1766 4138 
Q 1444 4138 1231 3931 
Q 1019 3725 1019 3438 
z
M 838 1322 
Q 838 1081 952 856 
Q 1066 631 1291 507 
Q 1516 384 1775 384 
Q 2178 384 2440 643 
Q 2703 903 2703 1303 
Q 2703 1709 2433 1975 
Q 2163 2241 1756 2241 
Q 1359 2241 1098 1978 
Q 838 1716 838 1322 
z
" transform="scale(0.015625)"/>
       </defs>
       <use xlink:href="#ArialMT-32"/>
       <use xlink:href="#ArialMT-30" x="55.615234"/>
       <use xlink:href="#ArialMT-34" x="111.230469"/>
       <use xlink:href="#ArialMT-38" x="166.845703"/>
      </g>
     </g>
    </g>
    <g id="xtick_3">
     <g id="line2d_3">
      <g>
       <use xlink:href="#m16f337ab8f" x="381.143713" y="277.17276" style="fill: #262626; stroke: #262626; stroke-width: 1.875"/>
      </g>
     </g>
     <g id="text_3">
      <!-- 4096 -->
      <g style="fill: #262626" transform="translate(353.617072 307.388346) scale(0.2475 -0.2475)">
       <defs>
        <path id="ArialMT-39" d="M 350 1059 
L 891 1109 
Q 959 728 1153 556 
Q 1347 384 1650 384 
Q 1909 384 2104 503 
Q 2300 622 2425 820 
Q 2550 1019 2634 1356 
Q 2719 1694 2719 2044 
Q 2719 2081 2716 2156 
Q 2547 1888 2255 1720 
Q 1963 1553 1622 1553 
Q 1053 1553 659 1965 
Q 266 2378 266 3053 
Q 266 3750 677 4175 
Q 1088 4600 1706 4600 
Q 2153 4600 2523 4359 
Q 2894 4119 3086 3673 
Q 3278 3228 3278 2384 
Q 3278 1506 3087 986 
Q 2897 466 2520 194 
Q 2144 -78 1638 -78 
Q 1100 -78 759 220 
Q 419 519 350 1059 
z
M 2653 3081 
Q 2653 3566 2395 3850 
Q 2138 4134 1775 4134 
Q 1400 4134 1122 3828 
Q 844 3522 844 3034 
Q 844 2597 1108 2323 
Q 1372 2050 1759 2050 
Q 2150 2050 2401 2323 
Q 2653 2597 2653 3081 
z
" transform="scale(0.015625)"/>
       </defs>
       <use xlink:href="#ArialMT-34"/>
       <use xlink:href="#ArialMT-30" x="55.615234"/>
       <use xlink:href="#ArialMT-39" x="111.230469"/>
       <use xlink:href="#ArialMT-36" x="166.845703"/>
      </g>
     </g>
    </g>
   </g>
   <g id="matplotlib.axis_2">
    <g id="ytick_1">
     <g id="line2d_4">
      <defs>
       <path id="mc40f425984" d="M 0 0 
L -9 0 
" style="stroke: #262626; stroke-width: 1.875"/>
      </defs>
      <g>
       <use xlink:href="#mc40f425984" x="125.790727" y="275.594395" style="fill: #262626; stroke: #262626; stroke-width: 1.875"/>
      </g>
     </g>
     <g id="text_4">
      <!-- 0.00 -->
      <g style="fill: #262626" transform="translate(65.124906 284.452188) scale(0.2475 -0.2475)">
       <defs>
        <path id="ArialMT-2e" d="M 581 0 
L 581 641 
L 1222 641 
L 1222 0 
L 581 0 
z
" transform="scale(0.015625)"/>
       </defs>
       <use xlink:href="#ArialMT-30"/>
       <use xlink:href="#ArialMT-2e" x="55.615234"/>
       <use xlink:href="#ArialMT-30" x="83.398438"/>
       <use xlink:href="#ArialMT-30" x="139.013672"/>
      </g>
     </g>
    </g>
    <g id="ytick_2">
     <g id="line2d_5">
      <g>
       <use xlink:href="#mc40f425984" x="125.790727" y="101.97418" style="fill: #262626; stroke: #262626; stroke-width: 1.875"/>
      </g>
     </g>
     <g id="text_5">
      <!-- 0.11 -->
      <g style="fill: #262626" transform="translate(66.950219 110.831973) scale(0.2475 -0.2475)">
       <defs>
        <path id="ArialMT-31" d="M 2384 0 
L 1822 0 
L 1822 3584 
Q 1619 3391 1289 3197 
Q 959 3003 697 2906 
L 697 3450 
Q 1169 3672 1522 3987 
Q 1875 4303 2022 4600 
L 2384 4600 
L 2384 0 
z
" transform="scale(0.015625)"/>
       </defs>
       <use xlink:href="#ArialMT-30"/>
       <use xlink:href="#ArialMT-2e" x="55.615234"/>
       <use xlink:href="#ArialMT-31" x="83.398438"/>
       <use xlink:href="#ArialMT-31" x="131.638672"/>
      </g>
     </g>
    </g>
    <g id="text_6">
     <!-- Mutual Information -->
     <g style="fill: #262626" transform="translate(27.201094 266.644193) rotate(-90) scale(0.27 -0.27)">
      <defs>
       <path id="ArialMT-4d" d="M 475 0 
L 475 4581 
L 1388 4581 
L 2472 1338 
Q 2622 884 2691 659 
Q 2769 909 2934 1394 
L 4031 4581 
L 4847 4581 
L 4847 0 
L 4263 0 
L 4263 3834 
L 2931 0 
L 2384 0 
L 1059 3900 
L 1059 0 
L 475 0 
z
" transform="scale(0.015625)"/>
       <path id="ArialMT-75" d="M 2597 0 
L 2597 488 
Q 2209 -75 1544 -75 
Q 1250 -75 995 37 
Q 741 150 617 320 
Q 494 491 444 738 
Q 409 903 409 1263 
L 409 3319 
L 972 3319 
L 972 1478 
Q 972 1038 1006 884 
Q 1059 663 1231 536 
Q 1403 409 1656 409 
Q 1909 409 2131 539 
Q 2353 669 2445 892 
Q 2538 1116 2538 1541 
L 2538 3319 
L 3100 3319 
L 3100 0 
L 2597 0 
z
" transform="scale(0.015625)"/>
       <path id="ArialMT-74" d="M 1650 503 
L 1731 6 
Q 1494 -44 1306 -44 
Q 1000 -44 831 53 
Q 663 150 594 308 
Q 525 466 525 972 
L 525 2881 
L 113 2881 
L 113 3319 
L 525 3319 
L 525 4141 
L 1084 4478 
L 1084 3319 
L 1650 3319 
L 1650 2881 
L 1084 2881 
L 1084 941 
Q 1084 700 1114 631 
Q 1144 563 1211 522 
Q 1278 481 1403 481 
Q 1497 481 1650 503 
z
" transform="scale(0.015625)"/>
       <path id="ArialMT-61" d="M 2588 409 
Q 2275 144 1986 34 
Q 1697 -75 1366 -75 
Q 819 -75 525 192 
Q 231 459 231 875 
Q 231 1119 342 1320 
Q 453 1522 633 1644 
Q 813 1766 1038 1828 
Q 1203 1872 1538 1913 
Q 2219 1994 2541 2106 
Q 2544 2222 2544 2253 
Q 2544 2597 2384 2738 
Q 2169 2928 1744 2928 
Q 1347 2928 1158 2789 
Q 969 2650 878 2297 
L 328 2372 
Q 403 2725 575 2942 
Q 747 3159 1072 3276 
Q 1397 3394 1825 3394 
Q 2250 3394 2515 3294 
Q 2781 3194 2906 3042 
Q 3031 2891 3081 2659 
Q 3109 2516 3109 2141 
L 3109 1391 
Q 3109 606 3145 398 
Q 3181 191 3288 0 
L 2700 0 
Q 2613 175 2588 409 
z
M 2541 1666 
Q 2234 1541 1622 1453 
Q 1275 1403 1131 1340 
Q 988 1278 909 1158 
Q 831 1038 831 891 
Q 831 666 1001 516 
Q 1172 366 1500 366 
Q 1825 366 2078 508 
Q 2331 650 2450 897 
Q 2541 1088 2541 1459 
L 2541 1666 
z
" transform="scale(0.015625)"/>
       <path id="ArialMT-6c" d="M 409 0 
L 409 4581 
L 972 4581 
L 972 0 
L 409 0 
z
" transform="scale(0.015625)"/>
       <path id="ArialMT-20" transform="scale(0.015625)"/>
       <path id="ArialMT-49" d="M 597 0 
L 597 4581 
L 1203 4581 
L 1203 0 
L 597 0 
z
" transform="scale(0.015625)"/>
       <path id="ArialMT-6e" d="M 422 0 
L 422 3319 
L 928 3319 
L 928 2847 
Q 1294 3394 1984 3394 
Q 2284 3394 2536 3286 
Q 2788 3178 2913 3003 
Q 3038 2828 3088 2588 
Q 3119 2431 3119 2041 
L 3119 0 
L 2556 0 
L 2556 2019 
Q 2556 2363 2490 2533 
Q 2425 2703 2258 2804 
Q 2091 2906 1866 2906 
Q 1506 2906 1245 2678 
Q 984 2450 984 1813 
L 984 0 
L 422 0 
z
" transform="scale(0.015625)"/>
       <path id="ArialMT-66" d="M 556 0 
L 556 2881 
L 59 2881 
L 59 3319 
L 556 3319 
L 556 3672 
Q 556 4006 616 4169 
Q 697 4388 901 4523 
Q 1106 4659 1475 4659 
Q 1713 4659 2000 4603 
L 1916 4113 
Q 1741 4144 1584 4144 
Q 1328 4144 1222 4034 
Q 1116 3925 1116 3625 
L 1116 3319 
L 1763 3319 
L 1763 2881 
L 1116 2881 
L 1116 0 
L 556 0 
z
" transform="scale(0.015625)"/>
       <path id="ArialMT-6f" d="M 213 1659 
Q 213 2581 725 3025 
Q 1153 3394 1769 3394 
Q 2453 3394 2887 2945 
Q 3322 2497 3322 1706 
Q 3322 1066 3130 698 
Q 2938 331 2570 128 
Q 2203 -75 1769 -75 
Q 1072 -75 642 372 
Q 213 819 213 1659 
z
M 791 1659 
Q 791 1022 1069 705 
Q 1347 388 1769 388 
Q 2188 388 2466 706 
Q 2744 1025 2744 1678 
Q 2744 2294 2464 2611 
Q 2184 2928 1769 2928 
Q 1347 2928 1069 2612 
Q 791 2297 791 1659 
z
" transform="scale(0.015625)"/>
       <path id="ArialMT-72" d="M 416 0 
L 416 3319 
L 922 3319 
L 922 2816 
Q 1116 3169 1280 3281 
Q 1444 3394 1641 3394 
Q 1925 3394 2219 3213 
L 2025 2691 
Q 1819 2813 1613 2813 
Q 1428 2813 1281 2702 
Q 1134 2591 1072 2394 
Q 978 2094 978 1738 
L 978 0 
L 416 0 
z
" transform="scale(0.015625)"/>
       <path id="ArialMT-6d" d="M 422 0 
L 422 3319 
L 925 3319 
L 925 2853 
Q 1081 3097 1340 3245 
Q 1600 3394 1931 3394 
Q 2300 3394 2536 3241 
Q 2772 3088 2869 2813 
Q 3263 3394 3894 3394 
Q 4388 3394 4653 3120 
Q 4919 2847 4919 2278 
L 4919 0 
L 4359 0 
L 4359 2091 
Q 4359 2428 4304 2576 
Q 4250 2725 4106 2815 
Q 3963 2906 3769 2906 
Q 3419 2906 3187 2673 
Q 2956 2441 2956 1928 
L 2956 0 
L 2394 0 
L 2394 2156 
Q 2394 2531 2256 2718 
Q 2119 2906 1806 2906 
Q 1569 2906 1367 2781 
Q 1166 2656 1075 2415 
Q 984 2175 984 1722 
L 984 0 
L 422 0 
z
" transform="scale(0.015625)"/>
       <path id="ArialMT-69" d="M 425 3934 
L 425 4581 
L 988 4581 
L 988 3934 
L 425 3934 
z
M 425 0 
L 425 3319 
L 988 3319 
L 988 0 
L 425 0 
z
" transform="scale(0.015625)"/>
      </defs>
      <use xlink:href="#ArialMT-4d"/>
      <use xlink:href="#ArialMT-75" x="83.300781"/>
      <use xlink:href="#ArialMT-74" x="138.916016"/>
      <use xlink:href="#ArialMT-75" x="166.699219"/>
      <use xlink:href="#ArialMT-61" x="222.314453"/>
      <use xlink:href="#ArialMT-6c" x="277.929688"/>
      <use xlink:href="#ArialMT-20" x="300.146484"/>
      <use xlink:href="#ArialMT-49" x="327.929688"/>
      <use xlink:href="#ArialMT-6e" x="355.712891"/>
      <use xlink:href="#ArialMT-66" x="411.328125"/>
      <use xlink:href="#ArialMT-6f" x="439.111328"/>
      <use xlink:href="#ArialMT-72" x="494.726562"/>
      <use xlink:href="#ArialMT-6d" x="528.027344"/>
      <use xlink:href="#ArialMT-61" x="611.328125"/>
      <use xlink:href="#ArialMT-74" x="666.943359"/>
      <use xlink:href="#ArialMT-69" x="694.726562"/>
      <use xlink:href="#ArialMT-6f" x="716.943359"/>
      <use xlink:href="#ArialMT-6e" x="772.558594"/>
     </g>
     <!-- for 4096 Variables -->
     <g style="fill: #262626" transform="translate(55.758656 263.41474) rotate(-90) scale(0.27 -0.27)">
      <defs>
       <path id="ArialMT-56" d="M 1803 0 
L 28 4581 
L 684 4581 
L 1875 1253 
Q 2019 853 2116 503 
Q 2222 878 2363 1253 
L 3600 4581 
L 4219 4581 
L 2425 0 
L 1803 0 
z
" transform="scale(0.015625)"/>
       <path id="ArialMT-62" d="M 941 0 
L 419 0 
L 419 4581 
L 981 4581 
L 981 2947 
Q 1338 3394 1891 3394 
Q 2197 3394 2470 3270 
Q 2744 3147 2920 2923 
Q 3097 2700 3197 2384 
Q 3297 2069 3297 1709 
Q 3297 856 2875 390 
Q 2453 -75 1863 -75 
Q 1275 -75 941 416 
L 941 0 
z
M 934 1684 
Q 934 1088 1097 822 
Q 1363 388 1816 388 
Q 2184 388 2453 708 
Q 2722 1028 2722 1663 
Q 2722 2313 2464 2622 
Q 2206 2931 1841 2931 
Q 1472 2931 1203 2611 
Q 934 2291 934 1684 
z
" transform="scale(0.015625)"/>
       <path id="ArialMT-65" d="M 2694 1069 
L 3275 997 
Q 3138 488 2766 206 
Q 2394 -75 1816 -75 
Q 1088 -75 661 373 
Q 234 822 234 1631 
Q 234 2469 665 2931 
Q 1097 3394 1784 3394 
Q 2450 3394 2872 2941 
Q 3294 2488 3294 1666 
Q 3294 1616 3291 1516 
L 816 1516 
Q 847 969 1125 678 
Q 1403 388 1819 388 
Q 2128 388 2347 550 
Q 2566 713 2694 1069 
z
M 847 1978 
L 2700 1978 
Q 2663 2397 2488 2606 
Q 2219 2931 1791 2931 
Q 1403 2931 1139 2672 
Q 875 2413 847 1978 
z
" transform="scale(0.015625)"/>
       <path id="ArialMT-73" d="M 197 991 
L 753 1078 
Q 800 744 1014 566 
Q 1228 388 1613 388 
Q 2000 388 2187 545 
Q 2375 703 2375 916 
Q 2375 1106 2209 1216 
Q 2094 1291 1634 1406 
Q 1016 1563 777 1677 
Q 538 1791 414 1992 
Q 291 2194 291 2438 
Q 291 2659 392 2848 
Q 494 3038 669 3163 
Q 800 3259 1026 3326 
Q 1253 3394 1513 3394 
Q 1903 3394 2198 3281 
Q 2494 3169 2634 2976 
Q 2775 2784 2828 2463 
L 2278 2388 
Q 2241 2644 2061 2787 
Q 1881 2931 1553 2931 
Q 1166 2931 1000 2803 
Q 834 2675 834 2503 
Q 834 2394 903 2306 
Q 972 2216 1119 2156 
Q 1203 2125 1616 2013 
Q 2213 1853 2448 1751 
Q 2684 1650 2818 1456 
Q 2953 1263 2953 975 
Q 2953 694 2789 445 
Q 2625 197 2315 61 
Q 2006 -75 1616 -75 
Q 969 -75 630 194 
Q 291 463 197 991 
z
" transform="scale(0.015625)"/>
      </defs>
      <use xlink:href="#ArialMT-66"/>
      <use xlink:href="#ArialMT-6f" x="27.783203"/>
      <use xlink:href="#ArialMT-72" x="83.398438"/>
      <use xlink:href="#ArialMT-20" x="116.699219"/>
      <use xlink:href="#ArialMT-34" x="144.482422"/>
      <use xlink:href="#ArialMT-30" x="200.097656"/>
      <use xlink:href="#ArialMT-39" x="255.712891"/>
      <use xlink:href="#ArialMT-36" x="311.328125"/>
      <use xlink:href="#ArialMT-20" x="366.943359"/>
      <use xlink:href="#ArialMT-56" x="394.726562"/>
      <use xlink:href="#ArialMT-61" x="454.050781"/>
      <use xlink:href="#ArialMT-72" x="509.666016"/>
      <use xlink:href="#ArialMT-69" x="542.966797"/>
      <use xlink:href="#ArialMT-61" x="565.183594"/>
      <use xlink:href="#ArialMT-62" x="620.798828"/>
      <use xlink:href="#ArialMT-6c" x="676.414062"/>
      <use xlink:href="#ArialMT-65" x="698.630859"/>
      <use xlink:href="#ArialMT-73" x="754.246094"/>
     </g>
    </g>
   </g>
   <g id="PolyCollection_1">
    <defs>
     <path id="m33194b65ec" d="M 137.950393 -736.747754 
L 137.950393 -736.747754 
L 154.163281 -736.747754 
L 186.589057 -736.747754 
L 251.440609 -736.747754 
L 381.143713 -736.747754 
L 381.143713 -736.747754 
L 381.143713 -736.747754 
L 251.440609 -736.747754 
L 186.589057 -736.747754 
L 154.163281 -736.747754 
L 137.950393 -736.747754 
z
" style="stroke: #4daf4a; stroke-opacity: 0.2; stroke-width: 1.5"/>
    </defs>
    <g clip-path="url(#p1d70a86359)">
     <use xlink:href="#m33194b65ec" x="0" y="1012.342148" style="fill: #4daf4a; fill-opacity: 0.2; stroke: #4daf4a; stroke-opacity: 0.2; stroke-width: 1.5"/>
    </g>
   </g>
   <g id="PolyCollection_2">
    <defs>
     <path id="mc7553a1797" d="M 137.950393 -744.296255 
L 137.950393 -738.097188 
L 154.163281 -748.72589 
L 186.589057 -767.167979 
L 251.440609 -787.745201 
L 381.143713 -809.639529 
L 381.143713 -818.03053 
L 381.143713 -818.03053 
L 251.440609 -797.563086 
L 186.589057 -776.606404 
L 154.163281 -760.44993 
L 137.950393 -744.296255 
z
" style="stroke: #e41a1c; stroke-opacity: 0.2; stroke-width: 1.5"/>
    </defs>
    <g clip-path="url(#p1d70a86359)">
     <use xlink:href="#mc7553a1797" x="0" y="1012.342148" style="fill: #e41a1c; fill-opacity: 0.2; stroke: #e41a1c; stroke-opacity: 0.2; stroke-width: 1.5"/>
    </g>
   </g>
   <g id="line2d_6">
    <path d="M 125.790727 101.97418 
L 393.303379 101.97418 
" clip-path="url(#p1d70a86359)" style="fill: none; stroke-dasharray: 2.25,3.7125; stroke-dashoffset: 0; stroke: #000000; stroke-width: 2.25"/>
   </g>
   <g id="line2d_7">
    <path d="M 137.950393 275.594395 
L 154.163281 275.594395 
L 186.589057 275.594395 
L 251.440609 275.594395 
L 381.143713 275.594395 
" clip-path="url(#p1d70a86359)" style="fill: none; stroke: #4daf4a; stroke-width: 2.25; stroke-linecap: round"/>
   </g>
   <g id="line2d_8">
    <path d="M 137.950393 271.600418 
L 154.163281 258.154643 
L 186.589057 239.672149 
L 251.440609 219.24624 
L 381.143713 199.062261 
" clip-path="url(#p1d70a86359)" style="fill: none; stroke: #e41a1c; stroke-width: 4; stroke-linecap: round"/>
   </g>
   <g id="patch_3">
    <path d="M 125.790727 277.17276 
L 125.790727 32.526094 
" style="fill: none; stroke: #262626; stroke-width: 1.875; stroke-linejoin: miter; stroke-linecap: square"/>
   </g>
   <g id="patch_4">
    <path d="M 125.790727 277.17276 
L 393.303379 277.17276 
" style="fill: none; stroke: #262626; stroke-width: 1.875; stroke-linejoin: miter; stroke-linecap: square"/>
   </g>
   <g id="text_7">
    <!-- Linear -->
    <g style="fill: #262626" transform="translate(222.023381 26.526094) scale(0.27 -0.27)">
     <defs>
      <path id="ArialMT-4c" d="M 469 0 
L 469 4581 
L 1075 4581 
L 1075 541 
L 3331 541 
L 3331 0 
L 469 0 
z
" transform="scale(0.015625)"/>
     </defs>
     <use xlink:href="#ArialMT-4c"/>
     <use xlink:href="#ArialMT-69" x="55.615234"/>
     <use xlink:href="#ArialMT-6e" x="77.832031"/>
     <use xlink:href="#ArialMT-65" x="133.447266"/>
     <use xlink:href="#ArialMT-61" x="189.0625"/>
     <use xlink:href="#ArialMT-72" x="244.677734"/>
    </g>
   </g>
   <g id="text_8">
    <!-- A -->
    <g style="fill: #262626" transform="translate(125.790727 26.526094) scale(0.27 -0.27)">
     <defs>
      <path id="Arial-BoldMT-41" d="M 4597 0 
L 3591 0 
L 3191 1041 
L 1359 1041 
L 981 0 
L 0 0 
L 1784 4581 
L 2763 4581 
L 4597 0 
z
M 2894 1813 
L 2263 3513 
L 1644 1813 
L 2894 1813 
z
" transform="scale(0.015625)"/>
     </defs>
     <use xlink:href="#Arial-BoldMT-41"/>
    </g>
   </g>
   <g id="legend_1">
    <g id="patch_5">
     <path d="M 1133.115891 136.595039 
L 1292.049563 136.595039 
Q 1296.999563 136.595039 1296.999563 131.645039 
L 1296.999563 29.091094 
Q 1296.999563 24.141094 1292.049563 24.141094 
L 1133.115891 24.141094 
Q 1128.165891 24.141094 1128.165891 29.091094 
L 1128.165891 131.645039 
Q 1128.165891 136.595039 1133.115891 136.595039 
z
" style="fill: #ffffff; opacity: 0.8"/>
    </g>
    <g id="line2d_9">
     <path d="M 1138.065891 43.09418 
L 1162.815891 43.09418 
L 1187.565891 43.09418 
" style="fill: none; stroke: #e41a1c; stroke-width: 5; stroke-linecap: round"/>
    </g>
    <g id="text_9">
     <!-- MIGHT -->
     <g style="fill: #262626" transform="translate(1207.365891 51.75668) scale(0.2475 -0.2475)">
      <defs>
       <path id="ArialMT-47" d="M 2638 1797 
L 2638 2334 
L 4578 2338 
L 4578 638 
Q 4131 281 3656 101 
Q 3181 -78 2681 -78 
Q 2006 -78 1454 211 
Q 903 500 622 1047 
Q 341 1594 341 2269 
Q 341 2938 620 3517 
Q 900 4097 1425 4378 
Q 1950 4659 2634 4659 
Q 3131 4659 3532 4498 
Q 3934 4338 4162 4050 
Q 4391 3763 4509 3300 
L 3963 3150 
Q 3859 3500 3706 3700 
Q 3553 3900 3268 4020 
Q 2984 4141 2638 4141 
Q 2222 4141 1919 4014 
Q 1616 3888 1430 3681 
Q 1244 3475 1141 3228 
Q 966 2803 966 2306 
Q 966 1694 1177 1281 
Q 1388 869 1791 669 
Q 2194 469 2647 469 
Q 3041 469 3416 620 
Q 3791 772 3984 944 
L 3984 1797 
L 2638 1797 
z
" transform="scale(0.015625)"/>
       <path id="ArialMT-48" d="M 513 0 
L 513 4581 
L 1119 4581 
L 1119 2700 
L 3500 2700 
L 3500 4581 
L 4106 4581 
L 4106 0 
L 3500 0 
L 3500 2159 
L 1119 2159 
L 1119 0 
L 513 0 
z
" transform="scale(0.015625)"/>
       <path id="ArialMT-54" d="M 1659 0 
L 1659 4041 
L 150 4041 
L 150 4581 
L 3781 4581 
L 3781 4041 
L 2266 4041 
L 2266 0 
L 1659 0 
z
" transform="scale(0.015625)"/>
      </defs>
      <use xlink:href="#ArialMT-4d"/>
      <use xlink:href="#ArialMT-49" x="83.300781"/>
      <use xlink:href="#ArialMT-47" x="111.083984"/>
      <use xlink:href="#ArialMT-48" x="188.867188"/>
      <use xlink:href="#ArialMT-54" x="261.083984"/>
     </g>
    </g>
    <g id="line2d_10">
     <path d="M 1138.065891 78.103828 
L 1162.815891 78.103828 
L 1187.565891 78.103828 
" style="fill: none; stroke: #4daf4a; stroke-width: 5; stroke-linecap: round"/>
    </g>
    <g id="text_10">
     <!-- KSG -->
     <g style="fill: #262626" transform="translate(1207.365891 86.766328) scale(0.2475 -0.2475)">
      <defs>
       <path id="ArialMT-4b" d="M 469 0 
L 469 4581 
L 1075 4581 
L 1075 2309 
L 3350 4581 
L 4172 4581 
L 2250 2725 
L 4256 0 
L 3456 0 
L 1825 2319 
L 1075 1588 
L 1075 0 
L 469 0 
z
" transform="scale(0.015625)"/>
       <path id="ArialMT-53" d="M 288 1472 
L 859 1522 
Q 900 1178 1048 958 
Q 1197 738 1509 602 
Q 1822 466 2213 466 
Q 2559 466 2825 569 
Q 3091 672 3220 851 
Q 3350 1031 3350 1244 
Q 3350 1459 3225 1620 
Q 3100 1781 2813 1891 
Q 2628 1963 1997 2114 
Q 1366 2266 1113 2400 
Q 784 2572 623 2826 
Q 463 3081 463 3397 
Q 463 3744 659 4045 
Q 856 4347 1234 4503 
Q 1613 4659 2075 4659 
Q 2584 4659 2973 4495 
Q 3363 4331 3572 4012 
Q 3781 3694 3797 3291 
L 3216 3247 
Q 3169 3681 2898 3903 
Q 2628 4125 2100 4125 
Q 1550 4125 1298 3923 
Q 1047 3722 1047 3438 
Q 1047 3191 1225 3031 
Q 1400 2872 2139 2705 
Q 2878 2538 3153 2413 
Q 3553 2228 3743 1945 
Q 3934 1663 3934 1294 
Q 3934 928 3725 604 
Q 3516 281 3123 101 
Q 2731 -78 2241 -78 
Q 1619 -78 1198 103 
Q 778 284 539 648 
Q 300 1013 288 1472 
z
" transform="scale(0.015625)"/>
      </defs>
      <use xlink:href="#ArialMT-4b"/>
      <use xlink:href="#ArialMT-53" x="66.699219"/>
      <use xlink:href="#ArialMT-47" x="133.398438"/>
     </g>
    </g>
    <g id="line2d_11">
     <path d="M 1138.065891 113.113477 
L 1162.815891 113.113477 
L 1187.565891 113.113477 
" style="fill: none; stroke-dasharray: 5,8.25; stroke-dashoffset: 0; stroke: #000000; stroke-width: 5"/>
    </g>
    <g id="text_11">
     <!-- Truth -->
     <g style="fill: #262626" transform="translate(1207.365891 121.775977) scale(0.2475 -0.2475)">
      <defs>
       <path id="ArialMT-68" d="M 422 0 
L 422 4581 
L 984 4581 
L 984 2938 
Q 1378 3394 1978 3394 
Q 2347 3394 2619 3248 
Q 2891 3103 3008 2847 
Q 3125 2591 3125 2103 
L 3125 0 
L 2563 0 
L 2563 2103 
Q 2563 2525 2380 2717 
Q 2197 2909 1863 2909 
Q 1613 2909 1392 2779 
Q 1172 2650 1078 2428 
Q 984 2206 984 1816 
L 984 0 
L 422 0 
z
" transform="scale(0.015625)"/>
      </defs>
      <use xlink:href="#ArialMT-54"/>
      <use xlink:href="#ArialMT-72" x="57.333984"/>
      <use xlink:href="#ArialMT-75" x="90.634766"/>
      <use xlink:href="#ArialMT-74" x="146.25"/>
      <use xlink:href="#ArialMT-68" x="174.033203"/>
     </g>
    </g>
   </g>
  </g>
  <g id="axes_2">
   <g id="patch_6">
    <path d="M 496.271393 277.17276 
L 763.784046 277.17276 
L 763.784046 32.526094 
L 496.271393 32.526094 
L 496.271393 277.17276 
z
" style="fill: none"/>
   </g>
   <g id="matplotlib.axis_3">
    <g id="xtick_4">
     <g id="line2d_12">
      <g>
       <use xlink:href="#m16f337ab8f" x="508.431059" y="277.17276" style="fill: #262626; stroke: #262626; stroke-width: 1.875"/>
      </g>
     </g>
     <g id="text_12">
      <!-- 256 -->
      <g style="fill: #262626" transform="translate(487.786079 307.388346) scale(0.2475 -0.2475)">
       <use xlink:href="#ArialMT-32"/>
       <use xlink:href="#ArialMT-35" x="55.615234"/>
       <use xlink:href="#ArialMT-36" x="111.230469"/>
      </g>
     </g>
    </g>
    <g id="xtick_5">
     <g id="line2d_13">
      <g>
       <use xlink:href="#m16f337ab8f" x="621.921275" y="277.17276" style="fill: #262626; stroke: #262626; stroke-width: 1.875"/>
      </g>
     </g>
     <g id="text_13">
      <!-- 2048 -->
      <g style="fill: #262626" transform="translate(594.394635 307.388346) scale(0.2475 -0.2475)">
       <use xlink:href="#ArialMT-32"/>
       <use xlink:href="#ArialMT-30" x="55.615234"/>
       <use xlink:href="#ArialMT-34" x="111.230469"/>
       <use xlink:href="#ArialMT-38" x="166.845703"/>
      </g>
     </g>
    </g>
    <g id="xtick_6">
     <g id="line2d_14">
      <g>
       <use xlink:href="#m16f337ab8f" x="751.62438" y="277.17276" style="fill: #262626; stroke: #262626; stroke-width: 1.875"/>
      </g>
     </g>
     <g id="text_14">
      <!-- 4096 -->
      <g style="fill: #262626" transform="translate(724.097739 307.388346) scale(0.2475 -0.2475)">
       <use xlink:href="#ArialMT-34"/>
       <use xlink:href="#ArialMT-30" x="55.615234"/>
       <use xlink:href="#ArialMT-39" x="111.230469"/>
       <use xlink:href="#ArialMT-36" x="166.845703"/>
      </g>
     </g>
    </g>
   </g>
   <g id="matplotlib.axis_4">
    <g id="ytick_3">
     <g id="line2d_15">
      <g>
       <use xlink:href="#mc40f425984" x="496.271393" y="275.246409" style="fill: #262626; stroke: #262626; stroke-width: 1.875"/>
      </g>
     </g>
     <g id="text_15">
      <!-- 0.00 -->
      <g style="fill: #262626" transform="translate(435.605573 284.104202) scale(0.2475 -0.2475)">
       <use xlink:href="#ArialMT-30"/>
       <use xlink:href="#ArialMT-2e" x="55.615234"/>
       <use xlink:href="#ArialMT-30" x="83.398438"/>
       <use xlink:href="#ArialMT-30" x="139.013672"/>
      </g>
     </g>
    </g>
    <g id="ytick_4">
     <g id="line2d_16">
      <g>
       <use xlink:href="#mc40f425984" x="496.271393" y="101.874755" style="fill: #262626; stroke: #262626; stroke-width: 1.875"/>
      </g>
     </g>
     <g id="text_16">
      <!-- 0.09 -->
      <g style="fill: #262626" transform="translate(435.605573 110.732548) scale(0.2475 -0.2475)">
       <use xlink:href="#ArialMT-30"/>
       <use xlink:href="#ArialMT-2e" x="55.615234"/>
       <use xlink:href="#ArialMT-30" x="83.398438"/>
       <use xlink:href="#ArialMT-39" x="139.013672"/>
      </g>
     </g>
    </g>
   </g>
   <g id="PolyCollection_3">
    <defs>
     <path id="m5fb51fc47a" d="M 508.431059 -737.09574 
L 508.431059 -737.09574 
L 524.643947 -737.09574 
L 557.069723 -737.09574 
L 621.921275 -737.09574 
L 751.62438 -737.09574 
L 751.62438 -737.09574 
L 751.62438 -737.09574 
L 621.921275 -737.09574 
L 557.069723 -737.09574 
L 524.643947 -737.09574 
L 508.431059 -737.09574 
z
" style="stroke: #4daf4a; stroke-opacity: 0.2; stroke-width: 1.5"/>
    </defs>
    <g clip-path="url(#pb179c94d0a)">
     <use xlink:href="#m5fb51fc47a" x="0" y="1012.342148" style="fill: #4daf4a; fill-opacity: 0.2; stroke: #4daf4a; stroke-opacity: 0.2; stroke-width: 1.5"/>
    </g>
   </g>
   <g id="PolyCollection_4">
    <defs>
     <path id="m1cde137ced" d="M 508.431059 -738.312902 
L 508.431059 -737.326769 
L 524.643947 -749.518166 
L 557.069723 -776.923297 
L 621.921275 -807.984566 
L 751.62438 -833.675989 
L 751.62438 -842.789539 
L 751.62438 -842.789539 
L 621.921275 -817.34895 
L 557.069723 -787.516063 
L 524.643947 -757.209401 
L 508.431059 -738.312902 
z
" style="stroke: #e41a1c; stroke-opacity: 0.2; stroke-width: 1.5"/>
    </defs>
    <g clip-path="url(#pb179c94d0a)">
     <use xlink:href="#m1cde137ced" x="0" y="1012.342148" style="fill: #e41a1c; fill-opacity: 0.2; stroke: #e41a1c; stroke-opacity: 0.2; stroke-width: 1.5"/>
    </g>
   </g>
   <g id="line2d_17">
    <path d="M 496.271393 101.874755 
L 763.784046 101.874755 
" clip-path="url(#pb179c94d0a)" style="fill: none; stroke-dasharray: 2.25,3.7125; stroke-dashoffset: 0; stroke: #000000; stroke-width: 2.25"/>
   </g>
   <g id="line2d_18">
    <path d="M 508.431059 275.246409 
L 524.643947 275.246409 
L 557.069723 275.246409 
L 621.921275 275.246409 
L 751.62438 275.246409 
" clip-path="url(#pb179c94d0a)" style="fill: none; stroke: #4daf4a; stroke-width: 2.25; stroke-linecap: round"/>
   </g>
   <g id="line2d_19">
    <path d="M 508.431059 274.717494 
L 524.643947 258.668095 
L 557.069723 230.174306 
L 621.921275 200.03427 
L 751.62438 173.422164 
" clip-path="url(#pb179c94d0a)" style="fill: none; stroke: #e41a1c; stroke-width: 4; stroke-linecap: round"/>
   </g>
   <g id="patch_7">
    <path d="M 496.271393 277.17276 
L 496.271393 32.526094 
" style="fill: none; stroke: #262626; stroke-width: 1.875; stroke-linejoin: miter; stroke-linecap: square"/>
   </g>
   <g id="patch_8">
    <path d="M 496.271393 277.17276 
L 763.784046 277.17276 
" style="fill: none; stroke: #262626; stroke-width: 1.875; stroke-linejoin: miter; stroke-linecap: square"/>
   </g>
   <g id="text_17">
    <!-- Nonlinear -->
    <g style="fill: #262626" transform="translate(572.247719 26.526094) scale(0.27 -0.27)">
     <defs>
      <path id="ArialMT-4e" d="M 488 0 
L 488 4581 
L 1109 4581 
L 3516 984 
L 3516 4581 
L 4097 4581 
L 4097 0 
L 3475 0 
L 1069 3600 
L 1069 0 
L 488 0 
z
" transform="scale(0.015625)"/>
     </defs>
     <use xlink:href="#ArialMT-4e"/>
     <use xlink:href="#ArialMT-6f" x="72.216797"/>
     <use xlink:href="#ArialMT-6e" x="127.832031"/>
     <use xlink:href="#ArialMT-6c" x="183.447266"/>
     <use xlink:href="#ArialMT-69" x="205.664062"/>
     <use xlink:href="#ArialMT-6e" x="227.880859"/>
     <use xlink:href="#ArialMT-65" x="283.496094"/>
     <use xlink:href="#ArialMT-61" x="339.111328"/>
     <use xlink:href="#ArialMT-72" x="394.726562"/>
    </g>
   </g>
   <g id="text_18">
    <!-- B -->
    <g style="fill: #262626" transform="translate(496.271393 26.526094) scale(0.27 -0.27)">
     <defs>
      <path id="Arial-BoldMT-42" d="M 469 4581 
L 2300 4581 
Q 2844 4581 3111 4536 
Q 3378 4491 3589 4347 
Q 3800 4203 3940 3964 
Q 4081 3725 4081 3428 
Q 4081 3106 3907 2837 
Q 3734 2569 3438 2434 
Q 3856 2313 4081 2019 
Q 4306 1725 4306 1328 
Q 4306 1016 4161 720 
Q 4016 425 3764 248 
Q 3513 72 3144 31 
Q 2913 6 2028 0 
L 469 0 
L 469 4581 
z
M 1394 3819 
L 1394 2759 
L 2000 2759 
Q 2541 2759 2672 2775 
Q 2909 2803 3045 2939 
Q 3181 3075 3181 3297 
Q 3181 3509 3064 3642 
Q 2947 3775 2716 3803 
Q 2578 3819 1925 3819 
L 1394 3819 
z
M 1394 1997 
L 1394 772 
L 2250 772 
Q 2750 772 2884 800 
Q 3091 838 3220 983 
Q 3350 1128 3350 1372 
Q 3350 1578 3250 1722 
Q 3150 1866 2961 1931 
Q 2772 1997 2141 1997 
L 1394 1997 
z
" transform="scale(0.015625)"/>
     </defs>
     <use xlink:href="#Arial-BoldMT-42"/>
    </g>
   </g>
  </g>
  <g id="axes_3">
   <g id="patch_9">
    <path d="M 866.75206 277.17276 
L 1134.264712 277.17276 
L 1134.264712 32.526094 
L 866.75206 32.526094 
L 866.75206 277.17276 
z
" style="fill: none"/>
   </g>
   <g id="matplotlib.axis_5">
    <g id="xtick_7">
     <g id="line2d_20">
      <g>
       <use xlink:href="#m16f337ab8f" x="878.911726" y="277.17276" style="fill: #262626; stroke: #262626; stroke-width: 1.875"/>
      </g>
     </g>
     <g id="text_19">
      <!-- 256 -->
      <g style="fill: #262626" transform="translate(858.266745 307.388346) scale(0.2475 -0.2475)">
       <use xlink:href="#ArialMT-32"/>
       <use xlink:href="#ArialMT-35" x="55.615234"/>
       <use xlink:href="#ArialMT-36" x="111.230469"/>
      </g>
     </g>
    </g>
    <g id="xtick_8">
     <g id="line2d_21">
      <g>
       <use xlink:href="#m16f337ab8f" x="992.401942" y="277.17276" style="fill: #262626; stroke: #262626; stroke-width: 1.875"/>
      </g>
     </g>
     <g id="text_20">
      <!-- 2048 -->
      <g style="fill: #262626" transform="translate(964.875301 307.388346) scale(0.2475 -0.2475)">
       <use xlink:href="#ArialMT-32"/>
       <use xlink:href="#ArialMT-30" x="55.615234"/>
       <use xlink:href="#ArialMT-34" x="111.230469"/>
       <use xlink:href="#ArialMT-38" x="166.845703"/>
      </g>
     </g>
    </g>
    <g id="xtick_9">
     <g id="line2d_22">
      <g>
       <use xlink:href="#m16f337ab8f" x="1122.105046" y="277.17276" style="fill: #262626; stroke: #262626; stroke-width: 1.875"/>
      </g>
     </g>
     <g id="text_21">
      <!-- 4096 -->
      <g style="fill: #262626" transform="translate(1094.578406 307.388346) scale(0.2475 -0.2475)">
       <use xlink:href="#ArialMT-34"/>
       <use xlink:href="#ArialMT-30" x="55.615234"/>
       <use xlink:href="#ArialMT-39" x="111.230469"/>
       <use xlink:href="#ArialMT-36" x="166.845703"/>
      </g>
     </g>
    </g>
   </g>
   <g id="matplotlib.axis_6">
    <g id="ytick_5">
     <g id="line2d_23">
      <g>
       <use xlink:href="#mc40f425984" x="866.75206" y="274.750516" style="fill: #262626; stroke: #262626; stroke-width: 1.875"/>
      </g>
     </g>
     <g id="text_22">
      <!-- 0.00 -->
      <g style="fill: #262626" transform="translate(806.08624 283.608309) scale(0.2475 -0.2475)">
       <use xlink:href="#ArialMT-30"/>
       <use xlink:href="#ArialMT-2e" x="55.615234"/>
       <use xlink:href="#ArialMT-30" x="83.398438"/>
       <use xlink:href="#ArialMT-30" x="139.013672"/>
      </g>
     </g>
    </g>
    <g id="ytick_6">
     <g id="line2d_24">
      <g>
       <use xlink:href="#mc40f425984" x="866.75206" y="274.750516" style="fill: #262626; stroke: #262626; stroke-width: 1.875"/>
      </g>
     </g>
     <g id="text_23">
      <!-- 0.00 -->
      <g style="fill: #262626" transform="translate(806.08624 283.608309) scale(0.2475 -0.2475)">
       <use xlink:href="#ArialMT-30"/>
       <use xlink:href="#ArialMT-2e" x="55.615234"/>
       <use xlink:href="#ArialMT-30" x="83.398438"/>
       <use xlink:href="#ArialMT-30" x="139.013672"/>
      </g>
     </g>
    </g>
    <g id="ytick_7">
     <g id="line2d_25">
      <g>
       <use xlink:href="#mc40f425984" x="866.75206" y="32.526094" style="fill: #262626; stroke: #262626; stroke-width: 1.875"/>
      </g>
     </g>
     <g id="text_24">
      <!-- 0.10 -->
      <g style="fill: #262626" transform="translate(806.08624 41.383887) scale(0.2475 -0.2475)">
       <use xlink:href="#ArialMT-30"/>
       <use xlink:href="#ArialMT-2e" x="55.615234"/>
       <use xlink:href="#ArialMT-31" x="83.398438"/>
       <use xlink:href="#ArialMT-30" x="139.013672"/>
      </g>
     </g>
    </g>
   </g>
   <g id="PolyCollection_5">
    <defs>
     <path id="m1585dc1aa5" d="M 878.911726 -737.591632 
L 878.911726 -737.591632 
L 895.124614 -737.591632 
L 927.55039 -737.591632 
L 992.401942 -737.591632 
L 1122.105046 -737.591632 
L 1122.105046 -737.591632 
L 1122.105046 -737.591632 
L 992.401942 -737.591632 
L 927.55039 -737.591632 
L 895.124614 -737.591632 
L 878.911726 -737.591632 
z
" style="stroke: #4daf4a; stroke-opacity: 0.2; stroke-width: 1.5"/>
    </defs>
    <g clip-path="url(#p705a5cc32c)">
     <use xlink:href="#m1585dc1aa5" x="0" y="1012.342148" style="fill: #4daf4a; fill-opacity: 0.2; stroke: #4daf4a; stroke-opacity: 0.2; stroke-width: 1.5"/>
    </g>
   </g>
   <g id="PolyCollection_6">
    <defs>
     <path id="m36978b3f22" d="M 878.911726 -737.771779 
L 878.911726 -737.748557 
L 895.124614 -737.724403 
L 927.55039 -737.712272 
L 992.401942 -737.703825 
L 1122.105046 -737.701273 
L 1122.105046 -737.70562 
L 1122.105046 -737.70562 
L 992.401942 -737.709218 
L 927.55039 -737.720906 
L 895.124614 -737.735653 
L 878.911726 -737.771779 
z
" style="stroke: #e41a1c; stroke-opacity: 0.2; stroke-width: 1.5"/>
    </defs>
    <g clip-path="url(#p705a5cc32c)">
     <use xlink:href="#m36978b3f22" x="0" y="1012.342148" style="fill: #e41a1c; fill-opacity: 0.2; stroke: #e41a1c; stroke-opacity: 0.2; stroke-width: 1.5"/>
    </g>
   </g>
   <g id="line2d_26">
    <path d="M 866.75206 274.750516 
L 1134.264712 274.750516 
" clip-path="url(#p705a5cc32c)" style="fill: none; stroke-dasharray: 2.25,3.7125; stroke-dashoffset: 0; stroke: #000000; stroke-width: 2.25"/>
   </g>
   <g id="line2d_27">
    <path d="M 878.911726 274.750516 
L 895.124614 274.750516 
L 927.55039 274.750516 
L 992.401942 274.750516 
L 1122.105046 274.750516 
" clip-path="url(#p705a5cc32c)" style="fill: none; stroke: #4daf4a; stroke-width: 2.25; stroke-linecap: round"/>
   </g>
   <g id="line2d_28">
    <path d="M 878.911726 274.581597 
L 895.124614 274.612841 
L 927.55039 274.62536 
L 992.401942 274.634923 
L 1122.105046 274.639377 
" clip-path="url(#p705a5cc32c)" style="fill: none; stroke: #e41a1c; stroke-width: 4; stroke-linecap: round"/>
   </g>
   <g id="patch_10">
    <path d="M 866.75206 277.17276 
L 866.75206 32.526094 
" style="fill: none; stroke: #262626; stroke-width: 1.875; stroke-linejoin: miter; stroke-linecap: square"/>
   </g>
   <g id="patch_11">
    <path d="M 866.75206 277.17276 
L 1134.264712 277.17276 
" style="fill: none; stroke: #262626; stroke-width: 1.875; stroke-linejoin: miter; stroke-linecap: square"/>
   </g>
   <g id="text_25">
    <!-- Null -->
    <g style="fill: #262626" transform="translate(977.252527 26.526094) scale(0.27 -0.27)">
     <use xlink:href="#ArialMT-4e"/>
     <use xlink:href="#ArialMT-75" x="72.216797"/>
     <use xlink:href="#ArialMT-6c" x="127.832031"/>
     <use xlink:href="#ArialMT-6c" x="150.048828"/>
    </g>
   </g>
   <g id="text_26">
    <!-- C -->
    <g style="fill: #262626" transform="translate(866.75206 26.526094) scale(0.27 -0.27)">
     <defs>
      <path id="Arial-BoldMT-43" d="M 3397 1684 
L 4294 1400 
Q 4088 650 3608 286 
Q 3128 -78 2391 -78 
Q 1478 -78 890 545 
Q 303 1169 303 2250 
Q 303 3394 893 4026 
Q 1484 4659 2447 4659 
Q 3288 4659 3813 4163 
Q 4125 3869 4281 3319 
L 3366 3100 
Q 3284 3456 3026 3662 
Q 2769 3869 2400 3869 
Q 1891 3869 1573 3503 
Q 1256 3138 1256 2319 
Q 1256 1450 1568 1081 
Q 1881 713 2381 713 
Q 2750 713 3015 947 
Q 3281 1181 3397 1684 
z
" transform="scale(0.015625)"/>
     </defs>
     <use xlink:href="#Arial-BoldMT-43"/>
    </g>
   </g>
  </g>
  <g id="axes_4">
   <g id="patch_12">
    <path d="M 125.790727 609.079427 
L 393.303379 609.079427 
L 393.303379 364.43276 
L 125.790727 364.43276 
L 125.790727 609.079427 
z
" style="fill: none"/>
   </g>
   <g id="matplotlib.axis_7">
    <g id="xtick_10">
     <g id="line2d_29">
      <g>
       <use xlink:href="#m16f337ab8f" x="137.950393" y="609.079427" style="fill: #262626; stroke: #262626; stroke-width: 1.875"/>
      </g>
     </g>
     <g id="text_27">
      <!-- 256 -->
      <g style="fill: #262626" transform="translate(117.305412 639.295013) scale(0.2475 -0.2475)">
       <use xlink:href="#ArialMT-32"/>
       <use xlink:href="#ArialMT-35" x="55.615234"/>
       <use xlink:href="#ArialMT-36" x="111.230469"/>
      </g>
     </g>
    </g>
    <g id="xtick_11">
     <g id="line2d_30">
      <g>
       <use xlink:href="#m16f337ab8f" x="251.440609" y="609.079427" style="fill: #262626; stroke: #262626; stroke-width: 1.875"/>
      </g>
     </g>
     <g id="text_28">
      <!-- 2048 -->
      <g style="fill: #262626" transform="translate(223.913968 639.295013) scale(0.2475 -0.2475)">
       <use xlink:href="#ArialMT-32"/>
       <use xlink:href="#ArialMT-30" x="55.615234"/>
       <use xlink:href="#ArialMT-34" x="111.230469"/>
       <use xlink:href="#ArialMT-38" x="166.845703"/>
      </g>
     </g>
    </g>
    <g id="xtick_12">
     <g id="line2d_31">
      <g>
       <use xlink:href="#m16f337ab8f" x="381.143713" y="609.079427" style="fill: #262626; stroke: #262626; stroke-width: 1.875"/>
      </g>
     </g>
     <g id="text_29">
      <!-- 4096 -->
      <g style="fill: #262626" transform="translate(353.617072 639.295013) scale(0.2475 -0.2475)">
       <use xlink:href="#ArialMT-34"/>
       <use xlink:href="#ArialMT-30" x="55.615234"/>
       <use xlink:href="#ArialMT-39" x="111.230469"/>
       <use xlink:href="#ArialMT-36" x="166.845703"/>
      </g>
     </g>
    </g>
   </g>
   <g id="matplotlib.axis_8">
    <g id="ytick_8">
     <g id="line2d_32">
      <g>
       <use xlink:href="#mc40f425984" x="125.790727" y="607.837566" style="fill: #262626; stroke: #262626; stroke-width: 1.875"/>
      </g>
     </g>
     <g id="text_30">
      <!-- 0.00 -->
      <g style="fill: #262626" transform="translate(65.124906 616.695359) scale(0.2475 -0.2475)">
       <use xlink:href="#ArialMT-30"/>
       <use xlink:href="#ArialMT-2e" x="55.615234"/>
       <use xlink:href="#ArialMT-30" x="83.398438"/>
       <use xlink:href="#ArialMT-30" x="139.013672"/>
      </g>
     </g>
    </g>
    <g id="ytick_9">
     <g id="line2d_33">
      <g>
       <use xlink:href="#mc40f425984" x="125.790727" y="433.976991" style="fill: #262626; stroke: #262626; stroke-width: 1.875"/>
      </g>
     </g>
     <g id="text_31">
      <!-- 0.14 -->
      <g style="fill: #262626" transform="translate(65.124906 442.834784) scale(0.2475 -0.2475)">
       <use xlink:href="#ArialMT-30"/>
       <use xlink:href="#ArialMT-2e" x="55.615234"/>
       <use xlink:href="#ArialMT-31" x="83.398438"/>
       <use xlink:href="#ArialMT-34" x="139.013672"/>
      </g>
     </g>
    </g>
    <g id="text_32">
     <!-- S@98 -->
     <g style="fill: #262626" transform="translate(26.884687 524.480156) rotate(-90) scale(0.27 -0.27)">
      <defs>
       <path id="ArialMT-40" d="M 3628 509 
Q 3425 275 3173 133 
Q 2922 -9 2669 -9 
Q 2391 -9 2128 153 
Q 1866 316 1702 653 
Q 1538 991 1538 1394 
Q 1538 1891 1792 2389 
Q 2047 2888 2425 3138 
Q 2803 3388 3159 3388 
Q 3431 3388 3678 3245 
Q 3925 3103 4103 2813 
L 4209 3297 
L 4769 3297 
L 4319 1200 
Q 4225 763 4225 716 
Q 4225 631 4289 570 
Q 4353 509 4444 509 
Q 4609 509 4878 700 
Q 5234 950 5442 1370 
Q 5650 1791 5650 2238 
Q 5650 2759 5383 3212 
Q 5116 3666 4586 3937 
Q 4056 4209 3416 4209 
Q 2684 4209 2079 3867 
Q 1475 3525 1142 2886 
Q 809 2247 809 1516 
Q 809 750 1142 197 
Q 1475 -356 2104 -620 
Q 2734 -884 3500 -884 
Q 4319 -884 4872 -609 
Q 5425 -334 5700 59 
L 6266 59 
Q 6106 -269 5718 -609 
Q 5331 -950 4797 -1148 
Q 4263 -1347 3509 -1347 
Q 2816 -1347 2230 -1169 
Q 1644 -991 1231 -633 
Q 819 -275 609 191 
Q 347 781 347 1466 
Q 347 2228 659 2919 
Q 1041 3766 1742 4216 
Q 2444 4666 3444 4666 
Q 4219 4666 4836 4348 
Q 5453 4031 5809 3403 
Q 6113 2863 6113 2228 
Q 6113 1322 5475 619 
Q 4906 -13 4231 -13 
Q 4016 -13 3883 53 
Q 3750 119 3688 241 
Q 3647 319 3628 509 
z
M 2116 1356 
Q 2116 928 2319 690 
Q 2522 453 2784 453 
Q 2959 453 3153 558 
Q 3347 663 3523 869 
Q 3700 1075 3812 1392 
Q 3925 1709 3925 2028 
Q 3925 2453 3714 2687 
Q 3503 2922 3200 2922 
Q 3000 2922 2823 2820 
Q 2647 2719 2481 2494 
Q 2316 2269 2216 1947 
Q 2116 1625 2116 1356 
z
" transform="scale(0.015625)"/>
      </defs>
      <use xlink:href="#ArialMT-53"/>
      <use xlink:href="#ArialMT-40" x="66.699219"/>
      <use xlink:href="#ArialMT-39" x="168.212891"/>
      <use xlink:href="#ArialMT-38" x="223.828125"/>
     </g>
     <!-- for 4096 Variables -->
     <g style="fill: #262626" transform="translate(55.758656 595.321406) rotate(-90) scale(0.27 -0.27)">
      <use xlink:href="#ArialMT-66"/>
      <use xlink:href="#ArialMT-6f" x="27.783203"/>
      <use xlink:href="#ArialMT-72" x="83.398438"/>
      <use xlink:href="#ArialMT-20" x="116.699219"/>
      <use xlink:href="#ArialMT-34" x="144.482422"/>
      <use xlink:href="#ArialMT-30" x="200.097656"/>
      <use xlink:href="#ArialMT-39" x="255.712891"/>
      <use xlink:href="#ArialMT-36" x="311.328125"/>
      <use xlink:href="#ArialMT-20" x="366.943359"/>
      <use xlink:href="#ArialMT-56" x="394.726562"/>
      <use xlink:href="#ArialMT-61" x="454.050781"/>
      <use xlink:href="#ArialMT-72" x="509.666016"/>
      <use xlink:href="#ArialMT-69" x="542.966797"/>
      <use xlink:href="#ArialMT-61" x="565.183594"/>
      <use xlink:href="#ArialMT-62" x="620.798828"/>
      <use xlink:href="#ArialMT-6c" x="676.414062"/>
      <use xlink:href="#ArialMT-65" x="698.630859"/>
      <use xlink:href="#ArialMT-73" x="754.246094"/>
     </g>
    </g>
   </g>
   <g id="PolyCollection_7">
    <defs>
     <path id="mdfc3bb1c90" d="M 137.950393 -429.351946 
L 137.950393 -408.896531 
L 154.163281 -409.374627 
L 186.589057 -406.936635 
L 251.440609 -404.504583 
L 381.143713 -404.504583 
L 381.143713 -424.087779 
L 381.143713 -424.087779 
L 251.440609 -428.270405 
L 186.589057 -424.563672 
L 154.163281 -426.700392 
L 137.950393 -429.351946 
z
" style="stroke: #377eb8; stroke-opacity: 0.2; stroke-width: 1.5"/>
    </defs>
    <g clip-path="url(#p6a57846958)">
     <use xlink:href="#mdfc3bb1c90" x="0" y="1012.342148" style="fill: #377eb8; fill-opacity: 0.2; stroke: #377eb8; stroke-opacity: 0.2; stroke-width: 1.5"/>
    </g>
   </g>
   <g id="PolyCollection_8">
    <defs>
     <path id="m7430309fbf" d="M 137.950393 -414.206624 
L 137.950393 -404.504583 
L 154.163281 -419.057644 
L 186.589057 -447.55739 
L 251.440609 -478.785834 
L 381.143713 -506.830797 
L 381.143713 -544.729394 
L 381.143713 -544.729394 
L 251.440609 -513.652544 
L 186.589057 -485.152799 
L 154.163281 -448.163767 
L 137.950393 -414.206624 
z
" style="stroke: #e41a1c; stroke-opacity: 0.2; stroke-width: 1.5"/>
    </defs>
    <g clip-path="url(#p6a57846958)">
     <use xlink:href="#m7430309fbf" x="0" y="1012.342148" style="fill: #e41a1c; fill-opacity: 0.2; stroke: #e41a1c; stroke-opacity: 0.2; stroke-width: 1.5"/>
    </g>
   </g>
   <g id="line2d_34">
    <path d="M 125.790727 433.976991 
L 393.303379 433.976991 
" clip-path="url(#p6a57846958)" style="fill: none; stroke-dasharray: 2.25,3.7125; stroke-dashoffset: 0; stroke: #000000; stroke-width: 2.25"/>
   </g>
   <g id="line2d_35">
    <path d="M 137.950393 593.303971 
L 154.163281 594.521467 
L 186.589057 598.121234 
L 251.440609 596.335591 
L 381.143713 598.097478 
" clip-path="url(#p6a57846958)" style="fill: none; stroke: #377eb8; stroke-width: 2.25; stroke-linecap: round"/>
   </g>
   <g id="line2d_36">
    <path d="M 137.950393 607.837566 
L 154.163281 578.731443 
L 186.589057 548.412565 
L 251.440609 519.912819 
L 381.143713 493.838584 
" clip-path="url(#p6a57846958)" style="fill: none; stroke: #e41a1c; stroke-width: 4; stroke-linecap: round"/>
   </g>
   <g id="patch_13">
    <path d="M 125.790727 609.079427 
L 125.790727 364.43276 
" style="fill: none; stroke: #262626; stroke-width: 1.875; stroke-linejoin: miter; stroke-linecap: square"/>
   </g>
   <g id="patch_14">
    <path d="M 125.790727 609.079427 
L 393.303379 609.079427 
" style="fill: none; stroke: #262626; stroke-width: 1.875; stroke-linejoin: miter; stroke-linecap: square"/>
   </g>
   <g id="text_33">
    <!-- D -->
    <g style="fill: #262626" transform="translate(125.790727 358.43276) scale(0.27 -0.27)">
     <defs>
      <path id="Arial-BoldMT-44" d="M 463 4581 
L 2153 4581 
Q 2725 4581 3025 4494 
Q 3428 4375 3715 4072 
Q 4003 3769 4153 3330 
Q 4303 2891 4303 2247 
Q 4303 1681 4163 1272 
Q 3991 772 3672 463 
Q 3431 228 3022 97 
Q 2716 0 2203 0 
L 463 0 
L 463 4581 
z
M 1388 3806 
L 1388 772 
L 2078 772 
Q 2466 772 2638 816 
Q 2863 872 3011 1006 
Q 3159 1141 3253 1448 
Q 3347 1756 3347 2288 
Q 3347 2819 3253 3103 
Q 3159 3388 2990 3547 
Q 2822 3706 2563 3763 
Q 2369 3806 1803 3806 
L 1388 3806 
z
" transform="scale(0.015625)"/>
     </defs>
     <use xlink:href="#Arial-BoldMT-44"/>
    </g>
   </g>
   <g id="legend_2">
    <g id="patch_15">
     <path d="M 1133.115891 469.235039 
L 1292.049563 469.235039 
Q 1296.999563 469.235039 1296.999563 464.285039 
L 1296.999563 361.731094 
Q 1296.999563 356.781094 1292.049563 356.781094 
L 1133.115891 356.781094 
Q 1128.165891 356.781094 1128.165891 361.731094 
L 1128.165891 464.285039 
Q 1128.165891 469.235039 1133.115891 469.235039 
z
" style="fill: #ffffff; opacity: 0.8"/>
    </g>
    <g id="line2d_37">
     <path d="M 1138.065891 375.73418 
L 1162.815891 375.73418 
L 1187.565891 375.73418 
" style="fill: none; stroke: #e41a1c; stroke-width: 5; stroke-linecap: round"/>
    </g>
    <g id="text_34">
     <!-- MIGHT -->
     <g style="fill: #262626" transform="translate(1207.365891 384.39668) scale(0.2475 -0.2475)">
      <use xlink:href="#ArialMT-4d"/>
      <use xlink:href="#ArialMT-49" x="83.300781"/>
      <use xlink:href="#ArialMT-47" x="111.083984"/>
      <use xlink:href="#ArialMT-48" x="188.867188"/>
      <use xlink:href="#ArialMT-54" x="261.083984"/>
     </g>
    </g>
    <g id="line2d_38">
     <path d="M 1138.065891 410.743828 
L 1162.815891 410.743828 
L 1187.565891 410.743828 
" style="fill: none; stroke: #377eb8; stroke-width: 5; stroke-linecap: round"/>
    </g>
    <g id="text_35">
     <!-- KNN -->
     <g style="fill: #262626" transform="translate(1207.365891 419.406328) scale(0.2475 -0.2475)">
      <use xlink:href="#ArialMT-4b"/>
      <use xlink:href="#ArialMT-4e" x="66.699219"/>
      <use xlink:href="#ArialMT-4e" x="138.916016"/>
     </g>
    </g>
    <g id="line2d_39">
     <path d="M 1138.065891 445.753477 
L 1162.815891 445.753477 
L 1187.565891 445.753477 
" style="fill: none; stroke-dasharray: 5,8.25; stroke-dashoffset: 0; stroke: #000000; stroke-width: 5"/>
    </g>
    <g id="text_36">
     <!-- Truth -->
     <g style="fill: #262626" transform="translate(1207.365891 454.415977) scale(0.2475 -0.2475)">
      <use xlink:href="#ArialMT-54"/>
      <use xlink:href="#ArialMT-72" x="57.333984"/>
      <use xlink:href="#ArialMT-75" x="90.634766"/>
      <use xlink:href="#ArialMT-74" x="146.25"/>
      <use xlink:href="#ArialMT-68" x="174.033203"/>
     </g>
    </g>
   </g>
  </g>
  <g id="axes_5">
   <g id="patch_16">
    <path d="M 496.271393 609.079427 
L 763.784046 609.079427 
L 763.784046 364.43276 
L 496.271393 364.43276 
L 496.271393 609.079427 
z
" style="fill: none"/>
   </g>
   <g id="matplotlib.axis_9">
    <g id="xtick_13">
     <g id="line2d_40">
      <g>
       <use xlink:href="#m16f337ab8f" x="508.431059" y="609.079427" style="fill: #262626; stroke: #262626; stroke-width: 1.875"/>
      </g>
     </g>
     <g id="text_37">
      <!-- 256 -->
      <g style="fill: #262626" transform="translate(487.786079 639.295013) scale(0.2475 -0.2475)">
       <use xlink:href="#ArialMT-32"/>
       <use xlink:href="#ArialMT-35" x="55.615234"/>
       <use xlink:href="#ArialMT-36" x="111.230469"/>
      </g>
     </g>
    </g>
    <g id="xtick_14">
     <g id="line2d_41">
      <g>
       <use xlink:href="#m16f337ab8f" x="621.921275" y="609.079427" style="fill: #262626; stroke: #262626; stroke-width: 1.875"/>
      </g>
     </g>
     <g id="text_38">
      <!-- 2048 -->
      <g style="fill: #262626" transform="translate(594.394635 639.295013) scale(0.2475 -0.2475)">
       <use xlink:href="#ArialMT-32"/>
       <use xlink:href="#ArialMT-30" x="55.615234"/>
       <use xlink:href="#ArialMT-34" x="111.230469"/>
       <use xlink:href="#ArialMT-38" x="166.845703"/>
      </g>
     </g>
    </g>
    <g id="xtick_15">
     <g id="line2d_42">
      <g>
       <use xlink:href="#m16f337ab8f" x="751.62438" y="609.079427" style="fill: #262626; stroke: #262626; stroke-width: 1.875"/>
      </g>
     </g>
     <g id="text_39">
      <!-- 4096 -->
      <g style="fill: #262626" transform="translate(724.097739 639.295013) scale(0.2475 -0.2475)">
       <use xlink:href="#ArialMT-34"/>
       <use xlink:href="#ArialMT-30" x="55.615234"/>
       <use xlink:href="#ArialMT-39" x="111.230469"/>
       <use xlink:href="#ArialMT-36" x="166.845703"/>
      </g>
     </g>
    </g>
   </g>
   <g id="matplotlib.axis_10">
    <g id="ytick_10">
     <g id="line2d_43">
      <g>
       <use xlink:href="#mc40f425984" x="496.271393" y="608.409162" style="fill: #262626; stroke: #262626; stroke-width: 1.875"/>
      </g>
     </g>
     <g id="text_40">
      <!-- 0.00 -->
      <g style="fill: #262626" transform="translate(435.605573 617.266955) scale(0.2475 -0.2475)">
       <use xlink:href="#ArialMT-30"/>
       <use xlink:href="#ArialMT-2e" x="55.615234"/>
       <use xlink:href="#ArialMT-30" x="83.398438"/>
       <use xlink:href="#ArialMT-30" x="139.013672"/>
      </g>
     </g>
    </g>
    <g id="ytick_11">
     <g id="line2d_44">
      <g>
       <use xlink:href="#mc40f425984" x="496.271393" y="434.140304" style="fill: #262626; stroke: #262626; stroke-width: 1.875"/>
      </g>
     </g>
     <g id="text_41">
      <!-- 0.26 -->
      <g style="fill: #262626" transform="translate(435.605573 442.998097) scale(0.2475 -0.2475)">
       <use xlink:href="#ArialMT-30"/>
       <use xlink:href="#ArialMT-2e" x="55.615234"/>
       <use xlink:href="#ArialMT-32" x="83.398438"/>
       <use xlink:href="#ArialMT-36" x="139.013672"/>
      </g>
     </g>
    </g>
   </g>
   <g id="PolyCollection_9">
    <defs>
     <path id="m69d07d7f17" d="M 508.431059 -416.287459 
L 508.431059 -408.360127 
L 524.643947 -408.106515 
L 557.069723 -409.189965 
L 621.921275 -407.854916 
L 751.62438 -409.08887 
L 751.62438 -417.024331 
L 751.62438 -417.024331 
L 621.921275 -417.827211 
L 557.069723 -418.852733 
L 524.643947 -416.44934 
L 508.431059 -416.287459 
z
" style="stroke: #377eb8; stroke-opacity: 0.2; stroke-width: 1.5"/>
    </defs>
    <g clip-path="url(#p5198be3b8d)">
     <use xlink:href="#m69d07d7f17" x="0" y="1012.342148" style="fill: #377eb8; fill-opacity: 0.2; stroke: #377eb8; stroke-opacity: 0.2; stroke-width: 1.5"/>
    </g>
   </g>
   <g id="PolyCollection_10">
    <defs>
     <path id="mbb333dd9a8" d="M 508.431059 -588.517639 
L 508.431059 -448.442761 
L 524.643947 -568.226419 
L 557.069723 -568.880974 
L 621.921275 -574.608335 
L 751.62438 -575.999265 
L 751.62438 -586.881251 
L 751.62438 -586.881251 
L 621.921275 -587.372167 
L 557.069723 -586.226695 
L 524.643947 -589.82675 
L 508.431059 -588.517639 
z
" style="stroke: #e41a1c; stroke-opacity: 0.2; stroke-width: 1.5"/>
    </defs>
    <g clip-path="url(#p5198be3b8d)">
     <use xlink:href="#mbb333dd9a8" x="0" y="1012.342148" style="fill: #e41a1c; fill-opacity: 0.2; stroke: #e41a1c; stroke-opacity: 0.2; stroke-width: 1.5"/>
    </g>
   </g>
   <g id="line2d_45">
    <path d="M 496.271393 434.140304 
L 763.784046 434.140304 
" clip-path="url(#p5198be3b8d)" style="fill: none; stroke-dasharray: 2.25,3.7125; stroke-dashoffset: 0; stroke: #000000; stroke-width: 2.25"/>
   </g>
   <g id="line2d_46">
    <path d="M 508.431059 600.574487 
L 524.643947 600.530073 
L 557.069723 598.097395 
L 621.921275 599.239901 
L 751.62438 599.225492 
" clip-path="url(#p5198be3b8d)" style="fill: none; stroke: #377eb8; stroke-width: 2.25; stroke-linecap: round"/>
   </g>
   <g id="line2d_47">
    <path d="M 508.431059 459.170506 
L 524.643947 432.988286 
L 557.069723 434.951953 
L 621.921275 432.333731 
L 751.62438 430.533703 
" clip-path="url(#p5198be3b8d)" style="fill: none; stroke: #e41a1c; stroke-width: 4; stroke-linecap: round"/>
   </g>
   <g id="patch_17">
    <path d="M 496.271393 609.079427 
L 496.271393 364.43276 
" style="fill: none; stroke: #262626; stroke-width: 1.875; stroke-linejoin: miter; stroke-linecap: square"/>
   </g>
   <g id="patch_18">
    <path d="M 496.271393 609.079427 
L 763.784046 609.079427 
" style="fill: none; stroke: #262626; stroke-width: 1.875; stroke-linejoin: miter; stroke-linecap: square"/>
   </g>
   <g id="text_42">
    <!-- E -->
    <g style="fill: #262626" transform="translate(496.271393 358.43276) scale(0.27 -0.27)">
     <defs>
      <path id="Arial-BoldMT-45" d="M 466 0 
L 466 4581 
L 3863 4581 
L 3863 3806 
L 1391 3806 
L 1391 2791 
L 3691 2791 
L 3691 2019 
L 1391 2019 
L 1391 772 
L 3950 772 
L 3950 0 
L 466 0 
z
" transform="scale(0.015625)"/>
     </defs>
     <use xlink:href="#Arial-BoldMT-45"/>
    </g>
   </g>
  </g>
  <g id="axes_6">
   <g id="patch_19">
    <path d="M 866.75206 609.079427 
L 1134.264712 609.079427 
L 1134.264712 364.43276 
L 866.75206 364.43276 
L 866.75206 609.079427 
z
" style="fill: none"/>
   </g>
   <g id="matplotlib.axis_11">
    <g id="xtick_16">
     <g id="line2d_48">
      <g>
       <use xlink:href="#m16f337ab8f" x="878.911726" y="609.079427" style="fill: #262626; stroke: #262626; stroke-width: 1.875"/>
      </g>
     </g>
     <g id="text_43">
      <!-- 256 -->
      <g style="fill: #262626" transform="translate(858.266745 639.295013) scale(0.2475 -0.2475)">
       <use xlink:href="#ArialMT-32"/>
       <use xlink:href="#ArialMT-35" x="55.615234"/>
       <use xlink:href="#ArialMT-36" x="111.230469"/>
      </g>
     </g>
    </g>
    <g id="xtick_17">
     <g id="line2d_49">
      <g>
       <use xlink:href="#m16f337ab8f" x="992.401942" y="609.079427" style="fill: #262626; stroke: #262626; stroke-width: 1.875"/>
      </g>
     </g>
     <g id="text_44">
      <!-- 2048 -->
      <g style="fill: #262626" transform="translate(964.875301 639.295013) scale(0.2475 -0.2475)">
       <use xlink:href="#ArialMT-32"/>
       <use xlink:href="#ArialMT-30" x="55.615234"/>
       <use xlink:href="#ArialMT-34" x="111.230469"/>
       <use xlink:href="#ArialMT-38" x="166.845703"/>
      </g>
     </g>
    </g>
    <g id="xtick_18">
     <g id="line2d_50">
      <g>
       <use xlink:href="#m16f337ab8f" x="1122.105046" y="609.079427" style="fill: #262626; stroke: #262626; stroke-width: 1.875"/>
      </g>
     </g>
     <g id="text_45">
      <!-- 4096 -->
      <g style="fill: #262626" transform="translate(1094.578406 639.295013) scale(0.2475 -0.2475)">
       <use xlink:href="#ArialMT-34"/>
       <use xlink:href="#ArialMT-30" x="55.615234"/>
       <use xlink:href="#ArialMT-39" x="111.230469"/>
       <use xlink:href="#ArialMT-36" x="166.845703"/>
      </g>
     </g>
    </g>
   </g>
   <g id="matplotlib.axis_12">
    <g id="ytick_12">
     <g id="line2d_51">
      <g>
       <use xlink:href="#mc40f425984" x="866.75206" y="606.657183" style="fill: #262626; stroke: #262626; stroke-width: 1.875"/>
      </g>
     </g>
     <g id="text_46">
      <!-- 0.00 -->
      <g style="fill: #262626" transform="translate(806.08624 615.514976) scale(0.2475 -0.2475)">
       <use xlink:href="#ArialMT-30"/>
       <use xlink:href="#ArialMT-2e" x="55.615234"/>
       <use xlink:href="#ArialMT-30" x="83.398438"/>
       <use xlink:href="#ArialMT-30" x="139.013672"/>
      </g>
     </g>
    </g>
    <g id="ytick_13">
     <g id="line2d_52">
      <g>
       <use xlink:href="#mc40f425984" x="866.75206" y="558.212298" style="fill: #262626; stroke: #262626; stroke-width: 1.875"/>
      </g>
     </g>
     <g id="text_47">
      <!-- 0.02 -->
      <g style="fill: #262626" transform="translate(806.08624 567.070091) scale(0.2475 -0.2475)">
       <use xlink:href="#ArialMT-30"/>
       <use xlink:href="#ArialMT-2e" x="55.615234"/>
       <use xlink:href="#ArialMT-30" x="83.398438"/>
       <use xlink:href="#ArialMT-32" x="139.013672"/>
      </g>
     </g>
    </g>
    <g id="ytick_14">
     <g id="line2d_53">
      <g>
       <use xlink:href="#mc40f425984" x="866.75206" y="364.43276" style="fill: #262626; stroke: #262626; stroke-width: 1.875"/>
      </g>
     </g>
     <g id="text_48">
      <!-- 0.10 -->
      <g style="fill: #262626" transform="translate(806.08624 373.290553) scale(0.2475 -0.2475)">
       <use xlink:href="#ArialMT-30"/>
       <use xlink:href="#ArialMT-2e" x="55.615234"/>
       <use xlink:href="#ArialMT-31" x="83.398438"/>
       <use xlink:href="#ArialMT-30" x="139.013672"/>
      </g>
     </g>
    </g>
   </g>
   <g id="PolyCollection_11">
    <defs>
     <path id="m0cddaf5216" d="M 878.911726 -437.058421 
L 878.911726 -405.684966 
L 895.124614 -405.684966 
L 927.55039 -405.684966 
L 992.401942 -405.684966 
L 1122.105046 -416.921584 
L 1122.105046 -443.496275 
L 1122.105046 -443.496275 
L 992.401942 -438.08559 
L 927.55039 -445.403684 
L 895.124614 -448.146349 
L 878.911726 -437.058421 
z
" style="stroke: #377eb8; stroke-opacity: 0.2; stroke-width: 1.5"/>
    </defs>
    <g clip-path="url(#p6a14f69e55)">
     <use xlink:href="#m0cddaf5216" x="0" y="1012.342148" style="fill: #377eb8; fill-opacity: 0.2; stroke: #377eb8; stroke-opacity: 0.2; stroke-width: 1.5"/>
    </g>
   </g>
   <g id="PolyCollection_12">
    <defs>
     <path id="m94638cc206" d="M 878.911726 -424.608749 
L 878.911726 -405.684966 
L 895.124614 -415.146857 
L 927.55039 -424.608749 
L 992.401942 -434.07064 
L 1122.105046 -439.984322 
L 1122.105046 -455.359896 
L 1122.105046 -455.359896 
L 992.401942 -452.994423 
L 927.55039 -448.263477 
L 895.124614 -434.07064 
L 878.911726 -424.608749 
z
" style="stroke: #e41a1c; stroke-opacity: 0.2; stroke-width: 1.5"/>
    </defs>
    <g clip-path="url(#p6a14f69e55)">
     <use xlink:href="#m94638cc206" x="0" y="1012.342148" style="fill: #e41a1c; fill-opacity: 0.2; stroke: #e41a1c; stroke-opacity: 0.2; stroke-width: 1.5"/>
    </g>
   </g>
   <g id="line2d_54">
    <path d="M 866.75206 558.212298 
L 1134.264712 558.212298 
" clip-path="url(#p6a14f69e55)" style="fill: none; stroke-dasharray: 2.25,3.7125; stroke-dashoffset: 0; stroke: #000000; stroke-width: 2.25"/>
   </g>
   <g id="line2d_55">
    <path d="M 878.911726 587.74297 
L 895.124614 581.820781 
L 927.55039 587.740306 
L 992.401942 587.745845 
L 1122.105046 587.279229 
" clip-path="url(#p6a14f69e55)" style="fill: none; stroke: #377eb8; stroke-width: 2.25; stroke-linecap: round"/>
   </g>
   <g id="line2d_56">
    <path d="M 878.911726 606.657183 
L 895.124614 587.7334 
L 927.55039 573.540563 
L 992.401942 571.17509 
L 1122.105046 564.078671 
" clip-path="url(#p6a14f69e55)" style="fill: none; stroke: #e41a1c; stroke-width: 4; stroke-linecap: round"/>
   </g>
   <g id="patch_20">
    <path d="M 866.75206 609.079427 
L 866.75206 364.43276 
" style="fill: none; stroke: #262626; stroke-width: 1.875; stroke-linejoin: miter; stroke-linecap: square"/>
   </g>
   <g id="patch_21">
    <path d="M 866.75206 609.079427 
L 1134.264712 609.079427 
" style="fill: none; stroke: #262626; stroke-width: 1.875; stroke-linejoin: miter; stroke-linecap: square"/>
   </g>
   <g id="text_49">
    <!-- Null -->
    <g style="fill: #262626" transform="translate(977.252527 358.43276) scale(0.27 -0.27)">
     <use xlink:href="#ArialMT-4e"/>
     <use xlink:href="#ArialMT-75" x="72.216797"/>
     <use xlink:href="#ArialMT-6c" x="127.832031"/>
     <use xlink:href="#ArialMT-6c" x="150.048828"/>
    </g>
   </g>
   <g id="text_50">
    <!-- F -->
    <g style="fill: #262626" transform="translate(866.75206 358.43276) scale(0.27 -0.27)">
     <defs>
      <path id="Arial-BoldMT-46" d="M 472 0 
L 472 4581 
L 3613 4581 
L 3613 3806 
L 1397 3806 
L 1397 2722 
L 3309 2722 
L 3309 1947 
L 1397 1947 
L 1397 0 
L 472 0 
z
" transform="scale(0.015625)"/>
     </defs>
     <use xlink:href="#Arial-BoldMT-46"/>
    </g>
   </g>
  </g>
  <g id="axes_7">
   <g id="patch_22">
    <path d="M 125.790727 940.986094 
L 393.303379 940.986094 
L 393.303379 696.339427 
L 125.790727 696.339427 
L 125.790727 940.986094 
z
" style="fill: none"/>
   </g>
   <g id="matplotlib.axis_13">
    <g id="xtick_19">
     <g id="line2d_57">
      <g>
       <use xlink:href="#m16f337ab8f" x="137.950393" y="940.986094" style="fill: #262626; stroke: #262626; stroke-width: 1.875"/>
      </g>
     </g>
     <g id="text_51">
      <!-- 256 -->
      <g style="fill: #262626" transform="translate(117.305412 971.20168) scale(0.2475 -0.2475)">
       <use xlink:href="#ArialMT-32"/>
       <use xlink:href="#ArialMT-35" x="55.615234"/>
       <use xlink:href="#ArialMT-36" x="111.230469"/>
      </g>
     </g>
    </g>
    <g id="xtick_20">
     <g id="line2d_58">
      <g>
       <use xlink:href="#m16f337ab8f" x="251.440609" y="940.986094" style="fill: #262626; stroke: #262626; stroke-width: 1.875"/>
      </g>
     </g>
     <g id="text_52">
      <!-- 2048 -->
      <g style="fill: #262626" transform="translate(223.913968 971.20168) scale(0.2475 -0.2475)">
       <use xlink:href="#ArialMT-32"/>
       <use xlink:href="#ArialMT-30" x="55.615234"/>
       <use xlink:href="#ArialMT-34" x="111.230469"/>
       <use xlink:href="#ArialMT-38" x="166.845703"/>
      </g>
     </g>
    </g>
    <g id="xtick_21">
     <g id="line2d_59">
      <g>
       <use xlink:href="#m16f337ab8f" x="381.143713" y="940.986094" style="fill: #262626; stroke: #262626; stroke-width: 1.875"/>
      </g>
     </g>
     <g id="text_53">
      <!-- 4096 -->
      <g style="fill: #262626" transform="translate(353.617072 971.20168) scale(0.2475 -0.2475)">
       <use xlink:href="#ArialMT-34"/>
       <use xlink:href="#ArialMT-30" x="55.615234"/>
       <use xlink:href="#ArialMT-39" x="111.230469"/>
       <use xlink:href="#ArialMT-36" x="166.845703"/>
      </g>
     </g>
    </g>
    <g id="text_54">
     <!-- Sample Size -->
     <g style="fill: #262626" transform="translate(183.763537 999.775898) scale(0.27 -0.27)">
      <defs>
       <path id="ArialMT-70" d="M 422 -1272 
L 422 3319 
L 934 3319 
L 934 2888 
Q 1116 3141 1344 3267 
Q 1572 3394 1897 3394 
Q 2322 3394 2647 3175 
Q 2972 2956 3137 2557 
Q 3303 2159 3303 1684 
Q 3303 1175 3120 767 
Q 2938 359 2589 142 
Q 2241 -75 1856 -75 
Q 1575 -75 1351 44 
Q 1128 163 984 344 
L 984 -1272 
L 422 -1272 
z
M 931 1641 
Q 931 1000 1190 694 
Q 1450 388 1819 388 
Q 2194 388 2461 705 
Q 2728 1022 2728 1688 
Q 2728 2322 2467 2637 
Q 2206 2953 1844 2953 
Q 1484 2953 1207 2617 
Q 931 2281 931 1641 
z
" transform="scale(0.015625)"/>
       <path id="ArialMT-7a" d="M 125 0 
L 125 456 
L 2238 2881 
Q 1878 2863 1603 2863 
L 250 2863 
L 250 3319 
L 2963 3319 
L 2963 2947 
L 1166 841 
L 819 456 
Q 1197 484 1528 484 
L 3063 484 
L 3063 0 
L 125 0 
z
" transform="scale(0.015625)"/>
      </defs>
      <use xlink:href="#ArialMT-53"/>
      <use xlink:href="#ArialMT-61" x="66.699219"/>
      <use xlink:href="#ArialMT-6d" x="122.314453"/>
      <use xlink:href="#ArialMT-70" x="205.615234"/>
      <use xlink:href="#ArialMT-6c" x="261.230469"/>
      <use xlink:href="#ArialMT-65" x="283.447266"/>
      <use xlink:href="#ArialMT-20" x="339.0625"/>
      <use xlink:href="#ArialMT-53" x="366.845703"/>
      <use xlink:href="#ArialMT-69" x="433.544922"/>
      <use xlink:href="#ArialMT-7a" x="455.761719"/>
      <use xlink:href="#ArialMT-65" x="505.761719"/>
     </g>
    </g>
   </g>
   <g id="matplotlib.axis_14">
    <g id="ytick_15">
     <g id="line2d_60">
      <g>
       <use xlink:href="#mc40f425984" x="125.790727" y="940.260139" style="fill: #262626; stroke: #262626; stroke-width: 1.875"/>
      </g>
     </g>
     <g id="text_55">
      <!-- 0.00 -->
      <g style="fill: #262626" transform="translate(65.124906 949.117932) scale(0.2475 -0.2475)">
       <use xlink:href="#ArialMT-30"/>
       <use xlink:href="#ArialMT-2e" x="55.615234"/>
       <use xlink:href="#ArialMT-30" x="83.398438"/>
       <use xlink:href="#ArialMT-30" x="139.013672"/>
      </g>
     </g>
    </g>
    <g id="ytick_16">
     <g id="line2d_61">
      <g>
       <use xlink:href="#mc40f425984" x="125.790727" y="766.031059" style="fill: #262626; stroke: #262626; stroke-width: 1.875"/>
      </g>
     </g>
     <g id="text_56">
      <!-- 0.24 -->
      <g style="fill: #262626" transform="translate(65.124906 774.888852) scale(0.2475 -0.2475)">
       <use xlink:href="#ArialMT-30"/>
       <use xlink:href="#ArialMT-2e" x="55.615234"/>
       <use xlink:href="#ArialMT-32" x="83.398438"/>
       <use xlink:href="#ArialMT-34" x="139.013672"/>
      </g>
     </g>
    </g>
    <g id="text_57">
     <!-- Distribution Distance -->
     <g style="fill: #262626" transform="translate(27.201094 942.45776) rotate(-90) scale(0.27 -0.27)">
      <defs>
       <path id="ArialMT-44" d="M 494 0 
L 494 4581 
L 2072 4581 
Q 2606 4581 2888 4516 
Q 3281 4425 3559 4188 
Q 3922 3881 4101 3404 
Q 4281 2928 4281 2316 
Q 4281 1794 4159 1391 
Q 4038 988 3847 723 
Q 3656 459 3429 307 
Q 3203 156 2883 78 
Q 2563 0 2147 0 
L 494 0 
z
M 1100 541 
L 2078 541 
Q 2531 541 2789 625 
Q 3047 709 3200 863 
Q 3416 1078 3536 1442 
Q 3656 1806 3656 2325 
Q 3656 3044 3420 3430 
Q 3184 3816 2847 3947 
Q 2603 4041 2063 4041 
L 1100 4041 
L 1100 541 
z
" transform="scale(0.015625)"/>
       <path id="ArialMT-63" d="M 2588 1216 
L 3141 1144 
Q 3050 572 2676 248 
Q 2303 -75 1759 -75 
Q 1078 -75 664 370 
Q 250 816 250 1647 
Q 250 2184 428 2587 
Q 606 2991 970 3192 
Q 1334 3394 1763 3394 
Q 2303 3394 2647 3120 
Q 2991 2847 3088 2344 
L 2541 2259 
Q 2463 2594 2264 2762 
Q 2066 2931 1784 2931 
Q 1359 2931 1093 2626 
Q 828 2322 828 1663 
Q 828 994 1084 691 
Q 1341 388 1753 388 
Q 2084 388 2306 591 
Q 2528 794 2588 1216 
z
" transform="scale(0.015625)"/>
      </defs>
      <use xlink:href="#ArialMT-44"/>
      <use xlink:href="#ArialMT-69" x="72.216797"/>
      <use xlink:href="#ArialMT-73" x="94.433594"/>
      <use xlink:href="#ArialMT-74" x="144.433594"/>
      <use xlink:href="#ArialMT-72" x="172.216797"/>
      <use xlink:href="#ArialMT-69" x="205.517578"/>
      <use xlink:href="#ArialMT-62" x="227.734375"/>
      <use xlink:href="#ArialMT-75" x="283.349609"/>
      <use xlink:href="#ArialMT-74" x="338.964844"/>
      <use xlink:href="#ArialMT-69" x="366.748047"/>
      <use xlink:href="#ArialMT-6f" x="388.964844"/>
      <use xlink:href="#ArialMT-6e" x="444.580078"/>
      <use xlink:href="#ArialMT-20" x="500.195312"/>
      <use xlink:href="#ArialMT-44" x="527.978516"/>
      <use xlink:href="#ArialMT-69" x="600.195312"/>
      <use xlink:href="#ArialMT-73" x="622.412109"/>
      <use xlink:href="#ArialMT-74" x="672.412109"/>
      <use xlink:href="#ArialMT-61" x="700.195312"/>
      <use xlink:href="#ArialMT-6e" x="755.810547"/>
      <use xlink:href="#ArialMT-63" x="811.425781"/>
      <use xlink:href="#ArialMT-65" x="861.425781"/>
     </g>
     <!-- for 4096 Variables -->
     <g style="fill: #262626" transform="translate(55.758656 927.228073) rotate(-90) scale(0.27 -0.27)">
      <use xlink:href="#ArialMT-66"/>
      <use xlink:href="#ArialMT-6f" x="27.783203"/>
      <use xlink:href="#ArialMT-72" x="83.398438"/>
      <use xlink:href="#ArialMT-20" x="116.699219"/>
      <use xlink:href="#ArialMT-34" x="144.482422"/>
      <use xlink:href="#ArialMT-30" x="200.097656"/>
      <use xlink:href="#ArialMT-39" x="255.712891"/>
      <use xlink:href="#ArialMT-36" x="311.328125"/>
      <use xlink:href="#ArialMT-20" x="366.943359"/>
      <use xlink:href="#ArialMT-56" x="394.726562"/>
      <use xlink:href="#ArialMT-61" x="454.050781"/>
      <use xlink:href="#ArialMT-72" x="509.666016"/>
      <use xlink:href="#ArialMT-69" x="542.966797"/>
      <use xlink:href="#ArialMT-61" x="565.183594"/>
      <use xlink:href="#ArialMT-62" x="620.798828"/>
      <use xlink:href="#ArialMT-6c" x="676.414062"/>
      <use xlink:href="#ArialMT-65" x="698.630859"/>
      <use xlink:href="#ArialMT-73" x="754.246094"/>
     </g>
    </g>
   </g>
   <g id="PolyCollection_13">
    <defs>
     <path id="mcd8b69dda9" d="M 137.950393 -75.208331 
L 137.950393 -74.719776 
L 154.163281 -76.22154 
L 186.589057 -78.056756 
L 251.440609 -80.394949 
L 381.143713 -83.200319 
L 381.143713 -84.204427 
L 381.143713 -84.204427 
L 251.440609 -80.698408 
L 186.589057 -78.666525 
L 154.163281 -76.822499 
L 137.950393 -75.208331 
z
" style="stroke: #999999; stroke-opacity: 0.2; stroke-width: 1.5"/>
    </defs>
    <g clip-path="url(#paa6374fc40)">
     <use xlink:href="#mcd8b69dda9" x="0" y="1012.342148" style="fill: #999999; fill-opacity: 0.2; stroke: #999999; stroke-opacity: 0.2; stroke-width: 1.5"/>
    </g>
   </g>
   <g id="PolyCollection_14">
    <defs>
     <path id="maca969abb5" d="M 137.950393 -107.526541 
L 137.950393 -94.176585 
L 154.163281 -126.314344 
L 186.589057 -151.038595 
L 251.440609 -161.219741 
L 381.143713 -183.227452 
L 381.143713 -189.147664 
L 381.143713 -189.147664 
L 251.440609 -173.793654 
L 186.589057 -154.945365 
L 154.163281 -142.999048 
L 137.950393 -107.526541 
z
" style="stroke: #e41a1c; stroke-opacity: 0.2; stroke-width: 1.5"/>
    </defs>
    <g clip-path="url(#paa6374fc40)">
     <use xlink:href="#maca969abb5" x="0" y="1012.342148" style="fill: #e41a1c; fill-opacity: 0.2; stroke: #e41a1c; stroke-opacity: 0.2; stroke-width: 1.5"/>
    </g>
   </g>
   <g id="line2d_62">
    <path d="M 125.790727 766.031059 
L 393.303379 766.031059 
" clip-path="url(#paa6374fc40)" style="fill: none; stroke-dasharray: 2.25,3.7125; stroke-dashoffset: 0; stroke: #000000; stroke-width: 2.25"/>
   </g>
   <g id="line2d_63">
    <path d="M 137.950393 937.53702 
L 154.163281 935.93917 
L 186.589057 933.974958 
L 251.440609 931.751027 
L 381.143713 928.761359 
" clip-path="url(#paa6374fc40)" style="fill: none; stroke: #999999; stroke-width: 2.25; stroke-linecap: round"/>
   </g>
   <g id="line2d_64">
    <path d="M 137.950393 909.597119 
L 154.163281 872.253554 
L 186.589057 860.516276 
L 251.440609 839.861743 
L 381.143713 828.044081 
" clip-path="url(#paa6374fc40)" style="fill: none; stroke: #e41a1c; stroke-width: 4; stroke-linecap: round"/>
   </g>
   <g id="patch_23">
    <path d="M 125.790727 940.986094 
L 125.790727 696.339427 
" style="fill: none; stroke: #262626; stroke-width: 1.875; stroke-linejoin: miter; stroke-linecap: square"/>
   </g>
   <g id="patch_24">
    <path d="M 125.790727 940.986094 
L 393.303379 940.986094 
" style="fill: none; stroke: #262626; stroke-width: 1.875; stroke-linejoin: miter; stroke-linecap: square"/>
   </g>
   <g id="text_58">
    <!-- G -->
    <g style="fill: #262626" transform="translate(125.790727 690.339427) scale(0.27 -0.27)">
     <defs>
      <path id="Arial-BoldMT-47" d="M 2597 1684 
L 2597 2456 
L 4591 2456 
L 4591 631 
Q 4300 350 3748 136 
Q 3197 -78 2631 -78 
Q 1913 -78 1378 223 
Q 844 525 575 1086 
Q 306 1647 306 2306 
Q 306 3022 606 3578 
Q 906 4134 1484 4431 
Q 1925 4659 2581 4659 
Q 3434 4659 3914 4301 
Q 4394 3944 4531 3313 
L 3613 3141 
Q 3516 3478 3248 3673 
Q 2981 3869 2581 3869 
Q 1975 3869 1617 3484 
Q 1259 3100 1259 2344 
Q 1259 1528 1621 1120 
Q 1984 713 2572 713 
Q 2863 713 3155 827 
Q 3447 941 3656 1103 
L 3656 1684 
L 2597 1684 
z
" transform="scale(0.015625)"/>
     </defs>
     <use xlink:href="#Arial-BoldMT-47"/>
    </g>
   </g>
   <g id="legend_3">
    <g id="patch_25">
     <path d="M 1133.115891 801.875039 
L 1292.049563 801.875039 
Q 1296.999563 801.875039 1296.999563 796.925039 
L 1296.999563 694.371094 
Q 1296.999563 689.421094 1292.049563 689.421094 
L 1133.115891 689.421094 
Q 1128.165891 689.421094 1128.165891 694.371094 
L 1128.165891 796.925039 
Q 1128.165891 801.875039 1133.115891 801.875039 
z
" style="fill: #ffffff; opacity: 0.8"/>
    </g>
    <g id="line2d_65">
     <path d="M 1138.065891 708.37418 
L 1162.815891 708.37418 
L 1187.565891 708.37418 
" style="fill: none; stroke: #e41a1c; stroke-width: 5; stroke-linecap: round"/>
    </g>
    <g id="text_59">
     <!-- MIGHT -->
     <g style="fill: #262626" transform="translate(1207.365891 717.03668) scale(0.2475 -0.2475)">
      <use xlink:href="#ArialMT-4d"/>
      <use xlink:href="#ArialMT-49" x="83.300781"/>
      <use xlink:href="#ArialMT-47" x="111.083984"/>
      <use xlink:href="#ArialMT-48" x="188.867188"/>
      <use xlink:href="#ArialMT-54" x="261.083984"/>
     </g>
    </g>
    <g id="line2d_66">
     <path d="M 1138.065891 743.383828 
L 1162.815891 743.383828 
L 1187.565891 743.383828 
" style="fill: none; stroke: #999999; stroke-width: 5; stroke-linecap: round"/>
    </g>
    <g id="text_60">
     <!-- DRF -->
     <g style="fill: #262626" transform="translate(1207.365891 752.046328) scale(0.2475 -0.2475)">
      <defs>
       <path id="ArialMT-52" d="M 503 0 
L 503 4581 
L 2534 4581 
Q 3147 4581 3465 4457 
Q 3784 4334 3975 4021 
Q 4166 3709 4166 3331 
Q 4166 2844 3850 2509 
Q 3534 2175 2875 2084 
Q 3116 1969 3241 1856 
Q 3506 1613 3744 1247 
L 4541 0 
L 3778 0 
L 3172 953 
Q 2906 1366 2734 1584 
Q 2563 1803 2427 1890 
Q 2291 1978 2150 2013 
Q 2047 2034 1813 2034 
L 1109 2034 
L 1109 0 
L 503 0 
z
M 1109 2559 
L 2413 2559 
Q 2828 2559 3062 2645 
Q 3297 2731 3419 2920 
Q 3541 3109 3541 3331 
Q 3541 3656 3305 3865 
Q 3069 4075 2559 4075 
L 1109 4075 
L 1109 2559 
z
" transform="scale(0.015625)"/>
       <path id="ArialMT-46" d="M 525 0 
L 525 4581 
L 3616 4581 
L 3616 4041 
L 1131 4041 
L 1131 2622 
L 3281 2622 
L 3281 2081 
L 1131 2081 
L 1131 0 
L 525 0 
z
" transform="scale(0.015625)"/>
      </defs>
      <use xlink:href="#ArialMT-44"/>
      <use xlink:href="#ArialMT-52" x="72.216797"/>
      <use xlink:href="#ArialMT-46" x="144.433594"/>
     </g>
    </g>
    <g id="line2d_67">
     <path d="M 1138.065891 778.393477 
L 1162.815891 778.393477 
L 1187.565891 778.393477 
" style="fill: none; stroke-dasharray: 5,8.25; stroke-dashoffset: 0; stroke: #000000; stroke-width: 5"/>
    </g>
    <g id="text_61">
     <!-- Truth -->
     <g style="fill: #262626" transform="translate(1207.365891 787.055977) scale(0.2475 -0.2475)">
      <use xlink:href="#ArialMT-54"/>
      <use xlink:href="#ArialMT-72" x="57.333984"/>
      <use xlink:href="#ArialMT-75" x="90.634766"/>
      <use xlink:href="#ArialMT-74" x="146.25"/>
      <use xlink:href="#ArialMT-68" x="174.033203"/>
     </g>
    </g>
   </g>
  </g>
  <g id="axes_8">
   <g id="patch_26">
    <path d="M 496.271393 940.986094 
L 763.784046 940.986094 
L 763.784046 696.339427 
L 496.271393 696.339427 
L 496.271393 940.986094 
z
" style="fill: none"/>
   </g>
   <g id="matplotlib.axis_15">
    <g id="xtick_22">
     <g id="line2d_68">
      <g>
       <use xlink:href="#m16f337ab8f" x="508.431059" y="940.986094" style="fill: #262626; stroke: #262626; stroke-width: 1.875"/>
      </g>
     </g>
     <g id="text_62">
      <!-- 256 -->
      <g style="fill: #262626" transform="translate(487.786079 971.20168) scale(0.2475 -0.2475)">
       <use xlink:href="#ArialMT-32"/>
       <use xlink:href="#ArialMT-35" x="55.615234"/>
       <use xlink:href="#ArialMT-36" x="111.230469"/>
      </g>
     </g>
    </g>
    <g id="xtick_23">
     <g id="line2d_69">
      <g>
       <use xlink:href="#m16f337ab8f" x="621.921275" y="940.986094" style="fill: #262626; stroke: #262626; stroke-width: 1.875"/>
      </g>
     </g>
     <g id="text_63">
      <!-- 2048 -->
      <g style="fill: #262626" transform="translate(594.394635 971.20168) scale(0.2475 -0.2475)">
       <use xlink:href="#ArialMT-32"/>
       <use xlink:href="#ArialMT-30" x="55.615234"/>
       <use xlink:href="#ArialMT-34" x="111.230469"/>
       <use xlink:href="#ArialMT-38" x="166.845703"/>
      </g>
     </g>
    </g>
    <g id="xtick_24">
     <g id="line2d_70">
      <g>
       <use xlink:href="#m16f337ab8f" x="751.62438" y="940.986094" style="fill: #262626; stroke: #262626; stroke-width: 1.875"/>
      </g>
     </g>
     <g id="text_64">
      <!-- 4096 -->
      <g style="fill: #262626" transform="translate(724.097739 971.20168) scale(0.2475 -0.2475)">
       <use xlink:href="#ArialMT-34"/>
       <use xlink:href="#ArialMT-30" x="55.615234"/>
       <use xlink:href="#ArialMT-39" x="111.230469"/>
       <use xlink:href="#ArialMT-36" x="166.845703"/>
      </g>
     </g>
    </g>
    <g id="text_65">
     <!-- Sample Size -->
     <g style="fill: #262626" transform="translate(554.244204 999.775898) scale(0.27 -0.27)">
      <use xlink:href="#ArialMT-53"/>
      <use xlink:href="#ArialMT-61" x="66.699219"/>
      <use xlink:href="#ArialMT-6d" x="122.314453"/>
      <use xlink:href="#ArialMT-70" x="205.615234"/>
      <use xlink:href="#ArialMT-6c" x="261.230469"/>
      <use xlink:href="#ArialMT-65" x="283.447266"/>
      <use xlink:href="#ArialMT-20" x="339.0625"/>
      <use xlink:href="#ArialMT-53" x="366.845703"/>
      <use xlink:href="#ArialMT-69" x="433.544922"/>
      <use xlink:href="#ArialMT-7a" x="455.761719"/>
      <use xlink:href="#ArialMT-65" x="505.761719"/>
     </g>
    </g>
   </g>
   <g id="matplotlib.axis_16">
    <g id="ytick_17">
     <g id="line2d_71">
      <g>
       <use xlink:href="#mc40f425984" x="496.271393" y="940.289095" style="fill: #262626; stroke: #262626; stroke-width: 1.875"/>
      </g>
     </g>
     <g id="text_66">
      <!-- 0.00 -->
      <g style="fill: #262626" transform="translate(435.605573 949.146888) scale(0.2475 -0.2475)">
       <use xlink:href="#ArialMT-30"/>
       <use xlink:href="#ArialMT-2e" x="55.615234"/>
       <use xlink:href="#ArialMT-30" x="83.398438"/>
       <use xlink:href="#ArialMT-30" x="139.013672"/>
      </g>
     </g>
    </g>
    <g id="ytick_18">
     <g id="line2d_72">
      <g>
       <use xlink:href="#mc40f425984" x="496.271393" y="766.039332" style="fill: #262626; stroke: #262626; stroke-width: 1.875"/>
      </g>
     </g>
     <g id="text_67">
      <!-- 0.25 -->
      <g style="fill: #262626" transform="translate(435.605573 774.897125) scale(0.2475 -0.2475)">
       <use xlink:href="#ArialMT-30"/>
       <use xlink:href="#ArialMT-2e" x="55.615234"/>
       <use xlink:href="#ArialMT-32" x="83.398438"/>
       <use xlink:href="#ArialMT-35" x="139.013672"/>
      </g>
     </g>
    </g>
   </g>
   <g id="PolyCollection_15">
    <defs>
     <path id="md88e4aeed3" d="M 508.431059 -74.567405 
L 508.431059 -74.314526 
L 524.643947 -75.130754 
L 557.069723 -76.765111 
L 621.921275 -79.373929 
L 751.62438 -82.086893 
L 751.62438 -82.665478 
L 751.62438 -82.665478 
L 621.921275 -79.962235 
L 557.069723 -77.702186 
L 524.643947 -75.79787 
L 508.431059 -74.567405 
z
" style="stroke: #999999; stroke-opacity: 0.2; stroke-width: 1.5"/>
    </defs>
    <g clip-path="url(#pee58b22a63)">
     <use xlink:href="#md88e4aeed3" x="0" y="1012.342148" style="fill: #999999; fill-opacity: 0.2; stroke: #999999; stroke-opacity: 0.2; stroke-width: 1.5"/>
    </g>
   </g>
   <g id="PolyCollection_16">
    <defs>
     <path id="mc34fb6f62b" d="M 508.431059 -84.016885 
L 508.431059 -77.54598 
L 524.643947 -109.266243 
L 557.069723 -142.994041 
L 621.921275 -166.935483 
L 751.62438 -186.082587 
L 751.62438 -193.43791 
L 751.62438 -193.43791 
L 621.921275 -177.840144 
L 557.069723 -151.79509 
L 524.643947 -125.932515 
L 508.431059 -84.016885 
z
" style="stroke: #e41a1c; stroke-opacity: 0.2; stroke-width: 1.5"/>
    </defs>
    <g clip-path="url(#pee58b22a63)">
     <use xlink:href="#mc34fb6f62b" x="0" y="1012.342148" style="fill: #e41a1c; fill-opacity: 0.2; stroke: #e41a1c; stroke-opacity: 0.2; stroke-width: 1.5"/>
    </g>
   </g>
   <g id="line2d_73">
    <path d="M 496.271393 766.039332 
L 763.784046 766.039332 
" clip-path="url(#pee58b22a63)" style="fill: none; stroke-dasharray: 2.25,3.7125; stroke-dashoffset: 0; stroke: #000000; stroke-width: 2.25"/>
   </g>
   <g id="line2d_74">
    <path d="M 508.431059 937.867978 
L 524.643947 937.018572 
L 557.069723 934.921029 
L 621.921275 932.748154 
L 751.62438 929.870803 
" clip-path="url(#pee58b22a63)" style="fill: none; stroke: #999999; stroke-width: 2.25; stroke-linecap: round"/>
   </g>
   <g id="line2d_75">
    <path d="M 508.431059 930.79925 
L 524.643947 893.393439 
L 557.069723 862.612395 
L 621.921275 841.028452 
L 751.62438 821.518342 
" clip-path="url(#pee58b22a63)" style="fill: none; stroke: #e41a1c; stroke-width: 4; stroke-linecap: round"/>
   </g>
   <g id="patch_27">
    <path d="M 496.271393 940.986094 
L 496.271393 696.339427 
" style="fill: none; stroke: #262626; stroke-width: 1.875; stroke-linejoin: miter; stroke-linecap: square"/>
   </g>
   <g id="patch_28">
    <path d="M 496.271393 940.986094 
L 763.784046 940.986094 
" style="fill: none; stroke: #262626; stroke-width: 1.875; stroke-linejoin: miter; stroke-linecap: square"/>
   </g>
   <g id="text_68">
    <!-- H -->
    <g style="fill: #262626" transform="translate(496.271393 690.339427) scale(0.27 -0.27)">
     <defs>
      <path id="Arial-BoldMT-48" d="M 469 0 
L 469 4581 
L 1394 4581 
L 1394 2778 
L 3206 2778 
L 3206 4581 
L 4131 4581 
L 4131 0 
L 3206 0 
L 3206 2003 
L 1394 2003 
L 1394 0 
L 469 0 
z
" transform="scale(0.015625)"/>
     </defs>
     <use xlink:href="#Arial-BoldMT-48"/>
    </g>
   </g>
  </g>
  <g id="axes_9">
   <g id="patch_29">
    <path d="M 866.75206 940.986094 
L 1134.264712 940.986094 
L 1134.264712 696.339427 
L 866.75206 696.339427 
L 866.75206 940.986094 
z
" style="fill: none"/>
   </g>
   <g id="matplotlib.axis_17">
    <g id="xtick_25">
     <g id="line2d_76">
      <g>
       <use xlink:href="#m16f337ab8f" x="878.911726" y="940.986094" style="fill: #262626; stroke: #262626; stroke-width: 1.875"/>
      </g>
     </g>
     <g id="text_69">
      <!-- 256 -->
      <g style="fill: #262626" transform="translate(858.266745 971.20168) scale(0.2475 -0.2475)">
       <use xlink:href="#ArialMT-32"/>
       <use xlink:href="#ArialMT-35" x="55.615234"/>
       <use xlink:href="#ArialMT-36" x="111.230469"/>
      </g>
     </g>
    </g>
    <g id="xtick_26">
     <g id="line2d_77">
      <g>
       <use xlink:href="#m16f337ab8f" x="992.401942" y="940.986094" style="fill: #262626; stroke: #262626; stroke-width: 1.875"/>
      </g>
     </g>
     <g id="text_70">
      <!-- 2048 -->
      <g style="fill: #262626" transform="translate(964.875301 971.20168) scale(0.2475 -0.2475)">
       <use xlink:href="#ArialMT-32"/>
       <use xlink:href="#ArialMT-30" x="55.615234"/>
       <use xlink:href="#ArialMT-34" x="111.230469"/>
       <use xlink:href="#ArialMT-38" x="166.845703"/>
      </g>
     </g>
    </g>
    <g id="xtick_27">
     <g id="line2d_78">
      <g>
       <use xlink:href="#m16f337ab8f" x="1122.105046" y="940.986094" style="fill: #262626; stroke: #262626; stroke-width: 1.875"/>
      </g>
     </g>
     <g id="text_71">
      <!-- 4096 -->
      <g style="fill: #262626" transform="translate(1094.578406 971.20168) scale(0.2475 -0.2475)">
       <use xlink:href="#ArialMT-34"/>
       <use xlink:href="#ArialMT-30" x="55.615234"/>
       <use xlink:href="#ArialMT-39" x="111.230469"/>
       <use xlink:href="#ArialMT-36" x="166.845703"/>
      </g>
     </g>
    </g>
    <g id="text_72">
     <!-- Sample Size -->
     <g style="fill: #262626" transform="translate(924.72487 999.775898) scale(0.27 -0.27)">
      <use xlink:href="#ArialMT-53"/>
      <use xlink:href="#ArialMT-61" x="66.699219"/>
      <use xlink:href="#ArialMT-6d" x="122.314453"/>
      <use xlink:href="#ArialMT-70" x="205.615234"/>
      <use xlink:href="#ArialMT-6c" x="261.230469"/>
      <use xlink:href="#ArialMT-65" x="283.447266"/>
      <use xlink:href="#ArialMT-20" x="339.0625"/>
      <use xlink:href="#ArialMT-53" x="366.845703"/>
      <use xlink:href="#ArialMT-69" x="433.544922"/>
      <use xlink:href="#ArialMT-7a" x="455.761719"/>
      <use xlink:href="#ArialMT-65" x="505.761719"/>
     </g>
    </g>
   </g>
   <g id="matplotlib.axis_18">
    <g id="ytick_19">
     <g id="line2d_79">
      <g>
       <use xlink:href="#mc40f425984" x="866.75206" y="938.56385" style="fill: #262626; stroke: #262626; stroke-width: 1.875"/>
      </g>
     </g>
     <g id="text_73">
      <!-- 0.00 -->
      <g style="fill: #262626" transform="translate(806.08624 947.421642) scale(0.2475 -0.2475)">
       <use xlink:href="#ArialMT-30"/>
       <use xlink:href="#ArialMT-2e" x="55.615234"/>
       <use xlink:href="#ArialMT-30" x="83.398438"/>
       <use xlink:href="#ArialMT-30" x="139.013672"/>
      </g>
     </g>
    </g>
    <g id="ytick_20">
     <g id="line2d_80">
      <g>
       <use xlink:href="#mc40f425984" x="866.75206" y="938.56385" style="fill: #262626; stroke: #262626; stroke-width: 1.875"/>
      </g>
     </g>
     <g id="text_74">
      <!-- 0.00 -->
      <g style="fill: #262626" transform="translate(806.08624 947.421642) scale(0.2475 -0.2475)">
       <use xlink:href="#ArialMT-30"/>
       <use xlink:href="#ArialMT-2e" x="55.615234"/>
       <use xlink:href="#ArialMT-30" x="83.398438"/>
       <use xlink:href="#ArialMT-30" x="139.013672"/>
      </g>
     </g>
    </g>
    <g id="ytick_21">
     <g id="line2d_81">
      <g>
       <use xlink:href="#mc40f425984" x="866.75206" y="696.339427" style="fill: #262626; stroke: #262626; stroke-width: 1.875"/>
      </g>
     </g>
     <g id="text_75">
      <!-- 0.10 -->
      <g style="fill: #262626" transform="translate(806.08624 705.19722) scale(0.2475 -0.2475)">
       <use xlink:href="#ArialMT-30"/>
       <use xlink:href="#ArialMT-2e" x="55.615234"/>
       <use xlink:href="#ArialMT-31" x="83.398438"/>
       <use xlink:href="#ArialMT-30" x="139.013672"/>
      </g>
     </g>
    </g>
   </g>
   <g id="PolyCollection_17">
    <defs>
     <path id="m39dabe57de" d="M 878.911726 -82.431538 
L 878.911726 -82.134224 
L 895.124614 -82.374606 
L 927.55039 -82.34216 
L 992.401942 -82.257663 
L 1122.105046 -82.294221 
L 1122.105046 -82.557498 
L 1122.105046 -82.557498 
L 992.401942 -82.6102 
L 927.55039 -82.686011 
L 895.124614 -82.659027 
L 878.911726 -82.431538 
z
" style="stroke: #999999; stroke-opacity: 0.2; stroke-width: 1.5"/>
    </defs>
    <g clip-path="url(#p83e6d049d5)">
     <use xlink:href="#m39dabe57de" x="0" y="1012.342148" style="fill: #999999; fill-opacity: 0.2; stroke: #999999; stroke-opacity: 0.2; stroke-width: 1.5"/>
    </g>
   </g>
   <g id="PolyCollection_18">
    <defs>
     <path id="m24c54cc3ea" d="M 878.911726 -88.412394 
L 878.911726 -87.596162 
L 895.124614 -86.538675 
L 927.55039 -85.461792 
L 992.401942 -85.639917 
L 1122.105046 -85.235171 
L 1122.105046 -85.405618 
L 1122.105046 -85.405618 
L 992.401942 -85.699246 
L 927.55039 -86.186743 
L 895.124614 -86.797136 
L 878.911726 -88.412394 
z
" style="stroke: #e41a1c; stroke-opacity: 0.2; stroke-width: 1.5"/>
    </defs>
    <g clip-path="url(#p83e6d049d5)">
     <use xlink:href="#m24c54cc3ea" x="0" y="1012.342148" style="fill: #e41a1c; fill-opacity: 0.2; stroke: #e41a1c; stroke-opacity: 0.2; stroke-width: 1.5"/>
    </g>
   </g>
   <g id="line2d_82">
    <path d="M 866.75206 938.56385 
L 1134.264712 938.56385 
" clip-path="url(#p83e6d049d5)" style="fill: none; stroke-dasharray: 2.25,3.7125; stroke-dashoffset: 0; stroke: #000000; stroke-width: 2.25"/>
   </g>
   <g id="line2d_83">
    <path d="M 878.911726 930.011213 
L 895.124614 929.802037 
L 927.55039 929.792465 
L 992.401942 929.883432 
L 1122.105046 929.899176 
" clip-path="url(#p83e6d049d5)" style="fill: none; stroke: #999999; stroke-width: 2.25; stroke-linecap: round"/>
   </g>
   <g id="line2d_84">
    <path d="M 878.911726 924.453784 
L 895.124614 925.659003 
L 927.55039 926.321082 
L 992.401942 926.676079 
L 1122.105046 926.981173 
" clip-path="url(#p83e6d049d5)" style="fill: none; stroke: #e41a1c; stroke-width: 4; stroke-linecap: round"/>
   </g>
   <g id="patch_30">
    <path d="M 866.75206 940.986094 
L 866.75206 696.339427 
" style="fill: none; stroke: #262626; stroke-width: 1.875; stroke-linejoin: miter; stroke-linecap: square"/>
   </g>
   <g id="patch_31">
    <path d="M 866.75206 940.986094 
L 1134.264712 940.986094 
" style="fill: none; stroke: #262626; stroke-width: 1.875; stroke-linejoin: miter; stroke-linecap: square"/>
   </g>
   <g id="text_76">
    <!-- Null -->
    <g style="fill: #262626" transform="translate(977.252527 690.339427) scale(0.27 -0.27)">
     <use xlink:href="#ArialMT-4e"/>
     <use xlink:href="#ArialMT-75" x="72.216797"/>
     <use xlink:href="#ArialMT-6c" x="127.832031"/>
     <use xlink:href="#ArialMT-6c" x="150.048828"/>
    </g>
   </g>
   <g id="text_77">
    <!-- I -->
    <g style="fill: #262626" transform="translate(866.75206 690.339427) scale(0.27 -0.27)">
     <defs>
      <path id="Arial-BoldMT-49" d="M 438 0 
L 438 4581 
L 1363 4581 
L 1363 0 
L 438 0 
z
" transform="scale(0.015625)"/>
     </defs>
     <use xlink:href="#Arial-BoldMT-49"/>
    </g>
   </g>
  </g>
 </g>
 <defs>
  <clipPath id="p1d70a86359">
   <rect x="125.790727" y="32.526094" width="267.512652" height="244.646667"/>
  </clipPath>
  <clipPath id="pb179c94d0a">
   <rect x="496.271393" y="32.526094" width="267.512652" height="244.646667"/>
  </clipPath>
  <clipPath id="p705a5cc32c">
   <rect x="866.75206" y="32.526094" width="267.512652" height="244.646667"/>
  </clipPath>
  <clipPath id="p6a57846958">
   <rect x="125.790727" y="364.43276" width="267.512652" height="244.646667"/>
  </clipPath>
  <clipPath id="p5198be3b8d">
   <rect x="496.271393" y="364.43276" width="267.512652" height="244.646667"/>
  </clipPath>
  <clipPath id="p6a14f69e55">
   <rect x="866.75206" y="364.43276" width="267.512652" height="244.646667"/>
  </clipPath>
  <clipPath id="paa6374fc40">
   <rect x="125.790727" y="696.339427" width="267.512652" height="244.646667"/>
  </clipPath>
  <clipPath id="pee58b22a63">
   <rect x="496.271393" y="696.339427" width="267.512652" height="244.646667"/>
  </clipPath>
  <clipPath id="p83e6d049d5">
   <rect x="866.75206" y="696.339427" width="267.512652" height="244.646667"/>
  </clipPath>
 </defs>
</svg>
