<?xml version="1.0" encoding="utf-8" standalone="no"?>
<!DOCTYPE svg PUBLIC "-//W3C//DTD SVG 1.1//EN"
  "http://www.w3.org/Graphics/SVG/1.1/DTD/svg11.dtd">
<svg xmlns:xlink="http://www.w3.org/1999/xlink" width="1288.943402pt" height="913.945781pt" viewBox="0 0 1288.943402 913.945781" xmlns="http://www.w3.org/2000/svg" version="1.1">
 <metadata>
  <rdf:RDF xmlns:dc="http://purl.org/dc/elements/1.1/" xmlns:cc="http://creativecommons.org/ns#" xmlns:rdf="http://www.w3.org/1999/02/22-rdf-syntax-ns#">
   <cc:Work>
    <dc:type rdf:resource="http://purl.org/dc/dcmitype/StillImage"/>
    <dc:date>2024-07-22T13:24:54.610119</dc:date>
    <dc:format>image/svg+xml</dc:format>
    <dc:creator>
     <cc:Agent>
      <dc:title>Matplotlib v3.8.0, https://matplotlib.org/</dc:title>
     </cc:Agent>
    </dc:creator>
   </cc:Work>
  </rdf:RDF>
 </metadata>
 <defs>
  <style type="text/css">*{stroke-linejoin: round; stroke-linecap: butt}</style>
 </defs>
 <g id="figure_1">
  <g id="patch_1">
   <path d="M 0 913.945781 
L 1288.943402 913.945781 
L 1288.943402 0 
L 0 0 
L 0 913.945781 
z
" style="fill: none"/>
  </g>
  <g id="axes_1">
   <g id="patch_2">
    <path d="M 91.108102 351.486094 
L 440.391967 351.486094 
L 440.391967 32.526094 
L 91.108102 32.526094 
L 91.108102 351.486094 
z
" style="fill: none"/>
   </g>
   <g id="matplotlib.axis_1">
    <g id="xtick_1">
     <g id="line2d_1">
      <defs>
       <path id="mf7d8cf724b" d="M 0 0 
L 0 9 
" style="stroke: #262626; stroke-width: 1.875"/>
      </defs>
      <g>
       <use xlink:href="#mf7d8cf724b" x="106.984641" y="351.486094" style="fill: #262626; stroke: #262626; stroke-width: 1.875"/>
      </g>
     </g>
     <g id="text_1">
      <!-- 64 -->
      <g style="fill: #262626" transform="translate(93.221321 381.70168) scale(0.2475 -0.2475)">
       <defs>
        <path id="ArialMT-36" d="M 3184 3459 
L 2625 3416 
Q 2550 3747 2413 3897 
Q 2184 4138 1850 4138 
Q 1581 4138 1378 3988 
Q 1113 3794 959 3422 
Q 806 3050 800 2363 
Q 1003 2672 1297 2822 
Q 1591 2972 1913 2972 
Q 2475 2972 2870 2558 
Q 3266 2144 3266 1488 
Q 3266 1056 3080 686 
Q 2894 316 2569 119 
Q 2244 -78 1831 -78 
Q 1128 -78 684 439 
Q 241 956 241 2144 
Q 241 3472 731 4075 
Q 1159 4600 1884 4600 
Q 2425 4600 2770 4297 
Q 3116 3994 3184 3459 
z
M 888 1484 
Q 888 1194 1011 928 
Q 1134 663 1356 523 
Q 1578 384 1822 384 
Q 2178 384 2434 671 
Q 2691 959 2691 1453 
Q 2691 1928 2437 2201 
Q 2184 2475 1800 2475 
Q 1419 2475 1153 2201 
Q 888 1928 888 1484 
z
" transform="scale(0.015625)"/>
        <path id="ArialMT-34" d="M 2069 0 
L 2069 1097 
L 81 1097 
L 81 1613 
L 2172 4581 
L 2631 4581 
L 2631 1613 
L 3250 1613 
L 3250 1097 
L 2631 1097 
L 2631 0 
L 2069 0 
z
M 2069 1613 
L 2069 3678 
L 634 1613 
L 2069 1613 
z
" transform="scale(0.015625)"/>
       </defs>
       <use xlink:href="#ArialMT-36"/>
       <use xlink:href="#ArialMT-34" x="55.615234"/>
      </g>
     </g>
    </g>
    <g id="xtick_2">
     <g id="line2d_2">
      <g>
       <use xlink:href="#mf7d8cf724b" x="265.750035" y="351.486094" style="fill: #262626; stroke: #262626; stroke-width: 1.875"/>
      </g>
     </g>
     <g id="text_2">
      <!-- 256 -->
      <g style="fill: #262626" transform="translate(245.105054 381.70168) scale(0.2475 -0.2475)">
       <defs>
        <path id="ArialMT-32" d="M 3222 541 
L 3222 0 
L 194 0 
Q 188 203 259 391 
Q 375 700 629 1000 
Q 884 1300 1366 1694 
Q 2113 2306 2375 2664 
Q 2638 3022 2638 3341 
Q 2638 3675 2398 3904 
Q 2159 4134 1775 4134 
Q 1369 4134 1125 3890 
Q 881 3647 878 3216 
L 300 3275 
Q 359 3922 746 4261 
Q 1134 4600 1788 4600 
Q 2447 4600 2831 4234 
Q 3216 3869 3216 3328 
Q 3216 3053 3103 2787 
Q 2991 2522 2730 2228 
Q 2469 1934 1863 1422 
Q 1356 997 1212 845 
Q 1069 694 975 541 
L 3222 541 
z
" transform="scale(0.015625)"/>
        <path id="ArialMT-35" d="M 266 1200 
L 856 1250 
Q 922 819 1161 601 
Q 1400 384 1738 384 
Q 2144 384 2425 690 
Q 2706 997 2706 1503 
Q 2706 1984 2436 2262 
Q 2166 2541 1728 2541 
Q 1456 2541 1237 2417 
Q 1019 2294 894 2097 
L 366 2166 
L 809 4519 
L 3088 4519 
L 3088 3981 
L 1259 3981 
L 1013 2750 
Q 1425 3038 1878 3038 
Q 2478 3038 2890 2622 
Q 3303 2206 3303 1553 
Q 3303 931 2941 478 
Q 2500 -78 1738 -78 
Q 1113 -78 717 272 
Q 322 622 266 1200 
z
" transform="scale(0.015625)"/>
       </defs>
       <use xlink:href="#ArialMT-32"/>
       <use xlink:href="#ArialMT-35" x="55.615234"/>
       <use xlink:href="#ArialMT-36" x="111.230469"/>
      </g>
     </g>
    </g>
    <g id="xtick_3">
     <g id="line2d_3">
      <g>
       <use xlink:href="#mf7d8cf724b" x="424.515428" y="351.486094" style="fill: #262626; stroke: #262626; stroke-width: 1.875"/>
      </g>
     </g>
     <g id="text_3">
      <!-- 1024 -->
      <g style="fill: #262626" transform="translate(396.988788 381.70168) scale(0.2475 -0.2475)">
       <defs>
        <path id="ArialMT-31" d="M 2384 0 
L 1822 0 
L 1822 3584 
Q 1619 3391 1289 3197 
Q 959 3003 697 2906 
L 697 3450 
Q 1169 3672 1522 3987 
Q 1875 4303 2022 4600 
L 2384 4600 
L 2384 0 
z
" transform="scale(0.015625)"/>
        <path id="ArialMT-30" d="M 266 2259 
Q 266 3072 433 3567 
Q 600 4063 929 4331 
Q 1259 4600 1759 4600 
Q 2128 4600 2406 4451 
Q 2684 4303 2865 4023 
Q 3047 3744 3150 3342 
Q 3253 2941 3253 2259 
Q 3253 1453 3087 958 
Q 2922 463 2592 192 
Q 2263 -78 1759 -78 
Q 1097 -78 719 397 
Q 266 969 266 2259 
z
M 844 2259 
Q 844 1131 1108 757 
Q 1372 384 1759 384 
Q 2147 384 2411 759 
Q 2675 1134 2675 2259 
Q 2675 3391 2411 3762 
Q 2147 4134 1753 4134 
Q 1366 4134 1134 3806 
Q 844 3388 844 2259 
z
" transform="scale(0.015625)"/>
       </defs>
       <use xlink:href="#ArialMT-31"/>
       <use xlink:href="#ArialMT-30" x="55.615234"/>
       <use xlink:href="#ArialMT-32" x="111.230469"/>
       <use xlink:href="#ArialMT-34" x="166.845703"/>
      </g>
     </g>
    </g>
    <g id="xtick_4">
     <g id="line2d_4">
      <defs>
       <path id="md17f63b831" d="M 0 0 
L 0 6 
" style="stroke: #262626; stroke-width: 1.5"/>
      </defs>
      <g>
       <use xlink:href="#md17f63b831" x="99.593365" y="351.486094" style="fill: #262626; stroke: #262626; stroke-width: 1.5"/>
      </g>
     </g>
    </g>
    <g id="xtick_5">
     <g id="line2d_5">
      <g>
       <use xlink:href="#md17f63b831" x="117.247475" y="351.486094" style="fill: #262626; stroke: #262626; stroke-width: 1.5"/>
      </g>
     </g>
    </g>
    <g id="xtick_6">
     <g id="line2d_6">
      <g>
       <use xlink:href="#md17f63b831" x="132.540161" y="351.486094" style="fill: #262626; stroke: #262626; stroke-width: 1.5"/>
      </g>
     </g>
    </g>
    <g id="xtick_7">
     <g id="line2d_7">
      <g>
       <use xlink:href="#md17f63b831" x="146.029266" y="351.486094" style="fill: #262626; stroke: #262626; stroke-width: 1.5"/>
      </g>
     </g>
    </g>
    <g id="xtick_8">
     <g id="line2d_8">
      <g>
       <use xlink:href="#md17f63b831" x="237.478378" y="351.486094" style="fill: #262626; stroke: #262626; stroke-width: 1.5"/>
      </g>
     </g>
    </g>
    <g id="xtick_9">
     <g id="line2d_9">
      <g>
       <use xlink:href="#md17f63b831" x="283.914279" y="351.486094" style="fill: #262626; stroke: #262626; stroke-width: 1.5"/>
      </g>
     </g>
    </g>
    <g id="xtick_10">
     <g id="line2d_10">
      <g>
       <use xlink:href="#md17f63b831" x="316.861075" y="351.486094" style="fill: #262626; stroke: #262626; stroke-width: 1.5"/>
      </g>
     </g>
    </g>
    <g id="xtick_11">
     <g id="line2d_11">
      <g>
       <use xlink:href="#md17f63b831" x="342.416596" y="351.486094" style="fill: #262626; stroke: #262626; stroke-width: 1.5"/>
      </g>
     </g>
    </g>
    <g id="xtick_12">
     <g id="line2d_12">
      <g>
       <use xlink:href="#md17f63b831" x="363.296976" y="351.486094" style="fill: #262626; stroke: #262626; stroke-width: 1.5"/>
      </g>
     </g>
    </g>
    <g id="xtick_13">
     <g id="line2d_13">
      <g>
       <use xlink:href="#md17f63b831" x="380.951086" y="351.486094" style="fill: #262626; stroke: #262626; stroke-width: 1.5"/>
      </g>
     </g>
    </g>
    <g id="xtick_14">
     <g id="line2d_14">
      <g>
       <use xlink:href="#md17f63b831" x="396.243772" y="351.486094" style="fill: #262626; stroke: #262626; stroke-width: 1.5"/>
      </g>
     </g>
    </g>
    <g id="xtick_15">
     <g id="line2d_15">
      <g>
       <use xlink:href="#md17f63b831" x="409.732877" y="351.486094" style="fill: #262626; stroke: #262626; stroke-width: 1.5"/>
      </g>
     </g>
    </g>
    <g id="text_4">
     <!-- Sample Size (Log Scale) -->
     <g style="fill: #262626" transform="translate(117.184644 410.275898) scale(0.27 -0.27)">
      <defs>
       <path id="ArialMT-53" d="M 288 1472 
L 859 1522 
Q 900 1178 1048 958 
Q 1197 738 1509 602 
Q 1822 466 2213 466 
Q 2559 466 2825 569 
Q 3091 672 3220 851 
Q 3350 1031 3350 1244 
Q 3350 1459 3225 1620 
Q 3100 1781 2813 1891 
Q 2628 1963 1997 2114 
Q 1366 2266 1113 2400 
Q 784 2572 623 2826 
Q 463 3081 463 3397 
Q 463 3744 659 4045 
Q 856 4347 1234 4503 
Q 1613 4659 2075 4659 
Q 2584 4659 2973 4495 
Q 3363 4331 3572 4012 
Q 3781 3694 3797 3291 
L 3216 3247 
Q 3169 3681 2898 3903 
Q 2628 4125 2100 4125 
Q 1550 4125 1298 3923 
Q 1047 3722 1047 3438 
Q 1047 3191 1225 3031 
Q 1400 2872 2139 2705 
Q 2878 2538 3153 2413 
Q 3553 2228 3743 1945 
Q 3934 1663 3934 1294 
Q 3934 928 3725 604 
Q 3516 281 3123 101 
Q 2731 -78 2241 -78 
Q 1619 -78 1198 103 
Q 778 284 539 648 
Q 300 1013 288 1472 
z
" transform="scale(0.015625)"/>
       <path id="ArialMT-61" d="M 2588 409 
Q 2275 144 1986 34 
Q 1697 -75 1366 -75 
Q 819 -75 525 192 
Q 231 459 231 875 
Q 231 1119 342 1320 
Q 453 1522 633 1644 
Q 813 1766 1038 1828 
Q 1203 1872 1538 1913 
Q 2219 1994 2541 2106 
Q 2544 2222 2544 2253 
Q 2544 2597 2384 2738 
Q 2169 2928 1744 2928 
Q 1347 2928 1158 2789 
Q 969 2650 878 2297 
L 328 2372 
Q 403 2725 575 2942 
Q 747 3159 1072 3276 
Q 1397 3394 1825 3394 
Q 2250 3394 2515 3294 
Q 2781 3194 2906 3042 
Q 3031 2891 3081 2659 
Q 3109 2516 3109 2141 
L 3109 1391 
Q 3109 606 3145 398 
Q 3181 191 3288 0 
L 2700 0 
Q 2613 175 2588 409 
z
M 2541 1666 
Q 2234 1541 1622 1453 
Q 1275 1403 1131 1340 
Q 988 1278 909 1158 
Q 831 1038 831 891 
Q 831 666 1001 516 
Q 1172 366 1500 366 
Q 1825 366 2078 508 
Q 2331 650 2450 897 
Q 2541 1088 2541 1459 
L 2541 1666 
z
" transform="scale(0.015625)"/>
       <path id="ArialMT-6d" d="M 422 0 
L 422 3319 
L 925 3319 
L 925 2853 
Q 1081 3097 1340 3245 
Q 1600 3394 1931 3394 
Q 2300 3394 2536 3241 
Q 2772 3088 2869 2813 
Q 3263 3394 3894 3394 
Q 4388 3394 4653 3120 
Q 4919 2847 4919 2278 
L 4919 0 
L 4359 0 
L 4359 2091 
Q 4359 2428 4304 2576 
Q 4250 2725 4106 2815 
Q 3963 2906 3769 2906 
Q 3419 2906 3187 2673 
Q 2956 2441 2956 1928 
L 2956 0 
L 2394 0 
L 2394 2156 
Q 2394 2531 2256 2718 
Q 2119 2906 1806 2906 
Q 1569 2906 1367 2781 
Q 1166 2656 1075 2415 
Q 984 2175 984 1722 
L 984 0 
L 422 0 
z
" transform="scale(0.015625)"/>
       <path id="ArialMT-70" d="M 422 -1272 
L 422 3319 
L 934 3319 
L 934 2888 
Q 1116 3141 1344 3267 
Q 1572 3394 1897 3394 
Q 2322 3394 2647 3175 
Q 2972 2956 3137 2557 
Q 3303 2159 3303 1684 
Q 3303 1175 3120 767 
Q 2938 359 2589 142 
Q 2241 -75 1856 -75 
Q 1575 -75 1351 44 
Q 1128 163 984 344 
L 984 -1272 
L 422 -1272 
z
M 931 1641 
Q 931 1000 1190 694 
Q 1450 388 1819 388 
Q 2194 388 2461 705 
Q 2728 1022 2728 1688 
Q 2728 2322 2467 2637 
Q 2206 2953 1844 2953 
Q 1484 2953 1207 2617 
Q 931 2281 931 1641 
z
" transform="scale(0.015625)"/>
       <path id="ArialMT-6c" d="M 409 0 
L 409 4581 
L 972 4581 
L 972 0 
L 409 0 
z
" transform="scale(0.015625)"/>
       <path id="ArialMT-65" d="M 2694 1069 
L 3275 997 
Q 3138 488 2766 206 
Q 2394 -75 1816 -75 
Q 1088 -75 661 373 
Q 234 822 234 1631 
Q 234 2469 665 2931 
Q 1097 3394 1784 3394 
Q 2450 3394 2872 2941 
Q 3294 2488 3294 1666 
Q 3294 1616 3291 1516 
L 816 1516 
Q 847 969 1125 678 
Q 1403 388 1819 388 
Q 2128 388 2347 550 
Q 2566 713 2694 1069 
z
M 847 1978 
L 2700 1978 
Q 2663 2397 2488 2606 
Q 2219 2931 1791 2931 
Q 1403 2931 1139 2672 
Q 875 2413 847 1978 
z
" transform="scale(0.015625)"/>
       <path id="ArialMT-20" transform="scale(0.015625)"/>
       <path id="ArialMT-69" d="M 425 3934 
L 425 4581 
L 988 4581 
L 988 3934 
L 425 3934 
z
M 425 0 
L 425 3319 
L 988 3319 
L 988 0 
L 425 0 
z
" transform="scale(0.015625)"/>
       <path id="ArialMT-7a" d="M 125 0 
L 125 456 
L 2238 2881 
Q 1878 2863 1603 2863 
L 250 2863 
L 250 3319 
L 2963 3319 
L 2963 2947 
L 1166 841 
L 819 456 
Q 1197 484 1528 484 
L 3063 484 
L 3063 0 
L 125 0 
z
" transform="scale(0.015625)"/>
       <path id="ArialMT-28" d="M 1497 -1347 
Q 1031 -759 709 28 
Q 388 816 388 1659 
Q 388 2403 628 3084 
Q 909 3875 1497 4659 
L 1900 4659 
Q 1522 4009 1400 3731 
Q 1209 3300 1100 2831 
Q 966 2247 966 1656 
Q 966 153 1900 -1347 
L 1497 -1347 
z
" transform="scale(0.015625)"/>
       <path id="ArialMT-4c" d="M 469 0 
L 469 4581 
L 1075 4581 
L 1075 541 
L 3331 541 
L 3331 0 
L 469 0 
z
" transform="scale(0.015625)"/>
       <path id="ArialMT-6f" d="M 213 1659 
Q 213 2581 725 3025 
Q 1153 3394 1769 3394 
Q 2453 3394 2887 2945 
Q 3322 2497 3322 1706 
Q 3322 1066 3130 698 
Q 2938 331 2570 128 
Q 2203 -75 1769 -75 
Q 1072 -75 642 372 
Q 213 819 213 1659 
z
M 791 1659 
Q 791 1022 1069 705 
Q 1347 388 1769 388 
Q 2188 388 2466 706 
Q 2744 1025 2744 1678 
Q 2744 2294 2464 2611 
Q 2184 2928 1769 2928 
Q 1347 2928 1069 2612 
Q 791 2297 791 1659 
z
" transform="scale(0.015625)"/>
       <path id="ArialMT-67" d="M 319 -275 
L 866 -356 
Q 900 -609 1056 -725 
Q 1266 -881 1628 -881 
Q 2019 -881 2231 -725 
Q 2444 -569 2519 -288 
Q 2563 -116 2559 434 
Q 2191 0 1641 0 
Q 956 0 581 494 
Q 206 988 206 1678 
Q 206 2153 378 2554 
Q 550 2956 876 3175 
Q 1203 3394 1644 3394 
Q 2231 3394 2613 2919 
L 2613 3319 
L 3131 3319 
L 3131 450 
Q 3131 -325 2973 -648 
Q 2816 -972 2473 -1159 
Q 2131 -1347 1631 -1347 
Q 1038 -1347 672 -1080 
Q 306 -813 319 -275 
z
M 784 1719 
Q 784 1066 1043 766 
Q 1303 466 1694 466 
Q 2081 466 2343 764 
Q 2606 1063 2606 1700 
Q 2606 2309 2336 2618 
Q 2066 2928 1684 2928 
Q 1309 2928 1046 2623 
Q 784 2319 784 1719 
z
" transform="scale(0.015625)"/>
       <path id="ArialMT-63" d="M 2588 1216 
L 3141 1144 
Q 3050 572 2676 248 
Q 2303 -75 1759 -75 
Q 1078 -75 664 370 
Q 250 816 250 1647 
Q 250 2184 428 2587 
Q 606 2991 970 3192 
Q 1334 3394 1763 3394 
Q 2303 3394 2647 3120 
Q 2991 2847 3088 2344 
L 2541 2259 
Q 2463 2594 2264 2762 
Q 2066 2931 1784 2931 
Q 1359 2931 1093 2626 
Q 828 2322 828 1663 
Q 828 994 1084 691 
Q 1341 388 1753 388 
Q 2084 388 2306 591 
Q 2528 794 2588 1216 
z
" transform="scale(0.015625)"/>
       <path id="ArialMT-29" d="M 791 -1347 
L 388 -1347 
Q 1322 153 1322 1656 
Q 1322 2244 1188 2822 
Q 1081 3291 891 3722 
Q 769 4003 388 4659 
L 791 4659 
Q 1378 3875 1659 3084 
Q 1900 2403 1900 1659 
Q 1900 816 1576 28 
Q 1253 -759 791 -1347 
z
" transform="scale(0.015625)"/>
      </defs>
      <use xlink:href="#ArialMT-53"/>
      <use xlink:href="#ArialMT-61" x="66.699219"/>
      <use xlink:href="#ArialMT-6d" x="122.314453"/>
      <use xlink:href="#ArialMT-70" x="205.615234"/>
      <use xlink:href="#ArialMT-6c" x="261.230469"/>
      <use xlink:href="#ArialMT-65" x="283.447266"/>
      <use xlink:href="#ArialMT-20" x="339.0625"/>
      <use xlink:href="#ArialMT-53" x="366.845703"/>
      <use xlink:href="#ArialMT-69" x="433.544922"/>
      <use xlink:href="#ArialMT-7a" x="455.761719"/>
      <use xlink:href="#ArialMT-65" x="505.761719"/>
      <use xlink:href="#ArialMT-20" x="561.376953"/>
      <use xlink:href="#ArialMT-28" x="589.160156"/>
      <use xlink:href="#ArialMT-4c" x="622.460938"/>
      <use xlink:href="#ArialMT-6f" x="678.076172"/>
      <use xlink:href="#ArialMT-67" x="733.691406"/>
      <use xlink:href="#ArialMT-20" x="789.306641"/>
      <use xlink:href="#ArialMT-53" x="817.089844"/>
      <use xlink:href="#ArialMT-63" x="883.789062"/>
      <use xlink:href="#ArialMT-61" x="933.789062"/>
      <use xlink:href="#ArialMT-6c" x="989.404297"/>
      <use xlink:href="#ArialMT-65" x="1011.621094"/>
      <use xlink:href="#ArialMT-29" x="1067.236328"/>
     </g>
    </g>
   </g>
   <g id="matplotlib.axis_2">
    <g id="ytick_1">
     <g id="line2d_16">
      <defs>
       <path id="mf165897e1d" d="M 0 0 
L -9 0 
" style="stroke: #262626; stroke-width: 1.875"/>
      </defs>
      <g>
       <use xlink:href="#mf165897e1d" x="91.108102" y="348.359035" style="fill: #262626; stroke: #262626; stroke-width: 1.875"/>
      </g>
     </g>
     <g id="text_5">
      <!-- 0 -->
      <g style="fill: #262626" transform="translate(64.844781 357.216828) scale(0.2475 -0.2475)">
       <use xlink:href="#ArialMT-30"/>
      </g>
     </g>
    </g>
    <g id="ytick_2">
     <g id="line2d_17">
      <g>
       <use xlink:href="#mf165897e1d" x="91.108102" y="35.653153" style="fill: #262626; stroke: #262626; stroke-width: 1.875"/>
      </g>
     </g>
     <g id="text_6">
      <!-- 1 -->
      <g style="fill: #262626" transform="translate(64.844781 44.510946) scale(0.2475 -0.2475)">
       <use xlink:href="#ArialMT-31"/>
      </g>
     </g>
    </g>
    <g id="text_7">
     <!-- Power -->
     <g style="fill: #262626" transform="translate(26.920969 230.270156) rotate(-90) scale(0.27 -0.27)">
      <defs>
       <path id="ArialMT-50" d="M 494 0 
L 494 4581 
L 2222 4581 
Q 2678 4581 2919 4538 
Q 3256 4481 3484 4323 
Q 3713 4166 3852 3881 
Q 3991 3597 3991 3256 
Q 3991 2672 3619 2267 
Q 3247 1863 2275 1863 
L 1100 1863 
L 1100 0 
L 494 0 
z
M 1100 2403 
L 2284 2403 
Q 2872 2403 3119 2622 
Q 3366 2841 3366 3238 
Q 3366 3525 3220 3729 
Q 3075 3934 2838 4000 
Q 2684 4041 2272 4041 
L 1100 4041 
L 1100 2403 
z
" transform="scale(0.015625)"/>
       <path id="ArialMT-77" d="M 1034 0 
L 19 3319 
L 600 3319 
L 1128 1403 
L 1325 691 
Q 1338 744 1497 1375 
L 2025 3319 
L 2603 3319 
L 3100 1394 
L 3266 759 
L 3456 1400 
L 4025 3319 
L 4572 3319 
L 3534 0 
L 2950 0 
L 2422 1988 
L 2294 2553 
L 1622 0 
L 1034 0 
z
" transform="scale(0.015625)"/>
       <path id="ArialMT-72" d="M 416 0 
L 416 3319 
L 922 3319 
L 922 2816 
Q 1116 3169 1280 3281 
Q 1444 3394 1641 3394 
Q 1925 3394 2219 3213 
L 2025 2691 
Q 1819 2813 1613 2813 
Q 1428 2813 1281 2702 
Q 1134 2591 1072 2394 
Q 978 2094 978 1738 
L 978 0 
L 416 0 
z
" transform="scale(0.015625)"/>
      </defs>
      <use xlink:href="#ArialMT-50"/>
      <use xlink:href="#ArialMT-6f" x="66.699219"/>
      <use xlink:href="#ArialMT-77" x="122.314453"/>
      <use xlink:href="#ArialMT-65" x="194.53125"/>
      <use xlink:href="#ArialMT-72" x="250.146484"/>
     </g>
     <!-- for 4096 Variables -->
     <g style="fill: #262626" transform="translate(55.478531 300.571406) rotate(-90) scale(0.27 -0.27)">
      <defs>
       <path id="ArialMT-66" d="M 556 0 
L 556 2881 
L 59 2881 
L 59 3319 
L 556 3319 
L 556 3672 
Q 556 4006 616 4169 
Q 697 4388 901 4523 
Q 1106 4659 1475 4659 
Q 1713 4659 2000 4603 
L 1916 4113 
Q 1741 4144 1584 4144 
Q 1328 4144 1222 4034 
Q 1116 3925 1116 3625 
L 1116 3319 
L 1763 3319 
L 1763 2881 
L 1116 2881 
L 1116 0 
L 556 0 
z
" transform="scale(0.015625)"/>
       <path id="ArialMT-39" d="M 350 1059 
L 891 1109 
Q 959 728 1153 556 
Q 1347 384 1650 384 
Q 1909 384 2104 503 
Q 2300 622 2425 820 
Q 2550 1019 2634 1356 
Q 2719 1694 2719 2044 
Q 2719 2081 2716 2156 
Q 2547 1888 2255 1720 
Q 1963 1553 1622 1553 
Q 1053 1553 659 1965 
Q 266 2378 266 3053 
Q 266 3750 677 4175 
Q 1088 4600 1706 4600 
Q 2153 4600 2523 4359 
Q 2894 4119 3086 3673 
Q 3278 3228 3278 2384 
Q 3278 1506 3087 986 
Q 2897 466 2520 194 
Q 2144 -78 1638 -78 
Q 1100 -78 759 220 
Q 419 519 350 1059 
z
M 2653 3081 
Q 2653 3566 2395 3850 
Q 2138 4134 1775 4134 
Q 1400 4134 1122 3828 
Q 844 3522 844 3034 
Q 844 2597 1108 2323 
Q 1372 2050 1759 2050 
Q 2150 2050 2401 2323 
Q 2653 2597 2653 3081 
z
" transform="scale(0.015625)"/>
       <path id="ArialMT-56" d="M 1803 0 
L 28 4581 
L 684 4581 
L 1875 1253 
Q 2019 853 2116 503 
Q 2222 878 2363 1253 
L 3600 4581 
L 4219 4581 
L 2425 0 
L 1803 0 
z
" transform="scale(0.015625)"/>
       <path id="ArialMT-62" d="M 941 0 
L 419 0 
L 419 4581 
L 981 4581 
L 981 2947 
Q 1338 3394 1891 3394 
Q 2197 3394 2470 3270 
Q 2744 3147 2920 2923 
Q 3097 2700 3197 2384 
Q 3297 2069 3297 1709 
Q 3297 856 2875 390 
Q 2453 -75 1863 -75 
Q 1275 -75 941 416 
L 941 0 
z
M 934 1684 
Q 934 1088 1097 822 
Q 1363 388 1816 388 
Q 2184 388 2453 708 
Q 2722 1028 2722 1663 
Q 2722 2313 2464 2622 
Q 2206 2931 1841 2931 
Q 1472 2931 1203 2611 
Q 934 2291 934 1684 
z
" transform="scale(0.015625)"/>
       <path id="ArialMT-73" d="M 197 991 
L 753 1078 
Q 800 744 1014 566 
Q 1228 388 1613 388 
Q 2000 388 2187 545 
Q 2375 703 2375 916 
Q 2375 1106 2209 1216 
Q 2094 1291 1634 1406 
Q 1016 1563 777 1677 
Q 538 1791 414 1992 
Q 291 2194 291 2438 
Q 291 2659 392 2848 
Q 494 3038 669 3163 
Q 800 3259 1026 3326 
Q 1253 3394 1513 3394 
Q 1903 3394 2198 3281 
Q 2494 3169 2634 2976 
Q 2775 2784 2828 2463 
L 2278 2388 
Q 2241 2644 2061 2787 
Q 1881 2931 1553 2931 
Q 1166 2931 1000 2803 
Q 834 2675 834 2503 
Q 834 2394 903 2306 
Q 972 2216 1119 2156 
Q 1203 2125 1616 2013 
Q 2213 1853 2448 1751 
Q 2684 1650 2818 1456 
Q 2953 1263 2953 975 
Q 2953 694 2789 445 
Q 2625 197 2315 61 
Q 2006 -75 1616 -75 
Q 969 -75 630 194 
Q 291 463 197 991 
z
" transform="scale(0.015625)"/>
      </defs>
      <use xlink:href="#ArialMT-66"/>
      <use xlink:href="#ArialMT-6f" x="27.783203"/>
      <use xlink:href="#ArialMT-72" x="83.398438"/>
      <use xlink:href="#ArialMT-20" x="116.699219"/>
      <use xlink:href="#ArialMT-34" x="144.482422"/>
      <use xlink:href="#ArialMT-30" x="200.097656"/>
      <use xlink:href="#ArialMT-39" x="255.712891"/>
      <use xlink:href="#ArialMT-36" x="311.328125"/>
      <use xlink:href="#ArialMT-20" x="366.943359"/>
      <use xlink:href="#ArialMT-56" x="394.726562"/>
      <use xlink:href="#ArialMT-61" x="454.050781"/>
      <use xlink:href="#ArialMT-72" x="509.666016"/>
      <use xlink:href="#ArialMT-69" x="542.966797"/>
      <use xlink:href="#ArialMT-61" x="565.183594"/>
      <use xlink:href="#ArialMT-62" x="620.798828"/>
      <use xlink:href="#ArialMT-6c" x="676.414062"/>
      <use xlink:href="#ArialMT-65" x="698.630859"/>
      <use xlink:href="#ArialMT-73" x="754.246094"/>
     </g>
    </g>
   </g>
   <g id="line2d_18">
    <path d="M 91.108102 332.723741 
L 440.391967 332.723741 
" clip-path="url(#p12941fd7a0)" style="fill: none; stroke-dasharray: 2.25,3.7125; stroke-dashoffset: 0; stroke: #000000; stroke-width: 2.25"/>
   </g>
   <g id="line2d_19">
    <path d="M 106.984641 345.859887 
L 186.367338 340.861591 
L 265.750035 322.117982 
L 345.132731 271.82263 
L 424.515428 108.128442 
" clip-path="url(#p12941fd7a0)" style="fill: none; stroke: #a65628; stroke-width: 3; stroke-linecap: round"/>
   </g>
   <g id="line2d_20">
    <path d="M 106.984641 339.299624 
L 186.367338 331.80218 
L 265.750035 311.496603 
L 345.132731 256.515349 
L 424.515428 102.505359 
" clip-path="url(#p12941fd7a0)" style="fill: none; stroke: #ff7f00; stroke-width: 3; stroke-linecap: round"/>
   </g>
   <g id="line2d_21">
    <path d="M 106.984641 292.071976 
L 186.367338 179.497858 
L 265.750035 48.161388 
L 345.132731 35.653153 
L 424.515428 35.653153 
" clip-path="url(#p12941fd7a0)" style="fill: none; stroke: #984ea3; stroke-width: 3; stroke-linecap: round"/>
   </g>
   <g id="line2d_22">
    <path d="M 106.984641 295.725372 
L 186.367338 106.863403 
L 265.750035 35.653153 
L 345.132731 35.653153 
L 424.515428 35.653153 
" clip-path="url(#p12941fd7a0)" style="fill: none; stroke: #e41a1c; stroke-width: 4; stroke-linecap: round"/>
   </g>
   <g id="patch_3">
    <path d="M 91.108102 351.486094 
L 91.108102 32.526094 
" style="fill: none; stroke: #262626; stroke-width: 1.875; stroke-linejoin: miter; stroke-linecap: square"/>
   </g>
   <g id="patch_4">
    <path d="M 91.108102 351.486094 
L 440.391967 351.486094 
" style="fill: none; stroke: #262626; stroke-width: 1.875; stroke-linejoin: miter; stroke-linecap: square"/>
   </g>
   <g id="text_8">
    <!-- Linear -->
    <g style="fill: #262626" transform="translate(228.226363 26.526094) scale(0.27 -0.27)">
     <defs>
      <path id="ArialMT-6e" d="M 422 0 
L 422 3319 
L 928 3319 
L 928 2847 
Q 1294 3394 1984 3394 
Q 2284 3394 2536 3286 
Q 2788 3178 2913 3003 
Q 3038 2828 3088 2588 
Q 3119 2431 3119 2041 
L 3119 0 
L 2556 0 
L 2556 2019 
Q 2556 2363 2490 2533 
Q 2425 2703 2258 2804 
Q 2091 2906 1866 2906 
Q 1506 2906 1245 2678 
Q 984 2450 984 1813 
L 984 0 
L 422 0 
z
" transform="scale(0.015625)"/>
     </defs>
     <use xlink:href="#ArialMT-4c"/>
     <use xlink:href="#ArialMT-69" x="55.615234"/>
     <use xlink:href="#ArialMT-6e" x="77.832031"/>
     <use xlink:href="#ArialMT-65" x="133.447266"/>
     <use xlink:href="#ArialMT-61" x="189.0625"/>
     <use xlink:href="#ArialMT-72" x="244.677734"/>
    </g>
   </g>
   <g id="text_9">
    <!-- A -->
    <g style="fill: #262626" transform="translate(91.108102 26.526094) scale(0.27 -0.27)">
     <defs>
      <path id="Arial-BoldMT-41" d="M 4597 0 
L 3591 0 
L 3191 1041 
L 1359 1041 
L 981 0 
L 0 0 
L 1784 4581 
L 2763 4581 
L 4597 0 
z
M 2894 1813 
L 2263 3513 
L 1644 1813 
L 2894 1813 
z
" transform="scale(0.015625)"/>
     </defs>
     <use xlink:href="#Arial-BoldMT-41"/>
    </g>
   </g>
  </g>
  <g id="axes_2">
   <g id="patch_5">
    <path d="M 505.958768 351.486094 
L 855.242634 351.486094 
L 855.242634 32.526094 
L 505.958768 32.526094 
L 505.958768 351.486094 
z
" style="fill: none"/>
   </g>
   <g id="matplotlib.axis_3">
    <g id="xtick_16">
     <g id="line2d_23">
      <g>
       <use xlink:href="#mf7d8cf724b" x="521.835308" y="351.486094" style="fill: #262626; stroke: #262626; stroke-width: 1.875"/>
      </g>
     </g>
     <g id="text_10">
      <!-- 64 -->
      <g style="fill: #262626" transform="translate(508.071987 381.70168) scale(0.2475 -0.2475)">
       <use xlink:href="#ArialMT-36"/>
       <use xlink:href="#ArialMT-34" x="55.615234"/>
      </g>
     </g>
    </g>
    <g id="xtick_17">
     <g id="line2d_24">
      <g>
       <use xlink:href="#mf7d8cf724b" x="680.600701" y="351.486094" style="fill: #262626; stroke: #262626; stroke-width: 1.875"/>
      </g>
     </g>
     <g id="text_11">
      <!-- 256 -->
      <g style="fill: #262626" transform="translate(659.955721 381.70168) scale(0.2475 -0.2475)">
       <use xlink:href="#ArialMT-32"/>
       <use xlink:href="#ArialMT-35" x="55.615234"/>
       <use xlink:href="#ArialMT-36" x="111.230469"/>
      </g>
     </g>
    </g>
    <g id="xtick_18">
     <g id="line2d_25">
      <g>
       <use xlink:href="#mf7d8cf724b" x="839.366095" y="351.486094" style="fill: #262626; stroke: #262626; stroke-width: 1.875"/>
      </g>
     </g>
     <g id="text_12">
      <!-- 1024 -->
      <g style="fill: #262626" transform="translate(811.839454 381.70168) scale(0.2475 -0.2475)">
       <use xlink:href="#ArialMT-31"/>
       <use xlink:href="#ArialMT-30" x="55.615234"/>
       <use xlink:href="#ArialMT-32" x="111.230469"/>
       <use xlink:href="#ArialMT-34" x="166.845703"/>
      </g>
     </g>
    </g>
    <g id="xtick_19">
     <g id="line2d_26">
      <g>
       <use xlink:href="#md17f63b831" x="514.444032" y="351.486094" style="fill: #262626; stroke: #262626; stroke-width: 1.5"/>
      </g>
     </g>
    </g>
    <g id="xtick_20">
     <g id="line2d_27">
      <g>
       <use xlink:href="#md17f63b831" x="532.098142" y="351.486094" style="fill: #262626; stroke: #262626; stroke-width: 1.5"/>
      </g>
     </g>
    </g>
    <g id="xtick_21">
     <g id="line2d_28">
      <g>
       <use xlink:href="#md17f63b831" x="547.390828" y="351.486094" style="fill: #262626; stroke: #262626; stroke-width: 1.5"/>
      </g>
     </g>
    </g>
    <g id="xtick_22">
     <g id="line2d_29">
      <g>
       <use xlink:href="#md17f63b831" x="560.879933" y="351.486094" style="fill: #262626; stroke: #262626; stroke-width: 1.5"/>
      </g>
     </g>
    </g>
    <g id="xtick_23">
     <g id="line2d_30">
      <g>
       <use xlink:href="#md17f63b831" x="652.329045" y="351.486094" style="fill: #262626; stroke: #262626; stroke-width: 1.5"/>
      </g>
     </g>
    </g>
    <g id="xtick_24">
     <g id="line2d_31">
      <g>
       <use xlink:href="#md17f63b831" x="698.764946" y="351.486094" style="fill: #262626; stroke: #262626; stroke-width: 1.5"/>
      </g>
     </g>
    </g>
    <g id="xtick_25">
     <g id="line2d_32">
      <g>
       <use xlink:href="#md17f63b831" x="731.711742" y="351.486094" style="fill: #262626; stroke: #262626; stroke-width: 1.5"/>
      </g>
     </g>
    </g>
    <g id="xtick_26">
     <g id="line2d_33">
      <g>
       <use xlink:href="#md17f63b831" x="757.267262" y="351.486094" style="fill: #262626; stroke: #262626; stroke-width: 1.5"/>
      </g>
     </g>
    </g>
    <g id="xtick_27">
     <g id="line2d_34">
      <g>
       <use xlink:href="#md17f63b831" x="778.147643" y="351.486094" style="fill: #262626; stroke: #262626; stroke-width: 1.5"/>
      </g>
     </g>
    </g>
    <g id="xtick_28">
     <g id="line2d_35">
      <g>
       <use xlink:href="#md17f63b831" x="795.801753" y="351.486094" style="fill: #262626; stroke: #262626; stroke-width: 1.5"/>
      </g>
     </g>
    </g>
    <g id="xtick_29">
     <g id="line2d_36">
      <g>
       <use xlink:href="#md17f63b831" x="811.094439" y="351.486094" style="fill: #262626; stroke: #262626; stroke-width: 1.5"/>
      </g>
     </g>
    </g>
    <g id="xtick_30">
     <g id="line2d_37">
      <g>
       <use xlink:href="#md17f63b831" x="824.583544" y="351.486094" style="fill: #262626; stroke: #262626; stroke-width: 1.5"/>
      </g>
     </g>
    </g>
    <g id="text_13">
     <!-- Sample Size (Log Scale) -->
     <g style="fill: #262626" transform="translate(532.035311 410.275898) scale(0.27 -0.27)">
      <use xlink:href="#ArialMT-53"/>
      <use xlink:href="#ArialMT-61" x="66.699219"/>
      <use xlink:href="#ArialMT-6d" x="122.314453"/>
      <use xlink:href="#ArialMT-70" x="205.615234"/>
      <use xlink:href="#ArialMT-6c" x="261.230469"/>
      <use xlink:href="#ArialMT-65" x="283.447266"/>
      <use xlink:href="#ArialMT-20" x="339.0625"/>
      <use xlink:href="#ArialMT-53" x="366.845703"/>
      <use xlink:href="#ArialMT-69" x="433.544922"/>
      <use xlink:href="#ArialMT-7a" x="455.761719"/>
      <use xlink:href="#ArialMT-65" x="505.761719"/>
      <use xlink:href="#ArialMT-20" x="561.376953"/>
      <use xlink:href="#ArialMT-28" x="589.160156"/>
      <use xlink:href="#ArialMT-4c" x="622.460938"/>
      <use xlink:href="#ArialMT-6f" x="678.076172"/>
      <use xlink:href="#ArialMT-67" x="733.691406"/>
      <use xlink:href="#ArialMT-20" x="789.306641"/>
      <use xlink:href="#ArialMT-53" x="817.089844"/>
      <use xlink:href="#ArialMT-63" x="883.789062"/>
      <use xlink:href="#ArialMT-61" x="933.789062"/>
      <use xlink:href="#ArialMT-6c" x="989.404297"/>
      <use xlink:href="#ArialMT-65" x="1011.621094"/>
      <use xlink:href="#ArialMT-29" x="1067.236328"/>
     </g>
    </g>
   </g>
   <g id="matplotlib.axis_4">
    <g id="ytick_3">
     <g id="line2d_38">
      <g>
       <use xlink:href="#mf165897e1d" x="505.958768" y="348.359035" style="fill: #262626; stroke: #262626; stroke-width: 1.875"/>
      </g>
     </g>
     <g id="text_14">
      <!-- 0 -->
      <g style="fill: #262626" transform="translate(479.695448 357.216828) scale(0.2475 -0.2475)">
       <use xlink:href="#ArialMT-30"/>
      </g>
     </g>
    </g>
    <g id="ytick_4">
     <g id="line2d_39">
      <g>
       <use xlink:href="#mf165897e1d" x="505.958768" y="35.653153" style="fill: #262626; stroke: #262626; stroke-width: 1.875"/>
      </g>
     </g>
     <g id="text_15">
      <!-- 1 -->
      <g style="fill: #262626" transform="translate(479.695448 44.510946) scale(0.2475 -0.2475)">
       <use xlink:href="#ArialMT-31"/>
      </g>
     </g>
    </g>
   </g>
   <g id="line2d_40">
    <path d="M 505.958768 332.723741 
L 855.242634 332.723741 
" clip-path="url(#p041db3b0ad)" style="fill: none; stroke-dasharray: 2.25,3.7125; stroke-dashoffset: 0; stroke: #000000; stroke-width: 2.25"/>
   </g>
   <g id="line2d_41">
    <path d="M 521.835308 345.547494 
L 601.218004 336.800476 
L 680.600701 300.562831 
L 759.983398 195.286225 
L 839.366095 48.148892 
" clip-path="url(#p041db3b0ad)" style="fill: none; stroke: #a65628; stroke-width: 3; stroke-linecap: round"/>
   </g>
   <g id="line2d_42">
    <path d="M 521.835308 335.550902 
L 601.218004 321.180801 
L 680.600701 273.696991 
L 759.983398 164.671663 
L 839.366095 45.024957 
" clip-path="url(#p041db3b0ad)" style="fill: none; stroke: #ff7f00; stroke-width: 3; stroke-linecap: round"/>
   </g>
   <g id="line2d_43">
    <path d="M 521.835308 332.723741 
L 601.218004 288.944917 
L 680.600701 141.973153 
L 759.983398 38.780211 
L 839.366095 35.653153 
" clip-path="url(#p041db3b0ad)" style="fill: none; stroke: #984ea3; stroke-width: 3; stroke-linecap: round"/>
   </g>
   <g id="line2d_44">
    <path d="M 521.835308 339.070741 
L 601.218004 317.398056 
L 680.600701 100.671207 
L 759.983398 35.653153 
L 839.366095 35.653153 
" clip-path="url(#p041db3b0ad)" style="fill: none; stroke: #e41a1c; stroke-width: 4; stroke-linecap: round"/>
   </g>
   <g id="patch_6">
    <path d="M 505.958768 351.486094 
L 505.958768 32.526094 
" style="fill: none; stroke: #262626; stroke-width: 1.875; stroke-linejoin: miter; stroke-linecap: square"/>
   </g>
   <g id="patch_7">
    <path d="M 505.958768 351.486094 
L 855.242634 351.486094 
" style="fill: none; stroke: #262626; stroke-width: 1.875; stroke-linejoin: miter; stroke-linecap: square"/>
   </g>
   <g id="text_16">
    <!-- Nonlinear -->
    <g style="fill: #262626" transform="translate(622.820701 26.526094) scale(0.27 -0.27)">
     <defs>
      <path id="ArialMT-4e" d="M 488 0 
L 488 4581 
L 1109 4581 
L 3516 984 
L 3516 4581 
L 4097 4581 
L 4097 0 
L 3475 0 
L 1069 3600 
L 1069 0 
L 488 0 
z
" transform="scale(0.015625)"/>
     </defs>
     <use xlink:href="#ArialMT-4e"/>
     <use xlink:href="#ArialMT-6f" x="72.216797"/>
     <use xlink:href="#ArialMT-6e" x="127.832031"/>
     <use xlink:href="#ArialMT-6c" x="183.447266"/>
     <use xlink:href="#ArialMT-69" x="205.664062"/>
     <use xlink:href="#ArialMT-6e" x="227.880859"/>
     <use xlink:href="#ArialMT-65" x="283.496094"/>
     <use xlink:href="#ArialMT-61" x="339.111328"/>
     <use xlink:href="#ArialMT-72" x="394.726562"/>
    </g>
   </g>
   <g id="text_17">
    <!-- B -->
    <g style="fill: #262626" transform="translate(505.958768 26.526094) scale(0.27 -0.27)">
     <defs>
      <path id="Arial-BoldMT-42" d="M 469 4581 
L 2300 4581 
Q 2844 4581 3111 4536 
Q 3378 4491 3589 4347 
Q 3800 4203 3940 3964 
Q 4081 3725 4081 3428 
Q 4081 3106 3907 2837 
Q 3734 2569 3438 2434 
Q 3856 2313 4081 2019 
Q 4306 1725 4306 1328 
Q 4306 1016 4161 720 
Q 4016 425 3764 248 
Q 3513 72 3144 31 
Q 2913 6 2028 0 
L 469 0 
L 469 4581 
z
M 1394 3819 
L 1394 2759 
L 2000 2759 
Q 2541 2759 2672 2775 
Q 2909 2803 3045 2939 
Q 3181 3075 3181 3297 
Q 3181 3509 3064 3642 
Q 2947 3775 2716 3803 
Q 2578 3819 1925 3819 
L 1394 3819 
z
M 1394 1997 
L 1394 772 
L 2250 772 
Q 2750 772 2884 800 
Q 3091 838 3220 983 
Q 3350 1128 3350 1372 
Q 3350 1578 3250 1722 
Q 3150 1866 2961 1931 
Q 2772 1997 2141 1997 
L 1394 1997 
z
" transform="scale(0.015625)"/>
     </defs>
     <use xlink:href="#Arial-BoldMT-42"/>
    </g>
   </g>
  </g>
  <g id="axes_3">
   <g id="patch_8">
    <path d="M 920.809435 351.486094 
L 1270.093301 351.486094 
L 1270.093301 32.526094 
L 920.809435 32.526094 
L 920.809435 351.486094 
z
" style="fill: none"/>
   </g>
   <g id="matplotlib.axis_5">
    <g id="xtick_31">
     <g id="line2d_45">
      <g>
       <use xlink:href="#mf7d8cf724b" x="936.685974" y="351.486094" style="fill: #262626; stroke: #262626; stroke-width: 1.875"/>
      </g>
     </g>
     <g id="text_18">
      <!-- 64 -->
      <g style="fill: #262626" transform="translate(922.922654 381.70168) scale(0.2475 -0.2475)">
       <use xlink:href="#ArialMT-36"/>
       <use xlink:href="#ArialMT-34" x="55.615234"/>
      </g>
     </g>
    </g>
    <g id="xtick_32">
     <g id="line2d_46">
      <g>
       <use xlink:href="#mf7d8cf724b" x="1095.451368" y="351.486094" style="fill: #262626; stroke: #262626; stroke-width: 1.875"/>
      </g>
     </g>
     <g id="text_19">
      <!-- 256 -->
      <g style="fill: #262626" transform="translate(1074.806387 381.70168) scale(0.2475 -0.2475)">
       <use xlink:href="#ArialMT-32"/>
       <use xlink:href="#ArialMT-35" x="55.615234"/>
       <use xlink:href="#ArialMT-36" x="111.230469"/>
      </g>
     </g>
    </g>
    <g id="xtick_33">
     <g id="line2d_47">
      <g>
       <use xlink:href="#mf7d8cf724b" x="1254.216761" y="351.486094" style="fill: #262626; stroke: #262626; stroke-width: 1.875"/>
      </g>
     </g>
     <g id="text_20">
      <!-- 1024 -->
      <g style="fill: #262626" transform="translate(1226.690121 381.70168) scale(0.2475 -0.2475)">
       <use xlink:href="#ArialMT-31"/>
       <use xlink:href="#ArialMT-30" x="55.615234"/>
       <use xlink:href="#ArialMT-32" x="111.230469"/>
       <use xlink:href="#ArialMT-34" x="166.845703"/>
      </g>
     </g>
    </g>
    <g id="xtick_34">
     <g id="line2d_48">
      <g>
       <use xlink:href="#md17f63b831" x="929.294699" y="351.486094" style="fill: #262626; stroke: #262626; stroke-width: 1.5"/>
      </g>
     </g>
    </g>
    <g id="xtick_35">
     <g id="line2d_49">
      <g>
       <use xlink:href="#md17f63b831" x="946.948809" y="351.486094" style="fill: #262626; stroke: #262626; stroke-width: 1.5"/>
      </g>
     </g>
    </g>
    <g id="xtick_36">
     <g id="line2d_50">
      <g>
       <use xlink:href="#md17f63b831" x="962.241495" y="351.486094" style="fill: #262626; stroke: #262626; stroke-width: 1.5"/>
      </g>
     </g>
    </g>
    <g id="xtick_37">
     <g id="line2d_51">
      <g>
       <use xlink:href="#md17f63b831" x="975.730599" y="351.486094" style="fill: #262626; stroke: #262626; stroke-width: 1.5"/>
      </g>
     </g>
    </g>
    <g id="xtick_38">
     <g id="line2d_52">
      <g>
       <use xlink:href="#md17f63b831" x="1067.179712" y="351.486094" style="fill: #262626; stroke: #262626; stroke-width: 1.5"/>
      </g>
     </g>
    </g>
    <g id="xtick_39">
     <g id="line2d_53">
      <g>
       <use xlink:href="#md17f63b831" x="1113.615613" y="351.486094" style="fill: #262626; stroke: #262626; stroke-width: 1.5"/>
      </g>
     </g>
    </g>
    <g id="xtick_40">
     <g id="line2d_54">
      <g>
       <use xlink:href="#md17f63b831" x="1146.562409" y="351.486094" style="fill: #262626; stroke: #262626; stroke-width: 1.5"/>
      </g>
     </g>
    </g>
    <g id="xtick_41">
     <g id="line2d_55">
      <g>
       <use xlink:href="#md17f63b831" x="1172.117929" y="351.486094" style="fill: #262626; stroke: #262626; stroke-width: 1.5"/>
      </g>
     </g>
    </g>
    <g id="xtick_42">
     <g id="line2d_56">
      <g>
       <use xlink:href="#md17f63b831" x="1192.998309" y="351.486094" style="fill: #262626; stroke: #262626; stroke-width: 1.5"/>
      </g>
     </g>
    </g>
    <g id="xtick_43">
     <g id="line2d_57">
      <g>
       <use xlink:href="#md17f63b831" x="1210.65242" y="351.486094" style="fill: #262626; stroke: #262626; stroke-width: 1.5"/>
      </g>
     </g>
    </g>
    <g id="xtick_44">
     <g id="line2d_58">
      <g>
       <use xlink:href="#md17f63b831" x="1225.945105" y="351.486094" style="fill: #262626; stroke: #262626; stroke-width: 1.5"/>
      </g>
     </g>
    </g>
    <g id="xtick_45">
     <g id="line2d_59">
      <g>
       <use xlink:href="#md17f63b831" x="1239.43421" y="351.486094" style="fill: #262626; stroke: #262626; stroke-width: 1.5"/>
      </g>
     </g>
    </g>
    <g id="text_21">
     <!-- Sample Size (Log Scale) -->
     <g style="fill: #262626" transform="translate(946.885977 410.275898) scale(0.27 -0.27)">
      <use xlink:href="#ArialMT-53"/>
      <use xlink:href="#ArialMT-61" x="66.699219"/>
      <use xlink:href="#ArialMT-6d" x="122.314453"/>
      <use xlink:href="#ArialMT-70" x="205.615234"/>
      <use xlink:href="#ArialMT-6c" x="261.230469"/>
      <use xlink:href="#ArialMT-65" x="283.447266"/>
      <use xlink:href="#ArialMT-20" x="339.0625"/>
      <use xlink:href="#ArialMT-53" x="366.845703"/>
      <use xlink:href="#ArialMT-69" x="433.544922"/>
      <use xlink:href="#ArialMT-7a" x="455.761719"/>
      <use xlink:href="#ArialMT-65" x="505.761719"/>
      <use xlink:href="#ArialMT-20" x="561.376953"/>
      <use xlink:href="#ArialMT-28" x="589.160156"/>
      <use xlink:href="#ArialMT-4c" x="622.460938"/>
      <use xlink:href="#ArialMT-6f" x="678.076172"/>
      <use xlink:href="#ArialMT-67" x="733.691406"/>
      <use xlink:href="#ArialMT-20" x="789.306641"/>
      <use xlink:href="#ArialMT-53" x="817.089844"/>
      <use xlink:href="#ArialMT-63" x="883.789062"/>
      <use xlink:href="#ArialMT-61" x="933.789062"/>
      <use xlink:href="#ArialMT-6c" x="989.404297"/>
      <use xlink:href="#ArialMT-65" x="1011.621094"/>
      <use xlink:href="#ArialMT-29" x="1067.236328"/>
     </g>
    </g>
   </g>
   <g id="matplotlib.axis_6">
    <g id="ytick_5">
     <g id="line2d_60">
      <g>
       <use xlink:href="#mf165897e1d" x="920.809435" y="348.359035" style="fill: #262626; stroke: #262626; stroke-width: 1.875"/>
      </g>
     </g>
     <g id="text_22">
      <!-- 0 -->
      <g style="fill: #262626" transform="translate(894.546115 357.216828) scale(0.2475 -0.2475)">
       <use xlink:href="#ArialMT-30"/>
      </g>
     </g>
    </g>
    <g id="ytick_6">
     <g id="line2d_61">
      <g>
       <use xlink:href="#mf165897e1d" x="920.809435" y="35.653153" style="fill: #262626; stroke: #262626; stroke-width: 1.875"/>
      </g>
     </g>
     <g id="text_23">
      <!-- 1 -->
      <g style="fill: #262626" transform="translate(894.546115 44.510946) scale(0.2475 -0.2475)">
       <use xlink:href="#ArialMT-31"/>
      </g>
     </g>
    </g>
   </g>
   <g id="line2d_62">
    <path d="M 920.809435 332.723741 
L 1270.093301 332.723741 
" clip-path="url(#p64da611fc6)" style="fill: none; stroke-dasharray: 2.25,3.7125; stroke-dashoffset: 0; stroke: #000000; stroke-width: 2.25"/>
   </g>
   <g id="line2d_63">
    <path d="M 936.685974 346.797067 
L 1016.068671 345.2351 
L 1095.451368 341.798772 
L 1174.834065 340.549198 
L 1254.216761 340.236804 
" clip-path="url(#p64da611fc6)" style="fill: none; stroke: #a65628; stroke-width: 3; stroke-linecap: round"/>
   </g>
   <g id="line2d_64">
    <path d="M 936.685974 342.735952 
L 1016.068671 341.798772 
L 1095.451368 338.362443 
L 1174.834065 339.612017 
L 1254.216761 339.612017 
" clip-path="url(#p64da611fc6)" style="fill: none; stroke: #ff7f00; stroke-width: 3; stroke-linecap: round"/>
   </g>
   <g id="line2d_65">
    <path d="M 936.685974 335.8508 
L 1016.068671 326.469623 
L 1095.451368 335.8508 
L 1174.834065 335.8508 
L 1254.216761 320.215506 
" clip-path="url(#p64da611fc6)" style="fill: none; stroke: #984ea3; stroke-width: 3; stroke-linecap: round"/>
   </g>
   <g id="line2d_66">
    <path d="M 936.685974 323.590252 
L 1016.068671 332.878546 
L 1095.451368 342.166839 
L 1174.834065 314.301959 
L 1254.216761 329.782448 
" clip-path="url(#p64da611fc6)" style="fill: none; stroke: #e41a1c; stroke-width: 4; stroke-linecap: round"/>
   </g>
   <g id="patch_9">
    <path d="M 920.809435 351.486094 
L 920.809435 32.526094 
" style="fill: none; stroke: #262626; stroke-width: 1.875; stroke-linejoin: miter; stroke-linecap: square"/>
   </g>
   <g id="patch_10">
    <path d="M 920.809435 351.486094 
L 1270.093301 351.486094 
" style="fill: none; stroke: #262626; stroke-width: 1.875; stroke-linejoin: miter; stroke-linecap: square"/>
   </g>
   <g id="text_24">
    <!-- Null -->
    <g style="fill: #262626" transform="translate(1072.195508 26.526094) scale(0.27 -0.27)">
     <defs>
      <path id="ArialMT-75" d="M 2597 0 
L 2597 488 
Q 2209 -75 1544 -75 
Q 1250 -75 995 37 
Q 741 150 617 320 
Q 494 491 444 738 
Q 409 903 409 1263 
L 409 3319 
L 972 3319 
L 972 1478 
Q 972 1038 1006 884 
Q 1059 663 1231 536 
Q 1403 409 1656 409 
Q 1909 409 2131 539 
Q 2353 669 2445 892 
Q 2538 1116 2538 1541 
L 2538 3319 
L 3100 3319 
L 3100 0 
L 2597 0 
z
" transform="scale(0.015625)"/>
     </defs>
     <use xlink:href="#ArialMT-4e"/>
     <use xlink:href="#ArialMT-75" x="72.216797"/>
     <use xlink:href="#ArialMT-6c" x="127.832031"/>
     <use xlink:href="#ArialMT-6c" x="150.048828"/>
    </g>
   </g>
   <g id="text_25">
    <!-- C -->
    <g style="fill: #262626" transform="translate(920.809435 26.526094) scale(0.27 -0.27)">
     <defs>
      <path id="Arial-BoldMT-43" d="M 3397 1684 
L 4294 1400 
Q 4088 650 3608 286 
Q 3128 -78 2391 -78 
Q 1478 -78 890 545 
Q 303 1169 303 2250 
Q 303 3394 893 4026 
Q 1484 4659 2447 4659 
Q 3288 4659 3813 4163 
Q 4125 3869 4281 3319 
L 3366 3100 
Q 3284 3456 3026 3662 
Q 2769 3869 2400 3869 
Q 1891 3869 1573 3503 
Q 1256 3138 1256 2319 
Q 1256 1450 1568 1081 
Q 1881 713 2381 713 
Q 2750 713 3015 947 
Q 3281 1181 3397 1684 
z
" transform="scale(0.015625)"/>
     </defs>
     <use xlink:href="#Arial-BoldMT-43"/>
    </g>
   </g>
  </g>
  <g id="axes_4">
   <g id="patch_11">
    <path d="M 91.108102 786.186094 
L 440.391967 786.186094 
L 440.391967 467.226094 
L 91.108102 467.226094 
L 91.108102 786.186094 
z
" style="fill: none"/>
   </g>
   <g id="matplotlib.axis_7">
    <g id="xtick_46">
     <g id="line2d_67">
      <g>
       <use xlink:href="#mf7d8cf724b" x="106.984641" y="786.186094" style="fill: #262626; stroke: #262626; stroke-width: 1.875"/>
      </g>
     </g>
     <g id="text_26">
      <!-- 4 -->
      <g style="fill: #262626" transform="translate(100.102981 816.40168) scale(0.2475 -0.2475)">
       <use xlink:href="#ArialMT-34"/>
      </g>
     </g>
    </g>
    <g id="xtick_47">
     <g id="line2d_68">
      <g>
       <use xlink:href="#mf7d8cf724b" x="265.594839" y="786.186094" style="fill: #262626; stroke: #262626; stroke-width: 1.875"/>
      </g>
     </g>
     <g id="text_27">
      <!-- 2048 -->
      <g style="fill: #262626" transform="translate(238.068198 816.40168) scale(0.2475 -0.2475)">
       <defs>
        <path id="ArialMT-38" d="M 1131 2484 
Q 781 2613 612 2850 
Q 444 3088 444 3419 
Q 444 3919 803 4259 
Q 1163 4600 1759 4600 
Q 2359 4600 2725 4251 
Q 3091 3903 3091 3403 
Q 3091 3084 2923 2848 
Q 2756 2613 2416 2484 
Q 2838 2347 3058 2040 
Q 3278 1734 3278 1309 
Q 3278 722 2862 322 
Q 2447 -78 1769 -78 
Q 1091 -78 675 323 
Q 259 725 259 1325 
Q 259 1772 486 2073 
Q 713 2375 1131 2484 
z
M 1019 3438 
Q 1019 3113 1228 2906 
Q 1438 2700 1772 2700 
Q 2097 2700 2305 2904 
Q 2513 3109 2513 3406 
Q 2513 3716 2298 3927 
Q 2084 4138 1766 4138 
Q 1444 4138 1231 3931 
Q 1019 3725 1019 3438 
z
M 838 1322 
Q 838 1081 952 856 
Q 1066 631 1291 507 
Q 1516 384 1775 384 
Q 2178 384 2440 643 
Q 2703 903 2703 1303 
Q 2703 1709 2433 1975 
Q 2163 2241 1756 2241 
Q 1359 2241 1098 1978 
Q 838 1716 838 1322 
z
" transform="scale(0.015625)"/>
       </defs>
       <use xlink:href="#ArialMT-32"/>
       <use xlink:href="#ArialMT-30" x="55.615234"/>
       <use xlink:href="#ArialMT-34" x="111.230469"/>
       <use xlink:href="#ArialMT-38" x="166.845703"/>
      </g>
     </g>
    </g>
    <g id="xtick_48">
     <g id="line2d_69">
      <g>
       <use xlink:href="#mf7d8cf724b" x="424.515428" y="786.186094" style="fill: #262626; stroke: #262626; stroke-width: 1.875"/>
      </g>
     </g>
     <g id="text_28">
      <!-- 4096 -->
      <g style="fill: #262626" transform="translate(396.988788 816.40168) scale(0.2475 -0.2475)">
       <use xlink:href="#ArialMT-34"/>
       <use xlink:href="#ArialMT-30" x="55.615234"/>
       <use xlink:href="#ArialMT-39" x="111.230469"/>
       <use xlink:href="#ArialMT-36" x="166.845703"/>
      </g>
     </g>
    </g>
    <g id="text_29">
     <!-- # of Variables -->
     <g style="fill: #262626" transform="translate(184.201597 844.646836) scale(0.27 -0.27)">
      <defs>
       <path id="ArialMT-23" d="M 322 -78 
L 594 1253 
L 66 1253 
L 66 1719 
L 688 1719 
L 919 2853 
L 66 2853 
L 66 3319 
L 1013 3319 
L 1284 4659 
L 1753 4659 
L 1481 3319 
L 2466 3319 
L 2738 4659 
L 3209 4659 
L 2938 3319 
L 3478 3319 
L 3478 2853 
L 2844 2853 
L 2609 1719 
L 3478 1719 
L 3478 1253 
L 2516 1253 
L 2244 -78 
L 1775 -78 
L 2044 1253 
L 1063 1253 
L 791 -78 
L 322 -78 
z
M 1156 1719 
L 2138 1719 
L 2372 2853 
L 1388 2853 
L 1156 1719 
z
" transform="scale(0.015625)"/>
      </defs>
      <use xlink:href="#ArialMT-23"/>
      <use xlink:href="#ArialMT-20" x="55.615234"/>
      <use xlink:href="#ArialMT-6f" x="83.398438"/>
      <use xlink:href="#ArialMT-66" x="139.013672"/>
      <use xlink:href="#ArialMT-20" x="166.796875"/>
      <use xlink:href="#ArialMT-56" x="194.580078"/>
      <use xlink:href="#ArialMT-61" x="253.904297"/>
      <use xlink:href="#ArialMT-72" x="309.519531"/>
      <use xlink:href="#ArialMT-69" x="342.820312"/>
      <use xlink:href="#ArialMT-61" x="365.037109"/>
      <use xlink:href="#ArialMT-62" x="420.652344"/>
      <use xlink:href="#ArialMT-6c" x="476.267578"/>
      <use xlink:href="#ArialMT-65" x="498.484375"/>
      <use xlink:href="#ArialMT-73" x="554.099609"/>
     </g>
    </g>
   </g>
   <g id="matplotlib.axis_8">
    <g id="ytick_7">
     <g id="line2d_70">
      <g>
       <use xlink:href="#mf165897e1d" x="91.108102" y="783.059035" style="fill: #262626; stroke: #262626; stroke-width: 1.875"/>
      </g>
     </g>
     <g id="text_30">
      <!-- 0 -->
      <g style="fill: #262626" transform="translate(64.844781 791.916828) scale(0.2475 -0.2475)">
       <use xlink:href="#ArialMT-30"/>
      </g>
     </g>
    </g>
    <g id="ytick_8">
     <g id="line2d_71">
      <g>
       <use xlink:href="#mf165897e1d" x="91.108102" y="470.353153" style="fill: #262626; stroke: #262626; stroke-width: 1.875"/>
      </g>
     </g>
     <g id="text_31">
      <!-- 1 -->
      <g style="fill: #262626" transform="translate(64.844781 479.210946) scale(0.2475 -0.2475)">
       <use xlink:href="#ArialMT-31"/>
      </g>
     </g>
    </g>
    <g id="text_32">
     <!-- Power -->
     <g style="fill: #262626" transform="translate(26.526094 664.970156) rotate(-90) scale(0.27 -0.27)">
      <use xlink:href="#ArialMT-50"/>
      <use xlink:href="#ArialMT-6f" x="66.699219"/>
      <use xlink:href="#ArialMT-77" x="122.314453"/>
      <use xlink:href="#ArialMT-65" x="194.53125"/>
      <use xlink:href="#ArialMT-72" x="250.146484"/>
     </g>
     <!-- for 256 Samples -->
     <g style="fill: #262626" transform="translate(55.478531 725.002969) rotate(-90) scale(0.27 -0.27)">
      <use xlink:href="#ArialMT-66"/>
      <use xlink:href="#ArialMT-6f" x="27.783203"/>
      <use xlink:href="#ArialMT-72" x="83.398438"/>
      <use xlink:href="#ArialMT-20" x="116.699219"/>
      <use xlink:href="#ArialMT-32" x="144.482422"/>
      <use xlink:href="#ArialMT-35" x="200.097656"/>
      <use xlink:href="#ArialMT-36" x="255.712891"/>
      <use xlink:href="#ArialMT-20" x="311.328125"/>
      <use xlink:href="#ArialMT-53" x="339.111328"/>
      <use xlink:href="#ArialMT-61" x="405.810547"/>
      <use xlink:href="#ArialMT-6d" x="461.425781"/>
      <use xlink:href="#ArialMT-70" x="544.726562"/>
      <use xlink:href="#ArialMT-6c" x="600.341797"/>
      <use xlink:href="#ArialMT-65" x="622.558594"/>
      <use xlink:href="#ArialMT-73" x="678.173828"/>
     </g>
    </g>
   </g>
   <g id="line2d_72">
    <path d="M 91.108102 767.423741 
L 440.391967 767.423741 
" clip-path="url(#pfd5755d421)" style="fill: none; stroke-dasharray: 2.25,3.7125; stroke-dashoffset: 0; stroke: #000000; stroke-width: 2.25"/>
   </g>
   <g id="line2d_73">
    <path d="M 106.984641 470.353153 
L 107.295033 470.353153 
L 107.915816 470.353153 
L 109.157383 471.290333 
L 111.640518 474.414268 
L 116.606786 495.032238 
L 126.539323 555.011788 
L 146.404397 636.546489 
L 186.134544 705.58545 
L 265.594839 744.322242 
L 424.515428 762.128671 
" clip-path="url(#pfd5755d421)" style="fill: none; stroke: #a65628; stroke-width: 3; stroke-linecap: round"/>
   </g>
   <g id="line2d_74">
    <path d="M 106.984641 470.353153 
L 107.295033 470.353153 
L 107.915816 470.353153 
L 109.157383 470.97794 
L 111.640518 475.351448 
L 116.606786 494.095058 
L 126.539323 553.762214 
L 146.404397 636.234095 
L 186.134544 697.150825 
L 265.594839 735.887618 
L 424.515428 752.444473 
" clip-path="url(#pfd5755d421)" style="fill: none; stroke: #ff7f00; stroke-width: 3; stroke-linecap: round"/>
   </g>
   <g id="line2d_75">
    <path d="M 106.984641 473.480211 
L 107.295033 473.480211 
L 107.915816 470.353153 
L 109.157383 473.480211 
L 111.640518 470.353153 
L 116.606786 470.353153 
L 126.539323 473.480211 
L 146.404397 470.353153 
L 186.134544 470.353153 
L 265.594839 470.353153 
L 424.515428 479.734329 
" clip-path="url(#pfd5755d421)" style="fill: none; stroke: #984ea3; stroke-width: 3; stroke-linecap: round"/>
   </g>
   <g id="line2d_76">
    <path d="M 106.984641 470.353153 
L 107.295033 470.353153 
L 107.915816 470.353153 
L 109.157383 470.353153 
L 111.640518 470.353153 
L 116.606786 470.353153 
L 126.539323 470.353153 
L 146.404397 470.353153 
L 186.134544 470.353153 
L 265.594839 470.353153 
L 424.515428 470.353153 
" clip-path="url(#pfd5755d421)" style="fill: none; stroke: #e41a1c; stroke-width: 4; stroke-linecap: round"/>
   </g>
   <g id="patch_12">
    <path d="M 91.108102 786.186094 
L 91.108102 467.226094 
" style="fill: none; stroke: #262626; stroke-width: 1.875; stroke-linejoin: miter; stroke-linecap: square"/>
   </g>
   <g id="patch_13">
    <path d="M 91.108102 786.186094 
L 440.391967 786.186094 
" style="fill: none; stroke: #262626; stroke-width: 1.875; stroke-linejoin: miter; stroke-linecap: square"/>
   </g>
   <g id="text_33">
    <!-- D -->
    <g style="fill: #262626" transform="translate(91.108102 461.226094) scale(0.27 -0.27)">
     <defs>
      <path id="Arial-BoldMT-44" d="M 463 4581 
L 2153 4581 
Q 2725 4581 3025 4494 
Q 3428 4375 3715 4072 
Q 4003 3769 4153 3330 
Q 4303 2891 4303 2247 
Q 4303 1681 4163 1272 
Q 3991 772 3672 463 
Q 3431 228 3022 97 
Q 2716 0 2203 0 
L 463 0 
L 463 4581 
z
M 1388 3806 
L 1388 772 
L 2078 772 
Q 2466 772 2638 816 
Q 2863 872 3011 1006 
Q 3159 1141 3253 1448 
Q 3347 1756 3347 2288 
Q 3347 2819 3253 3103 
Q 3159 3388 2990 3547 
Q 2822 3706 2563 3763 
Q 2369 3806 1803 3806 
L 1388 3806 
z
" transform="scale(0.015625)"/>
     </defs>
     <use xlink:href="#Arial-BoldMT-44"/>
    </g>
   </g>
  </g>
  <g id="axes_5">
   <g id="patch_14">
    <path d="M 505.958768 786.186094 
L 855.242634 786.186094 
L 855.242634 467.226094 
L 505.958768 467.226094 
L 505.958768 786.186094 
z
" style="fill: none"/>
   </g>
   <g id="matplotlib.axis_9">
    <g id="xtick_49">
     <g id="line2d_77">
      <g>
       <use xlink:href="#mf7d8cf724b" x="521.835308" y="786.186094" style="fill: #262626; stroke: #262626; stroke-width: 1.875"/>
      </g>
     </g>
     <g id="text_34">
      <!-- 4 -->
      <g style="fill: #262626" transform="translate(514.953647 816.40168) scale(0.2475 -0.2475)">
       <use xlink:href="#ArialMT-34"/>
      </g>
     </g>
    </g>
    <g id="xtick_50">
     <g id="line2d_78">
      <g>
       <use xlink:href="#mf7d8cf724b" x="680.445505" y="786.186094" style="fill: #262626; stroke: #262626; stroke-width: 1.875"/>
      </g>
     </g>
     <g id="text_35">
      <!-- 2048 -->
      <g style="fill: #262626" transform="translate(652.918865 816.40168) scale(0.2475 -0.2475)">
       <use xlink:href="#ArialMT-32"/>
       <use xlink:href="#ArialMT-30" x="55.615234"/>
       <use xlink:href="#ArialMT-34" x="111.230469"/>
       <use xlink:href="#ArialMT-38" x="166.845703"/>
      </g>
     </g>
    </g>
    <g id="xtick_51">
     <g id="line2d_79">
      <g>
       <use xlink:href="#mf7d8cf724b" x="839.366095" y="786.186094" style="fill: #262626; stroke: #262626; stroke-width: 1.875"/>
      </g>
     </g>
     <g id="text_36">
      <!-- 4096 -->
      <g style="fill: #262626" transform="translate(811.839454 816.40168) scale(0.2475 -0.2475)">
       <use xlink:href="#ArialMT-34"/>
       <use xlink:href="#ArialMT-30" x="55.615234"/>
       <use xlink:href="#ArialMT-39" x="111.230469"/>
       <use xlink:href="#ArialMT-36" x="166.845703"/>
      </g>
     </g>
    </g>
    <g id="text_37">
     <!-- # of Variables -->
     <g style="fill: #262626" transform="translate(599.052264 844.646836) scale(0.27 -0.27)">
      <use xlink:href="#ArialMT-23"/>
      <use xlink:href="#ArialMT-20" x="55.615234"/>
      <use xlink:href="#ArialMT-6f" x="83.398438"/>
      <use xlink:href="#ArialMT-66" x="139.013672"/>
      <use xlink:href="#ArialMT-20" x="166.796875"/>
      <use xlink:href="#ArialMT-56" x="194.580078"/>
      <use xlink:href="#ArialMT-61" x="253.904297"/>
      <use xlink:href="#ArialMT-72" x="309.519531"/>
      <use xlink:href="#ArialMT-69" x="342.820312"/>
      <use xlink:href="#ArialMT-61" x="365.037109"/>
      <use xlink:href="#ArialMT-62" x="420.652344"/>
      <use xlink:href="#ArialMT-6c" x="476.267578"/>
      <use xlink:href="#ArialMT-65" x="498.484375"/>
      <use xlink:href="#ArialMT-73" x="554.099609"/>
     </g>
    </g>
   </g>
   <g id="matplotlib.axis_10">
    <g id="ytick_9">
     <g id="line2d_80">
      <g>
       <use xlink:href="#mf165897e1d" x="505.958768" y="783.059035" style="fill: #262626; stroke: #262626; stroke-width: 1.875"/>
      </g>
     </g>
     <g id="text_38">
      <!-- 0 -->
      <g style="fill: #262626" transform="translate(479.695448 791.916828) scale(0.2475 -0.2475)">
       <use xlink:href="#ArialMT-30"/>
      </g>
     </g>
    </g>
    <g id="ytick_10">
     <g id="line2d_81">
      <g>
       <use xlink:href="#mf165897e1d" x="505.958768" y="470.353153" style="fill: #262626; stroke: #262626; stroke-width: 1.875"/>
      </g>
     </g>
     <g id="text_39">
      <!-- 1 -->
      <g style="fill: #262626" transform="translate(479.695448 479.210946) scale(0.2475 -0.2475)">
       <use xlink:href="#ArialMT-31"/>
      </g>
     </g>
    </g>
   </g>
   <g id="line2d_82">
    <path d="M 505.958768 767.423741 
L 855.242634 767.423741 
" clip-path="url(#p1c0f932673)" style="fill: none; stroke-dasharray: 2.25,3.7125; stroke-dashoffset: 0; stroke: #000000; stroke-width: 2.25"/>
   </g>
   <g id="line2d_83">
    <path d="M 521.835308 470.353153 
L 522.145699 470.353153 
L 522.766483 470.353153 
L 524.00805 470.353153 
L 526.491184 472.8523 
L 531.457453 481.599318 
L 541.38999 502.842075 
L 561.255063 560.947264 
L 600.985211 637.171276 
L 680.445505 702.461515 
L 839.366095 743.697455 
" clip-path="url(#p1c0f932673)" style="fill: none; stroke: #a65628; stroke-width: 3; stroke-linecap: round"/>
   </g>
   <g id="line2d_84">
    <path d="M 521.835308 470.353153 
L 522.145699 470.353153 
L 522.766483 470.353153 
L 524.00805 470.353153 
L 526.491184 472.8523 
L 531.457453 481.286925 
L 541.38999 500.030534 
L 561.255063 549.701099 
L 600.985211 624.98793 
L 680.445505 677.157642 
L 839.366095 725.266239 
" clip-path="url(#p1c0f932673)" style="fill: none; stroke: #ff7f00; stroke-width: 3; stroke-linecap: round"/>
   </g>
   <g id="line2d_85">
    <path d="M 521.835308 548.529623 
L 522.145699 561.037858 
L 522.766483 573.546094 
L 524.00805 570.419035 
L 526.491184 586.054329 
L 531.457453 561.037858 
L 541.38999 582.92727 
L 561.255063 545.402564 
L 600.985211 576.673153 
L 680.445505 557.9108 
L 839.366095 554.783741 
" clip-path="url(#p1c0f932673)" style="fill: none; stroke: #984ea3; stroke-width: 3; stroke-linecap: round"/>
   </g>
   <g id="line2d_86">
    <path d="M 521.835308 470.353153 
L 522.145699 470.353153 
L 522.766483 470.353153 
L 524.00805 470.353153 
L 526.491184 470.353153 
L 531.457453 470.353153 
L 541.38999 476.545348 
L 561.255063 479.641446 
L 600.985211 482.737544 
L 680.445505 488.92974 
L 839.366095 507.506327 
" clip-path="url(#p1c0f932673)" style="fill: none; stroke: #e41a1c; stroke-width: 4; stroke-linecap: round"/>
   </g>
   <g id="patch_15">
    <path d="M 505.958768 786.186094 
L 505.958768 467.226094 
" style="fill: none; stroke: #262626; stroke-width: 1.875; stroke-linejoin: miter; stroke-linecap: square"/>
   </g>
   <g id="patch_16">
    <path d="M 505.958768 786.186094 
L 855.242634 786.186094 
" style="fill: none; stroke: #262626; stroke-width: 1.875; stroke-linejoin: miter; stroke-linecap: square"/>
   </g>
   <g id="text_40">
    <!-- E -->
    <g style="fill: #262626" transform="translate(505.958768 461.226094) scale(0.27 -0.27)">
     <defs>
      <path id="Arial-BoldMT-45" d="M 466 0 
L 466 4581 
L 3863 4581 
L 3863 3806 
L 1391 3806 
L 1391 2791 
L 3691 2791 
L 3691 2019 
L 1391 2019 
L 1391 772 
L 3950 772 
L 3950 0 
L 466 0 
z
" transform="scale(0.015625)"/>
     </defs>
     <use xlink:href="#Arial-BoldMT-45"/>
    </g>
   </g>
  </g>
  <g id="axes_6">
   <g id="patch_17">
    <path d="M 920.809435 786.186094 
L 1270.093301 786.186094 
L 1270.093301 467.226094 
L 920.809435 467.226094 
L 920.809435 786.186094 
z
" style="fill: none"/>
   </g>
   <g id="matplotlib.axis_11">
    <g id="xtick_52">
     <g id="line2d_87">
      <g>
       <use xlink:href="#mf7d8cf724b" x="936.685974" y="786.186094" style="fill: #262626; stroke: #262626; stroke-width: 1.875"/>
      </g>
     </g>
     <g id="text_41">
      <!-- 4 -->
      <g style="fill: #262626" transform="translate(929.804314 816.40168) scale(0.2475 -0.2475)">
       <use xlink:href="#ArialMT-34"/>
      </g>
     </g>
    </g>
    <g id="xtick_53">
     <g id="line2d_88">
      <g>
       <use xlink:href="#mf7d8cf724b" x="1095.296172" y="786.186094" style="fill: #262626; stroke: #262626; stroke-width: 1.875"/>
      </g>
     </g>
     <g id="text_42">
      <!-- 2048 -->
      <g style="fill: #262626" transform="translate(1067.769531 816.40168) scale(0.2475 -0.2475)">
       <use xlink:href="#ArialMT-32"/>
       <use xlink:href="#ArialMT-30" x="55.615234"/>
       <use xlink:href="#ArialMT-34" x="111.230469"/>
       <use xlink:href="#ArialMT-38" x="166.845703"/>
      </g>
     </g>
    </g>
    <g id="xtick_54">
     <g id="line2d_89">
      <g>
       <use xlink:href="#mf7d8cf724b" x="1254.216761" y="786.186094" style="fill: #262626; stroke: #262626; stroke-width: 1.875"/>
      </g>
     </g>
     <g id="text_43">
      <!-- 4096 -->
      <g style="fill: #262626" transform="translate(1226.690121 816.40168) scale(0.2475 -0.2475)">
       <use xlink:href="#ArialMT-34"/>
       <use xlink:href="#ArialMT-30" x="55.615234"/>
       <use xlink:href="#ArialMT-39" x="111.230469"/>
       <use xlink:href="#ArialMT-36" x="166.845703"/>
      </g>
     </g>
    </g>
    <g id="text_44">
     <!-- # of Variables -->
     <g style="fill: #262626" transform="translate(1013.90293 844.646836) scale(0.27 -0.27)">
      <use xlink:href="#ArialMT-23"/>
      <use xlink:href="#ArialMT-20" x="55.615234"/>
      <use xlink:href="#ArialMT-6f" x="83.398438"/>
      <use xlink:href="#ArialMT-66" x="139.013672"/>
      <use xlink:href="#ArialMT-20" x="166.796875"/>
      <use xlink:href="#ArialMT-56" x="194.580078"/>
      <use xlink:href="#ArialMT-61" x="253.904297"/>
      <use xlink:href="#ArialMT-72" x="309.519531"/>
      <use xlink:href="#ArialMT-69" x="342.820312"/>
      <use xlink:href="#ArialMT-61" x="365.037109"/>
      <use xlink:href="#ArialMT-62" x="420.652344"/>
      <use xlink:href="#ArialMT-6c" x="476.267578"/>
      <use xlink:href="#ArialMT-65" x="498.484375"/>
      <use xlink:href="#ArialMT-73" x="554.099609"/>
     </g>
    </g>
   </g>
   <g id="matplotlib.axis_12">
    <g id="ytick_11">
     <g id="line2d_90">
      <g>
       <use xlink:href="#mf165897e1d" x="920.809435" y="783.059035" style="fill: #262626; stroke: #262626; stroke-width: 1.875"/>
      </g>
     </g>
     <g id="text_45">
      <!-- 0 -->
      <g style="fill: #262626" transform="translate(894.546115 791.916828) scale(0.2475 -0.2475)">
       <use xlink:href="#ArialMT-30"/>
      </g>
     </g>
    </g>
    <g id="ytick_12">
     <g id="line2d_91">
      <g>
       <use xlink:href="#mf165897e1d" x="920.809435" y="470.353153" style="fill: #262626; stroke: #262626; stroke-width: 1.875"/>
      </g>
     </g>
     <g id="text_46">
      <!-- 1 -->
      <g style="fill: #262626" transform="translate(894.546115 479.210946) scale(0.2475 -0.2475)">
       <use xlink:href="#ArialMT-31"/>
      </g>
     </g>
    </g>
   </g>
   <g id="line2d_92">
    <path d="M 920.809435 767.423741 
L 1270.093301 767.423741 
" clip-path="url(#p5ec235d164)" style="fill: none; stroke-dasharray: 2.25,3.7125; stroke-dashoffset: 0; stroke: #000000; stroke-width: 2.25"/>
   </g>
   <g id="line2d_93">
    <path d="M 936.685974 782.746641 
L 936.996366 782.434248 
L 937.61715 782.746641 
L 938.858717 782.434248 
L 941.341851 781.184674 
L 946.308119 779.622707 
L 956.240656 778.373133 
L 976.10573 775.561591 
L 1015.835877 778.685526 
L 1095.296172 776.498772 
L 1254.216761 779.9351 
" clip-path="url(#p5ec235d164)" style="fill: none; stroke: #a65628; stroke-width: 3; stroke-linecap: round"/>
   </g>
   <g id="line2d_94">
    <path d="M 936.685974 782.746641 
L 936.996366 782.434248 
L 937.61715 782.746641 
L 938.858717 782.434248 
L 941.341851 781.809461 
L 946.308119 779.622707 
L 956.240656 778.685526 
L 976.10573 775.249198 
L 1015.835877 778.060739 
L 1095.296172 777.748346 
L 1254.216761 777.435952 
" clip-path="url(#p5ec235d164)" style="fill: none; stroke: #ff7f00; stroke-width: 3; stroke-linecap: round"/>
   </g>
   <g id="line2d_95">
    <path d="M 936.685974 764.296682 
L 936.996366 761.169623 
L 937.61715 773.677858 
L 938.858717 770.5508 
L 941.341851 779.931976 
L 946.308119 767.423741 
L 956.240656 770.5508 
L 976.10573 773.677858 
L 1015.835877 767.423741 
L 1095.296172 767.423741 
L 1254.216761 761.169623 
" clip-path="url(#p5ec235d164)" style="fill: none; stroke: #984ea3; stroke-width: 3; stroke-linecap: round"/>
   </g>
   <g id="line2d_96">
    <path d="M 936.685974 773.770741 
L 936.996366 773.770741 
L 937.61715 749.001959 
L 938.858717 773.770741 
L 941.341851 761.38635 
L 946.308119 761.38635 
L 956.240656 755.194154 
L 976.10573 770.674644 
L 1015.835877 761.38635 
L 1095.296172 761.38635 
L 1254.216761 758.290252 
" clip-path="url(#p5ec235d164)" style="fill: none; stroke: #e41a1c; stroke-width: 4; stroke-linecap: round"/>
   </g>
   <g id="patch_18">
    <path d="M 920.809435 786.186094 
L 920.809435 467.226094 
" style="fill: none; stroke: #262626; stroke-width: 1.875; stroke-linejoin: miter; stroke-linecap: square"/>
   </g>
   <g id="patch_19">
    <path d="M 920.809435 786.186094 
L 1270.093301 786.186094 
" style="fill: none; stroke: #262626; stroke-width: 1.875; stroke-linejoin: miter; stroke-linecap: square"/>
   </g>
   <g id="text_47">
    <!-- F -->
    <g style="fill: #262626" transform="translate(920.809435 461.226094) scale(0.27 -0.27)">
     <defs>
      <path id="Arial-BoldMT-46" d="M 472 0 
L 472 4581 
L 3613 4581 
L 3613 3806 
L 1397 3806 
L 1397 2722 
L 3309 2722 
L 3309 1947 
L 1397 1947 
L 1397 0 
L 472 0 
z
" transform="scale(0.015625)"/>
     </defs>
     <use xlink:href="#Arial-BoldMT-46"/>
    </g>
   </g>
   <g id="legend_1">
    <g id="patch_20">
     <path d="M 163.857797 906.745781 
L 1126.702406 906.745781 
Q 1131.652406 906.745781 1131.652406 901.795781 
L 1131.652406 868.971094 
Q 1131.652406 864.021094 1126.702406 864.021094 
L 163.857797 864.021094 
Q 158.907797 864.021094 158.907797 868.971094 
L 158.907797 901.795781 
Q 158.907797 906.745781 163.857797 906.745781 
z
" style="fill: #ffffff; opacity: 0.8"/>
    </g>
    <g id="line2d_97">
     <path d="M 168.807797 882.97418 
L 193.557797 882.97418 
L 218.307797 882.97418 
" style="fill: none; stroke: #e41a1c; stroke-width: 5; stroke-linecap: round"/>
    </g>
    <g id="text_48">
     <!-- MIGHT -->
     <g style="fill: #262626" transform="translate(238.107797 891.63668) scale(0.2475 -0.2475)">
      <defs>
       <path id="ArialMT-4d" d="M 475 0 
L 475 4581 
L 1388 4581 
L 2472 1338 
Q 2622 884 2691 659 
Q 2769 909 2934 1394 
L 4031 4581 
L 4847 4581 
L 4847 0 
L 4263 0 
L 4263 3834 
L 2931 0 
L 2384 0 
L 1059 3900 
L 1059 0 
L 475 0 
z
" transform="scale(0.015625)"/>
       <path id="ArialMT-49" d="M 597 0 
L 597 4581 
L 1203 4581 
L 1203 0 
L 597 0 
z
" transform="scale(0.015625)"/>
       <path id="ArialMT-47" d="M 2638 1797 
L 2638 2334 
L 4578 2338 
L 4578 638 
Q 4131 281 3656 101 
Q 3181 -78 2681 -78 
Q 2006 -78 1454 211 
Q 903 500 622 1047 
Q 341 1594 341 2269 
Q 341 2938 620 3517 
Q 900 4097 1425 4378 
Q 1950 4659 2634 4659 
Q 3131 4659 3532 4498 
Q 3934 4338 4162 4050 
Q 4391 3763 4509 3300 
L 3963 3150 
Q 3859 3500 3706 3700 
Q 3553 3900 3268 4020 
Q 2984 4141 2638 4141 
Q 2222 4141 1919 4014 
Q 1616 3888 1430 3681 
Q 1244 3475 1141 3228 
Q 966 2803 966 2306 
Q 966 1694 1177 1281 
Q 1388 869 1791 669 
Q 2194 469 2647 469 
Q 3041 469 3416 620 
Q 3791 772 3984 944 
L 3984 1797 
L 2638 1797 
z
" transform="scale(0.015625)"/>
       <path id="ArialMT-48" d="M 513 0 
L 513 4581 
L 1119 4581 
L 1119 2700 
L 3500 2700 
L 3500 4581 
L 4106 4581 
L 4106 0 
L 3500 0 
L 3500 2159 
L 1119 2159 
L 1119 0 
L 513 0 
z
" transform="scale(0.015625)"/>
       <path id="ArialMT-54" d="M 1659 0 
L 1659 4041 
L 150 4041 
L 150 4581 
L 3781 4581 
L 3781 4041 
L 2266 4041 
L 2266 0 
L 1659 0 
z
" transform="scale(0.015625)"/>
      </defs>
      <use xlink:href="#ArialMT-4d"/>
      <use xlink:href="#ArialMT-49" x="83.300781"/>
      <use xlink:href="#ArialMT-47" x="111.083984"/>
      <use xlink:href="#ArialMT-48" x="188.867188"/>
      <use xlink:href="#ArialMT-54" x="261.083984"/>
     </g>
    </g>
    <g id="line2d_98">
     <path d="M 367.341469 882.97418 
L 392.091469 882.97418 
L 416.841469 882.97418 
" style="fill: none; stroke: #984ea3; stroke-width: 5; stroke-linecap: round"/>
    </g>
    <g id="text_49">
     <!-- hypoRF -->
     <g style="fill: #262626" transform="translate(436.641469 891.63668) scale(0.2475 -0.2475)">
      <defs>
       <path id="ArialMT-68" d="M 422 0 
L 422 4581 
L 984 4581 
L 984 2938 
Q 1378 3394 1978 3394 
Q 2347 3394 2619 3248 
Q 2891 3103 3008 2847 
Q 3125 2591 3125 2103 
L 3125 0 
L 2563 0 
L 2563 2103 
Q 2563 2525 2380 2717 
Q 2197 2909 1863 2909 
Q 1613 2909 1392 2779 
Q 1172 2650 1078 2428 
Q 984 2206 984 1816 
L 984 0 
L 422 0 
z
" transform="scale(0.015625)"/>
       <path id="ArialMT-79" d="M 397 -1278 
L 334 -750 
Q 519 -800 656 -800 
Q 844 -800 956 -737 
Q 1069 -675 1141 -563 
Q 1194 -478 1313 -144 
Q 1328 -97 1363 -6 
L 103 3319 
L 709 3319 
L 1400 1397 
Q 1534 1031 1641 628 
Q 1738 1016 1872 1384 
L 2581 3319 
L 3144 3319 
L 1881 -56 
Q 1678 -603 1566 -809 
Q 1416 -1088 1222 -1217 
Q 1028 -1347 759 -1347 
Q 597 -1347 397 -1278 
z
" transform="scale(0.015625)"/>
       <path id="ArialMT-52" d="M 503 0 
L 503 4581 
L 2534 4581 
Q 3147 4581 3465 4457 
Q 3784 4334 3975 4021 
Q 4166 3709 4166 3331 
Q 4166 2844 3850 2509 
Q 3534 2175 2875 2084 
Q 3116 1969 3241 1856 
Q 3506 1613 3744 1247 
L 4541 0 
L 3778 0 
L 3172 953 
Q 2906 1366 2734 1584 
Q 2563 1803 2427 1890 
Q 2291 1978 2150 2013 
Q 2047 2034 1813 2034 
L 1109 2034 
L 1109 0 
L 503 0 
z
M 1109 2559 
L 2413 2559 
Q 2828 2559 3062 2645 
Q 3297 2731 3419 2920 
Q 3541 3109 3541 3331 
Q 3541 3656 3305 3865 
Q 3069 4075 2559 4075 
L 1109 4075 
L 1109 2559 
z
" transform="scale(0.015625)"/>
       <path id="ArialMT-46" d="M 525 0 
L 525 4581 
L 3616 4581 
L 3616 4041 
L 1131 4041 
L 1131 2622 
L 3281 2622 
L 3281 2081 
L 1131 2081 
L 1131 0 
L 525 0 
z
" transform="scale(0.015625)"/>
      </defs>
      <use xlink:href="#ArialMT-68"/>
      <use xlink:href="#ArialMT-79" x="55.615234"/>
      <use xlink:href="#ArialMT-70" x="105.615234"/>
      <use xlink:href="#ArialMT-6f" x="161.230469"/>
      <use xlink:href="#ArialMT-52" x="216.845703"/>
      <use xlink:href="#ArialMT-46" x="289.0625"/>
     </g>
    </g>
    <g id="line2d_99">
     <path d="M 572.797406 882.97418 
L 597.547406 882.97418 
L 622.297406 882.97418 
" style="fill: none; stroke: #ff7f00; stroke-width: 5; stroke-linecap: round"/>
    </g>
    <g id="text_50">
     <!-- Dcorr -->
     <g style="fill: #262626" transform="translate(642.097406 891.63668) scale(0.2475 -0.2475)">
      <defs>
       <path id="ArialMT-44" d="M 494 0 
L 494 4581 
L 2072 4581 
Q 2606 4581 2888 4516 
Q 3281 4425 3559 4188 
Q 3922 3881 4101 3404 
Q 4281 2928 4281 2316 
Q 4281 1794 4159 1391 
Q 4038 988 3847 723 
Q 3656 459 3429 307 
Q 3203 156 2883 78 
Q 2563 0 2147 0 
L 494 0 
z
M 1100 541 
L 2078 541 
Q 2531 541 2789 625 
Q 3047 709 3200 863 
Q 3416 1078 3536 1442 
Q 3656 1806 3656 2325 
Q 3656 3044 3420 3430 
Q 3184 3816 2847 3947 
Q 2603 4041 2063 4041 
L 1100 4041 
L 1100 541 
z
" transform="scale(0.015625)"/>
      </defs>
      <use xlink:href="#ArialMT-44"/>
      <use xlink:href="#ArialMT-63" x="72.216797"/>
      <use xlink:href="#ArialMT-6f" x="122.216797"/>
      <use xlink:href="#ArialMT-72" x="177.832031"/>
      <use xlink:href="#ArialMT-72" x="211.132812"/>
     </g>
    </g>
    <g id="line2d_100">
     <path d="M 752.09182 882.97418 
L 776.84182 882.97418 
L 801.59182 882.97418 
" style="fill: none; stroke: #a65628; stroke-width: 5; stroke-linecap: round"/>
    </g>
    <g id="text_51">
     <!-- Dcorr PCA -->
     <g style="fill: #262626" transform="translate(821.39182 891.63668) scale(0.2475 -0.2475)">
      <defs>
       <path id="ArialMT-43" d="M 3763 1606 
L 4369 1453 
Q 4178 706 3683 314 
Q 3188 -78 2472 -78 
Q 1731 -78 1267 223 
Q 803 525 561 1097 
Q 319 1669 319 2325 
Q 319 3041 592 3573 
Q 866 4106 1370 4382 
Q 1875 4659 2481 4659 
Q 3169 4659 3637 4309 
Q 4106 3959 4291 3325 
L 3694 3184 
Q 3534 3684 3231 3912 
Q 2928 4141 2469 4141 
Q 1941 4141 1586 3887 
Q 1231 3634 1087 3207 
Q 944 2781 944 2328 
Q 944 1744 1114 1308 
Q 1284 872 1643 656 
Q 2003 441 2422 441 
Q 2931 441 3284 734 
Q 3638 1028 3763 1606 
z
" transform="scale(0.015625)"/>
       <path id="ArialMT-41" d="M -9 0 
L 1750 4581 
L 2403 4581 
L 4278 0 
L 3588 0 
L 3053 1388 
L 1138 1388 
L 634 0 
L -9 0 
z
M 1313 1881 
L 2866 1881 
L 2388 3150 
Q 2169 3728 2063 4100 
Q 1975 3659 1816 3225 
L 1313 1881 
z
" transform="scale(0.015625)"/>
      </defs>
      <use xlink:href="#ArialMT-44"/>
      <use xlink:href="#ArialMT-63" x="72.216797"/>
      <use xlink:href="#ArialMT-6f" x="122.216797"/>
      <use xlink:href="#ArialMT-72" x="177.832031"/>
      <use xlink:href="#ArialMT-72" x="211.132812"/>
      <use xlink:href="#ArialMT-20" x="244.433594"/>
      <use xlink:href="#ArialMT-50" x="272.216797"/>
      <use xlink:href="#ArialMT-43" x="338.916016"/>
      <use xlink:href="#ArialMT-41" x="411.132812"/>
     </g>
    </g>
    <g id="line2d_101">
     <path d="M 989.154281 882.97418 
L 1013.904281 882.97418 
L 1038.654281 882.97418 
" style="fill: none; stroke-dasharray: 5,8.25; stroke-dashoffset: 0; stroke: #000000; stroke-width: 5"/>
    </g>
    <g id="text_52">
     <!-- Alpha -->
     <g style="fill: #262626" transform="translate(1058.454281 891.63668) scale(0.2475 -0.2475)">
      <use xlink:href="#ArialMT-41"/>
      <use xlink:href="#ArialMT-6c" x="66.699219"/>
      <use xlink:href="#ArialMT-70" x="88.916016"/>
      <use xlink:href="#ArialMT-68" x="144.53125"/>
      <use xlink:href="#ArialMT-61" x="200.146484"/>
     </g>
    </g>
   </g>
  </g>
 </g>
 <defs>
  <clipPath id="p12941fd7a0">
   <rect x="91.108102" y="32.526094" width="349.283866" height="318.96"/>
  </clipPath>
  <clipPath id="p041db3b0ad">
   <rect x="505.958768" y="32.526094" width="349.283866" height="318.96"/>
  </clipPath>
  <clipPath id="p64da611fc6">
   <rect x="920.809435" y="32.526094" width="349.283866" height="318.96"/>
  </clipPath>
  <clipPath id="pfd5755d421">
   <rect x="91.108102" y="467.226094" width="349.283866" height="318.96"/>
  </clipPath>
  <clipPath id="p1c0f932673">
   <rect x="505.958768" y="467.226094" width="349.283866" height="318.96"/>
  </clipPath>
  <clipPath id="p5ec235d164">
   <rect x="920.809435" y="467.226094" width="349.283866" height="318.96"/>
  </clipPath>
 </defs>
</svg>
