<?xml version="1.0" encoding="utf-8" standalone="no"?>
<!DOCTYPE svg PUBLIC "-//W3C//DTD SVG 1.1//EN"
  "http://www.w3.org/Graphics/SVG/1.1/DTD/svg11.dtd">
<svg xmlns:xlink="http://www.w3.org/1999/xlink" width="1534.731645pt" height="868.013086pt" viewBox="0 0 1534.731645 868.013086" xmlns="http://www.w3.org/2000/svg" version="1.1">
 <metadata>
  <rdf:RDF xmlns:dc="http://purl.org/dc/elements/1.1/" xmlns:cc="http://creativecommons.org/ns#" xmlns:rdf="http://www.w3.org/1999/02/22-rdf-syntax-ns#">
   <cc:Work>
    <dc:type rdf:resource="http://purl.org/dc/dcmitype/StillImage"/>
    <dc:date>2024-03-19T17:10:30.889132</dc:date>
    <dc:format>image/svg+xml</dc:format>
    <dc:creator>
     <cc:Agent>
      <dc:title>Matplotlib v3.8.2, https://matplotlib.org/</dc:title>
     </cc:Agent>
    </dc:creator>
   </cc:Work>
  </rdf:RDF>
 </metadata>
 <defs>
  <style type="text/css">*{stroke-linejoin: round; stroke-linecap: butt}</style>
 </defs>
 <g id="figure_1">
  <g id="patch_1">
   <path d="M 0 868.013086 
L 1534.731645 868.013086 
L 1534.731645 0 
L 0 0 
L 0 868.013086 
z
" style="fill: none"/>
  </g>
  <g id="axes_1">
   <g id="patch_2">
    <path d="M 126.185602 371.126094 
L 443.378281 371.126094 
L 443.378281 32.526094 
L 126.185602 32.526094 
L 126.185602 371.126094 
z
" style="fill: none"/>
   </g>
   <g id="matplotlib.axis_1">
    <g id="xtick_1">
     <g id="line2d_1">
      <defs>
       <path id="mc438398ef9" d="M 0 0 
L 0 9 
" style="stroke: #262626; stroke-width: 1.875"/>
      </defs>
      <g>
       <use xlink:href="#mc438398ef9" x="140.744525" y="371.126094" style="fill: #262626; stroke: #262626; stroke-width: 1.875"/>
      </g>
     </g>
     <g id="text_1">
      <!-- 4 -->
      <g style="fill: #262626" transform="translate(133.862865 401.34168) scale(0.2475 -0.2475)">
       <defs>
        <path id="ArialMT-34" d="M 2069 0 
L 2069 1097 
L 81 1097 
L 81 1613 
L 2172 4581 
L 2631 4581 
L 2631 1613 
L 3250 1613 
L 3250 1097 
L 2631 1097 
L 2631 0 
L 2069 0 
z
M 2069 1613 
L 2069 3678 
L 634 1613 
L 2069 1613 
z
" transform="scale(0.015625)"/>
       </defs>
       <use xlink:href="#ArialMT-34"/>
      </g>
     </g>
    </g>
    <g id="xtick_2">
     <g id="line2d_2">
      <g>
       <use xlink:href="#mc438398ef9" x="284.923016" y="371.126094" style="fill: #262626; stroke: #262626; stroke-width: 1.875"/>
      </g>
     </g>
     <g id="text_2">
      <!-- 2048 -->
      <g style="fill: #262626" transform="translate(257.396375 401.34168) scale(0.2475 -0.2475)">
       <defs>
        <path id="ArialMT-32" d="M 3222 541 
L 3222 0 
L 194 0 
Q 188 203 259 391 
Q 375 700 629 1000 
Q 884 1300 1366 1694 
Q 2113 2306 2375 2664 
Q 2638 3022 2638 3341 
Q 2638 3675 2398 3904 
Q 2159 4134 1775 4134 
Q 1369 4134 1125 3890 
Q 881 3647 878 3216 
L 300 3275 
Q 359 3922 746 4261 
Q 1134 4600 1788 4600 
Q 2447 4600 2831 4234 
Q 3216 3869 3216 3328 
Q 3216 3053 3103 2787 
Q 2991 2522 2730 2228 
Q 2469 1934 1863 1422 
Q 1356 997 1212 845 
Q 1069 694 975 541 
L 3222 541 
z
" transform="scale(0.015625)"/>
        <path id="ArialMT-30" d="M 266 2259 
Q 266 3072 433 3567 
Q 600 4063 929 4331 
Q 1259 4600 1759 4600 
Q 2128 4600 2406 4451 
Q 2684 4303 2865 4023 
Q 3047 3744 3150 3342 
Q 3253 2941 3253 2259 
Q 3253 1453 3087 958 
Q 2922 463 2592 192 
Q 2263 -78 1759 -78 
Q 1097 -78 719 397 
Q 266 969 266 2259 
z
M 844 2259 
Q 844 1131 1108 757 
Q 1372 384 1759 384 
Q 2147 384 2411 759 
Q 2675 1134 2675 2259 
Q 2675 3391 2411 3762 
Q 2147 4134 1753 4134 
Q 1366 4134 1134 3806 
Q 844 3388 844 2259 
z
" transform="scale(0.015625)"/>
        <path id="ArialMT-38" d="M 1131 2484 
Q 781 2613 612 2850 
Q 444 3088 444 3419 
Q 444 3919 803 4259 
Q 1163 4600 1759 4600 
Q 2359 4600 2725 4251 
Q 3091 3903 3091 3403 
Q 3091 3084 2923 2848 
Q 2756 2613 2416 2484 
Q 2838 2347 3058 2040 
Q 3278 1734 3278 1309 
Q 3278 722 2862 322 
Q 2447 -78 1769 -78 
Q 1091 -78 675 323 
Q 259 725 259 1325 
Q 259 1772 486 2073 
Q 713 2375 1131 2484 
z
M 1019 3438 
Q 1019 3113 1228 2906 
Q 1438 2700 1772 2700 
Q 2097 2700 2305 2904 
Q 2513 3109 2513 3406 
Q 2513 3716 2298 3927 
Q 2084 4138 1766 4138 
Q 1444 4138 1231 3931 
Q 1019 3725 1019 3438 
z
M 838 1322 
Q 838 1081 952 856 
Q 1066 631 1291 507 
Q 1516 384 1775 384 
Q 2178 384 2440 643 
Q 2703 903 2703 1303 
Q 2703 1709 2433 1975 
Q 2163 2241 1756 2241 
Q 1359 2241 1098 1978 
Q 838 1716 838 1322 
z
" transform="scale(0.015625)"/>
       </defs>
       <use xlink:href="#ArialMT-32"/>
       <use xlink:href="#ArialMT-30" x="55.615234"/>
       <use xlink:href="#ArialMT-34" x="111.230469"/>
       <use xlink:href="#ArialMT-38" x="166.845703"/>
      </g>
     </g>
    </g>
    <g id="xtick_3">
     <g id="line2d_3">
      <g>
       <use xlink:href="#mc438398ef9" x="429.383656" y="371.126094" style="fill: #262626; stroke: #262626; stroke-width: 1.875"/>
      </g>
     </g>
     <g id="text_3">
      <!-- 4096 -->
      <g style="fill: #262626" transform="translate(401.857016 401.34168) scale(0.2475 -0.2475)">
       <defs>
        <path id="ArialMT-39" d="M 350 1059 
L 891 1109 
Q 959 728 1153 556 
Q 1347 384 1650 384 
Q 1909 384 2104 503 
Q 2300 622 2425 820 
Q 2550 1019 2634 1356 
Q 2719 1694 2719 2044 
Q 2719 2081 2716 2156 
Q 2547 1888 2255 1720 
Q 1963 1553 1622 1553 
Q 1053 1553 659 1965 
Q 266 2378 266 3053 
Q 266 3750 677 4175 
Q 1088 4600 1706 4600 
Q 2153 4600 2523 4359 
Q 2894 4119 3086 3673 
Q 3278 3228 3278 2384 
Q 3278 1506 3087 986 
Q 2897 466 2520 194 
Q 2144 -78 1638 -78 
Q 1100 -78 759 220 
Q 419 519 350 1059 
z
M 2653 3081 
Q 2653 3566 2395 3850 
Q 2138 4134 1775 4134 
Q 1400 4134 1122 3828 
Q 844 3522 844 3034 
Q 844 2597 1108 2323 
Q 1372 2050 1759 2050 
Q 2150 2050 2401 2323 
Q 2653 2597 2653 3081 
z
" transform="scale(0.015625)"/>
        <path id="ArialMT-36" d="M 3184 3459 
L 2625 3416 
Q 2550 3747 2413 3897 
Q 2184 4138 1850 4138 
Q 1581 4138 1378 3988 
Q 1113 3794 959 3422 
Q 806 3050 800 2363 
Q 1003 2672 1297 2822 
Q 1591 2972 1913 2972 
Q 2475 2972 2870 2558 
Q 3266 2144 3266 1488 
Q 3266 1056 3080 686 
Q 2894 316 2569 119 
Q 2244 -78 1831 -78 
Q 1128 -78 684 439 
Q 241 956 241 2144 
Q 241 3472 731 4075 
Q 1159 4600 1884 4600 
Q 2425 4600 2770 4297 
Q 3116 3994 3184 3459 
z
M 888 1484 
Q 888 1194 1011 928 
Q 1134 663 1356 523 
Q 1578 384 1822 384 
Q 2178 384 2434 671 
Q 2691 959 2691 1453 
Q 2691 1928 2437 2201 
Q 2184 2475 1800 2475 
Q 1419 2475 1153 2201 
Q 888 1928 888 1484 
z
" transform="scale(0.015625)"/>
       </defs>
       <use xlink:href="#ArialMT-34"/>
       <use xlink:href="#ArialMT-30" x="55.615234"/>
       <use xlink:href="#ArialMT-39" x="111.230469"/>
       <use xlink:href="#ArialMT-36" x="166.845703"/>
      </g>
     </g>
    </g>
   </g>
   <g id="matplotlib.axis_2">
    <g id="ytick_1">
     <g id="line2d_4">
      <defs>
       <path id="mf69cf9c3bb" d="M 0 0 
L -9 0 
" style="stroke: #262626; stroke-width: 1.875"/>
      </defs>
      <g>
       <use xlink:href="#mf69cf9c3bb" x="126.185602" y="370.198423" style="fill: #262626; stroke: #262626; stroke-width: 1.875"/>
      </g>
     </g>
     <g id="text_4">
      <!-- 0.00 -->
      <g style="fill: #262626" transform="translate(65.519781 379.056215) scale(0.2475 -0.2475)">
       <defs>
        <path id="ArialMT-2e" d="M 581 0 
L 581 641 
L 1222 641 
L 1222 0 
L 581 0 
z
" transform="scale(0.015625)"/>
       </defs>
       <use xlink:href="#ArialMT-30"/>
       <use xlink:href="#ArialMT-2e" x="55.615234"/>
       <use xlink:href="#ArialMT-30" x="83.398438"/>
       <use xlink:href="#ArialMT-30" x="139.013672"/>
      </g>
     </g>
    </g>
    <g id="ytick_2">
     <g id="line2d_5">
      <g>
       <use xlink:href="#mf69cf9c3bb" x="126.185602" y="129.003902" style="fill: #262626; stroke: #262626; stroke-width: 1.875"/>
      </g>
     </g>
     <g id="text_5">
      <!-- 0.26 -->
      <g style="fill: #262626" transform="translate(65.519781 137.861695) scale(0.2475 -0.2475)">
       <use xlink:href="#ArialMT-30"/>
       <use xlink:href="#ArialMT-2e" x="55.615234"/>
       <use xlink:href="#ArialMT-32" x="83.398438"/>
       <use xlink:href="#ArialMT-36" x="139.013672"/>
      </g>
     </g>
    </g>
    <g id="text_6">
     <!-- S@98 -->
     <g style="fill: #262626" transform="translate(26.884687 239.550156) rotate(-90) scale(0.27 -0.27)">
      <defs>
       <path id="ArialMT-53" d="M 288 1472 
L 859 1522 
Q 900 1178 1048 958 
Q 1197 738 1509 602 
Q 1822 466 2213 466 
Q 2559 466 2825 569 
Q 3091 672 3220 851 
Q 3350 1031 3350 1244 
Q 3350 1459 3225 1620 
Q 3100 1781 2813 1891 
Q 2628 1963 1997 2114 
Q 1366 2266 1113 2400 
Q 784 2572 623 2826 
Q 463 3081 463 3397 
Q 463 3744 659 4045 
Q 856 4347 1234 4503 
Q 1613 4659 2075 4659 
Q 2584 4659 2973 4495 
Q 3363 4331 3572 4012 
Q 3781 3694 3797 3291 
L 3216 3247 
Q 3169 3681 2898 3903 
Q 2628 4125 2100 4125 
Q 1550 4125 1298 3923 
Q 1047 3722 1047 3438 
Q 1047 3191 1225 3031 
Q 1400 2872 2139 2705 
Q 2878 2538 3153 2413 
Q 3553 2228 3743 1945 
Q 3934 1663 3934 1294 
Q 3934 928 3725 604 
Q 3516 281 3123 101 
Q 2731 -78 2241 -78 
Q 1619 -78 1198 103 
Q 778 284 539 648 
Q 300 1013 288 1472 
z
" transform="scale(0.015625)"/>
       <path id="ArialMT-40" d="M 3628 509 
Q 3425 275 3173 133 
Q 2922 -9 2669 -9 
Q 2391 -9 2128 153 
Q 1866 316 1702 653 
Q 1538 991 1538 1394 
Q 1538 1891 1792 2389 
Q 2047 2888 2425 3138 
Q 2803 3388 3159 3388 
Q 3431 3388 3678 3245 
Q 3925 3103 4103 2813 
L 4209 3297 
L 4769 3297 
L 4319 1200 
Q 4225 763 4225 716 
Q 4225 631 4289 570 
Q 4353 509 4444 509 
Q 4609 509 4878 700 
Q 5234 950 5442 1370 
Q 5650 1791 5650 2238 
Q 5650 2759 5383 3212 
Q 5116 3666 4586 3937 
Q 4056 4209 3416 4209 
Q 2684 4209 2079 3867 
Q 1475 3525 1142 2886 
Q 809 2247 809 1516 
Q 809 750 1142 197 
Q 1475 -356 2104 -620 
Q 2734 -884 3500 -884 
Q 4319 -884 4872 -609 
Q 5425 -334 5700 59 
L 6266 59 
Q 6106 -269 5718 -609 
Q 5331 -950 4797 -1148 
Q 4263 -1347 3509 -1347 
Q 2816 -1347 2230 -1169 
Q 1644 -991 1231 -633 
Q 819 -275 609 191 
Q 347 781 347 1466 
Q 347 2228 659 2919 
Q 1041 3766 1742 4216 
Q 2444 4666 3444 4666 
Q 4219 4666 4836 4348 
Q 5453 4031 5809 3403 
Q 6113 2863 6113 2228 
Q 6113 1322 5475 619 
Q 4906 -13 4231 -13 
Q 4016 -13 3883 53 
Q 3750 119 3688 241 
Q 3647 319 3628 509 
z
M 2116 1356 
Q 2116 928 2319 690 
Q 2522 453 2784 453 
Q 2959 453 3153 558 
Q 3347 663 3523 869 
Q 3700 1075 3812 1392 
Q 3925 1709 3925 2028 
Q 3925 2453 3714 2687 
Q 3503 2922 3200 2922 
Q 3000 2922 2823 2820 
Q 2647 2719 2481 2494 
Q 2316 2269 2216 1947 
Q 2116 1625 2116 1356 
z
" transform="scale(0.015625)"/>
      </defs>
      <use xlink:href="#ArialMT-53"/>
      <use xlink:href="#ArialMT-40" x="66.699219"/>
      <use xlink:href="#ArialMT-39" x="168.212891"/>
      <use xlink:href="#ArialMT-38" x="223.828125"/>
     </g>
     <!-- for 4096 Samples -->
     <g style="fill: #262626" transform="translate(56.153531 307.630234) rotate(-90) scale(0.27 -0.27)">
      <defs>
       <path id="ArialMT-66" d="M 556 0 
L 556 2881 
L 59 2881 
L 59 3319 
L 556 3319 
L 556 3672 
Q 556 4006 616 4169 
Q 697 4388 901 4523 
Q 1106 4659 1475 4659 
Q 1713 4659 2000 4603 
L 1916 4113 
Q 1741 4144 1584 4144 
Q 1328 4144 1222 4034 
Q 1116 3925 1116 3625 
L 1116 3319 
L 1763 3319 
L 1763 2881 
L 1116 2881 
L 1116 0 
L 556 0 
z
" transform="scale(0.015625)"/>
       <path id="ArialMT-6f" d="M 213 1659 
Q 213 2581 725 3025 
Q 1153 3394 1769 3394 
Q 2453 3394 2887 2945 
Q 3322 2497 3322 1706 
Q 3322 1066 3130 698 
Q 2938 331 2570 128 
Q 2203 -75 1769 -75 
Q 1072 -75 642 372 
Q 213 819 213 1659 
z
M 791 1659 
Q 791 1022 1069 705 
Q 1347 388 1769 388 
Q 2188 388 2466 706 
Q 2744 1025 2744 1678 
Q 2744 2294 2464 2611 
Q 2184 2928 1769 2928 
Q 1347 2928 1069 2612 
Q 791 2297 791 1659 
z
" transform="scale(0.015625)"/>
       <path id="ArialMT-72" d="M 416 0 
L 416 3319 
L 922 3319 
L 922 2816 
Q 1116 3169 1280 3281 
Q 1444 3394 1641 3394 
Q 1925 3394 2219 3213 
L 2025 2691 
Q 1819 2813 1613 2813 
Q 1428 2813 1281 2702 
Q 1134 2591 1072 2394 
Q 978 2094 978 1738 
L 978 0 
L 416 0 
z
" transform="scale(0.015625)"/>
       <path id="ArialMT-20" transform="scale(0.015625)"/>
       <path id="ArialMT-61" d="M 2588 409 
Q 2275 144 1986 34 
Q 1697 -75 1366 -75 
Q 819 -75 525 192 
Q 231 459 231 875 
Q 231 1119 342 1320 
Q 453 1522 633 1644 
Q 813 1766 1038 1828 
Q 1203 1872 1538 1913 
Q 2219 1994 2541 2106 
Q 2544 2222 2544 2253 
Q 2544 2597 2384 2738 
Q 2169 2928 1744 2928 
Q 1347 2928 1158 2789 
Q 969 2650 878 2297 
L 328 2372 
Q 403 2725 575 2942 
Q 747 3159 1072 3276 
Q 1397 3394 1825 3394 
Q 2250 3394 2515 3294 
Q 2781 3194 2906 3042 
Q 3031 2891 3081 2659 
Q 3109 2516 3109 2141 
L 3109 1391 
Q 3109 606 3145 398 
Q 3181 191 3288 0 
L 2700 0 
Q 2613 175 2588 409 
z
M 2541 1666 
Q 2234 1541 1622 1453 
Q 1275 1403 1131 1340 
Q 988 1278 909 1158 
Q 831 1038 831 891 
Q 831 666 1001 516 
Q 1172 366 1500 366 
Q 1825 366 2078 508 
Q 2331 650 2450 897 
Q 2541 1088 2541 1459 
L 2541 1666 
z
" transform="scale(0.015625)"/>
       <path id="ArialMT-6d" d="M 422 0 
L 422 3319 
L 925 3319 
L 925 2853 
Q 1081 3097 1340 3245 
Q 1600 3394 1931 3394 
Q 2300 3394 2536 3241 
Q 2772 3088 2869 2813 
Q 3263 3394 3894 3394 
Q 4388 3394 4653 3120 
Q 4919 2847 4919 2278 
L 4919 0 
L 4359 0 
L 4359 2091 
Q 4359 2428 4304 2576 
Q 4250 2725 4106 2815 
Q 3963 2906 3769 2906 
Q 3419 2906 3187 2673 
Q 2956 2441 2956 1928 
L 2956 0 
L 2394 0 
L 2394 2156 
Q 2394 2531 2256 2718 
Q 2119 2906 1806 2906 
Q 1569 2906 1367 2781 
Q 1166 2656 1075 2415 
Q 984 2175 984 1722 
L 984 0 
L 422 0 
z
" transform="scale(0.015625)"/>
       <path id="ArialMT-70" d="M 422 -1272 
L 422 3319 
L 934 3319 
L 934 2888 
Q 1116 3141 1344 3267 
Q 1572 3394 1897 3394 
Q 2322 3394 2647 3175 
Q 2972 2956 3137 2557 
Q 3303 2159 3303 1684 
Q 3303 1175 3120 767 
Q 2938 359 2589 142 
Q 2241 -75 1856 -75 
Q 1575 -75 1351 44 
Q 1128 163 984 344 
L 984 -1272 
L 422 -1272 
z
M 931 1641 
Q 931 1000 1190 694 
Q 1450 388 1819 388 
Q 2194 388 2461 705 
Q 2728 1022 2728 1688 
Q 2728 2322 2467 2637 
Q 2206 2953 1844 2953 
Q 1484 2953 1207 2617 
Q 931 2281 931 1641 
z
" transform="scale(0.015625)"/>
       <path id="ArialMT-6c" d="M 409 0 
L 409 4581 
L 972 4581 
L 972 0 
L 409 0 
z
" transform="scale(0.015625)"/>
       <path id="ArialMT-65" d="M 2694 1069 
L 3275 997 
Q 3138 488 2766 206 
Q 2394 -75 1816 -75 
Q 1088 -75 661 373 
Q 234 822 234 1631 
Q 234 2469 665 2931 
Q 1097 3394 1784 3394 
Q 2450 3394 2872 2941 
Q 3294 2488 3294 1666 
Q 3294 1616 3291 1516 
L 816 1516 
Q 847 969 1125 678 
Q 1403 388 1819 388 
Q 2128 388 2347 550 
Q 2566 713 2694 1069 
z
M 847 1978 
L 2700 1978 
Q 2663 2397 2488 2606 
Q 2219 2931 1791 2931 
Q 1403 2931 1139 2672 
Q 875 2413 847 1978 
z
" transform="scale(0.015625)"/>
       <path id="ArialMT-73" d="M 197 991 
L 753 1078 
Q 800 744 1014 566 
Q 1228 388 1613 388 
Q 2000 388 2187 545 
Q 2375 703 2375 916 
Q 2375 1106 2209 1216 
Q 2094 1291 1634 1406 
Q 1016 1563 777 1677 
Q 538 1791 414 1992 
Q 291 2194 291 2438 
Q 291 2659 392 2848 
Q 494 3038 669 3163 
Q 800 3259 1026 3326 
Q 1253 3394 1513 3394 
Q 1903 3394 2198 3281 
Q 2494 3169 2634 2976 
Q 2775 2784 2828 2463 
L 2278 2388 
Q 2241 2644 2061 2787 
Q 1881 2931 1553 2931 
Q 1166 2931 1000 2803 
Q 834 2675 834 2503 
Q 834 2394 903 2306 
Q 972 2216 1119 2156 
Q 1203 2125 1616 2013 
Q 2213 1853 2448 1751 
Q 2684 1650 2818 1456 
Q 2953 1263 2953 975 
Q 2953 694 2789 445 
Q 2625 197 2315 61 
Q 2006 -75 1616 -75 
Q 969 -75 630 194 
Q 291 463 197 991 
z
" transform="scale(0.015625)"/>
      </defs>
      <use xlink:href="#ArialMT-66"/>
      <use xlink:href="#ArialMT-6f" x="27.783203"/>
      <use xlink:href="#ArialMT-72" x="83.398438"/>
      <use xlink:href="#ArialMT-20" x="116.699219"/>
      <use xlink:href="#ArialMT-34" x="144.482422"/>
      <use xlink:href="#ArialMT-30" x="200.097656"/>
      <use xlink:href="#ArialMT-39" x="255.712891"/>
      <use xlink:href="#ArialMT-36" x="311.328125"/>
      <use xlink:href="#ArialMT-20" x="366.943359"/>
      <use xlink:href="#ArialMT-53" x="394.726562"/>
      <use xlink:href="#ArialMT-61" x="461.425781"/>
      <use xlink:href="#ArialMT-6d" x="517.041016"/>
      <use xlink:href="#ArialMT-70" x="600.341797"/>
      <use xlink:href="#ArialMT-6c" x="655.957031"/>
      <use xlink:href="#ArialMT-65" x="678.173828"/>
      <use xlink:href="#ArialMT-73" x="733.789062"/>
     </g>
    </g>
   </g>
   <g id="PolyCollection_1">
    <defs>
     <path id="mb964d18835" d="M 140.603451 -622.381454 
L 140.603451 -598.27301 
L 141.16775 -598.240648 
L 142.296349 -596.56554 
L 144.553546 -600.200104 
L 149.067941 -598.499272 
L 158.096731 -600.085314 
L 176.154311 -599.291186 
L 212.269471 -600.077015 
L 284.499792 -597.471968 
L 428.960432 -600.532581 
L 428.960432 -620.668451 
L 428.960432 -620.668451 
L 284.499792 -618.526437 
L 212.269471 -618.855318 
L 176.154311 -618.531969 
L 158.096731 -619.325267 
L 149.067941 -619.222371 
L 144.553546 -617.845441 
L 142.296349 -613.863187 
L 141.16775 -615.37261 
L 140.603451 -622.381454 
z
" style="stroke: #377eb8; stroke-opacity: 0.2; stroke-width: 1.5"/>
    </defs>
    <g clip-path="url(#p47aaf9914d)">
     <use xlink:href="#mb964d18835" x="0" y="868.013086" style="fill: #377eb8; fill-opacity: 0.2; stroke: #377eb8; stroke-opacity: 0.2; stroke-width: 1.5"/>
    </g>
   </g>
   <g id="PolyCollection_2">
    <defs>
     <path id="m4f09931f36" d="M 140.603451 -595.432574 
L 140.603451 -525.895956 
L 141.16775 -527.252694 
L 142.296349 -526.925749 
L 144.553546 -525.339431 
L 149.067941 -531.564935 
L 158.096731 -521.372113 
L 176.154311 -528.381787 
L 212.269471 -527.700238 
L 284.499792 -524.760777 
L 428.960432 -523.976054 
L 428.960432 -588.980255 
L 428.960432 -588.980255 
L 284.499792 -559.658121 
L 212.269471 -585.03147 
L 176.154311 -589.762489 
L 158.096731 -590.797537 
L 149.067941 -584.898424 
L 144.553546 -595.414318 
L 142.296349 -582.184395 
L 141.16775 -586.145904 
L 140.603451 -595.432574 
z
" style="stroke: #377eb8; stroke-opacity: 0.2; stroke-width: 1.5"/>
    </defs>
    <g clip-path="url(#p47aaf9914d)">
     <use xlink:href="#m4f09931f36" x="0" y="868.013086" style="fill: #377eb8; fill-opacity: 0.2; stroke: #377eb8; stroke-opacity: 0.2; stroke-width: 1.5"/>
    </g>
   </g>
   <g id="PolyCollection_3">
    <defs>
     <path id="m01cc0aa9d8" d="M 140.603451 -728.486375 
L 140.603451 -554.56503 
L 141.16775 -542.086638 
L 142.296349 -555.122385 
L 144.553546 -544.232524 
L 149.067941 -553.541599 
L 158.096731 -553.295145 
L 176.154311 -547.75617 
L 212.269471 -538.919809 
L 284.499792 -542.661419 
L 428.960432 -541.293063 
L 428.960432 -732.54829 
L 428.960432 -732.54829 
L 284.499792 -737.240308 
L 212.269471 -722.13142 
L 176.154311 -738.435233 
L 158.096731 -742.853413 
L 149.067941 -714.901571 
L 144.553546 -720.776895 
L 142.296349 -733.707257 
L 141.16775 -743.911419 
L 140.603451 -728.486375 
z
" style="stroke: #377eb8; stroke-opacity: 0.2; stroke-width: 1.5"/>
    </defs>
    <g clip-path="url(#p47aaf9914d)">
     <use xlink:href="#m01cc0aa9d8" x="0" y="868.013086" style="fill: #377eb8; fill-opacity: 0.2; stroke: #377eb8; stroke-opacity: 0.2; stroke-width: 1.5"/>
    </g>
   </g>
   <g id="PolyCollection_4">
    <defs>
     <path id="mfcc823d024" d="M 140.603451 -629.853806 
L 140.603451 -600.184633 
L 141.16775 -604.148073 
L 142.296349 -603.355385 
L 144.553546 -606.073172 
L 149.067941 -606.299654 
L 158.096731 -602.449456 
L 176.154311 -601.996491 
L 212.269471 -604.601037 
L 284.499792 -604.94076 
L 428.960432 -603.355385 
L 428.960432 -628.494913 
L 428.960432 -628.494913 
L 284.499792 -629.627324 
L 212.269471 -630.646494 
L 176.154311 -628.834636 
L 158.096731 -632.005387 
L 149.067941 -631.099458 
L 144.553546 -632.345111 
L 142.296349 -626.683055 
L 141.16775 -628.834636 
L 140.603451 -629.853806 
z
" style="stroke: #e41a1c; stroke-opacity: 0.2; stroke-width: 1.5"/>
    </defs>
    <g clip-path="url(#p47aaf9914d)">
     <use xlink:href="#mfcc823d024" x="0" y="868.013086" style="fill: #e41a1c; fill-opacity: 0.2; stroke: #e41a1c; stroke-opacity: 0.2; stroke-width: 1.5"/>
    </g>
   </g>
   <g id="PolyCollection_5">
    <defs>
     <path id="m01f7af6d58" d="M 140.603451 -611.169022 
L 140.603451 -572.44056 
L 141.16775 -576.856963 
L 142.296349 -579.348268 
L 144.553546 -574.252418 
L 149.067941 -575.837793 
L 158.096731 -570.968425 
L 176.154311 -573.346489 
L 212.269471 -574.025935 
L 284.499792 -573.912694 
L 428.960432 -574.818623 
L 428.960432 -601.656768 
L 428.960432 -601.656768 
L 284.499792 -606.186413 
L 212.269471 -608.111512 
L 176.154311 -610.602816 
L 158.096731 -602.90242 
L 149.067941 -604.487796 
L 144.553546 -600.750839 
L 142.296349 -610.036611 
L 141.16775 -612.754397 
L 140.603451 -611.169022 
z
" style="stroke: #e41a1c; stroke-opacity: 0.2; stroke-width: 1.5"/>
    </defs>
    <g clip-path="url(#p47aaf9914d)">
     <use xlink:href="#m01f7af6d58" x="0" y="868.013086" style="fill: #e41a1c; fill-opacity: 0.2; stroke: #e41a1c; stroke-opacity: 0.2; stroke-width: 1.5"/>
    </g>
   </g>
   <g id="PolyCollection_6">
    <defs>
     <path id="mf3ac70afea" d="M 140.603451 -794.166667 
L 140.603451 -760.081091 
L 141.16775 -763.138601 
L 142.296349 -762.685637 
L 144.553546 -757.589786 
L 149.067941 -766.875558 
L 158.096731 -761.439984 
L 176.154311 -758.042751 
L 212.269471 -757.703028 
L 284.499792 -763.251842 
L 428.960432 -763.591566 
L 428.960432 -795.638802 
L 428.960432 -795.638802 
L 284.499792 -794.166667 
L 212.269471 -797.337419 
L 176.154311 -793.826944 
L 158.096731 -795.525561 
L 149.067941 -795.978525 
L 144.553546 -793.034256 
L 142.296349 -795.41232 
L 141.16775 -796.091766 
L 140.603451 -794.166667 
z
" style="stroke: #e41a1c; stroke-opacity: 0.2; stroke-width: 1.5"/>
    </defs>
    <g clip-path="url(#p47aaf9914d)">
     <use xlink:href="#mf3ac70afea" x="0" y="868.013086" style="fill: #e41a1c; fill-opacity: 0.2; stroke: #e41a1c; stroke-opacity: 0.2; stroke-width: 1.5"/>
    </g>
   </g>
   <g id="line2d_6">
    <path d="M 126.185602 129.003902 
L 443.378281 129.003902 
" clip-path="url(#p47aaf9914d)" style="fill: none; stroke-dasharray: 2.25,3.7125; stroke-dashoffset: 0; stroke: #000000; stroke-width: 2.25"/>
   </g>
   <g id="line2d_7">
    <path d="M 140.603451 257.628735 
L 141.16775 261.486241 
L 142.296349 261.952594 
L 144.553546 260.788648 
L 149.067941 261.049762 
L 158.096731 258.996814 
L 176.154311 259.674491 
L 212.269471 259.002899 
L 284.499792 261.718034 
L 428.960432 258.33352 
" clip-path="url(#p47aaf9914d)" style="fill: none; stroke-dasharray: 14.4,3.6,2.25,3.6; stroke-dashoffset: 0; stroke: #377eb8; stroke-width: 2.25"/>
   </g>
   <g id="line2d_8">
    <path d="M 140.603451 315.40281 
L 141.16775 321.05215 
L 142.296349 317.658231 
L 144.553546 314.477849 
L 149.067941 305.20003 
L 158.096731 327.372529 
L 176.154311 318.335908 
L 212.269471 313.57391 
L 284.499792 327.625344 
L 428.960432 326.714767 
" clip-path="url(#p47aaf9914d)" style="fill: none; stroke-dasharray: 8.325,3.6; stroke-dashoffset: 0; stroke: #377eb8; stroke-width: 2.25"/>
   </g>
   <g id="line2d_9">
    <path d="M 140.603451 245.433308 
L 141.16775 223.203276 
L 142.296349 239.953802 
L 144.553546 260.783116 
L 149.067941 246.992242 
L 158.096731 233.849173 
L 176.154311 200.122413 
L 212.269471 267.597508 
L 284.499792 249.030254 
L 428.960432 264.657771 
" clip-path="url(#p47aaf9914d)" style="fill: none; stroke: #377eb8; stroke-width: 2.25; stroke-linecap: round"/>
   </g>
   <g id="line2d_10">
    <path d="M 140.603451 253.333589 
L 141.16775 250.615803 
L 142.296349 253.107107 
L 144.553546 246.086158 
L 149.067941 247.671534 
L 158.096731 250.38932 
L 176.154311 254.466001 
L 212.269471 253.786554 
L 284.499792 249.936356 
L 428.960432 252.880625 
" clip-path="url(#p47aaf9914d)" style="fill: none; stroke-dasharray: 25.6,6.4,4,6.4; stroke-dashoffset: 0; stroke: #e41a1c; stroke-width: 4"/>
   </g>
   <g id="line2d_11">
    <path d="M 140.603451 275.981813 
L 141.16775 276.66126 
L 142.296349 272.584579 
L 144.553546 283.455727 
L 149.067941 278.246635 
L 158.096731 280.058493 
L 176.154311 280.058493 
L 212.269471 274.169955 
L 284.499792 279.379046 
L 428.960432 280.964422 
" clip-path="url(#p47aaf9914d)" style="fill: none; stroke-dasharray: 14.8,6.4; stroke-dashoffset: 0; stroke: #e41a1c; stroke-width: 4"/>
   </g>
   <g id="line2d_12">
    <path d="M 140.603451 90.039898 
L 141.16775 86.416183 
L 142.296349 88.681005 
L 144.553546 93.21065 
L 149.067941 83.245431 
L 158.096731 90.039898 
L 176.154311 93.437132 
L 212.269471 89.133969 
L 284.499792 87.775076 
L 428.960432 85.283771 
" clip-path="url(#p47aaf9914d)" style="fill: none; stroke: #e41a1c; stroke-width: 4; stroke-linecap: round"/>
   </g>
   <g id="patch_3">
    <path d="M 126.185602 371.126094 
L 126.185602 32.526094 
" style="fill: none; stroke: #262626; stroke-width: 1.875; stroke-linejoin: miter; stroke-linecap: square"/>
   </g>
   <g id="patch_4">
    <path d="M 126.185602 371.126094 
L 443.378281 371.126094 
" style="fill: none; stroke: #262626; stroke-width: 1.875; stroke-linejoin: miter; stroke-linecap: square"/>
   </g>
   <g id="text_7">
    <!-- Linear -->
    <g style="fill: #262626" transform="translate(247.258269 26.526094) scale(0.27 -0.27)">
     <defs>
      <path id="ArialMT-4c" d="M 469 0 
L 469 4581 
L 1075 4581 
L 1075 541 
L 3331 541 
L 3331 0 
L 469 0 
z
" transform="scale(0.015625)"/>
      <path id="ArialMT-69" d="M 425 3934 
L 425 4581 
L 988 4581 
L 988 3934 
L 425 3934 
z
M 425 0 
L 425 3319 
L 988 3319 
L 988 0 
L 425 0 
z
" transform="scale(0.015625)"/>
      <path id="ArialMT-6e" d="M 422 0 
L 422 3319 
L 928 3319 
L 928 2847 
Q 1294 3394 1984 3394 
Q 2284 3394 2536 3286 
Q 2788 3178 2913 3003 
Q 3038 2828 3088 2588 
Q 3119 2431 3119 2041 
L 3119 0 
L 2556 0 
L 2556 2019 
Q 2556 2363 2490 2533 
Q 2425 2703 2258 2804 
Q 2091 2906 1866 2906 
Q 1506 2906 1245 2678 
Q 984 2450 984 1813 
L 984 0 
L 422 0 
z
" transform="scale(0.015625)"/>
     </defs>
     <use xlink:href="#ArialMT-4c"/>
     <use xlink:href="#ArialMT-69" x="55.615234"/>
     <use xlink:href="#ArialMT-6e" x="77.832031"/>
     <use xlink:href="#ArialMT-65" x="133.447266"/>
     <use xlink:href="#ArialMT-61" x="189.0625"/>
     <use xlink:href="#ArialMT-72" x="244.677734"/>
    </g>
   </g>
   <g id="text_8">
    <!-- A -->
    <g style="fill: #262626" transform="translate(126.185602 26.526094) scale(0.27 -0.27)">
     <defs>
      <path id="Arial-BoldMT-41" d="M 4597 0 
L 3591 0 
L 3191 1041 
L 1359 1041 
L 981 0 
L 0 0 
L 1784 4581 
L 2763 4581 
L 4597 0 
z
M 2894 1813 
L 2263 3513 
L 1644 1813 
L 2894 1813 
z
" transform="scale(0.015625)"/>
     </defs>
     <use xlink:href="#Arial-BoldMT-41"/>
    </g>
   </g>
   <g id="legend_1">
    <g id="patch_5">
     <path d="M 1283.353559 275.193633 
L 1522.581645 275.193633 
Q 1527.531645 275.193633 1527.531645 270.243633 
L 1527.531645 27.651094 
Q 1527.531645 22.701094 1522.581645 22.701094 
L 1283.353559 22.701094 
Q 1278.403559 22.701094 1278.403559 27.651094 
L 1278.403559 270.243633 
Q 1278.403559 275.193633 1283.353559 275.193633 
z
" style="fill: #ffffff; opacity: 0.8"/>
    </g>
    <g id="line2d_13">
     <path d="M 1288.303559 41.65418 
L 1313.053559 41.65418 
L 1337.803559 41.65418 
" style="fill: none; stroke: #e41a1c; stroke-width: 5; stroke-linecap: round"/>
    </g>
    <g id="text_9">
     <!-- CoMIGHT -->
     <g style="fill: #262626" transform="translate(1357.603559 50.31668) scale(0.2475 -0.2475)">
      <defs>
       <path id="ArialMT-43" d="M 3763 1606 
L 4369 1453 
Q 4178 706 3683 314 
Q 3188 -78 2472 -78 
Q 1731 -78 1267 223 
Q 803 525 561 1097 
Q 319 1669 319 2325 
Q 319 3041 592 3573 
Q 866 4106 1370 4382 
Q 1875 4659 2481 4659 
Q 3169 4659 3637 4309 
Q 4106 3959 4291 3325 
L 3694 3184 
Q 3534 3684 3231 3912 
Q 2928 4141 2469 4141 
Q 1941 4141 1586 3887 
Q 1231 3634 1087 3207 
Q 944 2781 944 2328 
Q 944 1744 1114 1308 
Q 1284 872 1643 656 
Q 2003 441 2422 441 
Q 2931 441 3284 734 
Q 3638 1028 3763 1606 
z
" transform="scale(0.015625)"/>
       <path id="ArialMT-4d" d="M 475 0 
L 475 4581 
L 1388 4581 
L 2472 1338 
Q 2622 884 2691 659 
Q 2769 909 2934 1394 
L 4031 4581 
L 4847 4581 
L 4847 0 
L 4263 0 
L 4263 3834 
L 2931 0 
L 2384 0 
L 1059 3900 
L 1059 0 
L 475 0 
z
" transform="scale(0.015625)"/>
       <path id="ArialMT-49" d="M 597 0 
L 597 4581 
L 1203 4581 
L 1203 0 
L 597 0 
z
" transform="scale(0.015625)"/>
       <path id="ArialMT-47" d="M 2638 1797 
L 2638 2334 
L 4578 2338 
L 4578 638 
Q 4131 281 3656 101 
Q 3181 -78 2681 -78 
Q 2006 -78 1454 211 
Q 903 500 622 1047 
Q 341 1594 341 2269 
Q 341 2938 620 3517 
Q 900 4097 1425 4378 
Q 1950 4659 2634 4659 
Q 3131 4659 3532 4498 
Q 3934 4338 4162 4050 
Q 4391 3763 4509 3300 
L 3963 3150 
Q 3859 3500 3706 3700 
Q 3553 3900 3268 4020 
Q 2984 4141 2638 4141 
Q 2222 4141 1919 4014 
Q 1616 3888 1430 3681 
Q 1244 3475 1141 3228 
Q 966 2803 966 2306 
Q 966 1694 1177 1281 
Q 1388 869 1791 669 
Q 2194 469 2647 469 
Q 3041 469 3416 620 
Q 3791 772 3984 944 
L 3984 1797 
L 2638 1797 
z
" transform="scale(0.015625)"/>
       <path id="ArialMT-48" d="M 513 0 
L 513 4581 
L 1119 4581 
L 1119 2700 
L 3500 2700 
L 3500 4581 
L 4106 4581 
L 4106 0 
L 3500 0 
L 3500 2159 
L 1119 2159 
L 1119 0 
L 513 0 
z
" transform="scale(0.015625)"/>
       <path id="ArialMT-54" d="M 1659 0 
L 1659 4041 
L 150 4041 
L 150 4581 
L 3781 4581 
L 3781 4041 
L 2266 4041 
L 2266 0 
L 1659 0 
z
" transform="scale(0.015625)"/>
      </defs>
      <use xlink:href="#ArialMT-43"/>
      <use xlink:href="#ArialMT-6f" x="72.216797"/>
      <use xlink:href="#ArialMT-4d" x="127.832031"/>
      <use xlink:href="#ArialMT-49" x="211.132812"/>
      <use xlink:href="#ArialMT-47" x="238.916016"/>
      <use xlink:href="#ArialMT-48" x="316.699219"/>
      <use xlink:href="#ArialMT-54" x="388.916016"/>
     </g>
    </g>
    <g id="line2d_14">
     <path d="M 1288.303559 76.663828 
L 1313.053559 76.663828 
L 1337.803559 76.663828 
" style="fill: none; stroke-dasharray: 18.5,8; stroke-dashoffset: 0; stroke: #e41a1c; stroke-width: 5"/>
    </g>
    <g id="text_10">
     <!-- MIGHT View 1 -->
     <g style="fill: #262626" transform="translate(1357.603559 85.326328) scale(0.2475 -0.2475)">
      <defs>
       <path id="ArialMT-56" d="M 1803 0 
L 28 4581 
L 684 4581 
L 1875 1253 
Q 2019 853 2116 503 
Q 2222 878 2363 1253 
L 3600 4581 
L 4219 4581 
L 2425 0 
L 1803 0 
z
" transform="scale(0.015625)"/>
       <path id="ArialMT-77" d="M 1034 0 
L 19 3319 
L 600 3319 
L 1128 1403 
L 1325 691 
Q 1338 744 1497 1375 
L 2025 3319 
L 2603 3319 
L 3100 1394 
L 3266 759 
L 3456 1400 
L 4025 3319 
L 4572 3319 
L 3534 0 
L 2950 0 
L 2422 1988 
L 2294 2553 
L 1622 0 
L 1034 0 
z
" transform="scale(0.015625)"/>
       <path id="ArialMT-31" d="M 2384 0 
L 1822 0 
L 1822 3584 
Q 1619 3391 1289 3197 
Q 959 3003 697 2906 
L 697 3450 
Q 1169 3672 1522 3987 
Q 1875 4303 2022 4600 
L 2384 4600 
L 2384 0 
z
" transform="scale(0.015625)"/>
      </defs>
      <use xlink:href="#ArialMT-4d"/>
      <use xlink:href="#ArialMT-49" x="83.300781"/>
      <use xlink:href="#ArialMT-47" x="111.083984"/>
      <use xlink:href="#ArialMT-48" x="188.867188"/>
      <use xlink:href="#ArialMT-54" x="261.083984"/>
      <use xlink:href="#ArialMT-20" x="320.417969"/>
      <use xlink:href="#ArialMT-56" x="348.201172"/>
      <use xlink:href="#ArialMT-69" x="413.150391"/>
      <use xlink:href="#ArialMT-65" x="435.367188"/>
      <use xlink:href="#ArialMT-77" x="490.982422"/>
      <use xlink:href="#ArialMT-20" x="563.199219"/>
      <use xlink:href="#ArialMT-31" x="590.982422"/>
     </g>
    </g>
    <g id="line2d_15">
     <path d="M 1288.303559 111.673477 
L 1313.053559 111.673477 
L 1337.803559 111.673477 
" style="fill: none; stroke-dasharray: 32,8,5,8; stroke-dashoffset: 0; stroke: #e41a1c; stroke-width: 5"/>
    </g>
    <g id="text_11">
     <!-- MIGHT View 2 -->
     <g style="fill: #262626" transform="translate(1357.603559 120.335977) scale(0.2475 -0.2475)">
      <use xlink:href="#ArialMT-4d"/>
      <use xlink:href="#ArialMT-49" x="83.300781"/>
      <use xlink:href="#ArialMT-47" x="111.083984"/>
      <use xlink:href="#ArialMT-48" x="188.867188"/>
      <use xlink:href="#ArialMT-54" x="261.083984"/>
      <use xlink:href="#ArialMT-20" x="320.417969"/>
      <use xlink:href="#ArialMT-56" x="348.201172"/>
      <use xlink:href="#ArialMT-69" x="413.150391"/>
      <use xlink:href="#ArialMT-65" x="435.367188"/>
      <use xlink:href="#ArialMT-77" x="490.982422"/>
      <use xlink:href="#ArialMT-20" x="563.199219"/>
      <use xlink:href="#ArialMT-32" x="590.982422"/>
     </g>
    </g>
    <g id="line2d_16">
     <path d="M 1288.303559 146.683125 
L 1313.053559 146.683125 
L 1337.803559 146.683125 
" style="fill: none; stroke: #377eb8; stroke-width: 5; stroke-linecap: round"/>
    </g>
    <g id="text_12">
     <!-- KNN -->
     <g style="fill: #262626" transform="translate(1357.603559 155.345625) scale(0.2475 -0.2475)">
      <defs>
       <path id="ArialMT-4b" d="M 469 0 
L 469 4581 
L 1075 4581 
L 1075 2309 
L 3350 4581 
L 4172 4581 
L 2250 2725 
L 4256 0 
L 3456 0 
L 1825 2319 
L 1075 1588 
L 1075 0 
L 469 0 
z
" transform="scale(0.015625)"/>
       <path id="ArialMT-4e" d="M 488 0 
L 488 4581 
L 1109 4581 
L 3516 984 
L 3516 4581 
L 4097 4581 
L 4097 0 
L 3475 0 
L 1069 3600 
L 1069 0 
L 488 0 
z
" transform="scale(0.015625)"/>
      </defs>
      <use xlink:href="#ArialMT-4b"/>
      <use xlink:href="#ArialMT-4e" x="66.699219"/>
      <use xlink:href="#ArialMT-4e" x="138.916016"/>
     </g>
    </g>
    <g id="line2d_17">
     <path d="M 1288.303559 181.692773 
L 1313.053559 181.692773 
L 1337.803559 181.692773 
" style="fill: none; stroke-dasharray: 18.5,8; stroke-dashoffset: 0; stroke: #377eb8; stroke-width: 5"/>
    </g>
    <g id="text_13">
     <!-- KNN View 1 -->
     <g style="fill: #262626" transform="translate(1357.603559 190.355273) scale(0.2475 -0.2475)">
      <use xlink:href="#ArialMT-4b"/>
      <use xlink:href="#ArialMT-4e" x="66.699219"/>
      <use xlink:href="#ArialMT-4e" x="138.916016"/>
      <use xlink:href="#ArialMT-20" x="211.132812"/>
      <use xlink:href="#ArialMT-56" x="238.916016"/>
      <use xlink:href="#ArialMT-69" x="303.865234"/>
      <use xlink:href="#ArialMT-65" x="326.082031"/>
      <use xlink:href="#ArialMT-77" x="381.697266"/>
      <use xlink:href="#ArialMT-20" x="453.914062"/>
      <use xlink:href="#ArialMT-31" x="481.697266"/>
     </g>
    </g>
    <g id="line2d_18">
     <path d="M 1288.303559 216.702422 
L 1313.053559 216.702422 
L 1337.803559 216.702422 
" style="fill: none; stroke-dasharray: 32,8,5,8; stroke-dashoffset: 0; stroke: #377eb8; stroke-width: 5"/>
    </g>
    <g id="text_14">
     <!-- KNN View 2 -->
     <g style="fill: #262626" transform="translate(1357.603559 225.364922) scale(0.2475 -0.2475)">
      <use xlink:href="#ArialMT-4b"/>
      <use xlink:href="#ArialMT-4e" x="66.699219"/>
      <use xlink:href="#ArialMT-4e" x="138.916016"/>
      <use xlink:href="#ArialMT-20" x="211.132812"/>
      <use xlink:href="#ArialMT-56" x="238.916016"/>
      <use xlink:href="#ArialMT-69" x="303.865234"/>
      <use xlink:href="#ArialMT-65" x="326.082031"/>
      <use xlink:href="#ArialMT-77" x="381.697266"/>
      <use xlink:href="#ArialMT-20" x="453.914062"/>
      <use xlink:href="#ArialMT-32" x="481.697266"/>
     </g>
    </g>
    <g id="line2d_19">
     <path d="M 1288.303559 251.71207 
L 1313.053559 251.71207 
L 1337.803559 251.71207 
" style="fill: none; stroke-dasharray: 5,8.25; stroke-dashoffset: 0; stroke: #000000; stroke-width: 5"/>
    </g>
    <g id="text_15">
     <!-- Truth -->
     <g style="fill: #262626" transform="translate(1357.603559 260.37457) scale(0.2475 -0.2475)">
      <defs>
       <path id="ArialMT-75" d="M 2597 0 
L 2597 488 
Q 2209 -75 1544 -75 
Q 1250 -75 995 37 
Q 741 150 617 320 
Q 494 491 444 738 
Q 409 903 409 1263 
L 409 3319 
L 972 3319 
L 972 1478 
Q 972 1038 1006 884 
Q 1059 663 1231 536 
Q 1403 409 1656 409 
Q 1909 409 2131 539 
Q 2353 669 2445 892 
Q 2538 1116 2538 1541 
L 2538 3319 
L 3100 3319 
L 3100 0 
L 2597 0 
z
" transform="scale(0.015625)"/>
       <path id="ArialMT-74" d="M 1650 503 
L 1731 6 
Q 1494 -44 1306 -44 
Q 1000 -44 831 53 
Q 663 150 594 308 
Q 525 466 525 972 
L 525 2881 
L 113 2881 
L 113 3319 
L 525 3319 
L 525 4141 
L 1084 4478 
L 1084 3319 
L 1650 3319 
L 1650 2881 
L 1084 2881 
L 1084 941 
Q 1084 700 1114 631 
Q 1144 563 1211 522 
Q 1278 481 1403 481 
Q 1497 481 1650 503 
z
" transform="scale(0.015625)"/>
       <path id="ArialMT-68" d="M 422 0 
L 422 4581 
L 984 4581 
L 984 2938 
Q 1378 3394 1978 3394 
Q 2347 3394 2619 3248 
Q 2891 3103 3008 2847 
Q 3125 2591 3125 2103 
L 3125 0 
L 2563 0 
L 2563 2103 
Q 2563 2525 2380 2717 
Q 2197 2909 1863 2909 
Q 1613 2909 1392 2779 
Q 1172 2650 1078 2428 
Q 984 2206 984 1816 
L 984 0 
L 422 0 
z
" transform="scale(0.015625)"/>
      </defs>
      <use xlink:href="#ArialMT-54"/>
      <use xlink:href="#ArialMT-72" x="57.333984"/>
      <use xlink:href="#ArialMT-75" x="90.634766"/>
      <use xlink:href="#ArialMT-74" x="146.25"/>
      <use xlink:href="#ArialMT-68" x="174.033203"/>
     </g>
    </g>
   </g>
  </g>
  <g id="axes_2">
   <g id="patch_6">
    <path d="M 544.636268 371.126094 
L 861.828948 371.126094 
L 861.828948 32.526094 
L 544.636268 32.526094 
L 544.636268 371.126094 
z
" style="fill: none"/>
   </g>
   <g id="matplotlib.axis_3">
    <g id="xtick_4">
     <g id="line2d_20">
      <g>
       <use xlink:href="#mc438398ef9" x="559.195192" y="371.126094" style="fill: #262626; stroke: #262626; stroke-width: 1.875"/>
      </g>
     </g>
     <g id="text_16">
      <!-- 4 -->
      <g style="fill: #262626" transform="translate(552.313532 401.34168) scale(0.2475 -0.2475)">
       <use xlink:href="#ArialMT-34"/>
      </g>
     </g>
    </g>
    <g id="xtick_5">
     <g id="line2d_21">
      <g>
       <use xlink:href="#mc438398ef9" x="703.373683" y="371.126094" style="fill: #262626; stroke: #262626; stroke-width: 1.875"/>
      </g>
     </g>
     <g id="text_17">
      <!-- 2048 -->
      <g style="fill: #262626" transform="translate(675.847042 401.34168) scale(0.2475 -0.2475)">
       <use xlink:href="#ArialMT-32"/>
       <use xlink:href="#ArialMT-30" x="55.615234"/>
       <use xlink:href="#ArialMT-34" x="111.230469"/>
       <use xlink:href="#ArialMT-38" x="166.845703"/>
      </g>
     </g>
    </g>
    <g id="xtick_6">
     <g id="line2d_22">
      <g>
       <use xlink:href="#mc438398ef9" x="847.834323" y="371.126094" style="fill: #262626; stroke: #262626; stroke-width: 1.875"/>
      </g>
     </g>
     <g id="text_18">
      <!-- 4096 -->
      <g style="fill: #262626" transform="translate(820.307682 401.34168) scale(0.2475 -0.2475)">
       <use xlink:href="#ArialMT-34"/>
       <use xlink:href="#ArialMT-30" x="55.615234"/>
       <use xlink:href="#ArialMT-39" x="111.230469"/>
       <use xlink:href="#ArialMT-36" x="166.845703"/>
      </g>
     </g>
    </g>
   </g>
   <g id="matplotlib.axis_4">
    <g id="ytick_3">
     <g id="line2d_23">
      <g>
       <use xlink:href="#mf69cf9c3bb" x="544.636268" y="370.264516" style="fill: #262626; stroke: #262626; stroke-width: 1.875"/>
      </g>
     </g>
     <g id="text_19">
      <!-- 0.00 -->
      <g style="fill: #262626" transform="translate(483.970448 379.122309) scale(0.2475 -0.2475)">
       <use xlink:href="#ArialMT-30"/>
       <use xlink:href="#ArialMT-2e" x="55.615234"/>
       <use xlink:href="#ArialMT-30" x="83.398438"/>
       <use xlink:href="#ArialMT-30" x="139.013672"/>
      </g>
     </g>
    </g>
    <g id="ytick_4">
     <g id="line2d_24">
      <g>
       <use xlink:href="#mf69cf9c3bb" x="544.636268" y="129.022786" style="fill: #262626; stroke: #262626; stroke-width: 1.875"/>
      </g>
     </g>
     <g id="text_20">
      <!-- 0.28 -->
      <g style="fill: #262626" transform="translate(483.970448 137.880579) scale(0.2475 -0.2475)">
       <use xlink:href="#ArialMT-30"/>
       <use xlink:href="#ArialMT-2e" x="55.615234"/>
       <use xlink:href="#ArialMT-32" x="83.398438"/>
       <use xlink:href="#ArialMT-38" x="139.013672"/>
      </g>
     </g>
    </g>
   </g>
   <g id="PolyCollection_7">
    <defs>
     <path id="mfcd69b5c6d" d="M 559.054117 -517.096431 
L 559.054117 -510.371152 
L 559.618417 -510.370124 
L 560.747015 -512.055105 
L 563.004213 -510.374748 
L 567.518608 -511.634052 
L 576.547398 -511.837 
L 594.604978 -512.052022 
L 630.720138 -510.788608 
L 702.950458 -511.103562 
L 847.411098 -510.366014 
L 847.411098 -516.261005 
L 847.411098 -516.261005 
L 702.950458 -517.203813 
L 630.720138 -517.626407 
L 594.604978 -517.519538 
L 576.547398 -518.473907 
L 567.518608 -516.787128 
L 563.004213 -517.096945 
L 560.747015 -517.628205 
L 559.618417 -516.678718 
L 559.054117 -517.096431 
z
" style="stroke: #377eb8; stroke-opacity: 0.2; stroke-width: 1.5"/>
    </defs>
    <g clip-path="url(#pc94776ecf5)">
     <use xlink:href="#mfcd69b5c6d" x="0" y="868.013086" style="fill: #377eb8; fill-opacity: 0.2; stroke: #377eb8; stroke-opacity: 0.2; stroke-width: 1.5"/>
    </g>
   </g>
   <g id="PolyCollection_8">
    <defs>
     <path id="ma6b23d3e26" d="M 559.054117 -701.579572 
L 559.054117 -588.722102 
L 559.618417 -562.005438 
L 560.747015 -582.304841 
L 563.004213 -570.6356 
L 567.518608 -564.116095 
L 576.547398 -547.922402 
L 594.604978 -573.988863 
L 630.720138 -581.459654 
L 702.950458 -560.212561 
L 847.411098 -559.384842 
L 847.411098 -703.472124 
L 847.411098 -703.472124 
L 702.950458 -698.961545 
L 630.720138 -701.486062 
L 594.604978 -700.736953 
L 576.547398 -703.15383 
L 567.518608 -702.732007 
L 563.004213 -704.723721 
L 560.747015 -704.41596 
L 559.618417 -701.572122 
L 559.054117 -701.579572 
z
" style="stroke: #377eb8; stroke-opacity: 0.2; stroke-width: 1.5"/>
    </defs>
    <g clip-path="url(#pc94776ecf5)">
     <use xlink:href="#ma6b23d3e26" x="0" y="868.013086" style="fill: #377eb8; fill-opacity: 0.2; stroke: #377eb8; stroke-opacity: 0.2; stroke-width: 1.5"/>
    </g>
   </g>
   <g id="PolyCollection_9">
    <defs>
     <path id="mec4ce2f802" d="M 559.054117 -694.436323 
L 559.054117 -562.542607 
L 559.618417 -585.057481 
L 560.747015 -571.585858 
L 563.004213 -551.814376 
L 567.518608 -558.947862 
L 576.547398 -582.508046 
L 594.604978 -555.281957 
L 630.720138 -571.252407 
L 702.950458 -591.032367 
L 847.411098 -563.065904 
L 847.411098 -696.950307 
L 847.411098 -696.950307 
L 702.950458 -699.670064 
L 630.720138 -701.367376 
L 594.604978 -698.52585 
L 576.547398 -700.533235 
L 567.518608 -700.936561 
L 563.004213 -696.095871 
L 560.747015 -699.589913 
L 559.618417 -700.209546 
L 559.054117 -694.436323 
z
" style="stroke: #377eb8; stroke-opacity: 0.2; stroke-width: 1.5"/>
    </defs>
    <g clip-path="url(#pc94776ecf5)">
     <use xlink:href="#mec4ce2f802" x="0" y="868.013086" style="fill: #377eb8; fill-opacity: 0.2; stroke: #377eb8; stroke-opacity: 0.2; stroke-width: 1.5"/>
    </g>
   </g>
   <g id="PolyCollection_10">
    <defs>
     <path id="m26d6310222" d="M 559.054117 -521.728025 
L 559.054117 -514.471084 
L 559.618417 -513.209008 
L 560.747015 -512.893489 
L 563.004213 -512.472796 
L 567.518608 -515.733161 
L 576.547398 -514.576257 
L 594.604978 -512.052104 
L 630.720138 -513.734873 
L 702.950458 -515.312469 
L 847.411098 -514.155565 
L 847.411098 -520.991813 
L 847.411098 -520.991813 
L 702.950458 -522.990101 
L 630.720138 -522.25389 
L 594.604978 -519.309045 
L 576.547398 -522.25389 
L 567.518608 -522.148717 
L 563.004213 -520.88664 
L 560.747015 -522.569409 
L 559.618417 -521.307333 
L 559.054117 -521.728025 
z
" style="stroke: #e41a1c; stroke-opacity: 0.2; stroke-width: 1.5"/>
    </defs>
    <g clip-path="url(#pc94776ecf5)">
     <use xlink:href="#m26d6310222" x="0" y="868.013086" style="fill: #e41a1c; fill-opacity: 0.2; stroke: #e41a1c; stroke-opacity: 0.2; stroke-width: 1.5"/>
    </g>
   </g>
   <g id="PolyCollection_11">
    <defs>
     <path id="m3b14587a45" d="M 559.054117 -717.034375 
L 559.054117 -706.411897 
L 559.618417 -705.570512 
L 560.747015 -705.14982 
L 563.004213 -708.410185 
L 567.518608 -706.622243 
L 576.547398 -706.727416 
L 594.604978 -709.672261 
L 630.720138 -707.673973 
L 702.950458 -706.832589 
L 847.411098 -708.094666 
L 847.411098 -717.770586 
L 847.411098 -717.770586 
L 702.950458 -717.875759 
L 630.720138 -717.980932 
L 594.604978 -719.97922 
L 576.547398 -717.349894 
L 567.518608 -717.875759 
L 563.004213 -719.558528 
L 560.747015 -718.717143 
L 559.618417 -716.508509 
L 559.054117 -717.034375 
z
" style="stroke: #e41a1c; stroke-opacity: 0.2; stroke-width: 1.5"/>
    </defs>
    <g clip-path="url(#pc94776ecf5)">
     <use xlink:href="#m3b14587a45" x="0" y="868.013086" style="fill: #e41a1c; fill-opacity: 0.2; stroke: #e41a1c; stroke-opacity: 0.2; stroke-width: 1.5"/>
    </g>
   </g>
   <g id="PolyCollection_12">
    <defs>
     <path id="m5165f999b1" d="M 559.054117 -719.558528 
L 559.054117 -709.777434 
L 559.618417 -706.727416 
L 560.747015 -708.93605 
L 563.004213 -710.408473 
L 567.518608 -707.253281 
L 576.547398 -707.989492 
L 594.604978 -710.618819 
L 630.720138 -706.832589 
L 702.950458 -706.832589 
L 847.411098 -706.411897 
L 847.411098 -718.717143 
L 847.411098 -718.717143 
L 702.950458 -718.822316 
L 630.720138 -718.717143 
L 594.604978 -721.556816 
L 576.547398 -716.508509 
L 567.518608 -718.717143 
L 563.004213 -721.661989 
L 560.747015 -717.770586 
L 559.618417 -718.191278 
L 559.054117 -719.558528 
z
" style="stroke: #e41a1c; stroke-opacity: 0.2; stroke-width: 1.5"/>
    </defs>
    <g clip-path="url(#pc94776ecf5)">
     <use xlink:href="#m5165f999b1" x="0" y="868.013086" style="fill: #e41a1c; fill-opacity: 0.2; stroke: #e41a1c; stroke-opacity: 0.2; stroke-width: 1.5"/>
    </g>
   </g>
   <g id="line2d_25">
    <path d="M 544.636268 129.022786 
L 861.828948 129.022786 
" clip-path="url(#pc94776ecf5)" style="fill: none; stroke-dasharray: 2.25,3.7125; stroke-dashoffset: 0; stroke: #000000; stroke-width: 2.25"/>
   </g>
   <g id="line2d_26">
    <path d="M 559.054117 355.116904 
L 559.618417 354.908818 
L 560.747015 353.854003 
L 563.004213 354.069282 
L 567.518608 353.23026 
L 576.547398 353.432694 
L 594.604978 353.43886 
L 630.720138 353.643349 
L 702.950458 353.438346 
L 847.411098 354.704843 
" clip-path="url(#pc94776ecf5)" style="fill: none; stroke-dasharray: 14.4,3.6,2.25,3.6; stroke-dashoffset: 0; stroke: #377eb8; stroke-width: 2.25"/>
   </g>
   <g id="line2d_27">
    <path d="M 559.054117 193.996907 
L 559.618417 222.390074 
L 560.747015 194.825654 
L 563.004213 188.944278 
L 567.518608 197.989584 
L 576.547398 201.355435 
L 594.604978 216.288282 
L 630.720138 198.618465 
L 702.950458 199.465194 
L 847.411098 216.302668 
" clip-path="url(#pc94776ecf5)" style="fill: none; stroke-dasharray: 8.325,3.6; stroke-dashoffset: 0; stroke: #377eb8; stroke-width: 2.25"/>
   </g>
   <g id="line2d_28">
    <path d="M 559.054117 223.443862 
L 559.618417 192.095877 
L 560.747015 208.719614 
L 563.004213 219.869411 
L 567.518608 208.291625 
L 576.547398 193.569946 
L 594.604978 207.665313 
L 630.720138 202.834642 
L 702.950458 195.681631 
L 847.411098 209.141951 
" clip-path="url(#pc94776ecf5)" style="fill: none; stroke: #377eb8; stroke-width: 2.25; stroke-linecap: round"/>
   </g>
   <g id="line2d_29">
    <path d="M 559.054117 349.860945 
L 559.618417 350.281637 
L 560.747015 348.809214 
L 563.004213 351.123021 
L 567.518608 349.650599 
L 576.547398 349.650599 
L 594.604978 352.174752 
L 630.720138 349.650599 
L 702.950458 348.809214 
L 847.411098 350.491983 
" clip-path="url(#pc94776ecf5)" style="fill: none; stroke-dasharray: 25.6,6.4,4,6.4; stroke-dashoffset: 0; stroke: #e41a1c; stroke-width: 4"/>
   </g>
   <g id="line2d_30">
    <path d="M 559.054117 154.870114 
L 559.618417 155.290806 
L 560.747015 156.763229 
L 563.004213 155.290806 
L 567.518608 155.290806 
L 576.547398 156.552883 
L 594.604978 153.608038 
L 630.720138 154.659768 
L 702.950458 155.711498 
L 847.411098 154.659768 
" clip-path="url(#pc94776ecf5)" style="fill: none; stroke-dasharray: 14.8,6.4; stroke-dashoffset: 0; stroke: #e41a1c; stroke-width: 4"/>
   </g>
   <g id="line2d_31">
    <path d="M 559.054117 153.818384 
L 559.618417 156.342537 
L 560.747015 154.239076 
L 563.004213 152.976999 
L 567.518608 153.818384 
L 576.547398 154.449422 
L 594.604978 152.766653 
L 630.720138 155.501152 
L 702.950458 155.290806 
L 847.411098 156.132191 
" clip-path="url(#pc94776ecf5)" style="fill: none; stroke: #e41a1c; stroke-width: 4; stroke-linecap: round"/>
   </g>
   <g id="patch_7">
    <path d="M 544.636268 371.126094 
L 544.636268 32.526094 
" style="fill: none; stroke: #262626; stroke-width: 1.875; stroke-linejoin: miter; stroke-linecap: square"/>
   </g>
   <g id="patch_8">
    <path d="M 544.636268 371.126094 
L 861.828948 371.126094 
" style="fill: none; stroke: #262626; stroke-width: 1.875; stroke-linejoin: miter; stroke-linecap: square"/>
   </g>
   <g id="text_21">
    <!-- Nonlinear -->
    <g style="fill: #262626" transform="translate(645.452608 26.526094) scale(0.27 -0.27)">
     <use xlink:href="#ArialMT-4e"/>
     <use xlink:href="#ArialMT-6f" x="72.216797"/>
     <use xlink:href="#ArialMT-6e" x="127.832031"/>
     <use xlink:href="#ArialMT-6c" x="183.447266"/>
     <use xlink:href="#ArialMT-69" x="205.664062"/>
     <use xlink:href="#ArialMT-6e" x="227.880859"/>
     <use xlink:href="#ArialMT-65" x="283.496094"/>
     <use xlink:href="#ArialMT-61" x="339.111328"/>
     <use xlink:href="#ArialMT-72" x="394.726562"/>
    </g>
   </g>
   <g id="text_22">
    <!-- B -->
    <g style="fill: #262626" transform="translate(544.636268 26.526094) scale(0.27 -0.27)">
     <defs>
      <path id="Arial-BoldMT-42" d="M 469 4581 
L 2300 4581 
Q 2844 4581 3111 4536 
Q 3378 4491 3589 4347 
Q 3800 4203 3940 3964 
Q 4081 3725 4081 3428 
Q 4081 3106 3907 2837 
Q 3734 2569 3438 2434 
Q 3856 2313 4081 2019 
Q 4306 1725 4306 1328 
Q 4306 1016 4161 720 
Q 4016 425 3764 248 
Q 3513 72 3144 31 
Q 2913 6 2028 0 
L 469 0 
L 469 4581 
z
M 1394 3819 
L 1394 2759 
L 2000 2759 
Q 2541 2759 2672 2775 
Q 2909 2803 3045 2939 
Q 3181 3075 3181 3297 
Q 3181 3509 3064 3642 
Q 2947 3775 2716 3803 
Q 2578 3819 1925 3819 
L 1394 3819 
z
M 1394 1997 
L 1394 772 
L 2250 772 
Q 2750 772 2884 800 
Q 3091 838 3220 983 
Q 3350 1128 3350 1372 
Q 3350 1578 3250 1722 
Q 3150 1866 2961 1931 
Q 2772 1997 2141 1997 
L 1394 1997 
z
" transform="scale(0.015625)"/>
     </defs>
     <use xlink:href="#Arial-BoldMT-42"/>
    </g>
   </g>
  </g>
  <g id="axes_3">
   <g id="patch_9">
    <path d="M 963.086935 371.126094 
L 1280.279614 371.126094 
L 1280.279614 32.526094 
L 963.086935 32.526094 
L 963.086935 371.126094 
z
" style="fill: none"/>
   </g>
   <g id="matplotlib.axis_5">
    <g id="xtick_7">
     <g id="line2d_32">
      <g>
       <use xlink:href="#mc438398ef9" x="977.645859" y="371.126094" style="fill: #262626; stroke: #262626; stroke-width: 1.875"/>
      </g>
     </g>
     <g id="text_23">
      <!-- 4 -->
      <g style="fill: #262626" transform="translate(970.764199 401.34168) scale(0.2475 -0.2475)">
       <use xlink:href="#ArialMT-34"/>
      </g>
     </g>
    </g>
    <g id="xtick_8">
     <g id="line2d_33">
      <g>
       <use xlink:href="#mc438398ef9" x="1121.824349" y="371.126094" style="fill: #262626; stroke: #262626; stroke-width: 1.875"/>
      </g>
     </g>
     <g id="text_24">
      <!-- 2048 -->
      <g style="fill: #262626" transform="translate(1094.297709 401.34168) scale(0.2475 -0.2475)">
       <use xlink:href="#ArialMT-32"/>
       <use xlink:href="#ArialMT-30" x="55.615234"/>
       <use xlink:href="#ArialMT-34" x="111.230469"/>
       <use xlink:href="#ArialMT-38" x="166.845703"/>
      </g>
     </g>
    </g>
    <g id="xtick_9">
     <g id="line2d_34">
      <g>
       <use xlink:href="#mc438398ef9" x="1266.28499" y="371.126094" style="fill: #262626; stroke: #262626; stroke-width: 1.875"/>
      </g>
     </g>
     <g id="text_25">
      <!-- 4096 -->
      <g style="fill: #262626" transform="translate(1238.758349 401.34168) scale(0.2475 -0.2475)">
       <use xlink:href="#ArialMT-34"/>
       <use xlink:href="#ArialMT-30" x="55.615234"/>
       <use xlink:href="#ArialMT-39" x="111.230469"/>
       <use xlink:href="#ArialMT-36" x="166.845703"/>
      </g>
     </g>
    </g>
   </g>
   <g id="matplotlib.axis_6">
    <g id="ytick_5">
     <g id="line2d_35">
      <g>
       <use xlink:href="#mf69cf9c3bb" x="963.086935" y="367.773619" style="fill: #262626; stroke: #262626; stroke-width: 1.875"/>
      </g>
     </g>
     <g id="text_26">
      <!-- 0.00 -->
      <g style="fill: #262626" transform="translate(902.421115 376.631411) scale(0.2475 -0.2475)">
       <use xlink:href="#ArialMT-30"/>
       <use xlink:href="#ArialMT-2e" x="55.615234"/>
       <use xlink:href="#ArialMT-30" x="83.398438"/>
       <use xlink:href="#ArialMT-30" x="139.013672"/>
      </g>
     </g>
    </g>
    <g id="ytick_6">
     <g id="line2d_36">
      <g>
       <use xlink:href="#mf69cf9c3bb" x="963.086935" y="300.724114" style="fill: #262626; stroke: #262626; stroke-width: 1.875"/>
      </g>
     </g>
     <g id="text_27">
      <!-- 0.02 -->
      <g style="fill: #262626" transform="translate(902.421115 309.581907) scale(0.2475 -0.2475)">
       <use xlink:href="#ArialMT-30"/>
       <use xlink:href="#ArialMT-2e" x="55.615234"/>
       <use xlink:href="#ArialMT-30" x="83.398438"/>
       <use xlink:href="#ArialMT-32" x="139.013672"/>
      </g>
     </g>
    </g>
    <g id="ytick_7">
     <g id="line2d_37">
      <g>
       <use xlink:href="#mf69cf9c3bb" x="963.086935" y="32.526094" style="fill: #262626; stroke: #262626; stroke-width: 1.875"/>
      </g>
     </g>
     <g id="text_28">
      <!-- 0.10 -->
      <g style="fill: #262626" transform="translate(902.421115 41.383887) scale(0.2475 -0.2475)">
       <use xlink:href="#ArialMT-30"/>
       <use xlink:href="#ArialMT-2e" x="55.615234"/>
       <use xlink:href="#ArialMT-31" x="83.398438"/>
       <use xlink:href="#ArialMT-30" x="139.013672"/>
      </g>
     </g>
    </g>
   </g>
   <g id="PolyCollection_13">
    <defs>
     <path id="m6bb5639ef9" d="M 977.504784 -562.447885 
L 977.504784 -544.026165 
L 978.069083 -542.801649 
L 979.197682 -544.428006 
L 981.45488 -544.444 
L 985.969275 -542.383814 
L 994.998065 -541.170293 
L 1013.055645 -544.435003 
L 1049.170805 -539.546935 
L 1121.401125 -544.446999 
L 1265.861765 -542.796651 
L 1265.861765 -559.597012 
L 1265.861765 -559.597012 
L 1121.401125 -559.583017 
L 1049.170805 -560.799537 
L 1013.055645 -564.102232 
L 994.998065 -559.162184 
L 985.969275 -560.808533 
L 981.45488 -562.874717 
L 979.197682 -562.444887 
L 978.069083 -562.455882 
L 977.504784 -562.447885 
z
" style="stroke: #377eb8; stroke-opacity: 0.2; stroke-width: 1.5"/>
    </defs>
    <g clip-path="url(#pc67ab3ae73)">
     <use xlink:href="#m6bb5639ef9" x="0" y="868.013086" style="fill: #377eb8; fill-opacity: 0.2; stroke: #377eb8; stroke-opacity: 0.2; stroke-width: 1.5"/>
    </g>
   </g>
   <g id="PolyCollection_14">
    <defs>
     <path id="m86b7031e63" d="M 977.504784 -560.814531 
L 977.504784 -545.660519 
L 978.069083 -545.660519 
L 979.197682 -546.075355 
L 981.45488 -547.694715 
L 985.969275 -547.734699 
L 994.998065 -542.394809 
L 1013.055645 -544.433004 
L 1049.170805 -546.080353 
L 1121.401125 -545.659519 
L 1265.861765 -542.381815 
L 1265.861765 -562.442887 
L 1265.861765 -562.442887 
L 1121.401125 -561.209375 
L 1049.170805 -564.079241 
L 1013.055645 -562.850726 
L 994.998065 -560.824527 
L 985.969275 -564.073243 
L 981.45488 -567.354946 
L 979.197682 -562.434891 
L 978.069083 -564.073243 
L 977.504784 -560.814531 
z
" style="stroke: #377eb8; stroke-opacity: 0.2; stroke-width: 1.5"/>
    </defs>
    <g clip-path="url(#pc67ab3ae73)">
     <use xlink:href="#m86b7031e63" x="0" y="868.013086" style="fill: #377eb8; fill-opacity: 0.2; stroke: #377eb8; stroke-opacity: 0.2; stroke-width: 1.5"/>
    </g>
   </g>
   <g id="PolyCollection_15">
    <defs>
     <path id="m61577e4939" d="M 977.504784 -564.093235 
L 977.504784 -544.442001 
L 978.069083 -545.654521 
L 979.197682 -541.185287 
L 981.45488 -547.698714 
L 985.969275 -541.151301 
L 994.998065 -546.080353 
L 1013.055645 -545.649523 
L 1049.170805 -547.688718 
L 1121.401125 -547.295873 
L 1265.861765 -547.695715 
L 1265.861765 -567.327957 
L 1265.861765 -567.327957 
L 1121.401125 -564.097234 
L 1049.170805 -562.880714 
L 1013.055645 -564.069245 
L 994.998065 -564.064247 
L 985.969275 -559.182176 
L 981.45488 -565.720592 
L 979.197682 -560.811532 
L 978.069083 -564.075242 
L 977.504784 -564.093235 
z
" style="stroke: #377eb8; stroke-opacity: 0.2; stroke-width: 1.5"/>
    </defs>
    <g clip-path="url(#pc67ab3ae73)">
     <use xlink:href="#m61577e4939" x="0" y="868.013086" style="fill: #377eb8; fill-opacity: 0.2; stroke: #377eb8; stroke-opacity: 0.2; stroke-width: 1.5"/>
    </g>
   </g>
   <g id="PolyCollection_16">
    <defs>
     <path id="m1ed69eef82" d="M 977.504784 -568.991401 
L 977.504784 -546.07409 
L 978.069083 -554.258844 
L 979.197682 -550.984942 
L 981.45488 -547.711041 
L 985.969275 -552.621893 
L 994.998065 -547.711041 
L 1013.055645 -546.07409 
L 1049.170805 -547.301803 
L 1121.401125 -553.849606 
L 1265.861765 -547.711041 
L 1265.861765 -567.35445 
L 1265.861765 -567.35445 
L 1121.401125 -575.539204 
L 1049.170805 -569.400639 
L 1013.055645 -573.902254 
L 994.998065 -567.35445 
L 985.969275 -577.176155 
L 981.45488 -571.03759 
L 979.197682 -573.902254 
L 978.069083 -570.628352 
L 977.504784 -568.991401 
z
" style="stroke: #e41a1c; stroke-opacity: 0.2; stroke-width: 1.5"/>
    </defs>
    <g clip-path="url(#pc67ab3ae73)">
     <use xlink:href="#m1ed69eef82" x="0" y="868.013086" style="fill: #e41a1c; fill-opacity: 0.2; stroke: #e41a1c; stroke-opacity: 0.2; stroke-width: 1.5"/>
    </g>
   </g>
   <g id="PolyCollection_17">
    <defs>
     <path id="m905ee7a324" d="M 977.504784 -570.628352 
L 977.504784 -550.575705 
L 978.069083 -552.621893 
L 979.197682 -549.347992 
L 981.45488 -549.347992 
L 985.969275 -549.347992 
L 994.998065 -554.258844 
L 1013.055645 -552.621893 
L 1049.170805 -550.984942 
L 1121.401125 -553.849606 
L 1265.861765 -549.347992 
L 1265.861765 -572.265303 
L 1265.861765 -572.265303 
L 1121.401125 -570.628352 
L 1049.170805 -569.400639 
L 1013.055645 -572.265303 
L 994.998065 -574.311491 
L 985.969275 -570.628352 
L 981.45488 -572.265303 
L 979.197682 -572.265303 
L 978.069083 -574.311491 
L 977.504784 -570.628352 
z
" style="stroke: #e41a1c; stroke-opacity: 0.2; stroke-width: 1.5"/>
    </defs>
    <g clip-path="url(#pc67ab3ae73)">
     <use xlink:href="#m905ee7a324" x="0" y="868.013086" style="fill: #e41a1c; fill-opacity: 0.2; stroke: #e41a1c; stroke-opacity: 0.2; stroke-width: 1.5"/>
    </g>
   </g>
   <g id="PolyCollection_18">
    <defs>
     <path id="m1b47d9e67b" d="M 977.504784 -567.763688 
L 977.504784 -549.347992 
L 978.069083 -549.347992 
L 979.197682 -547.711041 
L 981.45488 -549.347992 
L 985.969275 -552.621893 
L 994.998065 -550.984942 
L 1013.055645 -552.621893 
L 1049.170805 -549.347992 
L 1121.401125 -548.938754 
L 1265.861765 -549.347992 
L 1265.861765 -566.126737 
L 1265.861765 -566.126737 
L 1121.401125 -568.991401 
L 1049.170805 -568.991401 
L 1013.055645 -570.628352 
L 994.998065 -568.991401 
L 985.969275 -573.902254 
L 981.45488 -571.03759 
L 979.197682 -571.03759 
L 978.069083 -567.35445 
L 977.504784 -567.763688 
z
" style="stroke: #e41a1c; stroke-opacity: 0.2; stroke-width: 1.5"/>
    </defs>
    <g clip-path="url(#pc67ab3ae73)">
     <use xlink:href="#m1b47d9e67b" x="0" y="868.013086" style="fill: #e41a1c; fill-opacity: 0.2; stroke: #e41a1c; stroke-opacity: 0.2; stroke-width: 1.5"/>
    </g>
   </g>
   <g id="line2d_38">
    <path d="M 963.086935 300.724114 
L 1280.279614 300.724114 
" clip-path="url(#pc67ab3ae73)" style="fill: none; stroke-dasharray: 2.25,3.7125; stroke-dashoffset: 0; stroke: #000000; stroke-width: 2.25"/>
   </g>
   <g id="line2d_39">
    <path d="M 977.504784 315.392317 
L 978.069083 315.404313 
L 979.197682 315.380322 
L 981.45488 315.390318 
L 985.969275 317.827355 
L 994.998065 318.661026 
L 1013.055645 313.746967 
L 1049.170805 320.296379 
L 1121.401125 313.752965 
L 1265.861765 317.013677 
" clip-path="url(#pc67ab3ae73)" style="fill: none; stroke-dasharray: 14.4,3.6,2.25,3.6; stroke-dashoffset: 0; stroke: #377eb8; stroke-width: 2.25"/>
   </g>
   <g id="line2d_40">
    <path d="M 977.504784 315.404313 
L 978.069083 315.38432 
L 979.197682 310.492254 
L 981.45488 312.115612 
L 985.969275 313.734972 
L 994.998065 317.019674 
L 1013.055645 313.768959 
L 1049.170805 313.748967 
L 1121.401125 314.562645 
L 1265.861765 317.053661 
" clip-path="url(#pc67ab3ae73)" style="fill: none; stroke-dasharray: 8.325,3.6; stroke-dashoffset: 0; stroke: #377eb8; stroke-width: 2.25"/>
   </g>
   <g id="line2d_41">
    <path d="M 977.504784 315.414309 
L 978.069083 315.382321 
L 979.197682 317.035668 
L 981.45488 313.748967 
L 985.969275 314.572641 
L 994.998065 313.730974 
L 1013.055645 313.758963 
L 1049.170805 312.125608 
L 1121.401125 312.127607 
L 1265.861765 312.12161 
" clip-path="url(#pc67ab3ae73)" style="fill: none; stroke: #377eb8; stroke-width: 2.25; stroke-linecap: round"/>
   </g>
   <g id="line2d_42">
    <path d="M 977.504784 310.48034 
L 978.069083 305.569488 
L 979.197682 308.024914 
L 981.45488 308.84339 
L 985.969275 301.477111 
L 994.998065 310.48034 
L 1013.055645 308.84339 
L 1049.170805 310.48034 
L 1121.401125 305.569488 
L 1265.861765 310.48034 
" clip-path="url(#pc67ab3ae73)" style="fill: none; stroke-dasharray: 25.6,6.4,4,6.4; stroke-dashoffset: 0; stroke: #e41a1c; stroke-width: 4"/>
   </g>
   <g id="line2d_43">
    <path d="M 977.504784 307.206439 
L 978.069083 304.751013 
L 979.197682 307.206439 
L 981.45488 305.569488 
L 985.969275 307.206439 
L 994.998065 303.932537 
L 1013.055645 303.932537 
L 1049.170805 307.206439 
L 1121.401125 307.206439 
L 1265.861765 309.661865 
" clip-path="url(#pc67ab3ae73)" style="fill: none; stroke-dasharray: 14.8,6.4; stroke-dashoffset: 0; stroke: #e41a1c; stroke-width: 4"/>
   </g>
   <g id="line2d_44">
    <path d="M 977.504784 311.298816 
L 978.069083 309.661865 
L 979.197682 307.206439 
L 981.45488 310.48034 
L 985.969275 307.206439 
L 994.998065 308.84339 
L 1013.055645 308.024914 
L 1049.170805 312.117291 
L 1121.401125 309.661865 
L 1265.861765 309.661865 
" clip-path="url(#pc67ab3ae73)" style="fill: none; stroke: #e41a1c; stroke-width: 4; stroke-linecap: round"/>
   </g>
   <g id="patch_10">
    <path d="M 963.086935 371.126094 
L 963.086935 32.526094 
" style="fill: none; stroke: #262626; stroke-width: 1.875; stroke-linejoin: miter; stroke-linecap: square"/>
   </g>
   <g id="patch_11">
    <path d="M 963.086935 371.126094 
L 1280.279614 371.126094 
" style="fill: none; stroke: #262626; stroke-width: 1.875; stroke-linejoin: miter; stroke-linecap: square"/>
   </g>
   <g id="text_29">
    <!-- Independent -->
    <g style="fill: #262626" transform="translate(1046.616946 26.526094) scale(0.27 -0.27)">
     <defs>
      <path id="ArialMT-64" d="M 2575 0 
L 2575 419 
Q 2259 -75 1647 -75 
Q 1250 -75 917 144 
Q 584 363 401 755 
Q 219 1147 219 1656 
Q 219 2153 384 2558 
Q 550 2963 881 3178 
Q 1213 3394 1622 3394 
Q 1922 3394 2156 3267 
Q 2391 3141 2538 2938 
L 2538 4581 
L 3097 4581 
L 3097 0 
L 2575 0 
z
M 797 1656 
Q 797 1019 1065 703 
Q 1334 388 1700 388 
Q 2069 388 2326 689 
Q 2584 991 2584 1609 
Q 2584 2291 2321 2609 
Q 2059 2928 1675 2928 
Q 1300 2928 1048 2622 
Q 797 2316 797 1656 
z
" transform="scale(0.015625)"/>
     </defs>
     <use xlink:href="#ArialMT-49"/>
     <use xlink:href="#ArialMT-6e" x="27.783203"/>
     <use xlink:href="#ArialMT-64" x="83.398438"/>
     <use xlink:href="#ArialMT-65" x="139.013672"/>
     <use xlink:href="#ArialMT-70" x="194.628906"/>
     <use xlink:href="#ArialMT-65" x="250.244141"/>
     <use xlink:href="#ArialMT-6e" x="305.859375"/>
     <use xlink:href="#ArialMT-64" x="361.474609"/>
     <use xlink:href="#ArialMT-65" x="417.089844"/>
     <use xlink:href="#ArialMT-6e" x="472.705078"/>
     <use xlink:href="#ArialMT-74" x="528.320312"/>
    </g>
   </g>
   <g id="text_30">
    <!-- C -->
    <g style="fill: #262626" transform="translate(963.086935 26.526094) scale(0.27 -0.27)">
     <defs>
      <path id="Arial-BoldMT-43" d="M 3397 1684 
L 4294 1400 
Q 4088 650 3608 286 
Q 3128 -78 2391 -78 
Q 1478 -78 890 545 
Q 303 1169 303 2250 
Q 303 3394 893 4026 
Q 1484 4659 2447 4659 
Q 3288 4659 3813 4163 
Q 4125 3869 4281 3319 
L 3366 3100 
Q 3284 3456 3026 3662 
Q 2769 3869 2400 3869 
Q 1891 3869 1573 3503 
Q 1256 3138 1256 2319 
Q 1256 1450 1568 1081 
Q 1881 713 2381 713 
Q 2750 713 3015 947 
Q 3281 1181 3397 1684 
z
" transform="scale(0.015625)"/>
     </defs>
     <use xlink:href="#Arial-BoldMT-43"/>
    </g>
   </g>
  </g>
  <g id="axes_4">
   <g id="patch_12">
    <path d="M 126.185602 796.986094 
L 443.378281 796.986094 
L 443.378281 458.386094 
L 126.185602 458.386094 
L 126.185602 796.986094 
z
" style="fill: none"/>
   </g>
   <g id="matplotlib.axis_7">
    <g id="xtick_10">
     <g id="line2d_45">
      <g>
       <use xlink:href="#mc438398ef9" x="140.744525" y="796.986094" style="fill: #262626; stroke: #262626; stroke-width: 1.875"/>
      </g>
     </g>
     <g id="text_31">
      <!-- 4 -->
      <g style="fill: #262626" transform="translate(133.862865 827.20168) scale(0.2475 -0.2475)">
       <use xlink:href="#ArialMT-34"/>
      </g>
     </g>
    </g>
    <g id="xtick_11">
     <g id="line2d_46">
      <g>
       <use xlink:href="#mc438398ef9" x="284.923016" y="796.986094" style="fill: #262626; stroke: #262626; stroke-width: 1.875"/>
      </g>
     </g>
     <g id="text_32">
      <!-- 2048 -->
      <g style="fill: #262626" transform="translate(257.396375 827.20168) scale(0.2475 -0.2475)">
       <use xlink:href="#ArialMT-32"/>
       <use xlink:href="#ArialMT-30" x="55.615234"/>
       <use xlink:href="#ArialMT-34" x="111.230469"/>
       <use xlink:href="#ArialMT-38" x="166.845703"/>
      </g>
     </g>
    </g>
    <g id="xtick_12">
     <g id="line2d_47">
      <g>
       <use xlink:href="#mc438398ef9" x="429.383656" y="796.986094" style="fill: #262626; stroke: #262626; stroke-width: 1.875"/>
      </g>
     </g>
     <g id="text_33">
      <!-- 4096 -->
      <g style="fill: #262626" transform="translate(401.857016 827.20168) scale(0.2475 -0.2475)">
       <use xlink:href="#ArialMT-34"/>
       <use xlink:href="#ArialMT-30" x="55.615234"/>
       <use xlink:href="#ArialMT-39" x="111.230469"/>
       <use xlink:href="#ArialMT-36" x="166.845703"/>
      </g>
     </g>
    </g>
    <g id="text_34">
     <!-- # of Variables -->
     <g style="fill: #262626" transform="translate(203.233504 855.446836) scale(0.27 -0.27)">
      <defs>
       <path id="ArialMT-23" d="M 322 -78 
L 594 1253 
L 66 1253 
L 66 1719 
L 688 1719 
L 919 2853 
L 66 2853 
L 66 3319 
L 1013 3319 
L 1284 4659 
L 1753 4659 
L 1481 3319 
L 2466 3319 
L 2738 4659 
L 3209 4659 
L 2938 3319 
L 3478 3319 
L 3478 2853 
L 2844 2853 
L 2609 1719 
L 3478 1719 
L 3478 1253 
L 2516 1253 
L 2244 -78 
L 1775 -78 
L 2044 1253 
L 1063 1253 
L 791 -78 
L 322 -78 
z
M 1156 1719 
L 2138 1719 
L 2372 2853 
L 1388 2853 
L 1156 1719 
z
" transform="scale(0.015625)"/>
       <path id="ArialMT-62" d="M 941 0 
L 419 0 
L 419 4581 
L 981 4581 
L 981 2947 
Q 1338 3394 1891 3394 
Q 2197 3394 2470 3270 
Q 2744 3147 2920 2923 
Q 3097 2700 3197 2384 
Q 3297 2069 3297 1709 
Q 3297 856 2875 390 
Q 2453 -75 1863 -75 
Q 1275 -75 941 416 
L 941 0 
z
M 934 1684 
Q 934 1088 1097 822 
Q 1363 388 1816 388 
Q 2184 388 2453 708 
Q 2722 1028 2722 1663 
Q 2722 2313 2464 2622 
Q 2206 2931 1841 2931 
Q 1472 2931 1203 2611 
Q 934 2291 934 1684 
z
" transform="scale(0.015625)"/>
      </defs>
      <use xlink:href="#ArialMT-23"/>
      <use xlink:href="#ArialMT-20" x="55.615234"/>
      <use xlink:href="#ArialMT-6f" x="83.398438"/>
      <use xlink:href="#ArialMT-66" x="139.013672"/>
      <use xlink:href="#ArialMT-20" x="166.796875"/>
      <use xlink:href="#ArialMT-56" x="194.580078"/>
      <use xlink:href="#ArialMT-61" x="253.904297"/>
      <use xlink:href="#ArialMT-72" x="309.519531"/>
      <use xlink:href="#ArialMT-69" x="342.820312"/>
      <use xlink:href="#ArialMT-61" x="365.037109"/>
      <use xlink:href="#ArialMT-62" x="420.652344"/>
      <use xlink:href="#ArialMT-6c" x="476.267578"/>
      <use xlink:href="#ArialMT-65" x="498.484375"/>
      <use xlink:href="#ArialMT-73" x="554.099609"/>
     </g>
    </g>
   </g>
   <g id="matplotlib.axis_8">
    <g id="ytick_8">
     <g id="line2d_48">
      <g>
       <use xlink:href="#mf69cf9c3bb" x="126.185602" y="794.801578" style="fill: #262626; stroke: #262626; stroke-width: 1.875"/>
      </g>
     </g>
     <g id="text_35">
      <!-- 0.00 -->
      <g style="fill: #262626" transform="translate(65.519781 803.659371) scale(0.2475 -0.2475)">
       <use xlink:href="#ArialMT-30"/>
       <use xlink:href="#ArialMT-2e" x="55.615234"/>
       <use xlink:href="#ArialMT-30" x="83.398438"/>
       <use xlink:href="#ArialMT-30" x="139.013672"/>
      </g>
     </g>
    </g>
    <g id="ytick_9">
     <g id="line2d_49">
      <g>
       <use xlink:href="#mf69cf9c3bb" x="126.185602" y="554.504803" style="fill: #262626; stroke: #262626; stroke-width: 1.875"/>
      </g>
     </g>
     <g id="text_36">
      <!-- 0.11 -->
      <g style="fill: #262626" transform="translate(67.345094 563.362596) scale(0.2475 -0.2475)">
       <use xlink:href="#ArialMT-30"/>
       <use xlink:href="#ArialMT-2e" x="55.615234"/>
       <use xlink:href="#ArialMT-31" x="83.398438"/>
       <use xlink:href="#ArialMT-31" x="131.638672"/>
      </g>
     </g>
    </g>
    <g id="text_37">
     <!-- Conditional Mutual Information -->
     <g style="fill: #262626" transform="translate(27.201094 810.773516) rotate(-90) scale(0.27 -0.27)">
      <use xlink:href="#ArialMT-43"/>
      <use xlink:href="#ArialMT-6f" x="72.216797"/>
      <use xlink:href="#ArialMT-6e" x="127.832031"/>
      <use xlink:href="#ArialMT-64" x="183.447266"/>
      <use xlink:href="#ArialMT-69" x="239.0625"/>
      <use xlink:href="#ArialMT-74" x="261.279297"/>
      <use xlink:href="#ArialMT-69" x="289.0625"/>
      <use xlink:href="#ArialMT-6f" x="311.279297"/>
      <use xlink:href="#ArialMT-6e" x="366.894531"/>
      <use xlink:href="#ArialMT-61" x="422.509766"/>
      <use xlink:href="#ArialMT-6c" x="478.125"/>
      <use xlink:href="#ArialMT-20" x="500.341797"/>
      <use xlink:href="#ArialMT-4d" x="528.125"/>
      <use xlink:href="#ArialMT-75" x="611.425781"/>
      <use xlink:href="#ArialMT-74" x="667.041016"/>
      <use xlink:href="#ArialMT-75" x="694.824219"/>
      <use xlink:href="#ArialMT-61" x="750.439453"/>
      <use xlink:href="#ArialMT-6c" x="806.054688"/>
      <use xlink:href="#ArialMT-20" x="828.271484"/>
      <use xlink:href="#ArialMT-49" x="856.054688"/>
      <use xlink:href="#ArialMT-6e" x="883.837891"/>
      <use xlink:href="#ArialMT-66" x="939.453125"/>
      <use xlink:href="#ArialMT-6f" x="967.236328"/>
      <use xlink:href="#ArialMT-72" x="1022.851562"/>
      <use xlink:href="#ArialMT-6d" x="1056.152344"/>
      <use xlink:href="#ArialMT-61" x="1139.453125"/>
      <use xlink:href="#ArialMT-74" x="1195.068359"/>
      <use xlink:href="#ArialMT-69" x="1222.851562"/>
      <use xlink:href="#ArialMT-6f" x="1245.068359"/>
      <use xlink:href="#ArialMT-6e" x="1300.683594"/>
     </g>
     <!-- for 4096 Samples -->
     <g style="fill: #262626" transform="translate(56.153531 733.490234) rotate(-90) scale(0.27 -0.27)">
      <use xlink:href="#ArialMT-66"/>
      <use xlink:href="#ArialMT-6f" x="27.783203"/>
      <use xlink:href="#ArialMT-72" x="83.398438"/>
      <use xlink:href="#ArialMT-20" x="116.699219"/>
      <use xlink:href="#ArialMT-34" x="144.482422"/>
      <use xlink:href="#ArialMT-30" x="200.097656"/>
      <use xlink:href="#ArialMT-39" x="255.712891"/>
      <use xlink:href="#ArialMT-36" x="311.328125"/>
      <use xlink:href="#ArialMT-20" x="366.943359"/>
      <use xlink:href="#ArialMT-53" x="394.726562"/>
      <use xlink:href="#ArialMT-61" x="461.425781"/>
      <use xlink:href="#ArialMT-6d" x="517.041016"/>
      <use xlink:href="#ArialMT-70" x="600.341797"/>
      <use xlink:href="#ArialMT-6c" x="655.957031"/>
      <use xlink:href="#ArialMT-65" x="678.173828"/>
      <use xlink:href="#ArialMT-73" x="733.789062"/>
     </g>
    </g>
   </g>
   <g id="PolyCollection_19">
    <defs>
     <path id="mde484031d1" d="M 140.603451 -73.211508 
L 140.603451 -73.211508 
L 141.16775 -73.211508 
L 142.296349 -73.211508 
L 144.553546 -73.211508 
L 149.067941 -73.211508 
L 158.096731 -73.211508 
L 176.154311 -73.211508 
L 212.269471 -73.211508 
L 284.499792 -73.211508 
L 428.960432 -73.211508 
L 428.960432 -73.211508 
L 428.960432 -73.211508 
L 284.499792 -73.211508 
L 212.269471 -73.211508 
L 176.154311 -73.211508 
L 158.096731 -73.211508 
L 149.067941 -73.211508 
L 144.553546 -73.211508 
L 142.296349 -73.211508 
L 141.16775 -73.211508 
L 140.603451 -73.211508 
z
" style="stroke: #4daf4a; stroke-opacity: 0.2; stroke-width: 1.5"/>
    </defs>
    <g clip-path="url(#p04c39b7d2b)">
     <use xlink:href="#mde484031d1" x="0" y="868.013086" style="fill: #4daf4a; fill-opacity: 0.2; stroke: #4daf4a; stroke-opacity: 0.2; stroke-width: 1.5"/>
    </g>
   </g>
   <g id="line2d_50">
    <path d="M 126.185602 554.504803 
L 443.378281 554.504803 
" clip-path="url(#p04c39b7d2b)" style="fill: none; stroke-dasharray: 2.25,3.7125; stroke-dashoffset: 0; stroke: #000000; stroke-width: 2.25"/>
   </g>
   <g id="line2d_51">
    <path d="M 140.603451 794.801578 
L 141.16775 794.801578 
L 142.296349 794.801578 
L 144.553546 794.801578 
L 149.067941 794.801578 
L 158.096731 794.801578 
L 176.154311 794.801578 
L 212.269471 794.801578 
L 284.499792 794.801578 
L 428.960432 794.801578 
" clip-path="url(#p04c39b7d2b)" style="fill: none; stroke: #4daf4a; stroke-width: 2.25; stroke-linecap: round"/>
   </g>
   <g id="patch_13">
    <path d="M 126.185602 796.986094 
L 126.185602 458.386094 
" style="fill: none; stroke: #262626; stroke-width: 1.875; stroke-linejoin: miter; stroke-linecap: square"/>
   </g>
   <g id="patch_14">
    <path d="M 126.185602 796.986094 
L 443.378281 796.986094 
" style="fill: none; stroke: #262626; stroke-width: 1.875; stroke-linejoin: miter; stroke-linecap: square"/>
   </g>
   <g id="text_38">
    <!-- D -->
    <g style="fill: #262626" transform="translate(126.185602 452.386094) scale(0.27 -0.27)">
     <defs>
      <path id="Arial-BoldMT-44" d="M 463 4581 
L 2153 4581 
Q 2725 4581 3025 4494 
Q 3428 4375 3715 4072 
Q 4003 3769 4153 3330 
Q 4303 2891 4303 2247 
Q 4303 1681 4163 1272 
Q 3991 772 3672 463 
Q 3431 228 3022 97 
Q 2716 0 2203 0 
L 463 0 
L 463 4581 
z
M 1388 3806 
L 1388 772 
L 2078 772 
Q 2466 772 2638 816 
Q 2863 872 3011 1006 
Q 3159 1141 3253 1448 
Q 3347 1756 3347 2288 
Q 3347 2819 3253 3103 
Q 3159 3388 2990 3547 
Q 2822 3706 2563 3763 
Q 2369 3806 1803 3806 
L 1388 3806 
z
" transform="scale(0.015625)"/>
     </defs>
     <use xlink:href="#Arial-BoldMT-44"/>
    </g>
   </g>
   <g id="legend_2">
    <g id="patch_15">
     <path d="M 1360.871508 532.145391 
L 1496.903695 532.145391 
Q 1501.853695 532.145391 1501.853695 527.195391 
L 1501.853695 459.651094 
Q 1501.853695 454.701094 1496.903695 454.701094 
L 1360.871508 454.701094 
Q 1355.921508 454.701094 1355.921508 459.651094 
L 1355.921508 527.195391 
Q 1355.921508 532.145391 1360.871508 532.145391 
z
" style="fill: #ffffff; opacity: 0.8"/>
    </g>
    <g id="line2d_52">
     <path d="M 1365.821508 473.65418 
L 1390.571508 473.65418 
L 1415.321508 473.65418 
" style="fill: none; stroke: #4daf4a; stroke-width: 5; stroke-linecap: round"/>
    </g>
    <g id="text_39">
     <!-- KSG -->
     <g style="fill: #262626" transform="translate(1435.121508 482.31668) scale(0.2475 -0.2475)">
      <use xlink:href="#ArialMT-4b"/>
      <use xlink:href="#ArialMT-53" x="66.699219"/>
      <use xlink:href="#ArialMT-47" x="133.398438"/>
     </g>
    </g>
    <g id="line2d_53">
     <path d="M 1365.821508 508.663828 
L 1390.571508 508.663828 
L 1415.321508 508.663828 
" style="fill: none; stroke-dasharray: 5,8.25; stroke-dashoffset: 0; stroke: #000000; stroke-width: 5"/>
    </g>
    <g id="text_40">
     <!-- Truth -->
     <g style="fill: #262626" transform="translate(1435.121508 517.326328) scale(0.2475 -0.2475)">
      <use xlink:href="#ArialMT-54"/>
      <use xlink:href="#ArialMT-72" x="57.333984"/>
      <use xlink:href="#ArialMT-75" x="90.634766"/>
      <use xlink:href="#ArialMT-74" x="146.25"/>
      <use xlink:href="#ArialMT-68" x="174.033203"/>
     </g>
    </g>
   </g>
  </g>
  <g id="axes_5">
   <g id="patch_16">
    <path d="M 544.636268 796.986094 
L 861.828948 796.986094 
L 861.828948 458.386094 
L 544.636268 458.386094 
L 544.636268 796.986094 
z
" style="fill: none"/>
   </g>
   <g id="matplotlib.axis_9">
    <g id="xtick_13">
     <g id="line2d_54">
      <g>
       <use xlink:href="#mc438398ef9" x="559.195192" y="796.986094" style="fill: #262626; stroke: #262626; stroke-width: 1.875"/>
      </g>
     </g>
     <g id="text_41">
      <!-- 4 -->
      <g style="fill: #262626" transform="translate(552.313532 827.20168) scale(0.2475 -0.2475)">
       <use xlink:href="#ArialMT-34"/>
      </g>
     </g>
    </g>
    <g id="xtick_14">
     <g id="line2d_55">
      <g>
       <use xlink:href="#mc438398ef9" x="703.373683" y="796.986094" style="fill: #262626; stroke: #262626; stroke-width: 1.875"/>
      </g>
     </g>
     <g id="text_42">
      <!-- 2048 -->
      <g style="fill: #262626" transform="translate(675.847042 827.20168) scale(0.2475 -0.2475)">
       <use xlink:href="#ArialMT-32"/>
       <use xlink:href="#ArialMT-30" x="55.615234"/>
       <use xlink:href="#ArialMT-34" x="111.230469"/>
       <use xlink:href="#ArialMT-38" x="166.845703"/>
      </g>
     </g>
    </g>
    <g id="xtick_15">
     <g id="line2d_56">
      <g>
       <use xlink:href="#mc438398ef9" x="847.834323" y="796.986094" style="fill: #262626; stroke: #262626; stroke-width: 1.875"/>
      </g>
     </g>
     <g id="text_43">
      <!-- 4096 -->
      <g style="fill: #262626" transform="translate(820.307682 827.20168) scale(0.2475 -0.2475)">
       <use xlink:href="#ArialMT-34"/>
       <use xlink:href="#ArialMT-30" x="55.615234"/>
       <use xlink:href="#ArialMT-39" x="111.230469"/>
       <use xlink:href="#ArialMT-36" x="166.845703"/>
      </g>
     </g>
    </g>
    <g id="text_44">
     <!-- # of Variables -->
     <g style="fill: #262626" transform="translate(621.68417 855.446836) scale(0.27 -0.27)">
      <use xlink:href="#ArialMT-23"/>
      <use xlink:href="#ArialMT-20" x="55.615234"/>
      <use xlink:href="#ArialMT-6f" x="83.398438"/>
      <use xlink:href="#ArialMT-66" x="139.013672"/>
      <use xlink:href="#ArialMT-20" x="166.796875"/>
      <use xlink:href="#ArialMT-56" x="194.580078"/>
      <use xlink:href="#ArialMT-61" x="253.904297"/>
      <use xlink:href="#ArialMT-72" x="309.519531"/>
      <use xlink:href="#ArialMT-69" x="342.820312"/>
      <use xlink:href="#ArialMT-61" x="365.037109"/>
      <use xlink:href="#ArialMT-62" x="420.652344"/>
      <use xlink:href="#ArialMT-6c" x="476.267578"/>
      <use xlink:href="#ArialMT-65" x="498.484375"/>
      <use xlink:href="#ArialMT-73" x="554.099609"/>
     </g>
    </g>
   </g>
   <g id="matplotlib.axis_10">
    <g id="ytick_10">
     <g id="line2d_57">
      <g>
       <use xlink:href="#mf69cf9c3bb" x="544.636268" y="795.381354" style="fill: #262626; stroke: #262626; stroke-width: 1.875"/>
      </g>
     </g>
     <g id="text_45">
      <!-- 0.00 -->
      <g style="fill: #262626" transform="translate(483.970448 804.239147) scale(0.2475 -0.2475)">
       <use xlink:href="#ArialMT-30"/>
       <use xlink:href="#ArialMT-2e" x="55.615234"/>
       <use xlink:href="#ArialMT-30" x="83.398438"/>
       <use xlink:href="#ArialMT-30" x="139.013672"/>
      </g>
     </g>
    </g>
    <g id="ytick_11">
     <g id="line2d_58">
      <g>
       <use xlink:href="#mf69cf9c3bb" x="544.636268" y="554.670454" style="fill: #262626; stroke: #262626; stroke-width: 1.875"/>
      </g>
     </g>
     <g id="text_46">
      <!-- 0.15 -->
      <g style="fill: #262626" transform="translate(483.970448 563.528247) scale(0.2475 -0.2475)">
       <defs>
        <path id="ArialMT-35" d="M 266 1200 
L 856 1250 
Q 922 819 1161 601 
Q 1400 384 1738 384 
Q 2144 384 2425 690 
Q 2706 997 2706 1503 
Q 2706 1984 2436 2262 
Q 2166 2541 1728 2541 
Q 1456 2541 1237 2417 
Q 1019 2294 894 2097 
L 366 2166 
L 809 4519 
L 3088 4519 
L 3088 3981 
L 1259 3981 
L 1013 2750 
Q 1425 3038 1878 3038 
Q 2478 3038 2890 2622 
Q 3303 2206 3303 1553 
Q 3303 931 2941 478 
Q 2500 -78 1738 -78 
Q 1113 -78 717 272 
Q 322 622 266 1200 
z
" transform="scale(0.015625)"/>
       </defs>
       <use xlink:href="#ArialMT-30"/>
       <use xlink:href="#ArialMT-2e" x="55.615234"/>
       <use xlink:href="#ArialMT-31" x="83.398438"/>
       <use xlink:href="#ArialMT-35" x="139.013672"/>
      </g>
     </g>
    </g>
   </g>
   <g id="PolyCollection_20">
    <defs>
     <path id="m8d7ff6ede8" d="M 559.054117 -72.631732 
L 559.054117 -72.631732 
L 559.618417 -72.631732 
L 560.747015 -72.631732 
L 563.004213 -72.631732 
L 567.518608 -72.631732 
L 576.547398 -72.631732 
L 594.604978 -72.631732 
L 630.720138 -72.631732 
L 702.950458 -72.631732 
L 847.411098 -72.631732 
L 847.411098 -72.631732 
L 847.411098 -72.631732 
L 702.950458 -72.631732 
L 630.720138 -72.647952 
L 594.604978 -72.631732 
L 576.547398 -72.631732 
L 567.518608 -72.631732 
L 563.004213 -72.631732 
L 560.747015 -72.631732 
L 559.618417 -72.631732 
L 559.054117 -72.631732 
z
" style="stroke: #4daf4a; stroke-opacity: 0.2; stroke-width: 1.5"/>
    </defs>
    <g clip-path="url(#pd78d6d87e0)">
     <use xlink:href="#m8d7ff6ede8" x="0" y="868.013086" style="fill: #4daf4a; fill-opacity: 0.2; stroke: #4daf4a; stroke-opacity: 0.2; stroke-width: 1.5"/>
    </g>
   </g>
   <g id="line2d_59">
    <path d="M 544.636268 554.670454 
L 861.828948 554.670454 
" clip-path="url(#pd78d6d87e0)" style="fill: none; stroke-dasharray: 2.25,3.7125; stroke-dashoffset: 0; stroke: #000000; stroke-width: 2.25"/>
   </g>
   <g id="line2d_60">
    <path d="M 559.054117 795.381354 
L 559.618417 795.381354 
L 560.747015 795.381354 
L 563.004213 795.381354 
L 567.518608 795.381354 
L 576.547398 795.381354 
L 594.604978 795.381354 
L 630.720138 795.381354 
L 702.950458 795.381354 
L 847.411098 795.381354 
" clip-path="url(#pd78d6d87e0)" style="fill: none; stroke: #4daf4a; stroke-width: 2.25; stroke-linecap: round"/>
   </g>
   <g id="patch_17">
    <path d="M 544.636268 796.986094 
L 544.636268 458.386094 
" style="fill: none; stroke: #262626; stroke-width: 1.875; stroke-linejoin: miter; stroke-linecap: square"/>
   </g>
   <g id="patch_18">
    <path d="M 544.636268 796.986094 
L 861.828948 796.986094 
" style="fill: none; stroke: #262626; stroke-width: 1.875; stroke-linejoin: miter; stroke-linecap: square"/>
   </g>
   <g id="text_47">
    <!-- E -->
    <g style="fill: #262626" transform="translate(544.636268 452.386094) scale(0.27 -0.27)">
     <defs>
      <path id="Arial-BoldMT-45" d="M 466 0 
L 466 4581 
L 3863 4581 
L 3863 3806 
L 1391 3806 
L 1391 2791 
L 3691 2791 
L 3691 2019 
L 1391 2019 
L 1391 772 
L 3950 772 
L 3950 0 
L 466 0 
z
" transform="scale(0.015625)"/>
     </defs>
     <use xlink:href="#Arial-BoldMT-45"/>
    </g>
   </g>
  </g>
  <g id="axes_6">
   <g id="patch_19">
    <path d="M 963.086935 796.986094 
L 1280.279614 796.986094 
L 1280.279614 458.386094 
L 963.086935 458.386094 
L 963.086935 796.986094 
z
" style="fill: none"/>
   </g>
   <g id="matplotlib.axis_11">
    <g id="xtick_16">
     <g id="line2d_61">
      <g>
       <use xlink:href="#mc438398ef9" x="977.645859" y="796.986094" style="fill: #262626; stroke: #262626; stroke-width: 1.875"/>
      </g>
     </g>
     <g id="text_48">
      <!-- 4 -->
      <g style="fill: #262626" transform="translate(970.764199 827.20168) scale(0.2475 -0.2475)">
       <use xlink:href="#ArialMT-34"/>
      </g>
     </g>
    </g>
    <g id="xtick_17">
     <g id="line2d_62">
      <g>
       <use xlink:href="#mc438398ef9" x="1121.824349" y="796.986094" style="fill: #262626; stroke: #262626; stroke-width: 1.875"/>
      </g>
     </g>
     <g id="text_49">
      <!-- 2048 -->
      <g style="fill: #262626" transform="translate(1094.297709 827.20168) scale(0.2475 -0.2475)">
       <use xlink:href="#ArialMT-32"/>
       <use xlink:href="#ArialMT-30" x="55.615234"/>
       <use xlink:href="#ArialMT-34" x="111.230469"/>
       <use xlink:href="#ArialMT-38" x="166.845703"/>
      </g>
     </g>
    </g>
    <g id="xtick_18">
     <g id="line2d_63">
      <g>
       <use xlink:href="#mc438398ef9" x="1266.28499" y="796.986094" style="fill: #262626; stroke: #262626; stroke-width: 1.875"/>
      </g>
     </g>
     <g id="text_50">
      <!-- 4096 -->
      <g style="fill: #262626" transform="translate(1238.758349 827.20168) scale(0.2475 -0.2475)">
       <use xlink:href="#ArialMT-34"/>
       <use xlink:href="#ArialMT-30" x="55.615234"/>
       <use xlink:href="#ArialMT-39" x="111.230469"/>
       <use xlink:href="#ArialMT-36" x="166.845703"/>
      </g>
     </g>
    </g>
    <g id="text_51">
     <!-- # of Variables -->
     <g style="fill: #262626" transform="translate(1040.134837 855.446836) scale(0.27 -0.27)">
      <use xlink:href="#ArialMT-23"/>
      <use xlink:href="#ArialMT-20" x="55.615234"/>
      <use xlink:href="#ArialMT-6f" x="83.398438"/>
      <use xlink:href="#ArialMT-66" x="139.013672"/>
      <use xlink:href="#ArialMT-20" x="166.796875"/>
      <use xlink:href="#ArialMT-56" x="194.580078"/>
      <use xlink:href="#ArialMT-61" x="253.904297"/>
      <use xlink:href="#ArialMT-72" x="309.519531"/>
      <use xlink:href="#ArialMT-69" x="342.820312"/>
      <use xlink:href="#ArialMT-61" x="365.037109"/>
      <use xlink:href="#ArialMT-62" x="420.652344"/>
      <use xlink:href="#ArialMT-6c" x="476.267578"/>
      <use xlink:href="#ArialMT-65" x="498.484375"/>
      <use xlink:href="#ArialMT-73" x="554.099609"/>
     </g>
    </g>
   </g>
   <g id="matplotlib.axis_12">
    <g id="ytick_12">
     <g id="line2d_64">
      <g>
       <use xlink:href="#mf69cf9c3bb" x="963.086935" y="793.633619" style="fill: #262626; stroke: #262626; stroke-width: 1.875"/>
      </g>
     </g>
     <g id="text_52">
      <!-- 0.00 -->
      <g style="fill: #262626" transform="translate(902.421115 802.491411) scale(0.2475 -0.2475)">
       <use xlink:href="#ArialMT-30"/>
       <use xlink:href="#ArialMT-2e" x="55.615234"/>
       <use xlink:href="#ArialMT-30" x="83.398438"/>
       <use xlink:href="#ArialMT-30" x="139.013672"/>
      </g>
     </g>
    </g>
    <g id="ytick_13">
     <g id="line2d_65">
      <g>
       <use xlink:href="#mf69cf9c3bb" x="963.086935" y="793.633619" style="fill: #262626; stroke: #262626; stroke-width: 1.875"/>
      </g>
     </g>
     <g id="text_53">
      <!-- 0.00 -->
      <g style="fill: #262626" transform="translate(902.421115 802.491411) scale(0.2475 -0.2475)">
       <use xlink:href="#ArialMT-30"/>
       <use xlink:href="#ArialMT-2e" x="55.615234"/>
       <use xlink:href="#ArialMT-30" x="83.398438"/>
       <use xlink:href="#ArialMT-30" x="139.013672"/>
      </g>
     </g>
    </g>
    <g id="ytick_14">
     <g id="line2d_66">
      <g>
       <use xlink:href="#mf69cf9c3bb" x="963.086935" y="458.386094" style="fill: #262626; stroke: #262626; stroke-width: 1.875"/>
      </g>
     </g>
     <g id="text_54">
      <!-- 0.10 -->
      <g style="fill: #262626" transform="translate(902.421115 467.243887) scale(0.2475 -0.2475)">
       <use xlink:href="#ArialMT-30"/>
       <use xlink:href="#ArialMT-2e" x="55.615234"/>
       <use xlink:href="#ArialMT-31" x="83.398438"/>
       <use xlink:href="#ArialMT-30" x="139.013672"/>
      </g>
     </g>
    </g>
   </g>
   <g id="PolyCollection_21">
    <defs>
     <path id="mb05ca0a329" d="M 977.504784 -74.379467 
L 977.504784 -74.379467 
L 978.069083 -74.379467 
L 979.197682 -74.379467 
L 981.45488 -74.379467 
L 985.969275 -74.379467 
L 994.998065 -74.379467 
L 1013.055645 -74.379467 
L 1049.170805 -74.379467 
L 1121.401125 -74.379467 
L 1265.861765 -74.379467 
L 1265.861765 -74.379467 
L 1265.861765 -74.379467 
L 1121.401125 -74.379467 
L 1049.170805 -74.379467 
L 1013.055645 -74.379467 
L 994.998065 -74.379467 
L 985.969275 -74.379467 
L 981.45488 -74.379467 
L 979.197682 -74.379467 
L 978.069083 -74.379467 
L 977.504784 -74.379467 
z
" style="stroke: #4daf4a; stroke-opacity: 0.2; stroke-width: 1.5"/>
    </defs>
    <g clip-path="url(#p6041f979b3)">
     <use xlink:href="#mb05ca0a329" x="0" y="868.013086" style="fill: #4daf4a; fill-opacity: 0.2; stroke: #4daf4a; stroke-opacity: 0.2; stroke-width: 1.5"/>
    </g>
   </g>
   <g id="PolyCollection_22">
    <defs>
     <path id="m7ec26f186c" d="M 977.504784 -74.384393 
L 977.504784 -74.379467 
L 978.069083 -74.379467 
L 979.197682 -74.379467 
L 981.45488 -74.379467 
L 985.969275 -74.379467 
L 994.998065 -74.379467 
L 1013.055645 -74.379467 
L 1049.170805 -74.379467 
L 1121.401125 -74.379467 
L 1265.861765 -74.379467 
L 1265.861765 -74.379467 
L 1265.861765 -74.379467 
L 1121.401125 -74.38347 
L 1049.170805 -74.379467 
L 1013.055645 -74.38524 
L 994.998065 -74.381846 
L 985.969275 -74.383455 
L 981.45488 -74.381544 
L 979.197682 -74.381626 
L 978.069083 -74.379467 
L 977.504784 -74.384393 
z
" style="stroke: #e41a1c; stroke-opacity: 0.2; stroke-width: 1.5"/>
    </defs>
    <g clip-path="url(#p6041f979b3)">
     <use xlink:href="#m7ec26f186c" x="0" y="868.013086" style="fill: #e41a1c; fill-opacity: 0.2; stroke: #e41a1c; stroke-opacity: 0.2; stroke-width: 1.5"/>
    </g>
   </g>
   <g id="line2d_67">
    <path d="M 963.086935 793.633619 
L 1280.279614 793.633619 
" clip-path="url(#p6041f979b3)" style="fill: none; stroke-dasharray: 2.25,3.7125; stroke-dashoffset: 0; stroke: #000000; stroke-width: 2.25"/>
   </g>
   <g id="line2d_68">
    <path d="M 977.504784 793.633619 
L 978.069083 793.633619 
L 979.197682 793.633619 
L 981.45488 793.633619 
L 985.969275 793.633619 
L 994.998065 793.633619 
L 1013.055645 793.633619 
L 1049.170805 793.633619 
L 1121.401125 793.633619 
L 1265.861765 793.633619 
" clip-path="url(#p6041f979b3)" style="fill: none; stroke: #4daf4a; stroke-width: 2.25; stroke-linecap: round"/>
   </g>
   <g id="line2d_69">
    <path d="M 977.504784 793.632561 
L 978.069083 793.633619 
L 979.197682 793.633619 
L 981.45488 793.633619 
L 985.969275 793.633619 
L 994.998065 793.633619 
L 1013.055645 793.631989 
L 1049.170805 793.633619 
L 1121.401125 793.630163 
L 1265.861765 793.633619 
" clip-path="url(#p6041f979b3)" style="fill: none; stroke: #e41a1c; stroke-width: 4; stroke-linecap: round"/>
   </g>
   <g id="patch_20">
    <path d="M 963.086935 796.986094 
L 963.086935 458.386094 
" style="fill: none; stroke: #262626; stroke-width: 1.875; stroke-linejoin: miter; stroke-linecap: square"/>
   </g>
   <g id="patch_21">
    <path d="M 963.086935 796.986094 
L 1280.279614 796.986094 
" style="fill: none; stroke: #262626; stroke-width: 1.875; stroke-linejoin: miter; stroke-linecap: square"/>
   </g>
   <g id="text_55">
    <!-- F -->
    <g style="fill: #262626" transform="translate(963.086935 452.386094) scale(0.27 -0.27)">
     <defs>
      <path id="Arial-BoldMT-46" d="M 472 0 
L 472 4581 
L 3613 4581 
L 3613 3806 
L 1397 3806 
L 1397 2722 
L 3309 2722 
L 3309 1947 
L 1397 1947 
L 1397 0 
L 472 0 
z
" transform="scale(0.015625)"/>
     </defs>
     <use xlink:href="#Arial-BoldMT-46"/>
    </g>
   </g>
  </g>
 </g>
 <defs>
  <clipPath id="p47aaf9914d">
   <rect x="126.185602" y="32.526094" width="317.192679" height="338.6"/>
  </clipPath>
  <clipPath id="pc94776ecf5">
   <rect x="544.636268" y="32.526094" width="317.192679" height="338.6"/>
  </clipPath>
  <clipPath id="pc67ab3ae73">
   <rect x="963.086935" y="32.526094" width="317.192679" height="338.6"/>
  </clipPath>
  <clipPath id="p04c39b7d2b">
   <rect x="126.185602" y="458.386094" width="317.192679" height="338.6"/>
  </clipPath>
  <clipPath id="pd78d6d87e0">
   <rect x="544.636268" y="458.386094" width="317.192679" height="338.6"/>
  </clipPath>
  <clipPath id="p6041f979b3">
   <rect x="963.086935" y="458.386094" width="317.192679" height="338.6"/>
  </clipPath>
 </defs>
</svg>
