<?xml version="1.0" encoding="utf-8" standalone="no"?>
<!DOCTYPE svg PUBLIC "-//W3C//DTD SVG 1.1//EN"
  "http://www.w3.org/Graphics/SVG/1.1/DTD/svg11.dtd">
<svg xmlns:xlink="http://www.w3.org/1999/xlink" width="1560.651645pt" height="868.013086pt" viewBox="0 0 1560.651645 868.013086" xmlns="http://www.w3.org/2000/svg" version="1.1">
 <metadata>
  <rdf:RDF xmlns:dc="http://purl.org/dc/elements/1.1/" xmlns:cc="http://creativecommons.org/ns#" xmlns:rdf="http://www.w3.org/1999/02/22-rdf-syntax-ns#">
   <cc:Work>
    <dc:type rdf:resource="http://purl.org/dc/dcmitype/StillImage"/>
    <dc:date>2024-03-17T12:14:16.188520</dc:date>
    <dc:format>image/svg+xml</dc:format>
    <dc:creator>
     <cc:Agent>
      <dc:title>Matplotlib v3.8.2, https://matplotlib.org/</dc:title>
     </cc:Agent>
    </dc:creator>
   </cc:Work>
  </rdf:RDF>
 </metadata>
 <defs>
  <style type="text/css">*{stroke-linejoin: round; stroke-linecap: butt}</style>
 </defs>
 <g id="figure_1">
  <g id="patch_1">
   <path d="M 0 868.013086 
L 1560.651645 868.013086 
L 1560.651645 0 
L 0 0 
L 0 868.013086 
z
" style="fill: none"/>
  </g>
  <g id="axes_1">
   <g id="patch_2">
    <path d="M 126.185602 371.126094 
L 443.378363 371.126094 
L 443.378363 32.526094 
L 126.185602 32.526094 
L 126.185602 371.126094 
z
" style="fill: none"/>
   </g>
   <g id="matplotlib.axis_1">
    <g id="xtick_1">
     <g id="line2d_1">
      <defs>
       <path id="m0adaad07cf" d="M 0 0 
L 0 9 
" style="stroke: #262626; stroke-width: 1.875"/>
      </defs>
      <g>
       <use xlink:href="#m0adaad07cf" x="140.744529" y="371.126094" style="fill: #262626; stroke: #262626; stroke-width: 1.875"/>
      </g>
     </g>
     <g id="text_1">
      <!-- 4 -->
      <g style="fill: #262626" transform="translate(133.862869 401.34168) scale(0.2475 -0.2475)">
       <defs>
        <path id="ArialMT-34" d="M 2069 0 
L 2069 1097 
L 81 1097 
L 81 1613 
L 2172 4581 
L 2631 4581 
L 2631 1613 
L 3250 1613 
L 3250 1097 
L 2631 1097 
L 2631 0 
L 2069 0 
z
M 2069 1613 
L 2069 3678 
L 634 1613 
L 2069 1613 
z
" transform="scale(0.015625)"/>
       </defs>
       <use xlink:href="#ArialMT-34"/>
      </g>
     </g>
    </g>
    <g id="xtick_2">
     <g id="line2d_2">
      <g>
       <use xlink:href="#m0adaad07cf" x="284.923057" y="371.126094" style="fill: #262626; stroke: #262626; stroke-width: 1.875"/>
      </g>
     </g>
     <g id="text_2">
      <!-- 2048 -->
      <g style="fill: #262626" transform="translate(257.396417 401.34168) scale(0.2475 -0.2475)">
       <defs>
        <path id="ArialMT-32" d="M 3222 541 
L 3222 0 
L 194 0 
Q 188 203 259 391 
Q 375 700 629 1000 
Q 884 1300 1366 1694 
Q 2113 2306 2375 2664 
Q 2638 3022 2638 3341 
Q 2638 3675 2398 3904 
Q 2159 4134 1775 4134 
Q 1369 4134 1125 3890 
Q 881 3647 878 3216 
L 300 3275 
Q 359 3922 746 4261 
Q 1134 4600 1788 4600 
Q 2447 4600 2831 4234 
Q 3216 3869 3216 3328 
Q 3216 3053 3103 2787 
Q 2991 2522 2730 2228 
Q 2469 1934 1863 1422 
Q 1356 997 1212 845 
Q 1069 694 975 541 
L 3222 541 
z
" transform="scale(0.015625)"/>
        <path id="ArialMT-30" d="M 266 2259 
Q 266 3072 433 3567 
Q 600 4063 929 4331 
Q 1259 4600 1759 4600 
Q 2128 4600 2406 4451 
Q 2684 4303 2865 4023 
Q 3047 3744 3150 3342 
Q 3253 2941 3253 2259 
Q 3253 1453 3087 958 
Q 2922 463 2592 192 
Q 2263 -78 1759 -78 
Q 1097 -78 719 397 
Q 266 969 266 2259 
z
M 844 2259 
Q 844 1131 1108 757 
Q 1372 384 1759 384 
Q 2147 384 2411 759 
Q 2675 1134 2675 2259 
Q 2675 3391 2411 3762 
Q 2147 4134 1753 4134 
Q 1366 4134 1134 3806 
Q 844 3388 844 2259 
z
" transform="scale(0.015625)"/>
        <path id="ArialMT-38" d="M 1131 2484 
Q 781 2613 612 2850 
Q 444 3088 444 3419 
Q 444 3919 803 4259 
Q 1163 4600 1759 4600 
Q 2359 4600 2725 4251 
Q 3091 3903 3091 3403 
Q 3091 3084 2923 2848 
Q 2756 2613 2416 2484 
Q 2838 2347 3058 2040 
Q 3278 1734 3278 1309 
Q 3278 722 2862 322 
Q 2447 -78 1769 -78 
Q 1091 -78 675 323 
Q 259 725 259 1325 
Q 259 1772 486 2073 
Q 713 2375 1131 2484 
z
M 1019 3438 
Q 1019 3113 1228 2906 
Q 1438 2700 1772 2700 
Q 2097 2700 2305 2904 
Q 2513 3109 2513 3406 
Q 2513 3716 2298 3927 
Q 2084 4138 1766 4138 
Q 1444 4138 1231 3931 
Q 1019 3725 1019 3438 
z
M 838 1322 
Q 838 1081 952 856 
Q 1066 631 1291 507 
Q 1516 384 1775 384 
Q 2178 384 2440 643 
Q 2703 903 2703 1303 
Q 2703 1709 2433 1975 
Q 2163 2241 1756 2241 
Q 1359 2241 1098 1978 
Q 838 1716 838 1322 
z
" transform="scale(0.015625)"/>
       </defs>
       <use xlink:href="#ArialMT-32"/>
       <use xlink:href="#ArialMT-30" x="55.615234"/>
       <use xlink:href="#ArialMT-34" x="111.230469"/>
       <use xlink:href="#ArialMT-38" x="166.845703"/>
      </g>
     </g>
    </g>
    <g id="xtick_3">
     <g id="line2d_3">
      <g>
       <use xlink:href="#m0adaad07cf" x="429.383735" y="371.126094" style="fill: #262626; stroke: #262626; stroke-width: 1.875"/>
      </g>
     </g>
     <g id="text_3">
      <!-- 4096 -->
      <g style="fill: #262626" transform="translate(401.857095 401.34168) scale(0.2475 -0.2475)">
       <defs>
        <path id="ArialMT-39" d="M 350 1059 
L 891 1109 
Q 959 728 1153 556 
Q 1347 384 1650 384 
Q 1909 384 2104 503 
Q 2300 622 2425 820 
Q 2550 1019 2634 1356 
Q 2719 1694 2719 2044 
Q 2719 2081 2716 2156 
Q 2547 1888 2255 1720 
Q 1963 1553 1622 1553 
Q 1053 1553 659 1965 
Q 266 2378 266 3053 
Q 266 3750 677 4175 
Q 1088 4600 1706 4600 
Q 2153 4600 2523 4359 
Q 2894 4119 3086 3673 
Q 3278 3228 3278 2384 
Q 3278 1506 3087 986 
Q 2897 466 2520 194 
Q 2144 -78 1638 -78 
Q 1100 -78 759 220 
Q 419 519 350 1059 
z
M 2653 3081 
Q 2653 3566 2395 3850 
Q 2138 4134 1775 4134 
Q 1400 4134 1122 3828 
Q 844 3522 844 3034 
Q 844 2597 1108 2323 
Q 1372 2050 1759 2050 
Q 2150 2050 2401 2323 
Q 2653 2597 2653 3081 
z
" transform="scale(0.015625)"/>
        <path id="ArialMT-36" d="M 3184 3459 
L 2625 3416 
Q 2550 3747 2413 3897 
Q 2184 4138 1850 4138 
Q 1581 4138 1378 3988 
Q 1113 3794 959 3422 
Q 806 3050 800 2363 
Q 1003 2672 1297 2822 
Q 1591 2972 1913 2972 
Q 2475 2972 2870 2558 
Q 3266 2144 3266 1488 
Q 3266 1056 3080 686 
Q 2894 316 2569 119 
Q 2244 -78 1831 -78 
Q 1128 -78 684 439 
Q 241 956 241 2144 
Q 241 3472 731 4075 
Q 1159 4600 1884 4600 
Q 2425 4600 2770 4297 
Q 3116 3994 3184 3459 
z
M 888 1484 
Q 888 1194 1011 928 
Q 1134 663 1356 523 
Q 1578 384 1822 384 
Q 2178 384 2434 671 
Q 2691 959 2691 1453 
Q 2691 1928 2437 2201 
Q 2184 2475 1800 2475 
Q 1419 2475 1153 2201 
Q 888 1928 888 1484 
z
" transform="scale(0.015625)"/>
       </defs>
       <use xlink:href="#ArialMT-34"/>
       <use xlink:href="#ArialMT-30" x="55.615234"/>
       <use xlink:href="#ArialMT-39" x="111.230469"/>
       <use xlink:href="#ArialMT-36" x="166.845703"/>
      </g>
     </g>
    </g>
   </g>
   <g id="matplotlib.axis_2">
    <g id="ytick_1">
     <g id="line2d_4">
      <defs>
       <path id="m359035b90c" d="M 0 0 
L -9 0 
" style="stroke: #262626; stroke-width: 1.875"/>
      </defs>
      <g>
       <use xlink:href="#m359035b90c" x="126.185602" y="368.941578" style="fill: #262626; stroke: #262626; stroke-width: 1.875"/>
      </g>
     </g>
     <g id="text_4">
      <!-- 0.00 -->
      <g style="fill: #262626" transform="translate(65.519781 377.799371) scale(0.2475 -0.2475)">
       <defs>
        <path id="ArialMT-2e" d="M 581 0 
L 581 641 
L 1222 641 
L 1222 0 
L 581 0 
z
" transform="scale(0.015625)"/>
       </defs>
       <use xlink:href="#ArialMT-30"/>
       <use xlink:href="#ArialMT-2e" x="55.615234"/>
       <use xlink:href="#ArialMT-30" x="83.398438"/>
       <use xlink:href="#ArialMT-30" x="139.013672"/>
      </g>
     </g>
    </g>
    <g id="ytick_2">
     <g id="line2d_5">
      <g>
       <use xlink:href="#m359035b90c" x="126.185602" y="128.644803" style="fill: #262626; stroke: #262626; stroke-width: 1.875"/>
      </g>
     </g>
     <g id="text_5">
      <!-- 0.11 -->
      <g style="fill: #262626" transform="translate(67.345094 137.502596) scale(0.2475 -0.2475)">
       <defs>
        <path id="ArialMT-31" d="M 2384 0 
L 1822 0 
L 1822 3584 
Q 1619 3391 1289 3197 
Q 959 3003 697 2906 
L 697 3450 
Q 1169 3672 1522 3987 
Q 1875 4303 2022 4600 
L 2384 4600 
L 2384 0 
z
" transform="scale(0.015625)"/>
       </defs>
       <use xlink:href="#ArialMT-30"/>
       <use xlink:href="#ArialMT-2e" x="55.615234"/>
       <use xlink:href="#ArialMT-31" x="83.398438"/>
       <use xlink:href="#ArialMT-31" x="131.638672"/>
      </g>
     </g>
    </g>
    <g id="text_6">
     <!-- Conditional Mutual Information -->
     <g style="fill: #262626" transform="translate(27.201094 384.913516) rotate(-90) scale(0.27 -0.27)">
      <defs>
       <path id="ArialMT-43" d="M 3763 1606 
L 4369 1453 
Q 4178 706 3683 314 
Q 3188 -78 2472 -78 
Q 1731 -78 1267 223 
Q 803 525 561 1097 
Q 319 1669 319 2325 
Q 319 3041 592 3573 
Q 866 4106 1370 4382 
Q 1875 4659 2481 4659 
Q 3169 4659 3637 4309 
Q 4106 3959 4291 3325 
L 3694 3184 
Q 3534 3684 3231 3912 
Q 2928 4141 2469 4141 
Q 1941 4141 1586 3887 
Q 1231 3634 1087 3207 
Q 944 2781 944 2328 
Q 944 1744 1114 1308 
Q 1284 872 1643 656 
Q 2003 441 2422 441 
Q 2931 441 3284 734 
Q 3638 1028 3763 1606 
z
" transform="scale(0.015625)"/>
       <path id="ArialMT-6f" d="M 213 1659 
Q 213 2581 725 3025 
Q 1153 3394 1769 3394 
Q 2453 3394 2887 2945 
Q 3322 2497 3322 1706 
Q 3322 1066 3130 698 
Q 2938 331 2570 128 
Q 2203 -75 1769 -75 
Q 1072 -75 642 372 
Q 213 819 213 1659 
z
M 791 1659 
Q 791 1022 1069 705 
Q 1347 388 1769 388 
Q 2188 388 2466 706 
Q 2744 1025 2744 1678 
Q 2744 2294 2464 2611 
Q 2184 2928 1769 2928 
Q 1347 2928 1069 2612 
Q 791 2297 791 1659 
z
" transform="scale(0.015625)"/>
       <path id="ArialMT-6e" d="M 422 0 
L 422 3319 
L 928 3319 
L 928 2847 
Q 1294 3394 1984 3394 
Q 2284 3394 2536 3286 
Q 2788 3178 2913 3003 
Q 3038 2828 3088 2588 
Q 3119 2431 3119 2041 
L 3119 0 
L 2556 0 
L 2556 2019 
Q 2556 2363 2490 2533 
Q 2425 2703 2258 2804 
Q 2091 2906 1866 2906 
Q 1506 2906 1245 2678 
Q 984 2450 984 1813 
L 984 0 
L 422 0 
z
" transform="scale(0.015625)"/>
       <path id="ArialMT-64" d="M 2575 0 
L 2575 419 
Q 2259 -75 1647 -75 
Q 1250 -75 917 144 
Q 584 363 401 755 
Q 219 1147 219 1656 
Q 219 2153 384 2558 
Q 550 2963 881 3178 
Q 1213 3394 1622 3394 
Q 1922 3394 2156 3267 
Q 2391 3141 2538 2938 
L 2538 4581 
L 3097 4581 
L 3097 0 
L 2575 0 
z
M 797 1656 
Q 797 1019 1065 703 
Q 1334 388 1700 388 
Q 2069 388 2326 689 
Q 2584 991 2584 1609 
Q 2584 2291 2321 2609 
Q 2059 2928 1675 2928 
Q 1300 2928 1048 2622 
Q 797 2316 797 1656 
z
" transform="scale(0.015625)"/>
       <path id="ArialMT-69" d="M 425 3934 
L 425 4581 
L 988 4581 
L 988 3934 
L 425 3934 
z
M 425 0 
L 425 3319 
L 988 3319 
L 988 0 
L 425 0 
z
" transform="scale(0.015625)"/>
       <path id="ArialMT-74" d="M 1650 503 
L 1731 6 
Q 1494 -44 1306 -44 
Q 1000 -44 831 53 
Q 663 150 594 308 
Q 525 466 525 972 
L 525 2881 
L 113 2881 
L 113 3319 
L 525 3319 
L 525 4141 
L 1084 4478 
L 1084 3319 
L 1650 3319 
L 1650 2881 
L 1084 2881 
L 1084 941 
Q 1084 700 1114 631 
Q 1144 563 1211 522 
Q 1278 481 1403 481 
Q 1497 481 1650 503 
z
" transform="scale(0.015625)"/>
       <path id="ArialMT-61" d="M 2588 409 
Q 2275 144 1986 34 
Q 1697 -75 1366 -75 
Q 819 -75 525 192 
Q 231 459 231 875 
Q 231 1119 342 1320 
Q 453 1522 633 1644 
Q 813 1766 1038 1828 
Q 1203 1872 1538 1913 
Q 2219 1994 2541 2106 
Q 2544 2222 2544 2253 
Q 2544 2597 2384 2738 
Q 2169 2928 1744 2928 
Q 1347 2928 1158 2789 
Q 969 2650 878 2297 
L 328 2372 
Q 403 2725 575 2942 
Q 747 3159 1072 3276 
Q 1397 3394 1825 3394 
Q 2250 3394 2515 3294 
Q 2781 3194 2906 3042 
Q 3031 2891 3081 2659 
Q 3109 2516 3109 2141 
L 3109 1391 
Q 3109 606 3145 398 
Q 3181 191 3288 0 
L 2700 0 
Q 2613 175 2588 409 
z
M 2541 1666 
Q 2234 1541 1622 1453 
Q 1275 1403 1131 1340 
Q 988 1278 909 1158 
Q 831 1038 831 891 
Q 831 666 1001 516 
Q 1172 366 1500 366 
Q 1825 366 2078 508 
Q 2331 650 2450 897 
Q 2541 1088 2541 1459 
L 2541 1666 
z
" transform="scale(0.015625)"/>
       <path id="ArialMT-6c" d="M 409 0 
L 409 4581 
L 972 4581 
L 972 0 
L 409 0 
z
" transform="scale(0.015625)"/>
       <path id="ArialMT-20" transform="scale(0.015625)"/>
       <path id="ArialMT-4d" d="M 475 0 
L 475 4581 
L 1388 4581 
L 2472 1338 
Q 2622 884 2691 659 
Q 2769 909 2934 1394 
L 4031 4581 
L 4847 4581 
L 4847 0 
L 4263 0 
L 4263 3834 
L 2931 0 
L 2384 0 
L 1059 3900 
L 1059 0 
L 475 0 
z
" transform="scale(0.015625)"/>
       <path id="ArialMT-75" d="M 2597 0 
L 2597 488 
Q 2209 -75 1544 -75 
Q 1250 -75 995 37 
Q 741 150 617 320 
Q 494 491 444 738 
Q 409 903 409 1263 
L 409 3319 
L 972 3319 
L 972 1478 
Q 972 1038 1006 884 
Q 1059 663 1231 536 
Q 1403 409 1656 409 
Q 1909 409 2131 539 
Q 2353 669 2445 892 
Q 2538 1116 2538 1541 
L 2538 3319 
L 3100 3319 
L 3100 0 
L 2597 0 
z
" transform="scale(0.015625)"/>
       <path id="ArialMT-49" d="M 597 0 
L 597 4581 
L 1203 4581 
L 1203 0 
L 597 0 
z
" transform="scale(0.015625)"/>
       <path id="ArialMT-66" d="M 556 0 
L 556 2881 
L 59 2881 
L 59 3319 
L 556 3319 
L 556 3672 
Q 556 4006 616 4169 
Q 697 4388 901 4523 
Q 1106 4659 1475 4659 
Q 1713 4659 2000 4603 
L 1916 4113 
Q 1741 4144 1584 4144 
Q 1328 4144 1222 4034 
Q 1116 3925 1116 3625 
L 1116 3319 
L 1763 3319 
L 1763 2881 
L 1116 2881 
L 1116 0 
L 556 0 
z
" transform="scale(0.015625)"/>
       <path id="ArialMT-72" d="M 416 0 
L 416 3319 
L 922 3319 
L 922 2816 
Q 1116 3169 1280 3281 
Q 1444 3394 1641 3394 
Q 1925 3394 2219 3213 
L 2025 2691 
Q 1819 2813 1613 2813 
Q 1428 2813 1281 2702 
Q 1134 2591 1072 2394 
Q 978 2094 978 1738 
L 978 0 
L 416 0 
z
" transform="scale(0.015625)"/>
       <path id="ArialMT-6d" d="M 422 0 
L 422 3319 
L 925 3319 
L 925 2853 
Q 1081 3097 1340 3245 
Q 1600 3394 1931 3394 
Q 2300 3394 2536 3241 
Q 2772 3088 2869 2813 
Q 3263 3394 3894 3394 
Q 4388 3394 4653 3120 
Q 4919 2847 4919 2278 
L 4919 0 
L 4359 0 
L 4359 2091 
Q 4359 2428 4304 2576 
Q 4250 2725 4106 2815 
Q 3963 2906 3769 2906 
Q 3419 2906 3187 2673 
Q 2956 2441 2956 1928 
L 2956 0 
L 2394 0 
L 2394 2156 
Q 2394 2531 2256 2718 
Q 2119 2906 1806 2906 
Q 1569 2906 1367 2781 
Q 1166 2656 1075 2415 
Q 984 2175 984 1722 
L 984 0 
L 422 0 
z
" transform="scale(0.015625)"/>
      </defs>
      <use xlink:href="#ArialMT-43"/>
      <use xlink:href="#ArialMT-6f" x="72.216797"/>
      <use xlink:href="#ArialMT-6e" x="127.832031"/>
      <use xlink:href="#ArialMT-64" x="183.447266"/>
      <use xlink:href="#ArialMT-69" x="239.0625"/>
      <use xlink:href="#ArialMT-74" x="261.279297"/>
      <use xlink:href="#ArialMT-69" x="289.0625"/>
      <use xlink:href="#ArialMT-6f" x="311.279297"/>
      <use xlink:href="#ArialMT-6e" x="366.894531"/>
      <use xlink:href="#ArialMT-61" x="422.509766"/>
      <use xlink:href="#ArialMT-6c" x="478.125"/>
      <use xlink:href="#ArialMT-20" x="500.341797"/>
      <use xlink:href="#ArialMT-4d" x="528.125"/>
      <use xlink:href="#ArialMT-75" x="611.425781"/>
      <use xlink:href="#ArialMT-74" x="667.041016"/>
      <use xlink:href="#ArialMT-75" x="694.824219"/>
      <use xlink:href="#ArialMT-61" x="750.439453"/>
      <use xlink:href="#ArialMT-6c" x="806.054688"/>
      <use xlink:href="#ArialMT-20" x="828.271484"/>
      <use xlink:href="#ArialMT-49" x="856.054688"/>
      <use xlink:href="#ArialMT-6e" x="883.837891"/>
      <use xlink:href="#ArialMT-66" x="939.453125"/>
      <use xlink:href="#ArialMT-6f" x="967.236328"/>
      <use xlink:href="#ArialMT-72" x="1022.851562"/>
      <use xlink:href="#ArialMT-6d" x="1056.152344"/>
      <use xlink:href="#ArialMT-61" x="1139.453125"/>
      <use xlink:href="#ArialMT-74" x="1195.068359"/>
      <use xlink:href="#ArialMT-69" x="1222.851562"/>
      <use xlink:href="#ArialMT-6f" x="1245.068359"/>
      <use xlink:href="#ArialMT-6e" x="1300.683594"/>
     </g>
     <!-- for 4096 Samples -->
     <g style="fill: #262626" transform="translate(56.153531 307.630234) rotate(-90) scale(0.27 -0.27)">
      <defs>
       <path id="ArialMT-53" d="M 288 1472 
L 859 1522 
Q 900 1178 1048 958 
Q 1197 738 1509 602 
Q 1822 466 2213 466 
Q 2559 466 2825 569 
Q 3091 672 3220 851 
Q 3350 1031 3350 1244 
Q 3350 1459 3225 1620 
Q 3100 1781 2813 1891 
Q 2628 1963 1997 2114 
Q 1366 2266 1113 2400 
Q 784 2572 623 2826 
Q 463 3081 463 3397 
Q 463 3744 659 4045 
Q 856 4347 1234 4503 
Q 1613 4659 2075 4659 
Q 2584 4659 2973 4495 
Q 3363 4331 3572 4012 
Q 3781 3694 3797 3291 
L 3216 3247 
Q 3169 3681 2898 3903 
Q 2628 4125 2100 4125 
Q 1550 4125 1298 3923 
Q 1047 3722 1047 3438 
Q 1047 3191 1225 3031 
Q 1400 2872 2139 2705 
Q 2878 2538 3153 2413 
Q 3553 2228 3743 1945 
Q 3934 1663 3934 1294 
Q 3934 928 3725 604 
Q 3516 281 3123 101 
Q 2731 -78 2241 -78 
Q 1619 -78 1198 103 
Q 778 284 539 648 
Q 300 1013 288 1472 
z
" transform="scale(0.015625)"/>
       <path id="ArialMT-70" d="M 422 -1272 
L 422 3319 
L 934 3319 
L 934 2888 
Q 1116 3141 1344 3267 
Q 1572 3394 1897 3394 
Q 2322 3394 2647 3175 
Q 2972 2956 3137 2557 
Q 3303 2159 3303 1684 
Q 3303 1175 3120 767 
Q 2938 359 2589 142 
Q 2241 -75 1856 -75 
Q 1575 -75 1351 44 
Q 1128 163 984 344 
L 984 -1272 
L 422 -1272 
z
M 931 1641 
Q 931 1000 1190 694 
Q 1450 388 1819 388 
Q 2194 388 2461 705 
Q 2728 1022 2728 1688 
Q 2728 2322 2467 2637 
Q 2206 2953 1844 2953 
Q 1484 2953 1207 2617 
Q 931 2281 931 1641 
z
" transform="scale(0.015625)"/>
       <path id="ArialMT-65" d="M 2694 1069 
L 3275 997 
Q 3138 488 2766 206 
Q 2394 -75 1816 -75 
Q 1088 -75 661 373 
Q 234 822 234 1631 
Q 234 2469 665 2931 
Q 1097 3394 1784 3394 
Q 2450 3394 2872 2941 
Q 3294 2488 3294 1666 
Q 3294 1616 3291 1516 
L 816 1516 
Q 847 969 1125 678 
Q 1403 388 1819 388 
Q 2128 388 2347 550 
Q 2566 713 2694 1069 
z
M 847 1978 
L 2700 1978 
Q 2663 2397 2488 2606 
Q 2219 2931 1791 2931 
Q 1403 2931 1139 2672 
Q 875 2413 847 1978 
z
" transform="scale(0.015625)"/>
       <path id="ArialMT-73" d="M 197 991 
L 753 1078 
Q 800 744 1014 566 
Q 1228 388 1613 388 
Q 2000 388 2187 545 
Q 2375 703 2375 916 
Q 2375 1106 2209 1216 
Q 2094 1291 1634 1406 
Q 1016 1563 777 1677 
Q 538 1791 414 1992 
Q 291 2194 291 2438 
Q 291 2659 392 2848 
Q 494 3038 669 3163 
Q 800 3259 1026 3326 
Q 1253 3394 1513 3394 
Q 1903 3394 2198 3281 
Q 2494 3169 2634 2976 
Q 2775 2784 2828 2463 
L 2278 2388 
Q 2241 2644 2061 2787 
Q 1881 2931 1553 2931 
Q 1166 2931 1000 2803 
Q 834 2675 834 2503 
Q 834 2394 903 2306 
Q 972 2216 1119 2156 
Q 1203 2125 1616 2013 
Q 2213 1853 2448 1751 
Q 2684 1650 2818 1456 
Q 2953 1263 2953 975 
Q 2953 694 2789 445 
Q 2625 197 2315 61 
Q 2006 -75 1616 -75 
Q 969 -75 630 194 
Q 291 463 197 991 
z
" transform="scale(0.015625)"/>
      </defs>
      <use xlink:href="#ArialMT-66"/>
      <use xlink:href="#ArialMT-6f" x="27.783203"/>
      <use xlink:href="#ArialMT-72" x="83.398438"/>
      <use xlink:href="#ArialMT-20" x="116.699219"/>
      <use xlink:href="#ArialMT-34" x="144.482422"/>
      <use xlink:href="#ArialMT-30" x="200.097656"/>
      <use xlink:href="#ArialMT-39" x="255.712891"/>
      <use xlink:href="#ArialMT-36" x="311.328125"/>
      <use xlink:href="#ArialMT-20" x="366.943359"/>
      <use xlink:href="#ArialMT-53" x="394.726562"/>
      <use xlink:href="#ArialMT-61" x="461.425781"/>
      <use xlink:href="#ArialMT-6d" x="517.041016"/>
      <use xlink:href="#ArialMT-70" x="600.341797"/>
      <use xlink:href="#ArialMT-6c" x="655.957031"/>
      <use xlink:href="#ArialMT-65" x="678.173828"/>
      <use xlink:href="#ArialMT-73" x="733.789062"/>
     </g>
    </g>
   </g>
   <g id="PolyCollection_1">
    <defs>
     <path id="m0a1a5387bd" d="M 140.603454 -499.071508 
L 140.603454 -499.071508 
L 141.167754 -499.071508 
L 142.296353 -499.071508 
L 144.553551 -499.071508 
L 149.067947 -499.071508 
L 158.09674 -499.071508 
L 176.154324 -499.071508 
L 212.269494 -499.071508 
L 284.499833 -499.071508 
L 428.960511 -499.071508 
L 428.960511 -499.071508 
L 428.960511 -499.071508 
L 284.499833 -499.071508 
L 212.269494 -499.071508 
L 176.154324 -499.071508 
L 158.09674 -499.071508 
L 149.067947 -499.071508 
L 144.553551 -499.071508 
L 142.296353 -499.071508 
L 141.167754 -499.071508 
L 140.603454 -499.071508 
z
" style="stroke: #4daf4a; stroke-opacity: 0.2; stroke-width: 1.5"/>
    </defs>
    <g clip-path="url(#p780b3838b6)">
     <use xlink:href="#m0a1a5387bd" x="0" y="868.013086" style="fill: #4daf4a; fill-opacity: 0.2; stroke: #4daf4a; stroke-opacity: 0.2; stroke-width: 1.5"/>
    </g>
   </g>
   <g id="line2d_6">
    <path d="M 126.185602 128.644803 
L 443.378363 128.644803 
" clip-path="url(#p780b3838b6)" style="fill: none; stroke-dasharray: 2.25,3.7125; stroke-dashoffset: 0; stroke: #000000; stroke-width: 2.25"/>
   </g>
   <g id="line2d_7">
    <path d="M 140.603454 368.941578 
L 141.167754 368.941578 
L 142.296353 368.941578 
L 144.553551 368.941578 
L 149.067947 368.941578 
L 158.09674 368.941578 
L 176.154324 368.941578 
L 212.269494 368.941578 
L 284.499833 368.941578 
L 428.960511 368.941578 
" clip-path="url(#p780b3838b6)" style="fill: none; stroke: #4daf4a; stroke-width: 2.25; stroke-linecap: round"/>
   </g>
   <g id="patch_3">
    <path d="M 126.185602 371.126094 
L 126.185602 32.526094 
" style="fill: none; stroke: #262626; stroke-width: 1.875; stroke-linejoin: miter; stroke-linecap: square"/>
   </g>
   <g id="patch_4">
    <path d="M 126.185602 371.126094 
L 443.378363 371.126094 
" style="fill: none; stroke: #262626; stroke-width: 1.875; stroke-linejoin: miter; stroke-linecap: square"/>
   </g>
   <g id="text_7">
    <!-- Linear -->
    <g style="fill: #262626" transform="translate(247.258311 26.526094) scale(0.27 -0.27)">
     <defs>
      <path id="ArialMT-4c" d="M 469 0 
L 469 4581 
L 1075 4581 
L 1075 541 
L 3331 541 
L 3331 0 
L 469 0 
z
" transform="scale(0.015625)"/>
     </defs>
     <use xlink:href="#ArialMT-4c"/>
     <use xlink:href="#ArialMT-69" x="55.615234"/>
     <use xlink:href="#ArialMT-6e" x="77.832031"/>
     <use xlink:href="#ArialMT-65" x="133.447266"/>
     <use xlink:href="#ArialMT-61" x="189.0625"/>
     <use xlink:href="#ArialMT-72" x="244.677734"/>
    </g>
   </g>
   <g id="text_8">
    <!-- A -->
    <g style="fill: #262626" transform="translate(126.185602 26.526094) scale(0.27 -0.27)">
     <defs>
      <path id="Arial-BoldMT-41" d="M 4597 0 
L 3591 0 
L 3191 1041 
L 1359 1041 
L 981 0 
L 0 0 
L 1784 4581 
L 2763 4581 
L 4597 0 
z
M 2894 1813 
L 2263 3513 
L 1644 1813 
L 2894 1813 
z
" transform="scale(0.015625)"/>
     </defs>
     <use xlink:href="#Arial-BoldMT-41"/>
    </g>
   </g>
   <g id="legend_1">
    <g id="patch_5">
     <path d="M 1334.951508 100.145391 
L 1470.983695 100.145391 
Q 1475.933695 100.145391 1475.933695 95.195391 
L 1475.933695 27.651094 
Q 1475.933695 22.701094 1470.983695 22.701094 
L 1334.951508 22.701094 
Q 1330.001508 22.701094 1330.001508 27.651094 
L 1330.001508 95.195391 
Q 1330.001508 100.145391 1334.951508 100.145391 
z
" style="fill: #ffffff; opacity: 0.8"/>
    </g>
    <g id="line2d_8">
     <path d="M 1339.901508 41.65418 
L 1364.651508 41.65418 
L 1389.401508 41.65418 
" style="fill: none; stroke: #4daf4a; stroke-width: 5; stroke-linecap: round"/>
    </g>
    <g id="text_9">
     <!-- KSG -->
     <g style="fill: #262626" transform="translate(1409.201508 50.31668) scale(0.2475 -0.2475)">
      <defs>
       <path id="ArialMT-4b" d="M 469 0 
L 469 4581 
L 1075 4581 
L 1075 2309 
L 3350 4581 
L 4172 4581 
L 2250 2725 
L 4256 0 
L 3456 0 
L 1825 2319 
L 1075 1588 
L 1075 0 
L 469 0 
z
" transform="scale(0.015625)"/>
       <path id="ArialMT-47" d="M 2638 1797 
L 2638 2334 
L 4578 2338 
L 4578 638 
Q 4131 281 3656 101 
Q 3181 -78 2681 -78 
Q 2006 -78 1454 211 
Q 903 500 622 1047 
Q 341 1594 341 2269 
Q 341 2938 620 3517 
Q 900 4097 1425 4378 
Q 1950 4659 2634 4659 
Q 3131 4659 3532 4498 
Q 3934 4338 4162 4050 
Q 4391 3763 4509 3300 
L 3963 3150 
Q 3859 3500 3706 3700 
Q 3553 3900 3268 4020 
Q 2984 4141 2638 4141 
Q 2222 4141 1919 4014 
Q 1616 3888 1430 3681 
Q 1244 3475 1141 3228 
Q 966 2803 966 2306 
Q 966 1694 1177 1281 
Q 1388 869 1791 669 
Q 2194 469 2647 469 
Q 3041 469 3416 620 
Q 3791 772 3984 944 
L 3984 1797 
L 2638 1797 
z
" transform="scale(0.015625)"/>
      </defs>
      <use xlink:href="#ArialMT-4b"/>
      <use xlink:href="#ArialMT-53" x="66.699219"/>
      <use xlink:href="#ArialMT-47" x="133.398438"/>
     </g>
    </g>
    <g id="line2d_9">
     <path d="M 1339.901508 76.663828 
L 1364.651508 76.663828 
L 1389.401508 76.663828 
" style="fill: none; stroke-dasharray: 5,8.25; stroke-dashoffset: 0; stroke: #000000; stroke-width: 5"/>
    </g>
    <g id="text_10">
     <!-- Truth -->
     <g style="fill: #262626" transform="translate(1409.201508 85.326328) scale(0.2475 -0.2475)">
      <defs>
       <path id="ArialMT-54" d="M 1659 0 
L 1659 4041 
L 150 4041 
L 150 4581 
L 3781 4581 
L 3781 4041 
L 2266 4041 
L 2266 0 
L 1659 0 
z
" transform="scale(0.015625)"/>
       <path id="ArialMT-68" d="M 422 0 
L 422 4581 
L 984 4581 
L 984 2938 
Q 1378 3394 1978 3394 
Q 2347 3394 2619 3248 
Q 2891 3103 3008 2847 
Q 3125 2591 3125 2103 
L 3125 0 
L 2563 0 
L 2563 2103 
Q 2563 2525 2380 2717 
Q 2197 2909 1863 2909 
Q 1613 2909 1392 2779 
Q 1172 2650 1078 2428 
Q 984 2206 984 1816 
L 984 0 
L 422 0 
z
" transform="scale(0.015625)"/>
      </defs>
      <use xlink:href="#ArialMT-54"/>
      <use xlink:href="#ArialMT-72" x="57.333984"/>
      <use xlink:href="#ArialMT-75" x="90.634766"/>
      <use xlink:href="#ArialMT-74" x="146.25"/>
      <use xlink:href="#ArialMT-68" x="174.033203"/>
     </g>
    </g>
   </g>
  </g>
  <g id="axes_2">
   <g id="patch_6">
    <path d="M 544.636268 371.126094 
L 861.82903 371.126094 
L 861.82903 32.526094 
L 544.636268 32.526094 
L 544.636268 371.126094 
z
" style="fill: none"/>
   </g>
   <g id="matplotlib.axis_3">
    <g id="xtick_4">
     <g id="line2d_10">
      <g>
       <use xlink:href="#m0adaad07cf" x="559.195196" y="371.126094" style="fill: #262626; stroke: #262626; stroke-width: 1.875"/>
      </g>
     </g>
     <g id="text_11">
      <!-- 4 -->
      <g style="fill: #262626" transform="translate(552.313536 401.34168) scale(0.2475 -0.2475)">
       <use xlink:href="#ArialMT-34"/>
      </g>
     </g>
    </g>
    <g id="xtick_5">
     <g id="line2d_11">
      <g>
       <use xlink:href="#m0adaad07cf" x="703.373724" y="371.126094" style="fill: #262626; stroke: #262626; stroke-width: 1.875"/>
      </g>
     </g>
     <g id="text_12">
      <!-- 2048 -->
      <g style="fill: #262626" transform="translate(675.847083 401.34168) scale(0.2475 -0.2475)">
       <use xlink:href="#ArialMT-32"/>
       <use xlink:href="#ArialMT-30" x="55.615234"/>
       <use xlink:href="#ArialMT-34" x="111.230469"/>
       <use xlink:href="#ArialMT-38" x="166.845703"/>
      </g>
     </g>
    </g>
    <g id="xtick_6">
     <g id="line2d_12">
      <g>
       <use xlink:href="#m0adaad07cf" x="847.834402" y="371.126094" style="fill: #262626; stroke: #262626; stroke-width: 1.875"/>
      </g>
     </g>
     <g id="text_13">
      <!-- 4096 -->
      <g style="fill: #262626" transform="translate(820.307761 401.34168) scale(0.2475 -0.2475)">
       <use xlink:href="#ArialMT-34"/>
       <use xlink:href="#ArialMT-30" x="55.615234"/>
       <use xlink:href="#ArialMT-39" x="111.230469"/>
       <use xlink:href="#ArialMT-36" x="166.845703"/>
      </g>
     </g>
    </g>
   </g>
   <g id="matplotlib.axis_4">
    <g id="ytick_3">
     <g id="line2d_13">
      <g>
       <use xlink:href="#m359035b90c" x="544.636268" y="369.521354" style="fill: #262626; stroke: #262626; stroke-width: 1.875"/>
      </g>
     </g>
     <g id="text_14">
      <!-- 0.00 -->
      <g style="fill: #262626" transform="translate(483.970448 378.379147) scale(0.2475 -0.2475)">
       <use xlink:href="#ArialMT-30"/>
       <use xlink:href="#ArialMT-2e" x="55.615234"/>
       <use xlink:href="#ArialMT-30" x="83.398438"/>
       <use xlink:href="#ArialMT-30" x="139.013672"/>
      </g>
     </g>
    </g>
    <g id="ytick_4">
     <g id="line2d_14">
      <g>
       <use xlink:href="#m359035b90c" x="544.636268" y="128.810454" style="fill: #262626; stroke: #262626; stroke-width: 1.875"/>
      </g>
     </g>
     <g id="text_15">
      <!-- 0.15 -->
      <g style="fill: #262626" transform="translate(483.970448 137.668247) scale(0.2475 -0.2475)">
       <defs>
        <path id="ArialMT-35" d="M 266 1200 
L 856 1250 
Q 922 819 1161 601 
Q 1400 384 1738 384 
Q 2144 384 2425 690 
Q 2706 997 2706 1503 
Q 2706 1984 2436 2262 
Q 2166 2541 1728 2541 
Q 1456 2541 1237 2417 
Q 1019 2294 894 2097 
L 366 2166 
L 809 4519 
L 3088 4519 
L 3088 3981 
L 1259 3981 
L 1013 2750 
Q 1425 3038 1878 3038 
Q 2478 3038 2890 2622 
Q 3303 2206 3303 1553 
Q 3303 931 2941 478 
Q 2500 -78 1738 -78 
Q 1113 -78 717 272 
Q 322 622 266 1200 
z
" transform="scale(0.015625)"/>
       </defs>
       <use xlink:href="#ArialMT-30"/>
       <use xlink:href="#ArialMT-2e" x="55.615234"/>
       <use xlink:href="#ArialMT-31" x="83.398438"/>
       <use xlink:href="#ArialMT-35" x="139.013672"/>
      </g>
     </g>
    </g>
   </g>
   <g id="PolyCollection_2">
    <defs>
     <path id="mba1ab90782" d="M 559.054121 -498.491732 
L 559.054121 -498.491732 
L 559.618421 -498.491732 
L 560.74702 -498.491732 
L 563.004218 -498.491732 
L 567.518614 -498.491732 
L 576.547406 -498.491732 
L 594.604991 -498.491732 
L 630.72016 -498.491732 
L 702.950499 -498.491732 
L 847.411177 -498.491732 
L 847.411177 -498.491732 
L 847.411177 -498.491732 
L 702.950499 -498.491732 
L 630.72016 -498.491732 
L 594.604991 -498.491732 
L 576.547406 -498.491732 
L 567.518614 -498.491732 
L 563.004218 -498.491732 
L 560.74702 -498.491732 
L 559.618421 -498.491732 
L 559.054121 -498.491732 
z
" style="stroke: #4daf4a; stroke-opacity: 0.2; stroke-width: 1.5"/>
    </defs>
    <g clip-path="url(#p1ddeda4f9e)">
     <use xlink:href="#mba1ab90782" x="0" y="868.013086" style="fill: #4daf4a; fill-opacity: 0.2; stroke: #4daf4a; stroke-opacity: 0.2; stroke-width: 1.5"/>
    </g>
   </g>
   <g id="line2d_15">
    <path d="M 544.636268 128.810454 
L 861.82903 128.810454 
" clip-path="url(#p1ddeda4f9e)" style="fill: none; stroke-dasharray: 2.25,3.7125; stroke-dashoffset: 0; stroke: #000000; stroke-width: 2.25"/>
   </g>
   <g id="line2d_16">
    <path d="M 559.054121 369.521354 
L 559.618421 369.521354 
L 560.74702 369.521354 
L 563.004218 369.521354 
L 567.518614 369.521354 
L 576.547406 369.521354 
L 594.604991 369.521354 
L 630.72016 369.521354 
L 702.950499 369.521354 
L 847.411177 369.521354 
" clip-path="url(#p1ddeda4f9e)" style="fill: none; stroke: #4daf4a; stroke-width: 2.25; stroke-linecap: round"/>
   </g>
   <g id="patch_7">
    <path d="M 544.636268 371.126094 
L 544.636268 32.526094 
" style="fill: none; stroke: #262626; stroke-width: 1.875; stroke-linejoin: miter; stroke-linecap: square"/>
   </g>
   <g id="patch_8">
    <path d="M 544.636268 371.126094 
L 861.82903 371.126094 
" style="fill: none; stroke: #262626; stroke-width: 1.875; stroke-linejoin: miter; stroke-linecap: square"/>
   </g>
   <g id="text_16">
    <!-- Nonlinear -->
    <g style="fill: #262626" transform="translate(645.452649 26.526094) scale(0.27 -0.27)">
     <defs>
      <path id="ArialMT-4e" d="M 488 0 
L 488 4581 
L 1109 4581 
L 3516 984 
L 3516 4581 
L 4097 4581 
L 4097 0 
L 3475 0 
L 1069 3600 
L 1069 0 
L 488 0 
z
" transform="scale(0.015625)"/>
     </defs>
     <use xlink:href="#ArialMT-4e"/>
     <use xlink:href="#ArialMT-6f" x="72.216797"/>
     <use xlink:href="#ArialMT-6e" x="127.832031"/>
     <use xlink:href="#ArialMT-6c" x="183.447266"/>
     <use xlink:href="#ArialMT-69" x="205.664062"/>
     <use xlink:href="#ArialMT-6e" x="227.880859"/>
     <use xlink:href="#ArialMT-65" x="283.496094"/>
     <use xlink:href="#ArialMT-61" x="339.111328"/>
     <use xlink:href="#ArialMT-72" x="394.726562"/>
    </g>
   </g>
   <g id="text_17">
    <!-- B -->
    <g style="fill: #262626" transform="translate(544.636268 26.526094) scale(0.27 -0.27)">
     <defs>
      <path id="Arial-BoldMT-42" d="M 469 4581 
L 2300 4581 
Q 2844 4581 3111 4536 
Q 3378 4491 3589 4347 
Q 3800 4203 3940 3964 
Q 4081 3725 4081 3428 
Q 4081 3106 3907 2837 
Q 3734 2569 3438 2434 
Q 3856 2313 4081 2019 
Q 4306 1725 4306 1328 
Q 4306 1016 4161 720 
Q 4016 425 3764 248 
Q 3513 72 3144 31 
Q 2913 6 2028 0 
L 469 0 
L 469 4581 
z
M 1394 3819 
L 1394 2759 
L 2000 2759 
Q 2541 2759 2672 2775 
Q 2909 2803 3045 2939 
Q 3181 3075 3181 3297 
Q 3181 3509 3064 3642 
Q 2947 3775 2716 3803 
Q 2578 3819 1925 3819 
L 1394 3819 
z
M 1394 1997 
L 1394 772 
L 2250 772 
Q 2750 772 2884 800 
Q 3091 838 3220 983 
Q 3350 1128 3350 1372 
Q 3350 1578 3250 1722 
Q 3150 1866 2961 1931 
Q 2772 1997 2141 1997 
L 1394 1997 
z
" transform="scale(0.015625)"/>
     </defs>
     <use xlink:href="#Arial-BoldMT-42"/>
    </g>
   </g>
  </g>
  <g id="axes_3">
   <g id="patch_9">
    <path d="M 963.086935 371.126094 
L 1280.279697 371.126094 
L 1280.279697 32.526094 
L 963.086935 32.526094 
L 963.086935 371.126094 
z
" style="fill: none"/>
   </g>
   <g id="matplotlib.axis_5">
    <g id="xtick_7">
     <g id="line2d_17">
      <g>
       <use xlink:href="#m0adaad07cf" x="977.645863" y="371.126094" style="fill: #262626; stroke: #262626; stroke-width: 1.875"/>
      </g>
     </g>
     <g id="text_18">
      <!-- 4 -->
      <g style="fill: #262626" transform="translate(970.764202 401.34168) scale(0.2475 -0.2475)">
       <use xlink:href="#ArialMT-34"/>
      </g>
     </g>
    </g>
    <g id="xtick_8">
     <g id="line2d_18">
      <g>
       <use xlink:href="#m0adaad07cf" x="1121.824391" y="371.126094" style="fill: #262626; stroke: #262626; stroke-width: 1.875"/>
      </g>
     </g>
     <g id="text_19">
      <!-- 2048 -->
      <g style="fill: #262626" transform="translate(1094.29775 401.34168) scale(0.2475 -0.2475)">
       <use xlink:href="#ArialMT-32"/>
       <use xlink:href="#ArialMT-30" x="55.615234"/>
       <use xlink:href="#ArialMT-34" x="111.230469"/>
       <use xlink:href="#ArialMT-38" x="166.845703"/>
      </g>
     </g>
    </g>
    <g id="xtick_9">
     <g id="line2d_19">
      <g>
       <use xlink:href="#m0adaad07cf" x="1266.285069" y="371.126094" style="fill: #262626; stroke: #262626; stroke-width: 1.875"/>
      </g>
     </g>
     <g id="text_20">
      <!-- 4096 -->
      <g style="fill: #262626" transform="translate(1238.758428 401.34168) scale(0.2475 -0.2475)">
       <use xlink:href="#ArialMT-34"/>
       <use xlink:href="#ArialMT-30" x="55.615234"/>
       <use xlink:href="#ArialMT-39" x="111.230469"/>
       <use xlink:href="#ArialMT-36" x="166.845703"/>
      </g>
     </g>
    </g>
   </g>
   <g id="matplotlib.axis_6">
    <g id="ytick_5">
     <g id="line2d_20">
      <g>
       <use xlink:href="#m359035b90c" x="963.086935" y="367.773619" style="fill: #262626; stroke: #262626; stroke-width: 1.875"/>
      </g>
     </g>
     <g id="text_21">
      <!-- 0.00 -->
      <g style="fill: #262626" transform="translate(902.421115 376.631411) scale(0.2475 -0.2475)">
       <use xlink:href="#ArialMT-30"/>
       <use xlink:href="#ArialMT-2e" x="55.615234"/>
       <use xlink:href="#ArialMT-30" x="83.398438"/>
       <use xlink:href="#ArialMT-30" x="139.013672"/>
      </g>
     </g>
    </g>
    <g id="ytick_6">
     <g id="line2d_21">
      <g>
       <use xlink:href="#m359035b90c" x="963.086935" y="367.773619" style="fill: #262626; stroke: #262626; stroke-width: 1.875"/>
      </g>
     </g>
     <g id="text_22">
      <!-- 0.00 -->
      <g style="fill: #262626" transform="translate(902.421115 376.631411) scale(0.2475 -0.2475)">
       <use xlink:href="#ArialMT-30"/>
       <use xlink:href="#ArialMT-2e" x="55.615234"/>
       <use xlink:href="#ArialMT-30" x="83.398438"/>
       <use xlink:href="#ArialMT-30" x="139.013672"/>
      </g>
     </g>
    </g>
    <g id="ytick_7">
     <g id="line2d_22">
      <g>
       <use xlink:href="#m359035b90c" x="963.086935" y="32.526094" style="fill: #262626; stroke: #262626; stroke-width: 1.875"/>
      </g>
     </g>
     <g id="text_23">
      <!-- 0.10 -->
      <g style="fill: #262626" transform="translate(902.421115 41.383887) scale(0.2475 -0.2475)">
       <use xlink:href="#ArialMT-30"/>
       <use xlink:href="#ArialMT-2e" x="55.615234"/>
       <use xlink:href="#ArialMT-31" x="83.398438"/>
       <use xlink:href="#ArialMT-30" x="139.013672"/>
      </g>
     </g>
    </g>
   </g>
   <g id="PolyCollection_3">
    <defs>
     <path id="m2751c32c3e" d="M 977.504788 -500.239467 
L 977.504788 -500.239467 
L 978.069087 -500.239467 
L 979.197686 -500.239467 
L 981.454884 -500.239467 
L 985.969281 -500.239467 
L 994.998073 -500.239467 
L 1013.055658 -500.239467 
L 1049.170827 -500.239467 
L 1121.401166 -500.239467 
L 1265.861844 -500.239467 
L 1265.861844 -500.239467 
L 1265.861844 -500.239467 
L 1121.401166 -500.239467 
L 1049.170827 -500.239467 
L 1013.055658 -500.239467 
L 994.998073 -500.239467 
L 985.969281 -500.239467 
L 981.454884 -500.239467 
L 979.197686 -500.239467 
L 978.069087 -500.239467 
L 977.504788 -500.239467 
z
" style="stroke: #4daf4a; stroke-opacity: 0.2; stroke-width: 1.5"/>
    </defs>
    <g clip-path="url(#p8697e39f94)">
     <use xlink:href="#m2751c32c3e" x="0" y="868.013086" style="fill: #4daf4a; fill-opacity: 0.2; stroke: #4daf4a; stroke-opacity: 0.2; stroke-width: 1.5"/>
    </g>
   </g>
   <g id="PolyCollection_4">
    <defs>
     <path id="m9152e64eb4" d="M 977.504788 -500.244072 
L 977.504788 -500.239467 
L 978.069087 -500.239467 
L 979.197686 -500.239467 
L 981.454884 -500.239467 
L 985.969281 -500.239467 
L 994.998073 -500.239467 
L 1013.055658 -500.239467 
L 1049.170827 -500.239467 
L 1121.401166 -500.239467 
L 1265.861844 -500.239467 
L 1265.861844 -500.242637 
L 1265.861844 -500.242637 
L 1121.401166 -500.242769 
L 1049.170827 -500.243556 
L 1013.055658 -500.240551 
L 994.998073 -500.242147 
L 985.969281 -500.244363 
L 981.454884 -500.242305 
L 979.197686 -500.243021 
L 978.069087 -500.240689 
L 977.504788 -500.244072 
z
" style="stroke: #e41a1c; stroke-opacity: 0.2; stroke-width: 1.5"/>
    </defs>
    <g clip-path="url(#p8697e39f94)">
     <use xlink:href="#m9152e64eb4" x="0" y="868.013086" style="fill: #e41a1c; fill-opacity: 0.2; stroke: #e41a1c; stroke-opacity: 0.2; stroke-width: 1.5"/>
    </g>
   </g>
   <g id="line2d_23">
    <path d="M 963.086935 367.773619 
L 1280.279697 367.773619 
" clip-path="url(#p8697e39f94)" style="fill: none; stroke-dasharray: 2.25,3.7125; stroke-dashoffset: 0; stroke: #000000; stroke-width: 2.25"/>
   </g>
   <g id="line2d_24">
    <path d="M 977.504788 367.773619 
L 978.069087 367.773619 
L 979.197686 367.773619 
L 981.454884 367.773619 
L 985.969281 367.773619 
L 994.998073 367.773619 
L 1013.055658 367.773619 
L 1049.170827 367.773619 
L 1121.401166 367.773619 
L 1265.861844 367.773619 
" clip-path="url(#p8697e39f94)" style="fill: none; stroke: #4daf4a; stroke-width: 2.25; stroke-linecap: round"/>
   </g>
   <g id="line2d_25">
    <path d="M 977.504788 367.773619 
L 978.069087 367.773619 
L 979.197686 367.77277 
L 981.454884 367.773619 
L 985.969281 367.771237 
L 994.998073 367.773619 
L 1013.055658 367.773619 
L 1049.170827 367.773619 
L 1121.401166 367.773619 
L 1265.861844 367.773619 
" clip-path="url(#p8697e39f94)" style="fill: none; stroke: #e41a1c; stroke-width: 4; stroke-linecap: round"/>
   </g>
   <g id="patch_10">
    <path d="M 963.086935 371.126094 
L 963.086935 32.526094 
" style="fill: none; stroke: #262626; stroke-width: 1.875; stroke-linejoin: miter; stroke-linecap: square"/>
   </g>
   <g id="patch_11">
    <path d="M 963.086935 371.126094 
L 1280.279697 371.126094 
" style="fill: none; stroke: #262626; stroke-width: 1.875; stroke-linejoin: miter; stroke-linecap: square"/>
   </g>
   <g id="text_24">
    <!-- Null -->
    <g style="fill: #262626" transform="translate(1098.427456 26.526094) scale(0.27 -0.27)">
     <use xlink:href="#ArialMT-4e"/>
     <use xlink:href="#ArialMT-75" x="72.216797"/>
     <use xlink:href="#ArialMT-6c" x="127.832031"/>
     <use xlink:href="#ArialMT-6c" x="150.048828"/>
    </g>
   </g>
   <g id="text_25">
    <!-- C -->
    <g style="fill: #262626" transform="translate(963.086935 26.526094) scale(0.27 -0.27)">
     <defs>
      <path id="Arial-BoldMT-43" d="M 3397 1684 
L 4294 1400 
Q 4088 650 3608 286 
Q 3128 -78 2391 -78 
Q 1478 -78 890 545 
Q 303 1169 303 2250 
Q 303 3394 893 4026 
Q 1484 4659 2447 4659 
Q 3288 4659 3813 4163 
Q 4125 3869 4281 3319 
L 3366 3100 
Q 3284 3456 3026 3662 
Q 2769 3869 2400 3869 
Q 1891 3869 1573 3503 
Q 1256 3138 1256 2319 
Q 1256 1450 1568 1081 
Q 1881 713 2381 713 
Q 2750 713 3015 947 
Q 3281 1181 3397 1684 
z
" transform="scale(0.015625)"/>
     </defs>
     <use xlink:href="#Arial-BoldMT-43"/>
    </g>
   </g>
  </g>
  <g id="axes_4">
   <g id="patch_12">
    <path d="M 126.185602 796.986094 
L 443.378363 796.986094 
L 443.378363 458.386094 
L 126.185602 458.386094 
L 126.185602 796.986094 
z
" style="fill: none"/>
   </g>
   <g id="matplotlib.axis_7">
    <g id="xtick_10">
     <g id="line2d_26">
      <g>
       <use xlink:href="#m0adaad07cf" x="140.744529" y="796.986094" style="fill: #262626; stroke: #262626; stroke-width: 1.875"/>
      </g>
     </g>
     <g id="text_26">
      <!-- 4 -->
      <g style="fill: #262626" transform="translate(133.862869 827.20168) scale(0.2475 -0.2475)">
       <use xlink:href="#ArialMT-34"/>
      </g>
     </g>
    </g>
    <g id="xtick_11">
     <g id="line2d_27">
      <g>
       <use xlink:href="#m0adaad07cf" x="284.923057" y="796.986094" style="fill: #262626; stroke: #262626; stroke-width: 1.875"/>
      </g>
     </g>
     <g id="text_27">
      <!-- 2048 -->
      <g style="fill: #262626" transform="translate(257.396417 827.20168) scale(0.2475 -0.2475)">
       <use xlink:href="#ArialMT-32"/>
       <use xlink:href="#ArialMT-30" x="55.615234"/>
       <use xlink:href="#ArialMT-34" x="111.230469"/>
       <use xlink:href="#ArialMT-38" x="166.845703"/>
      </g>
     </g>
    </g>
    <g id="xtick_12">
     <g id="line2d_28">
      <g>
       <use xlink:href="#m0adaad07cf" x="429.383735" y="796.986094" style="fill: #262626; stroke: #262626; stroke-width: 1.875"/>
      </g>
     </g>
     <g id="text_28">
      <!-- 4096 -->
      <g style="fill: #262626" transform="translate(401.857095 827.20168) scale(0.2475 -0.2475)">
       <use xlink:href="#ArialMT-34"/>
       <use xlink:href="#ArialMT-30" x="55.615234"/>
       <use xlink:href="#ArialMT-39" x="111.230469"/>
       <use xlink:href="#ArialMT-36" x="166.845703"/>
      </g>
     </g>
    </g>
    <g id="text_29">
     <!-- # of Variables -->
     <g style="fill: #262626" transform="translate(203.233545 855.446836) scale(0.27 -0.27)">
      <defs>
       <path id="ArialMT-23" d="M 322 -78 
L 594 1253 
L 66 1253 
L 66 1719 
L 688 1719 
L 919 2853 
L 66 2853 
L 66 3319 
L 1013 3319 
L 1284 4659 
L 1753 4659 
L 1481 3319 
L 2466 3319 
L 2738 4659 
L 3209 4659 
L 2938 3319 
L 3478 3319 
L 3478 2853 
L 2844 2853 
L 2609 1719 
L 3478 1719 
L 3478 1253 
L 2516 1253 
L 2244 -78 
L 1775 -78 
L 2044 1253 
L 1063 1253 
L 791 -78 
L 322 -78 
z
M 1156 1719 
L 2138 1719 
L 2372 2853 
L 1388 2853 
L 1156 1719 
z
" transform="scale(0.015625)"/>
       <path id="ArialMT-56" d="M 1803 0 
L 28 4581 
L 684 4581 
L 1875 1253 
Q 2019 853 2116 503 
Q 2222 878 2363 1253 
L 3600 4581 
L 4219 4581 
L 2425 0 
L 1803 0 
z
" transform="scale(0.015625)"/>
       <path id="ArialMT-62" d="M 941 0 
L 419 0 
L 419 4581 
L 981 4581 
L 981 2947 
Q 1338 3394 1891 3394 
Q 2197 3394 2470 3270 
Q 2744 3147 2920 2923 
Q 3097 2700 3197 2384 
Q 3297 2069 3297 1709 
Q 3297 856 2875 390 
Q 2453 -75 1863 -75 
Q 1275 -75 941 416 
L 941 0 
z
M 934 1684 
Q 934 1088 1097 822 
Q 1363 388 1816 388 
Q 2184 388 2453 708 
Q 2722 1028 2722 1663 
Q 2722 2313 2464 2622 
Q 2206 2931 1841 2931 
Q 1472 2931 1203 2611 
Q 934 2291 934 1684 
z
" transform="scale(0.015625)"/>
      </defs>
      <use xlink:href="#ArialMT-23"/>
      <use xlink:href="#ArialMT-20" x="55.615234"/>
      <use xlink:href="#ArialMT-6f" x="83.398438"/>
      <use xlink:href="#ArialMT-66" x="139.013672"/>
      <use xlink:href="#ArialMT-20" x="166.796875"/>
      <use xlink:href="#ArialMT-56" x="194.580078"/>
      <use xlink:href="#ArialMT-61" x="253.904297"/>
      <use xlink:href="#ArialMT-72" x="309.519531"/>
      <use xlink:href="#ArialMT-69" x="342.820312"/>
      <use xlink:href="#ArialMT-61" x="365.037109"/>
      <use xlink:href="#ArialMT-62" x="420.652344"/>
      <use xlink:href="#ArialMT-6c" x="476.267578"/>
      <use xlink:href="#ArialMT-65" x="498.484375"/>
      <use xlink:href="#ArialMT-73" x="554.099609"/>
     </g>
    </g>
   </g>
   <g id="matplotlib.axis_8">
    <g id="ytick_8">
     <g id="line2d_29">
      <g>
       <use xlink:href="#m359035b90c" x="126.185602" y="796.058423" style="fill: #262626; stroke: #262626; stroke-width: 1.875"/>
      </g>
     </g>
     <g id="text_30">
      <!-- 0.00 -->
      <g style="fill: #262626" transform="translate(65.519781 804.916215) scale(0.2475 -0.2475)">
       <use xlink:href="#ArialMT-30"/>
       <use xlink:href="#ArialMT-2e" x="55.615234"/>
       <use xlink:href="#ArialMT-30" x="83.398438"/>
       <use xlink:href="#ArialMT-30" x="139.013672"/>
      </g>
     </g>
    </g>
    <g id="ytick_9">
     <g id="line2d_30">
      <g>
       <use xlink:href="#m359035b90c" x="126.185602" y="554.863902" style="fill: #262626; stroke: #262626; stroke-width: 1.875"/>
      </g>
     </g>
     <g id="text_31">
      <!-- 0.26 -->
      <g style="fill: #262626" transform="translate(65.519781 563.721695) scale(0.2475 -0.2475)">
       <use xlink:href="#ArialMT-30"/>
       <use xlink:href="#ArialMT-2e" x="55.615234"/>
       <use xlink:href="#ArialMT-32" x="83.398438"/>
       <use xlink:href="#ArialMT-36" x="139.013672"/>
      </g>
     </g>
    </g>
    <g id="text_32">
     <!-- S@98 -->
     <g style="fill: #262626" transform="translate(26.884687 665.410156) rotate(-90) scale(0.27 -0.27)">
      <defs>
       <path id="ArialMT-40" d="M 3628 509 
Q 3425 275 3173 133 
Q 2922 -9 2669 -9 
Q 2391 -9 2128 153 
Q 1866 316 1702 653 
Q 1538 991 1538 1394 
Q 1538 1891 1792 2389 
Q 2047 2888 2425 3138 
Q 2803 3388 3159 3388 
Q 3431 3388 3678 3245 
Q 3925 3103 4103 2813 
L 4209 3297 
L 4769 3297 
L 4319 1200 
Q 4225 763 4225 716 
Q 4225 631 4289 570 
Q 4353 509 4444 509 
Q 4609 509 4878 700 
Q 5234 950 5442 1370 
Q 5650 1791 5650 2238 
Q 5650 2759 5383 3212 
Q 5116 3666 4586 3937 
Q 4056 4209 3416 4209 
Q 2684 4209 2079 3867 
Q 1475 3525 1142 2886 
Q 809 2247 809 1516 
Q 809 750 1142 197 
Q 1475 -356 2104 -620 
Q 2734 -884 3500 -884 
Q 4319 -884 4872 -609 
Q 5425 -334 5700 59 
L 6266 59 
Q 6106 -269 5718 -609 
Q 5331 -950 4797 -1148 
Q 4263 -1347 3509 -1347 
Q 2816 -1347 2230 -1169 
Q 1644 -991 1231 -633 
Q 819 -275 609 191 
Q 347 781 347 1466 
Q 347 2228 659 2919 
Q 1041 3766 1742 4216 
Q 2444 4666 3444 4666 
Q 4219 4666 4836 4348 
Q 5453 4031 5809 3403 
Q 6113 2863 6113 2228 
Q 6113 1322 5475 619 
Q 4906 -13 4231 -13 
Q 4016 -13 3883 53 
Q 3750 119 3688 241 
Q 3647 319 3628 509 
z
M 2116 1356 
Q 2116 928 2319 690 
Q 2522 453 2784 453 
Q 2959 453 3153 558 
Q 3347 663 3523 869 
Q 3700 1075 3812 1392 
Q 3925 1709 3925 2028 
Q 3925 2453 3714 2687 
Q 3503 2922 3200 2922 
Q 3000 2922 2823 2820 
Q 2647 2719 2481 2494 
Q 2316 2269 2216 1947 
Q 2116 1625 2116 1356 
z
" transform="scale(0.015625)"/>
      </defs>
      <use xlink:href="#ArialMT-53"/>
      <use xlink:href="#ArialMT-40" x="66.699219"/>
      <use xlink:href="#ArialMT-39" x="168.212891"/>
      <use xlink:href="#ArialMT-38" x="223.828125"/>
     </g>
     <!-- for 4096 Samples -->
     <g style="fill: #262626" transform="translate(56.153531 733.490234) rotate(-90) scale(0.27 -0.27)">
      <use xlink:href="#ArialMT-66"/>
      <use xlink:href="#ArialMT-6f" x="27.783203"/>
      <use xlink:href="#ArialMT-72" x="83.398438"/>
      <use xlink:href="#ArialMT-20" x="116.699219"/>
      <use xlink:href="#ArialMT-34" x="144.482422"/>
      <use xlink:href="#ArialMT-30" x="200.097656"/>
      <use xlink:href="#ArialMT-39" x="255.712891"/>
      <use xlink:href="#ArialMT-36" x="311.328125"/>
      <use xlink:href="#ArialMT-20" x="366.943359"/>
      <use xlink:href="#ArialMT-53" x="394.726562"/>
      <use xlink:href="#ArialMT-61" x="461.425781"/>
      <use xlink:href="#ArialMT-6d" x="517.041016"/>
      <use xlink:href="#ArialMT-70" x="600.341797"/>
      <use xlink:href="#ArialMT-6c" x="655.957031"/>
      <use xlink:href="#ArialMT-65" x="678.173828"/>
      <use xlink:href="#ArialMT-73" x="733.789062"/>
     </g>
    </g>
   </g>
   <g id="PolyCollection_5">
    <defs>
     <path id="ma6d5d98e76" d="M 140.603454 -189.734169 
L 140.603454 -168.993644 
L 141.167754 -173.743194 
L 142.296353 -171.475879 
L 144.553551 -173.777493 
L 149.067947 -172.847554 
L 158.09674 -173.300076 
L 176.154324 -174.542024 
L 212.269494 -175.044888 
L 284.499833 -174.777966 
L 428.960511 -176.489033 
L 428.960511 -197.529395 
L 428.960511 -197.529395 
L 284.499833 -195.053798 
L 212.269494 -190.75511 
L 176.154324 -191.324083 
L 158.09674 -192.55469 
L 149.067947 -192.556073 
L 144.553551 -193.592504 
L 142.296353 -191.094502 
L 141.167754 -193.465267 
L 140.603454 -189.734169 
z
" style="stroke: #377eb8; stroke-opacity: 0.2; stroke-width: 1.5"/>
    </defs>
    <g clip-path="url(#pc39a249601)">
     <use xlink:href="#ma6d5d98e76" x="0" y="868.013086" style="fill: #377eb8; fill-opacity: 0.2; stroke: #377eb8; stroke-opacity: 0.2; stroke-width: 1.5"/>
    </g>
   </g>
   <g id="PolyCollection_6">
    <defs>
     <path id="m9663406a47" d="M 140.603454 -158.576221 
L 140.603454 -101.293393 
L 141.167754 -98.791242 
L 142.296353 -98.112459 
L 144.553551 -98.112182 
L 149.067947 -99.131741 
L 158.09674 -99.591178 
L 176.154324 -97.660766 
L 212.269494 -103.538857 
L 284.499833 -102.641833 
L 428.960511 -99.136443 
L 428.960511 -163.682589 
L 428.960511 -163.682589 
L 284.499833 -163.238918 
L 212.269494 -167.987362 
L 176.154324 -151.114024 
L 158.09674 -159.697293 
L 149.067947 -153.940354 
L 144.553551 -173.425931 
L 142.296353 -163.443604 
L 141.167754 -158.920868 
L 140.603454 -158.576221 
z
" style="stroke: #377eb8; stroke-opacity: 0.2; stroke-width: 1.5"/>
    </defs>
    <g clip-path="url(#pc39a249601)">
     <use xlink:href="#m9663406a47" x="0" y="868.013086" style="fill: #377eb8; fill-opacity: 0.2; stroke: #377eb8; stroke-opacity: 0.2; stroke-width: 1.5"/>
    </g>
   </g>
   <g id="PolyCollection_7">
    <defs>
     <path id="m9486e2db08" d="M 140.603454 -311.789127 
L 140.603454 -116.808887 
L 141.167754 -113.05898 
L 142.296353 -120.975082 
L 144.553551 -122.334309 
L 149.067947 -121.440881 
L 158.09674 -130.604186 
L 176.154324 -137.634605 
L 212.269494 -130.26922 
L 284.499833 -113.506247 
L 428.960511 -119.067904 
L 428.960511 -298.075979 
L 428.960511 -298.075979 
L 284.499833 -303.980623 
L 212.269494 -312.715194 
L 176.154324 -303.656168 
L 158.09674 -316.310203 
L 149.067947 -296.868053 
L 144.553551 -303.086366 
L 142.296353 -308.388293 
L 141.167754 -303.274456 
L 140.603454 -311.789127 
z
" style="stroke: #377eb8; stroke-opacity: 0.2; stroke-width: 1.5"/>
    </defs>
    <g clip-path="url(#pc39a249601)">
     <use xlink:href="#m9486e2db08" x="0" y="868.013086" style="fill: #377eb8; fill-opacity: 0.2; stroke: #377eb8; stroke-opacity: 0.2; stroke-width: 1.5"/>
    </g>
   </g>
   <g id="PolyCollection_8">
    <defs>
     <path id="mc09111f4f7" d="M 140.603454 -206.485111 
L 140.603454 -182.364753 
L 141.167754 -178.401314 
L 142.296353 -180.213172 
L 144.553551 -178.627796 
L 149.067947 -180.09993 
L 158.09674 -177.04242 
L 176.154324 -174.551116 
L 212.269494 -177.835108 
L 284.499833 -176.589456 
L 428.960511 -172.96574 
L 428.960511 -200.709814 
L 428.960511 -200.709814 
L 284.499833 -204.220288 
L 212.269494 -200.256849 
L 176.154324 -203.427601 
L 158.09674 -203.880565 
L 149.067947 -206.145387 
L 144.553551 -205.3527 
L 142.296353 -201.276019 
L 141.167754 -203.087877 
L 140.603454 -206.485111 
z
" style="stroke: #e41a1c; stroke-opacity: 0.2; stroke-width: 1.5"/>
    </defs>
    <g clip-path="url(#pc39a249601)">
     <use xlink:href="#mc09111f4f7" x="0" y="868.013086" style="fill: #e41a1c; fill-opacity: 0.2; stroke: #e41a1c; stroke-opacity: 0.2; stroke-width: 1.5"/>
    </g>
   </g>
   <g id="PolyCollection_9">
    <defs>
     <path id="mf2021fb873" d="M 140.603454 -187.573844 
L 140.603454 -153.827991 
L 141.167754 -145.787872 
L 142.296353 -147.146765 
L 144.553551 -146.240836 
L 149.067947 -148.845382 
L 158.09674 -147.59973 
L 176.154324 -147.712971 
L 212.269494 -151.223446 
L 284.499833 -148.392418 
L 428.960511 -151.563169 
L 428.960511 -182.591235 
L 428.960511 -182.591235 
L 284.499833 -181.572065 
L 212.269494 -182.138271 
L 176.154324 -178.401314 
L 158.09674 -188.479773 
L 149.067947 -175.683527 
L 144.553551 -177.608626 
L 142.296353 -176.136491 
L 141.167754 -180.326413 
L 140.603454 -187.573844 
z
" style="stroke: #e41a1c; stroke-opacity: 0.2; stroke-width: 1.5"/>
    </defs>
    <g clip-path="url(#pc39a249601)">
     <use xlink:href="#mf2021fb873" x="0" y="868.013086" style="fill: #e41a1c; fill-opacity: 0.2; stroke: #e41a1c; stroke-opacity: 0.2; stroke-width: 1.5"/>
    </g>
   </g>
   <g id="line2d_31">
    <path d="M 126.185602 554.863902 
L 443.378363 554.863902 
" clip-path="url(#pc39a249601)" style="fill: none; stroke-dasharray: 2.25,3.7125; stroke-dashoffset: 0; stroke: #000000; stroke-width: 2.25"/>
   </g>
   <g id="line2d_32">
    <path d="M 140.603454 687.802083 
L 141.167754 686.208849 
L 142.296353 691.215917 
L 144.553551 687.11998 
L 149.067947 688.027238 
L 158.09674 685.317635 
L 176.154324 684.406504 
L 212.269494 685.099671 
L 284.499833 683.926874 
L 428.960511 681.012585 
" clip-path="url(#pc39a249601)" style="fill: none; stroke-dasharray: 14.4,3.6,2.25,3.6; stroke-dashoffset: 0; stroke: #377eb8; stroke-width: 2.25"/>
   </g>
   <g id="line2d_33">
    <path d="M 140.603454 743.508826 
L 141.167754 754.848444 
L 142.296353 749.398811 
L 144.553551 739.444421 
L 149.067947 745.332747 
L 158.09674 750.989832 
L 176.154324 748.93965 
L 212.269494 745.326108 
L 284.499833 736.714349 
L 428.960511 744.423276 
" clip-path="url(#pc39a249601)" style="fill: none; stroke-dasharray: 8.325,3.6; stroke-dashoffset: 0; stroke: #377eb8; stroke-width: 2.25"/>
   </g>
   <g id="line2d_34">
    <path d="M 140.603454 661.973999 
L 141.167754 697.996564 
L 142.296353 666.271856 
L 144.553551 679.652805 
L 149.067947 681.219484 
L 158.09674 657.666736 
L 176.154324 648.149933 
L 212.269494 650.191263 
L 284.499833 683.704486 
L 428.960511 675.125919 
" clip-path="url(#pc39a249601)" style="fill: none; stroke: #377eb8; stroke-width: 2.25; stroke-linecap: round"/>
   </g>
   <g id="line2d_35">
    <path d="M 140.603454 671.040229 
L 141.167754 679.646554 
L 142.296353 676.702285 
L 144.553551 676.022838 
L 149.067947 674.663945 
L 158.09674 676.24932 
L 176.154324 680.099518 
L 212.269494 681.005447 
L 284.499833 680.326001 
L 428.960511 678.514143 
" clip-path="url(#pc39a249601)" style="fill: none; stroke-dasharray: 25.6,6.4,4,6.4; stroke-dashoffset: 0; stroke: #e41a1c; stroke-width: 4"/>
   </g>
   <g id="line2d_36">
    <path d="M 140.603454 700.935884 
L 141.167754 708.409798 
L 142.296353 707.277387 
L 144.553551 708.862762 
L 149.067947 705.465529 
L 158.09674 700.48292 
L 176.154324 706.371458 
L 212.269494 700.029955 
L 284.499833 704.5596 
L 428.960511 701.388848 
" clip-path="url(#pc39a249601)" style="fill: none; stroke-dasharray: 14.8,6.4; stroke-dashoffset: 0; stroke: #e41a1c; stroke-width: 4"/>
   </g>
   <g id="patch_13">
    <path d="M 126.185602 796.986094 
L 126.185602 458.386094 
" style="fill: none; stroke: #262626; stroke-width: 1.875; stroke-linejoin: miter; stroke-linecap: square"/>
   </g>
   <g id="patch_14">
    <path d="M 126.185602 796.986094 
L 443.378363 796.986094 
" style="fill: none; stroke: #262626; stroke-width: 1.875; stroke-linejoin: miter; stroke-linecap: square"/>
   </g>
   <g id="text_33">
    <!-- D -->
    <g style="fill: #262626" transform="translate(126.185602 452.386094) scale(0.27 -0.27)">
     <defs>
      <path id="Arial-BoldMT-44" d="M 463 4581 
L 2153 4581 
Q 2725 4581 3025 4494 
Q 3428 4375 3715 4072 
Q 4003 3769 4153 3330 
Q 4303 2891 4303 2247 
Q 4303 1681 4163 1272 
Q 3991 772 3672 463 
Q 3431 228 3022 97 
Q 2716 0 2203 0 
L 463 0 
L 463 4581 
z
M 1388 3806 
L 1388 772 
L 2078 772 
Q 2466 772 2638 816 
Q 2863 872 3011 1006 
Q 3159 1141 3253 1448 
Q 3347 1756 3347 2288 
Q 3347 2819 3253 3103 
Q 3159 3388 2990 3547 
Q 2822 3706 2563 3763 
Q 2369 3806 1803 3806 
L 1388 3806 
z
" transform="scale(0.015625)"/>
     </defs>
     <use xlink:href="#Arial-BoldMT-44"/>
    </g>
   </g>
   <g id="legend_2">
    <g id="patch_15">
     <path d="M 1309.273559 672.183984 
L 1548.501645 672.183984 
Q 1553.451645 672.183984 1553.451645 667.233984 
L 1553.451645 459.651094 
Q 1553.451645 454.701094 1548.501645 454.701094 
L 1309.273559 454.701094 
Q 1304.323559 454.701094 1304.323559 459.651094 
L 1304.323559 667.233984 
Q 1304.323559 672.183984 1309.273559 672.183984 
z
" style="fill: #ffffff; opacity: 0.8"/>
    </g>
    <g id="line2d_37">
     <path d="M 1314.223559 473.65418 
L 1338.973559 473.65418 
L 1363.723559 473.65418 
" style="fill: none; stroke-dasharray: 18.5,8; stroke-dashoffset: 0; stroke: #e41a1c; stroke-width: 5"/>
    </g>
    <g id="text_34">
     <!-- MIGHT View 1 -->
     <g style="fill: #262626" transform="translate(1383.523559 482.31668) scale(0.2475 -0.2475)">
      <defs>
       <path id="ArialMT-48" d="M 513 0 
L 513 4581 
L 1119 4581 
L 1119 2700 
L 3500 2700 
L 3500 4581 
L 4106 4581 
L 4106 0 
L 3500 0 
L 3500 2159 
L 1119 2159 
L 1119 0 
L 513 0 
z
" transform="scale(0.015625)"/>
       <path id="ArialMT-77" d="M 1034 0 
L 19 3319 
L 600 3319 
L 1128 1403 
L 1325 691 
Q 1338 744 1497 1375 
L 2025 3319 
L 2603 3319 
L 3100 1394 
L 3266 759 
L 3456 1400 
L 4025 3319 
L 4572 3319 
L 3534 0 
L 2950 0 
L 2422 1988 
L 2294 2553 
L 1622 0 
L 1034 0 
z
" transform="scale(0.015625)"/>
      </defs>
      <use xlink:href="#ArialMT-4d"/>
      <use xlink:href="#ArialMT-49" x="83.300781"/>
      <use xlink:href="#ArialMT-47" x="111.083984"/>
      <use xlink:href="#ArialMT-48" x="188.867188"/>
      <use xlink:href="#ArialMT-54" x="261.083984"/>
      <use xlink:href="#ArialMT-20" x="320.417969"/>
      <use xlink:href="#ArialMT-56" x="348.201172"/>
      <use xlink:href="#ArialMT-69" x="413.150391"/>
      <use xlink:href="#ArialMT-65" x="435.367188"/>
      <use xlink:href="#ArialMT-77" x="490.982422"/>
      <use xlink:href="#ArialMT-20" x="563.199219"/>
      <use xlink:href="#ArialMT-31" x="590.982422"/>
     </g>
    </g>
    <g id="line2d_38">
     <path d="M 1314.223559 508.663828 
L 1338.973559 508.663828 
L 1363.723559 508.663828 
" style="fill: none; stroke-dasharray: 32,8,5,8; stroke-dashoffset: 0; stroke: #e41a1c; stroke-width: 5"/>
    </g>
    <g id="text_35">
     <!-- MIGHT View 2 -->
     <g style="fill: #262626" transform="translate(1383.523559 517.326328) scale(0.2475 -0.2475)">
      <use xlink:href="#ArialMT-4d"/>
      <use xlink:href="#ArialMT-49" x="83.300781"/>
      <use xlink:href="#ArialMT-47" x="111.083984"/>
      <use xlink:href="#ArialMT-48" x="188.867188"/>
      <use xlink:href="#ArialMT-54" x="261.083984"/>
      <use xlink:href="#ArialMT-20" x="320.417969"/>
      <use xlink:href="#ArialMT-56" x="348.201172"/>
      <use xlink:href="#ArialMT-69" x="413.150391"/>
      <use xlink:href="#ArialMT-65" x="435.367188"/>
      <use xlink:href="#ArialMT-77" x="490.982422"/>
      <use xlink:href="#ArialMT-20" x="563.199219"/>
      <use xlink:href="#ArialMT-32" x="590.982422"/>
     </g>
    </g>
    <g id="line2d_39">
     <path d="M 1314.223559 543.673477 
L 1338.973559 543.673477 
L 1363.723559 543.673477 
" style="fill: none; stroke: #377eb8; stroke-width: 5; stroke-linecap: round"/>
    </g>
    <g id="text_36">
     <!-- KNN -->
     <g style="fill: #262626" transform="translate(1383.523559 552.335977) scale(0.2475 -0.2475)">
      <use xlink:href="#ArialMT-4b"/>
      <use xlink:href="#ArialMT-4e" x="66.699219"/>
      <use xlink:href="#ArialMT-4e" x="138.916016"/>
     </g>
    </g>
    <g id="line2d_40">
     <path d="M 1314.223559 578.683125 
L 1338.973559 578.683125 
L 1363.723559 578.683125 
" style="fill: none; stroke-dasharray: 18.5,8; stroke-dashoffset: 0; stroke: #377eb8; stroke-width: 5"/>
    </g>
    <g id="text_37">
     <!-- KNN View 1 -->
     <g style="fill: #262626" transform="translate(1383.523559 587.345625) scale(0.2475 -0.2475)">
      <use xlink:href="#ArialMT-4b"/>
      <use xlink:href="#ArialMT-4e" x="66.699219"/>
      <use xlink:href="#ArialMT-4e" x="138.916016"/>
      <use xlink:href="#ArialMT-20" x="211.132812"/>
      <use xlink:href="#ArialMT-56" x="238.916016"/>
      <use xlink:href="#ArialMT-69" x="303.865234"/>
      <use xlink:href="#ArialMT-65" x="326.082031"/>
      <use xlink:href="#ArialMT-77" x="381.697266"/>
      <use xlink:href="#ArialMT-20" x="453.914062"/>
      <use xlink:href="#ArialMT-31" x="481.697266"/>
     </g>
    </g>
    <g id="line2d_41">
     <path d="M 1314.223559 613.692773 
L 1338.973559 613.692773 
L 1363.723559 613.692773 
" style="fill: none; stroke-dasharray: 32,8,5,8; stroke-dashoffset: 0; stroke: #377eb8; stroke-width: 5"/>
    </g>
    <g id="text_38">
     <!-- KNN View 2 -->
     <g style="fill: #262626" transform="translate(1383.523559 622.355273) scale(0.2475 -0.2475)">
      <use xlink:href="#ArialMT-4b"/>
      <use xlink:href="#ArialMT-4e" x="66.699219"/>
      <use xlink:href="#ArialMT-4e" x="138.916016"/>
      <use xlink:href="#ArialMT-20" x="211.132812"/>
      <use xlink:href="#ArialMT-56" x="238.916016"/>
      <use xlink:href="#ArialMT-69" x="303.865234"/>
      <use xlink:href="#ArialMT-65" x="326.082031"/>
      <use xlink:href="#ArialMT-77" x="381.697266"/>
      <use xlink:href="#ArialMT-20" x="453.914062"/>
      <use xlink:href="#ArialMT-32" x="481.697266"/>
     </g>
    </g>
    <g id="line2d_42">
     <path d="M 1314.223559 648.702422 
L 1338.973559 648.702422 
L 1363.723559 648.702422 
" style="fill: none; stroke-dasharray: 5,8.25; stroke-dashoffset: 0; stroke: #000000; stroke-width: 5"/>
    </g>
    <g id="text_39">
     <!-- Truth -->
     <g style="fill: #262626" transform="translate(1383.523559 657.364922) scale(0.2475 -0.2475)">
      <use xlink:href="#ArialMT-54"/>
      <use xlink:href="#ArialMT-72" x="57.333984"/>
      <use xlink:href="#ArialMT-75" x="90.634766"/>
      <use xlink:href="#ArialMT-74" x="146.25"/>
      <use xlink:href="#ArialMT-68" x="174.033203"/>
     </g>
    </g>
   </g>
  </g>
  <g id="axes_5">
   <g id="patch_16">
    <path d="M 544.636268 796.986094 
L 861.82903 796.986094 
L 861.82903 458.386094 
L 544.636268 458.386094 
L 544.636268 796.986094 
z
" style="fill: none"/>
   </g>
   <g id="matplotlib.axis_9">
    <g id="xtick_13">
     <g id="line2d_43">
      <g>
       <use xlink:href="#m0adaad07cf" x="559.195196" y="796.986094" style="fill: #262626; stroke: #262626; stroke-width: 1.875"/>
      </g>
     </g>
     <g id="text_40">
      <!-- 4 -->
      <g style="fill: #262626" transform="translate(552.313536 827.20168) scale(0.2475 -0.2475)">
       <use xlink:href="#ArialMT-34"/>
      </g>
     </g>
    </g>
    <g id="xtick_14">
     <g id="line2d_44">
      <g>
       <use xlink:href="#m0adaad07cf" x="703.373724" y="796.986094" style="fill: #262626; stroke: #262626; stroke-width: 1.875"/>
      </g>
     </g>
     <g id="text_41">
      <!-- 2048 -->
      <g style="fill: #262626" transform="translate(675.847083 827.20168) scale(0.2475 -0.2475)">
       <use xlink:href="#ArialMT-32"/>
       <use xlink:href="#ArialMT-30" x="55.615234"/>
       <use xlink:href="#ArialMT-34" x="111.230469"/>
       <use xlink:href="#ArialMT-38" x="166.845703"/>
      </g>
     </g>
    </g>
    <g id="xtick_15">
     <g id="line2d_45">
      <g>
       <use xlink:href="#m0adaad07cf" x="847.834402" y="796.986094" style="fill: #262626; stroke: #262626; stroke-width: 1.875"/>
      </g>
     </g>
     <g id="text_42">
      <!-- 4096 -->
      <g style="fill: #262626" transform="translate(820.307761 827.20168) scale(0.2475 -0.2475)">
       <use xlink:href="#ArialMT-34"/>
       <use xlink:href="#ArialMT-30" x="55.615234"/>
       <use xlink:href="#ArialMT-39" x="111.230469"/>
       <use xlink:href="#ArialMT-36" x="166.845703"/>
      </g>
     </g>
    </g>
    <g id="text_43">
     <!-- # of Variables -->
     <g style="fill: #262626" transform="translate(621.684212 855.446836) scale(0.27 -0.27)">
      <use xlink:href="#ArialMT-23"/>
      <use xlink:href="#ArialMT-20" x="55.615234"/>
      <use xlink:href="#ArialMT-6f" x="83.398438"/>
      <use xlink:href="#ArialMT-66" x="139.013672"/>
      <use xlink:href="#ArialMT-20" x="166.796875"/>
      <use xlink:href="#ArialMT-56" x="194.580078"/>
      <use xlink:href="#ArialMT-61" x="253.904297"/>
      <use xlink:href="#ArialMT-72" x="309.519531"/>
      <use xlink:href="#ArialMT-69" x="342.820312"/>
      <use xlink:href="#ArialMT-61" x="365.037109"/>
      <use xlink:href="#ArialMT-62" x="420.652344"/>
      <use xlink:href="#ArialMT-6c" x="476.267578"/>
      <use xlink:href="#ArialMT-65" x="498.484375"/>
      <use xlink:href="#ArialMT-73" x="554.099609"/>
     </g>
    </g>
   </g>
   <g id="matplotlib.axis_10">
    <g id="ytick_10">
     <g id="line2d_46">
      <g>
       <use xlink:href="#m359035b90c" x="544.636268" y="796.124516" style="fill: #262626; stroke: #262626; stroke-width: 1.875"/>
      </g>
     </g>
     <g id="text_44">
      <!-- 0.00 -->
      <g style="fill: #262626" transform="translate(483.970448 804.982309) scale(0.2475 -0.2475)">
       <use xlink:href="#ArialMT-30"/>
       <use xlink:href="#ArialMT-2e" x="55.615234"/>
       <use xlink:href="#ArialMT-30" x="83.398438"/>
       <use xlink:href="#ArialMT-30" x="139.013672"/>
      </g>
     </g>
    </g>
    <g id="ytick_11">
     <g id="line2d_47">
      <g>
       <use xlink:href="#m359035b90c" x="544.636268" y="554.882786" style="fill: #262626; stroke: #262626; stroke-width: 1.875"/>
      </g>
     </g>
     <g id="text_45">
      <!-- 0.28 -->
      <g style="fill: #262626" transform="translate(483.970448 563.740579) scale(0.2475 -0.2475)">
       <use xlink:href="#ArialMT-30"/>
       <use xlink:href="#ArialMT-2e" x="55.615234"/>
       <use xlink:href="#ArialMT-32" x="83.398438"/>
       <use xlink:href="#ArialMT-38" x="139.013672"/>
      </g>
     </g>
    </g>
   </g>
   <g id="PolyCollection_10">
    <defs>
     <path id="m93b06ff054" d="M 559.054121 -91.660823 
L 559.054121 -84.090099 
L 559.618421 -86.190224 
L 560.74702 -86.503637 
L 563.004218 -84.509867 
L 567.518614 -85.661532 
L 576.547406 -84.929378 
L 594.604991 -85.243819 
L 630.72016 -84.923213 
L 702.950499 -85.243819 
L 847.411177 -84.929378 
L 847.411177 -91.035281 
L 847.411177 -91.035281 
L 702.950499 -91.655942 
L 630.72016 -90.924816 
L 594.604991 -91.243881 
L 576.547406 -91.650547 
L 567.518614 -91.664676 
L 563.004218 -90.825654 
L 560.74702 -91.238229 
L 559.618421 -91.77026 
L 559.054121 -91.660823 
z
" style="stroke: #377eb8; stroke-opacity: 0.2; stroke-width: 1.5"/>
    </defs>
    <g clip-path="url(#p489be68c65)">
     <use xlink:href="#m93b06ff054" x="0" y="868.013086" style="fill: #377eb8; fill-opacity: 0.2; stroke: #377eb8; stroke-opacity: 0.2; stroke-width: 1.5"/>
    </g>
   </g>
   <g id="PolyCollection_11">
    <defs>
     <path id="mb96ca297d3" d="M 559.054121 -273.504101 
L 559.054121 -145.292475 
L 559.618421 -148.771873 
L 560.74702 -171.070441 
L 563.004218 -135.302819 
L 567.518614 -120.796933 
L 576.547406 -125.203726 
L 594.604991 -136.890436 
L 630.72016 -152.240996 
L 702.950499 -145.294273 
L 847.411177 -160.764033 
L 847.411177 -278.244345 
L 847.411177 -278.244345 
L 702.950499 -277.92528 
L 630.72016 -279.806015 
L 594.604991 -273.942109 
L 576.547406 -274.353656 
L 567.518614 -275.502495 
L 563.004218 -277.911922 
L 560.74702 -273.311172 
L 559.618421 -274.447166 
L 559.054121 -273.504101 
z
" style="stroke: #377eb8; stroke-opacity: 0.2; stroke-width: 1.5"/>
    </defs>
    <g clip-path="url(#p489be68c65)">
     <use xlink:href="#mb96ca297d3" x="0" y="868.013086" style="fill: #377eb8; fill-opacity: 0.2; stroke: #377eb8; stroke-opacity: 0.2; stroke-width: 1.5"/>
    </g>
   </g>
   <g id="PolyCollection_12">
    <defs>
     <path id="m6b7355564d" d="M 559.054121 -275.298519 
L 559.054121 -176.738079 
L 559.618421 -135.097816 
L 560.74702 -148.883623 
L 563.004218 -175.592837 
L 567.518614 -151.190549 
L 576.547406 -132.258602 
L 594.604991 -137.411421 
L 630.72016 -141.935359 
L 702.950499 -124.353914 
L 847.411177 -140.796539 
L 847.411177 -275.294666 
L 847.411177 -275.294666 
L 702.950499 -271.928815 
L 630.72016 -272.669446 
L 594.604991 -271.608209 
L 576.547406 -272.769379 
L 567.518614 -272.974895 
L 563.004218 -276.347682 
L 560.74702 -275.284133 
L 559.618421 -267.095575 
L 559.054121 -275.298519 
z
" style="stroke: #377eb8; stroke-opacity: 0.2; stroke-width: 1.5"/>
    </defs>
    <g clip-path="url(#p489be68c65)">
     <use xlink:href="#m6b7355564d" x="0" y="868.013086" style="fill: #377eb8; fill-opacity: 0.2; stroke: #377eb8; stroke-opacity: 0.2; stroke-width: 1.5"/>
    </g>
   </g>
   <g id="PolyCollection_13">
    <defs>
     <path id="m7d01bcdfd3" d="M 559.054121 -294.11922 
L 559.054121 -283.496742 
L 559.618421 -281.393281 
L 560.74702 -282.445012 
L 563.004218 -280.972589 
L 567.518614 -281.288108 
L 576.547406 -282.024319 
L 594.604991 -281.393281 
L 630.72016 -282.445012 
L 702.950499 -282.655358 
L 847.411177 -281.813973 
L 847.411177 -295.801989 
L 847.411177 -295.801989 
L 702.950499 -292.015759 
L 630.72016 -293.277836 
L 594.604991 -293.698528 
L 576.547406 -292.541624 
L 567.518614 -292.75197 
L 563.004218 -292.857143 
L 560.74702 -292.331278 
L 559.618421 -292.75197 
L 559.054121 -294.11922 
z
" style="stroke: #e41a1c; stroke-opacity: 0.2; stroke-width: 1.5"/>
    </defs>
    <g clip-path="url(#p489be68c65)">
     <use xlink:href="#m7d01bcdfd3" x="0" y="868.013086" style="fill: #e41a1c; fill-opacity: 0.2; stroke: #e41a1c; stroke-opacity: 0.2; stroke-width: 1.5"/>
    </g>
   </g>
   <g id="line2d_48">
    <path d="M 544.636268 554.882786 
L 861.82903 554.882786 
" clip-path="url(#p489be68c65)" style="fill: none; stroke-dasharray: 2.25,3.7125; stroke-dashoffset: 0; stroke: #000000; stroke-width: 2.25"/>
   </g>
   <g id="line2d_49">
    <path d="M 559.054121 780.142506 
L 559.618421 779.09437 
L 560.74702 779.291666 
L 563.004218 780.771901 
L 567.518614 779.507973 
L 576.547406 779.720683 
L 594.604991 780.134799 
L 630.72016 780.555081 
L 702.950499 779.926713 
L 847.411177 779.925172 
" clip-path="url(#p489be68c65)" style="fill: none; stroke-dasharray: 14.4,3.6,2.25,3.6; stroke-dashoffset: 0; stroke: #377eb8; stroke-width: 2.25"/>
   </g>
   <g id="line2d_50">
    <path d="M 559.054121 642.569591 
L 559.618421 624.893095 
L 560.74702 617.947657 
L 563.004218 632.255733 
L 567.518614 631.834938 
L 576.547406 648.464326 
L 594.604991 630.16049 
L 630.72016 620.271024 
L 702.950499 618.389518 
L 847.411177 625.526087 
" clip-path="url(#p489be68c65)" style="fill: none; stroke-dasharray: 8.325,3.6; stroke-dashoffset: 0; stroke: #377eb8; stroke-width: 2.25"/>
   </g>
   <g id="line2d_51">
    <path d="M 559.054121 614.383996 
L 559.618421 634.365363 
L 560.74702 637.106442 
L 563.004218 633.314144 
L 567.518614 625.941745 
L 576.547406 631.836479 
L 594.604991 624.481548 
L 630.72016 639.626591 
L 702.950499 632.462791 
L 847.411177 635.005547 
" clip-path="url(#p489be68c65)" style="fill: none; stroke: #377eb8; stroke-width: 2.25; stroke-linecap: round"/>
   </g>
   <g id="line2d_52">
    <path d="M 559.054121 579.257691 
L 559.618421 580.099076 
L 560.74702 580.309422 
L 563.004218 580.730114 
L 567.518614 582.202537 
L 576.547406 580.519768 
L 594.604991 580.099076 
L 630.72016 579.257691 
L 702.950499 580.730114 
L 847.411177 581.150806 
" clip-path="url(#p489be68c65)" style="fill: none; stroke: #e41a1c; stroke-width: 4; stroke-linecap: round"/>
   </g>
   <g id="patch_17">
    <path d="M 544.636268 796.986094 
L 544.636268 458.386094 
" style="fill: none; stroke: #262626; stroke-width: 1.875; stroke-linejoin: miter; stroke-linecap: square"/>
   </g>
   <g id="patch_18">
    <path d="M 544.636268 796.986094 
L 861.82903 796.986094 
" style="fill: none; stroke: #262626; stroke-width: 1.875; stroke-linejoin: miter; stroke-linecap: square"/>
   </g>
   <g id="text_46">
    <!-- E -->
    <g style="fill: #262626" transform="translate(544.636268 452.386094) scale(0.27 -0.27)">
     <defs>
      <path id="Arial-BoldMT-45" d="M 466 0 
L 466 4581 
L 3863 4581 
L 3863 3806 
L 1391 3806 
L 1391 2791 
L 3691 2791 
L 3691 2019 
L 1391 2019 
L 1391 772 
L 3950 772 
L 3950 0 
L 466 0 
z
" transform="scale(0.015625)"/>
     </defs>
     <use xlink:href="#Arial-BoldMT-45"/>
    </g>
   </g>
  </g>
  <g id="axes_6">
   <g id="patch_19">
    <path d="M 963.086935 796.986094 
L 1280.279697 796.986094 
L 1280.279697 458.386094 
L 963.086935 458.386094 
L 963.086935 796.986094 
z
" style="fill: none"/>
   </g>
   <g id="matplotlib.axis_11">
    <g id="xtick_16">
     <g id="line2d_53">
      <g>
       <use xlink:href="#m0adaad07cf" x="977.645863" y="796.986094" style="fill: #262626; stroke: #262626; stroke-width: 1.875"/>
      </g>
     </g>
     <g id="text_47">
      <!-- 4 -->
      <g style="fill: #262626" transform="translate(970.764202 827.20168) scale(0.2475 -0.2475)">
       <use xlink:href="#ArialMT-34"/>
      </g>
     </g>
    </g>
    <g id="xtick_17">
     <g id="line2d_54">
      <g>
       <use xlink:href="#m0adaad07cf" x="1121.824391" y="796.986094" style="fill: #262626; stroke: #262626; stroke-width: 1.875"/>
      </g>
     </g>
     <g id="text_48">
      <!-- 2048 -->
      <g style="fill: #262626" transform="translate(1094.29775 827.20168) scale(0.2475 -0.2475)">
       <use xlink:href="#ArialMT-32"/>
       <use xlink:href="#ArialMT-30" x="55.615234"/>
       <use xlink:href="#ArialMT-34" x="111.230469"/>
       <use xlink:href="#ArialMT-38" x="166.845703"/>
      </g>
     </g>
    </g>
    <g id="xtick_18">
     <g id="line2d_55">
      <g>
       <use xlink:href="#m0adaad07cf" x="1266.285069" y="796.986094" style="fill: #262626; stroke: #262626; stroke-width: 1.875"/>
      </g>
     </g>
     <g id="text_49">
      <!-- 4096 -->
      <g style="fill: #262626" transform="translate(1238.758428 827.20168) scale(0.2475 -0.2475)">
       <use xlink:href="#ArialMT-34"/>
       <use xlink:href="#ArialMT-30" x="55.615234"/>
       <use xlink:href="#ArialMT-39" x="111.230469"/>
       <use xlink:href="#ArialMT-36" x="166.845703"/>
      </g>
     </g>
    </g>
    <g id="text_50">
     <!-- # of Variables -->
     <g style="fill: #262626" transform="translate(1040.134878 855.446836) scale(0.27 -0.27)">
      <use xlink:href="#ArialMT-23"/>
      <use xlink:href="#ArialMT-20" x="55.615234"/>
      <use xlink:href="#ArialMT-6f" x="83.398438"/>
      <use xlink:href="#ArialMT-66" x="139.013672"/>
      <use xlink:href="#ArialMT-20" x="166.796875"/>
      <use xlink:href="#ArialMT-56" x="194.580078"/>
      <use xlink:href="#ArialMT-61" x="253.904297"/>
      <use xlink:href="#ArialMT-72" x="309.519531"/>
      <use xlink:href="#ArialMT-69" x="342.820312"/>
      <use xlink:href="#ArialMT-61" x="365.037109"/>
      <use xlink:href="#ArialMT-62" x="420.652344"/>
      <use xlink:href="#ArialMT-6c" x="476.267578"/>
      <use xlink:href="#ArialMT-65" x="498.484375"/>
      <use xlink:href="#ArialMT-73" x="554.099609"/>
     </g>
    </g>
   </g>
   <g id="matplotlib.axis_12">
    <g id="ytick_12">
     <g id="line2d_56">
      <g>
       <use xlink:href="#m359035b90c" x="963.086935" y="793.633619" style="fill: #262626; stroke: #262626; stroke-width: 1.875"/>
      </g>
     </g>
     <g id="text_51">
      <!-- 0.00 -->
      <g style="fill: #262626" transform="translate(902.421115 802.491411) scale(0.2475 -0.2475)">
       <use xlink:href="#ArialMT-30"/>
       <use xlink:href="#ArialMT-2e" x="55.615234"/>
       <use xlink:href="#ArialMT-30" x="83.398438"/>
       <use xlink:href="#ArialMT-30" x="139.013672"/>
      </g>
     </g>
    </g>
    <g id="ytick_13">
     <g id="line2d_57">
      <g>
       <use xlink:href="#m359035b90c" x="963.086935" y="726.584114" style="fill: #262626; stroke: #262626; stroke-width: 1.875"/>
      </g>
     </g>
     <g id="text_52">
      <!-- 0.02 -->
      <g style="fill: #262626" transform="translate(902.421115 735.441907) scale(0.2475 -0.2475)">
       <use xlink:href="#ArialMT-30"/>
       <use xlink:href="#ArialMT-2e" x="55.615234"/>
       <use xlink:href="#ArialMT-30" x="83.398438"/>
       <use xlink:href="#ArialMT-32" x="139.013672"/>
      </g>
     </g>
    </g>
    <g id="ytick_14">
     <g id="line2d_58">
      <g>
       <use xlink:href="#m359035b90c" x="963.086935" y="458.386094" style="fill: #262626; stroke: #262626; stroke-width: 1.875"/>
      </g>
     </g>
     <g id="text_53">
      <!-- 0.10 -->
      <g style="fill: #262626" transform="translate(902.421115 467.243887) scale(0.2475 -0.2475)">
       <use xlink:href="#ArialMT-30"/>
       <use xlink:href="#ArialMT-2e" x="55.615234"/>
       <use xlink:href="#ArialMT-31" x="83.398438"/>
       <use xlink:href="#ArialMT-30" x="139.013672"/>
      </g>
     </g>
    </g>
   </g>
   <g id="PolyCollection_14">
    <defs>
     <path id="mb89a89fec1" d="M 977.504788 -136.557897 
L 977.504788 -118.567006 
L 978.069087 -116.519815 
L 979.197686 -120.214355 
L 981.454884 -116.941649 
L 985.969281 -118.572004 
L 994.998073 -116.946647 
L 1013.055658 -113.655947 
L 1049.170827 -116.949646 
L 1121.401166 -118.162166 
L 1265.861844 -116.93965 
L 1265.861844 -134.927541 
L 1265.861844 -134.927541 
L 1121.401166 -136.559896 
L 1049.170827 -136.585886 
L 1013.055658 -136.565894 
L 994.998073 -131.680824 
L 985.969281 -135.353373 
L 981.454884 -138.203247 
L 979.197686 -138.243231 
L 978.069087 -133.329173 
L 977.504788 -136.557897 
z
" style="stroke: #377eb8; stroke-opacity: 0.2; stroke-width: 1.5"/>
    </defs>
    <g clip-path="url(#p83ba32f93b)">
     <use xlink:href="#mb89a89fec1" x="0" y="868.013086" style="fill: #377eb8; fill-opacity: 0.2; stroke: #377eb8; stroke-opacity: 0.2; stroke-width: 1.5"/>
    </g>
   </g>
   <g id="PolyCollection_15">
    <defs>
     <path id="m40417a21e9" d="M 977.504788 -141.492947 
L 977.504788 -120.224352 
L 978.069087 -120.207358 
L 979.197686 -121.426876 
L 981.454884 -116.523814 
L 985.969281 -120.22735 
L 994.998073 -120.217354 
L 1013.055658 -120.231349 
L 1049.170827 -118.578002 
L 1121.401166 -119.809515 
L 1265.861844 -118.166165 
L 1265.861844 -135.368367 
L 1265.861844 -135.368367 
L 1121.401166 -137.002721 
L 1049.170827 -136.558897 
L 1013.055658 -139.049912 
L 994.998073 -136.564894 
L 985.969281 -141.493947 
L 981.454884 -136.572891 
L 979.197686 -135.358371 
L 978.069087 -136.587885 
L 977.504788 -141.492947 
z
" style="stroke: #377eb8; stroke-opacity: 0.2; stroke-width: 1.5"/>
    </defs>
    <g clip-path="url(#p83ba32f93b)">
     <use xlink:href="#m40417a21e9" x="0" y="868.013086" style="fill: #377eb8; fill-opacity: 0.2; stroke: #377eb8; stroke-opacity: 0.2; stroke-width: 1.5"/>
    </g>
   </g>
   <g id="PolyCollection_16">
    <defs>
     <path id="me237da25cd" d="M 977.504788 -136.570892 
L 977.504788 -119.795521 
L 978.069087 -120.204359 
L 979.197686 -120.204359 
L 981.454884 -118.159168 
L 985.969281 -118.593996 
L 994.998073 -118.594995 
L 1013.055658 -116.959642 
L 1049.170827 -119.82351 
L 1121.401166 -120.220353 
L 1265.861844 -118.165165 
L 1265.861844 -139.861592 
L 1265.861844 -139.861592 
L 1121.401166 -138.213243 
L 1049.170827 -134.958529 
L 1013.055658 -135.771208 
L 994.998073 -138.632078 
L 985.969281 -139.864591 
L 981.454884 -134.952532 
L 979.197686 -141.496946 
L 978.069087 -137.004721 
L 977.504788 -136.570892 
z
" style="stroke: #377eb8; stroke-opacity: 0.2; stroke-width: 1.5"/>
    </defs>
    <g clip-path="url(#p83ba32f93b)">
     <use xlink:href="#me237da25cd" x="0" y="868.013086" style="fill: #377eb8; fill-opacity: 0.2; stroke: #377eb8; stroke-opacity: 0.2; stroke-width: 1.5"/>
    </g>
   </g>
   <g id="PolyCollection_17">
    <defs>
     <path id="m70ec303073" d="M 977.504788 -141.903688 
L 977.504788 -121.851041 
L 978.069087 -123.487992 
L 979.197686 -121.851041 
L 981.454884 -126.352655 
L 985.969281 -118.577139 
L 994.998073 -123.487992 
L 1013.055658 -125.124942 
L 1049.170827 -123.078754 
L 1121.401166 -121.851041 
L 1265.861844 -121.851041 
L 1265.861844 -145.17759 
L 1265.861844 -145.17759 
L 1121.401166 -144.768352 
L 1049.170827 -144.768352 
L 1013.055658 -149.679204 
L 994.998073 -146.814541 
L 985.969281 -144.768352 
L 981.454884 -150.088442 
L 979.197686 -145.17759 
L 978.069087 -144.768352 
L 977.504788 -141.903688 
z
" style="stroke: #e41a1c; stroke-opacity: 0.2; stroke-width: 1.5"/>
    </defs>
    <g clip-path="url(#p83ba32f93b)">
     <use xlink:href="#m70ec303073" x="0" y="868.013086" style="fill: #e41a1c; fill-opacity: 0.2; stroke: #e41a1c; stroke-opacity: 0.2; stroke-width: 1.5"/>
    </g>
   </g>
   <g id="PolyCollection_18">
    <defs>
     <path id="md151329df4" d="M 977.504788 -145.17759 
L 977.504788 -125.124942 
L 978.069087 -126.352655 
L 979.197686 -123.078754 
L 981.454884 -123.078754 
L 985.969281 -123.487992 
L 994.998073 -124.715705 
L 1013.055658 -121.441803 
L 1049.170827 -129.626557 
L 1121.401166 -126.761893 
L 1265.861844 -121.851041 
L 1265.861844 -141.903688 
L 1265.861844 -141.903688 
L 1121.401166 -148.042254 
L 1049.170827 -146.405303 
L 1013.055658 -141.903688 
L 994.998073 -143.131401 
L 985.969281 -141.49445 
L 981.454884 -146.405303 
L 979.197686 -141.49445 
L 978.069087 -141.903688 
L 977.504788 -145.17759 
z
" style="stroke: #e41a1c; stroke-opacity: 0.2; stroke-width: 1.5"/>
    </defs>
    <g clip-path="url(#p83ba32f93b)">
     <use xlink:href="#md151329df4" x="0" y="868.013086" style="fill: #e41a1c; fill-opacity: 0.2; stroke: #e41a1c; stroke-opacity: 0.2; stroke-width: 1.5"/>
    </g>
   </g>
   <g id="line2d_59">
    <path d="M 963.086935 726.584114 
L 1280.279697 726.584114 
" clip-path="url(#p83ba32f93b)" style="fill: none; stroke-dasharray: 2.25,3.7125; stroke-dashoffset: 0; stroke: #000000; stroke-width: 2.25"/>
   </g>
   <g id="line2d_60">
    <path d="M 977.504788 742.063997 
L 978.069087 744.501034 
L 979.197686 737.979611 
L 981.454884 741.252317 
L 985.969281 742.877675 
L 994.998073 744.539019 
L 1013.055658 742.88967 
L 1049.170827 740.43664 
L 1121.401166 741.24632 
L 1265.861844 741.250318 
" clip-path="url(#p83ba32f93b)" style="fill: none; stroke-dasharray: 14.4,3.6,2.25,3.6; stroke-dashoffset: 0; stroke: #377eb8; stroke-width: 2.25"/>
   </g>
   <g id="line2d_61">
    <path d="M 977.504788 738.797287 
L 978.069087 740.430642 
L 979.197686 741.24432 
L 981.454884 742.063997 
L 985.969281 739.616964 
L 994.998073 739.62496 
L 1013.055658 738.795288 
L 1049.170827 741.258315 
L 1121.401166 737.969614 
L 1265.861844 741.262313 
" clip-path="url(#p83ba32f93b)" style="fill: none; stroke-dasharray: 8.325,3.6; stroke-dashoffset: 0; stroke: #377eb8; stroke-width: 2.25"/>
   </g>
   <g id="line2d_62">
    <path d="M 977.504788 741.262313 
L 978.069087 737.973613 
L 979.197686 736.348255 
L 981.454884 741.24432 
L 985.969281 739.586975 
L 994.998073 737.16993 
L 1013.055658 741.236324 
L 1049.170827 739.620962 
L 1121.401166 738.801286 
L 1265.861844 742.885672 
" clip-path="url(#p83ba32f93b)" style="fill: none; stroke: #377eb8; stroke-width: 2.25; stroke-linecap: round"/>
   </g>
   <g id="line2d_63">
    <path d="M 977.504788 734.70339 
L 978.069087 734.70339 
L 979.197686 733.884914 
L 981.454884 732.247963 
L 985.969281 737.977291 
L 994.998073 734.70339 
L 1013.055658 726.518636 
L 1049.170827 733.066439 
L 1121.401166 736.34034 
L 1265.861844 733.066439 
" clip-path="url(#p83ba32f93b)" style="fill: none; stroke-dasharray: 25.6,6.4,4,6.4; stroke-dashoffset: 0; stroke: #e41a1c; stroke-width: 4"/>
   </g>
   <g id="line2d_64">
    <path d="M 977.504788 734.70339 
L 978.069087 735.521865 
L 979.197686 734.70339 
L 981.454884 733.066439 
L 985.969281 736.34034 
L 994.998073 733.884914 
L 1013.055658 739.614242 
L 1049.170827 731.429488 
L 1121.401166 733.066439 
L 1265.861844 738.795767 
" clip-path="url(#p83ba32f93b)" style="fill: none; stroke: #e41a1c; stroke-width: 4; stroke-linecap: round"/>
   </g>
   <g id="patch_20">
    <path d="M 963.086935 796.986094 
L 963.086935 458.386094 
" style="fill: none; stroke: #262626; stroke-width: 1.875; stroke-linejoin: miter; stroke-linecap: square"/>
   </g>
   <g id="patch_21">
    <path d="M 963.086935 796.986094 
L 1280.279697 796.986094 
" style="fill: none; stroke: #262626; stroke-width: 1.875; stroke-linejoin: miter; stroke-linecap: square"/>
   </g>
   <g id="text_54">
    <!-- Null -->
    <g style="fill: #262626" transform="translate(1098.427456 452.386094) scale(0.27 -0.27)">
     <use xlink:href="#ArialMT-4e"/>
     <use xlink:href="#ArialMT-75" x="72.216797"/>
     <use xlink:href="#ArialMT-6c" x="127.832031"/>
     <use xlink:href="#ArialMT-6c" x="150.048828"/>
    </g>
   </g>
   <g id="text_55">
    <!-- F -->
    <g style="fill: #262626" transform="translate(963.086935 452.386094) scale(0.27 -0.27)">
     <defs>
      <path id="Arial-BoldMT-46" d="M 472 0 
L 472 4581 
L 3613 4581 
L 3613 3806 
L 1397 3806 
L 1397 2722 
L 3309 2722 
L 3309 1947 
L 1397 1947 
L 1397 0 
L 472 0 
z
" transform="scale(0.015625)"/>
     </defs>
     <use xlink:href="#Arial-BoldMT-46"/>
    </g>
   </g>
  </g>
 </g>
 <defs>
  <clipPath id="p780b3838b6">
   <rect x="126.185602" y="32.526094" width="317.192762" height="338.6"/>
  </clipPath>
  <clipPath id="p1ddeda4f9e">
   <rect x="544.636268" y="32.526094" width="317.192762" height="338.6"/>
  </clipPath>
  <clipPath id="p8697e39f94">
   <rect x="963.086935" y="32.526094" width="317.192762" height="338.6"/>
  </clipPath>
  <clipPath id="pc39a249601">
   <rect x="126.185602" y="458.386094" width="317.192762" height="338.6"/>
  </clipPath>
  <clipPath id="p489be68c65">
   <rect x="544.636268" y="458.386094" width="317.192762" height="338.6"/>
  </clipPath>
  <clipPath id="p83ba32f93b">
   <rect x="963.086935" y="458.386094" width="317.192762" height="338.6"/>
  </clipPath>
 </defs>
</svg>
